0
SECTION
2
HEADER
9
$INSUNITS
70
4
9
$ACADVER
1
AC1014
9
$HANDSEED
5
FFFF
0
ENDSEC
0
SECTION
2
TABLES
0
TABLE
2
VPORT
5
8
100
AcDbSymbolTable
0
ENDTAB
0
TABLE
2
LTYPE
5
5
100
AcDbSymbolTable
0
LTYPE
5
14
100
AcDbSymbolTableRecord
100
AcDbLinetypeTableRecord
2
BYBLOCK
70
0
0
LTYPE
5
15
100
AcDbSymbolTableRecord
100
AcDbLinetypeTableRecord
2
BYLAYER
70
0
0
LTYPE
5
16
100
AcDbSymbolTableRecord
100
AcDbLinetypeTableRecord
2
DASHED
70
0
3
Dashed __ __ __ __ __ __ __ __ __ __ __ __ __ _
72
65
73
2
40
0.75
49
0.5
74
0
49
-0.25
74
0
0
ENDTAB
0
TABLE
2
LAYER
5
2
100
AcDbSymbolTable
70
2
0
LAYER
5
50
100
AcDbSymbolTableRecord
100
AcDbLayerTableRecord
2
0
70
0
62
7
6
CONTINUOUS
0
ENDTAB
0
TABLE
2
STYLE
5
3
100
AcDbSymbolTable
70
1
0
STYLE
5
11
100
AcDbSymbolTableRecord
100
AcDbTextStyleTableRecord
2
STANDARD
70
0
0
ENDTAB
0
TABLE
2
VIEW
5
6
100
AcDbSymbolTable
70
0
0
ENDTAB
0
TABLE
2
UCS
5
7
100
AcDbSymbolTable
70
0
0
ENDTAB
0
TABLE
2
APPID
5
9
100
AcDbSymbolTable
70
2
0
APPID
5
12
100
AcDbSymbolTableRecord
100
AcDbRegAppTableRecord
2
ACAD
70
0
0
ENDTAB
0
TABLE
2
DIMSTYLE
5
A
100
AcDbSymbolTable
70
1
0
ENDTAB
0
TABLE
2
BLOCK_RECORD
5
1
100
AcDbSymbolTable
70
1
0
BLOCK_RECORD
5
1F
100
AcDbSymbolTableRecord
100
AcDbBlockTableRecord
2
*MODEL_SPACE
0
BLOCK_RECORD
5
1B
100
AcDbSymbolTableRecord
100
AcDbBlockTableRecord
2
*PAPER_SPACE
0
ENDTAB
0
ENDSEC
0
SECTION
2
BLOCKS
0
BLOCK
5
20
100
AcDbEntity
100
AcDbBlockBegin
2
*MODEL_SPACE
0
ENDBLK
5
21
100
AcDbEntity
100
AcDbBlockEnd
0
BLOCK
5
1C
100
AcDbEntity
100
AcDbBlockBegin
2
*PAPER_SPACE
0
ENDBLK
5
1D
100
AcDbEntity
100
AcDbBlockEnd
0
ENDSEC
0
SECTION
2
ENTITIES
0
ELLIPSE
5
100
100
AcDbEntity
8
0
100
AcDbEllipse
10
-213.29349639840541
20
-21.981519532424379
30
0
11
-11.53340136215601
21
9.6111678017978583
31
0.0
40
0.99912582872308309
41
5.4075573987672945
42
6.9774935090213193
0
LINE
5
101
100
AcDbEntity
8
0
100
AcDbLine
10
-213.30640630878651
20
-6.9761394385978921
30
-8.6660735478224765e-36
11
-110.63533865478811
21
-6.9761394385978504
31
0
0
ELLIPSE
5
102
100
AcDbEntity
8
0
100
AcDbEllipse
10
-110.64824856516918
20
-21.98151953242435
30
0
11
11.533401362155898
21
9.6111678017979862
31
0.0
40
0.99912582872308331
41
5.5888771053378417
42
7.1588132155918691
0
LINE
5
103
100
AcDbEntity
8
0
100
AcDbLine
10
-95.640501841070517
20
-21.968611657857551
30
2.865780353581116e-33
11
-95.640501841070474
21
-75.867618287199491
31
0
0
ELLIPSE
5
104
100
AcDbEntity
8
0
100
AcDbEllipse
10
-110.64824856516914
20
-75.854710412632684
30
0
11
11.533401362156104
21
-9.6111678017977447
31
0.0
40
0.99912582872308331
41
5.407557398767282
42
6.9774935090213104
0
LINE
5
105
100
AcDbEntity
8
0
100
AcDbLine
10
-110.63533865478809
20
-90.860090506459159
30
1.446874117227464e-35
11
-213.30640630878648
21
-90.860090506459201
31
0
0
ELLIPSE
5
106
100
AcDbEntity
8
0
100
AcDbEllipse
10
-213.29349639840541
20
-75.854710412632727
30
0
11
-11.533401362155903
21
-9.6111678017979845
31
0.0
40
0.9991258287230832
41
5.5888771053378417
42
7.1588132155918682
0
LINE
5
107
100
AcDbEntity
8
0
100
AcDbLine
10
-228.30124312250405
20
-75.86761828719952
30
-2.890398616070839e-33
11
-228.30124312250408
21
-21.968611657857586
31
7.2205891339959482e-36
0
CIRCLE
5
108
100
AcDbEntity
8
0
100
AcDbCircle
10
53.692061356856755
20
-69.000000000000384
30
0
40
2.7000000000000046
210
6.3214982752431723e-77
220
-1.504632769052528e-36
230
1
0
CIRCLE
5
109
100
AcDbEntity
8
0
100
AcDbCircle
10
53.69206135685657
20
-25.000000000000004
30
0
40
2.6999999999999957
210
-7.5231638452626401e-37
220
-3.1607491376215861e-77
230
1
0
CIRCLE
5
110
100
AcDbEntity
8
0
100
AcDbCircle
10
88.999999999999986
20
-46.999999999999972
30
0
40
2.6999999999999957
210
-7.5231638452626401e-37
220
-3.1607491376215861e-77
230
1
0
CIRCLE
5
111
100
AcDbEntity
8
0
100
AcDbCircle
10
67
20
-47
30
0
40
2.1499999999999986
210
0
220
-0
230
1
0
LWPOLYLINE
5
112
100
AcDbEntity
8
0
100
AcDbPolyline
90
4
70
1
43
0.0
10
-399.12555954658245
20
206.88730937640292
10
-399.12555954658245
20
-303.7292016244279
10
400.87445064349964
20
-303.72920162442779
10
400.87445064349964
20
206.8873093764029
0
ELLIPSE
5
113
100
AcDbEntity
8
0
100
AcDbEllipse
10
-148.88816921940548
20
-227.50669483219377
30
0
11
-14.951468241099668
21
-1.3592243855544743
31
0.0
40
0.9991258287230832
41
5.4075573987672376
42
6.9774935090212598
0
LINE
5
114
100
AcDbEntity
8
0
100
AcDbLine
10
-159.5077039232068
20
-216.90541749874242
30
-1.7332147095645784e-35
11
-86.908295753401802
21
-144.30600932893731
31
0
0
ELLIPSE
5
115
100
AcDbEntity
8
0
100
AcDbEllipse
10
-76.307018419950396
20
-154.9255440327386
30
0
11
1.3592243855546275
21
14.95146824109966
31
0.0
40
0.99912582872308286
41
5.5888771053379207
42
7.1588132155919508
0
LINE
5
116
100
AcDbEntity
8
0
100
AcDbLine
10
-65.704066186646926
20
-144.30433730816137
30
-2.7775602316598481e-34
11
-27.591713099820552
21
-182.41669039498765
31
0
0
ELLIPSE
5
117
100
AcDbEntity
8
0
100
AcDbEllipse
10
-38.212919824397787
20
-193.01964262829117
30
0
11
14.951468241099663
21
1.3592243855545805
31
0.0
40
0.99912582872308264
41
5.4075573987672243
42
6.9774935090212571
0
LINE
5
118
100
AcDbEntity
8
0
100
AcDbLine
10
-27.593385120596487
20
-203.62091996174257
30
-1.8519988700510324e-33
11
-100.19279329040148
21
-276.22032813154766
31
0
0
ELLIPSE
5
119
100
AcDbEntity
8
0
100
AcDbEllipse
10
-110.79407062385287
20
-265.60079342774634
30
0
11
-1.3592243855545463
21
-14.951468241099661
31
0.0
40
0.9991258287230832
41
5.5888771053379172
42
7.1588132155919428
0
LINE
5
120
100
AcDbEntity
8
0
100
AcDbLine
10
-121.39702285715634
20
-276.22200015232357
30
6.075913006755889e-34
11
-159.50937594398275
21
-238.1096470654972
31
1.4441178267990846e-35
0
ELLIPSE
5
121
100
AcDbEntity
8
0
100
AcDbEllipse
10
247.50669483219377
20
-262.88816921940554
30
0
11
1.3592243855547779
21
-14.951468241099645
31
0.0
40
0.99912582872308286
41
5.4075573987672199
42
6.9774935090212438
0
LINE
5
122
100
AcDbEntity
8
0
100
AcDbLine
10
236.90541749874242
20
-273.5077039232068
30
0
11
164.30600932893728
21
-200.9082957534018
31
0
0
ELLIPSE
5
123
100
AcDbEntity
8
0
100
AcDbEllipse
10
174.9255440327386
20
-190.30701841995042
30
0
11
-14.951468241099645
21
1.3592243855547814
31
0.0
40
0.99912582872308286
41
5.5888771053379305
42
7.158813215591957
0
LINE
5
124
100
AcDbEntity
8
0
100
AcDbLine
10
164.30433730816139
20
-179.70406618664697
30
-5.381522948840992e-34
11
202.41669039498765
21
-141.59171309982057
31
0
0
ELLIPSE
5
125
100
AcDbEntity
8
0
100
AcDbEllipse
10
213.01964262829117
20
-152.21291982439777
30
0
11
-1.3592243855547312
21
14.951468241099652
31
0.0
40
0.99912582872308309
41
5.4075573987672172
42
6.9774935090212473
0
LINE
5
126
100
AcDbEntity
8
0
100
AcDbLine
10
223.62091996174254
20
-141.59338512059651
30
3.9645867927583506e-34
11
296.22032813154766
21
-214.19279329040151
31
0
0
ELLIPSE
5
127
100
AcDbEntity
8
0
100
AcDbEllipse
10
285.60079342774634
20
-224.79407062385292
30
0
11
14.951468241099647
21
-1.3592243855546999
31
0.0
40
0.9991258287230832
41
5.5888771053379287
42
7.1588132155919535
0
LINE
5
128
100
AcDbEntity
8
0
100
AcDbLine
10
296.22200015232357
20
-235.39702285715637
30
-1.1598448903820635e-35
11
258.1096470654972
21
-273.50937594398272
31
0
0
ELLIPSE
5
129
100
AcDbEntity
8
0
100
AcDbEllipse
10
282.88816921940548
20
133.50669483219374
30
0
11
14.951468241099668
21
1.3592243855544721
31
0.0
40
0.99912582872308331
41
5.407557398767235
42
6.9774935090212598
0
LINE
5
130
100
AcDbEntity
8
0
100
AcDbLine
10
293.5077039232068
20
122.90541749874237
30
-1.7332147095645811e-35
11
220.9082957534018
21
50.306009328937272
31
0
0
ELLIPSE
5
131
100
AcDbEntity
8
0
100
AcDbEllipse
10
210.3070184199504
20
60.925544032738557
30
0
11
-1.3592243855546311
21
-14.95146824109966
31
0.0
40
0.99912582872308286
41
5.5888771053379207
42
7.1588132155919508
0
LINE
5
132
100
AcDbEntity
8
0
100
AcDbLine
10
199.70406618664694
20
50.304337308161323
30
2.7053543403198924e-34
11
161.59171309982054
21
88.416690394987668
31
0
0
ELLIPSE
5
133
100
AcDbEntity
8
0
100
AcDbEllipse
10
172.21291982439777
20
99.019642628291123
30
0
11
-14.951468241099663
21
-1.359224385554578
31
0.0
40
0.9991258287230832
41
5.4075573987672243
42
6.9774935090212553
0
LINE
5
134
100
AcDbEntity
8
0
100
AcDbLine
10
161.59338512059648
20
109.62091996174252
30
1.8375301288787543e-33
11
234.19279329040151
21
182.22032813154757
31
0
0
ELLIPSE
5
135
100
AcDbEntity
8
0
100
AcDbEllipse
10
244.79407062385292
20
171.60079342774634
30
0
11
1.3592243855545485
21
14.95146824109966
31
0.0
40
0.9991258287230832
41
5.5888771053379109
42
7.1588132155919464
0
LINE
5
136
100
AcDbEntity
8
0
100
AcDbLine
10
255.39702285715637
20
182.22200015232357
30
-5.800923869138362e-34
11
293.50937594398272
21
144.10964706549723
31
1.4441178267990897e-35
0
ELLIPSE
5
137
100
AcDbEntity
8
0
100
AcDbEllipse
10
-113.50669483219374
20
168.88816921940554
30
0
11
-1.3592243855546235
21
14.95146824109966
31
0.0
40
0.99912582872308286
41
5.4075573987672234
42
6.9774935090212526
0
LINE
5
138
100
AcDbEntity
8
0
100
AcDbLine
10
-102.90541749874234
20
179.5077039232068
30
1.4468741172273608e-35
11
-30.306009328937265
21
106.90829575340182
31
0
0
ELLIPSE
5
139
100
AcDbEntity
8
0
100
AcDbEllipse
10
-40.92554403273855
20
96.30701841995041
30
0
11
14.95146824109966
21
-1.3592243855546318
31
0.0
40
0.99912582872308286
41
5.5888771053379207
42
7.1588132155919508
0
LINE
5
140
100
AcDbEntity
8
0
100
AcDbLine
10
-30.304337308161301
20
85.704066186646941
30
-4.4559223510067191e-34
11
-68.416690394987668
21
47.591713099820574
31
0
0
ELLIPSE
5
141
100
AcDbEntity
8
0
100
AcDbEllipse
10
-79.019642628291137
20
58.212919824397801
30
0
11
1.3592243855545783
21
-14.951468241099663
31
0.0
40
0.99912582872308353
41
5.4075573987672261
42
6.9774935090212571
0
LINE
5
142
100
AcDbEntity
8
0
100
AcDbLine
10
-89.62091996174253
20
47.593385120596508
30
-8.04446838022874e-34
11
-162.2203281315476
21
120.19279329040154
31
0
0
ELLIPSE
5
143
100
AcDbEntity
8
0
100
AcDbEllipse
10
-151.60079342774631
20
130.79407062385292
30
0
11
-14.951468241099676
21
1.3592243855543984
31
0.0
40
0.9991258287230832
41
5.5888771053379003
42
7.158813215591934
0
LINE
5
144
100
AcDbEntity
8
0
100
AcDbLine
10
-162.22200015232349
20
141.39702285715643
30
2.034009492581116e-33
11
-124.10964706549721
21
179.50937594398277
31
1.7359751447874029e-35
0
ELLIPSE
5
145
100
AcDbEntity
8
0
100
AcDbEllipse
10
13.759261110853501
20
173.90746792189162
30
0
11
-11.533401362155971
21
9.6111678017979028
31
0.0
40
0.99912582872308353
41
5.40755739876729
42
6.9774935090213193
0
LINE
5
146
100
AcDbEntity
8
0
100
AcDbLine
10
13.7463512004725
20
188.91284801571811
30
-1.4468741172274808e-35
11
116.41741885447087
21
188.91284801571774
31
0
0
ELLIPSE
5
147
100
AcDbEntity
8
0
100
AcDbEllipse
10
116.40450894408974
20
173.90746792189123
30
0
11
11.533401362155944
21
9.6111678017979401
31
0.0
40
0.99912582872308309
41
5.5888771053378434
42
7.1588132155918691
0
LINE
5
148
100
AcDbEntity
8
0
100
AcDbLine
10
131.41225566818841
20
173.92037579645802
30
-1.4441178267992038e-35
11
131.41225566818821
21
120.02136916711606
31
0
0
ELLIPSE
5
149
100
AcDbEntity
8
0
100
AcDbEllipse
10
116.40450894408956
20
120.0342770416829
30
0
11
11.533401362155963
21
-9.6111678017979116
31
0.0
40
0.99912582872308353
41
5.4075573987672936
42
6.9774935090213202
0
LINE
5
150
100
AcDbEntity
8
0
100
AcDbLine
10
116.41741885447058
20
105.0288969478564
30
0
11
13.74635120047218
21
105.02889694785681
31
0
0
ELLIPSE
5
151
100
AcDbEntity
8
0
100
AcDbEllipse
10
13.759261110853293
20
120.0342770416833
30
0
11
-11.533401362155944
21
-9.6111678017979312
31
0.0
40
0.9991258287230832
41
5.5888771053378425
42
7.1588132155918709
0
LINE
5
152
100
AcDbEntity
8
0
100
AcDbLine
10
-1.2484856132453559
20
120.02136916711655
30
-4.339937861968228e-36
11
-1.2484856132451538
21
173.92037579645847
31
-1.7359751447873059e-35
0
ELLIPSE
5
153
100
AcDbEntity
8
0
100
AcDbEllipse
10
347.29349639840541
20
-72.018480467575586
30
0
11
11.53340136215601
21
-9.6111678017978583
31
0.0
40
0.99912582872308309
41
5.40755739876729
42
6.9774935090213193
0
LINE
5
154
100
AcDbEntity
8
0
100
AcDbLine
10
347.30640630878645
20
-87.02386056140206
30
8.6660735478225032e-36
11
244.63533865478811
21
-87.023860561402117
31
0
0
ELLIPSE
5
155
100
AcDbEntity
8
0
100
AcDbEllipse
10
244.64824856516915
20
-72.018480467575614
30
0
11
-11.533401362155898
21
-9.6111678017979862
31
0.0
40
0.99912582872308331
41
5.5888771053378443
42
7.1588132155918718
0
LINE
5
156
100
AcDbEntity
8
0
100
AcDbLine
10
229.64050184107052
20
-72.031388342142435
30
-2.8657803535811181e-33
11
229.64050184107043
21
-18.132381712800488
31
0
0
ELLIPSE
5
157
100
AcDbEntity
8
0
100
AcDbEllipse
10
244.64824856516913
20
-18.145289587367277
30
0
11
-11.533401362156104
21
9.6111678017977447
31
0.0
40
0.99912582872308331
41
5.4075573987672829
42
6.9774935090213104
0
LINE
5
158
100
AcDbEntity
8
0
100
AcDbLine
10
244.63533865478806
20
-3.1399094935407881
30
-1.4468741172274653e-35
11
347.30640630878639
21
-3.1399094935407397
31
0
0
ELLIPSE
5
159
100
AcDbEntity
8
0
100
AcDbEllipse
10
347.29349639840535
20
-18.145289587367227
30
0
11
11.533401362155903
21
9.6111678017979845
31
0.0
40
0.9991258287230832
41
5.5888771053378425
42
7.1588132155918709
0
LINE
5
160
100
AcDbEntity
8
0
100
AcDbLine
10
362.30124312250393
20
-18.132381712800417
30
2.890398616070841e-33
11
362.3012431225041
21
-72.03138834214235
31
-7.2205891339959629e-36
0
ELLIPSE
5
161
100
AcDbEntity
8
0
100
AcDbEllipse
10
17.595491055911758
20
-214.03427704168007
30
0
11
-11.53340136215532
21
9.6111678017986932
31
0.0
40
0.99912582872308331
41
5.4075573987673016
42
6.977493509021329
0
LINE
5
162
100
AcDbEntity
8
0
100
AcDbLine
10
17.582581145531631
20
-199.02889694785358
30
1.6870400495317205e-33
11
120.25364879953
21
-199.02889694785989
31
0
0
ELLIPSE
5
163
100
AcDbEntity
8
0
100
AcDbEllipse
10
120.24073888914801
20
-214.03427704168644
30
0
11
11.533401362156408
21
9.6111678017973894
31
0.0
40
0.99912582872308309
41
5.5888771053378345
42
7.158813215591862
0
LINE
5
164
100
AcDbEntity
8
0
100
AcDbLine
10
135.24848561324666
20
-214.02136916712053
30
-4.3399378619681986e-36
11
135.24848561324336
21
-267.92037579646245
31
0
0
ELLIPSE
5
165
100
AcDbEntity
8
0
100
AcDbEllipse
10
120.24073888914469
20
-267.90746792189475
30
0
11
11.533401362155312
21
-9.6111678017987021
31
0.0
40
0.99912582872308275
41
5.4075573987673016
42
6.9774935090213317
0
LINE
5
166
100
AcDbEntity
8
0
100
AcDbLine
10
120.2536487995248
20
-282.91284801572124
30
-8.666073547822423e-36
11
17.582581145526444
21
-282.91284801571487
31
0
0
ELLIPSE
5
167
100
AcDbEntity
8
0
100
AcDbEllipse
10
17.595491055908422
20
-267.90746792188838
30
0
11
-11.533401362155971
21
-9.6111678017979028
31
0.0
40
0.99912582872308309
41
5.5888771053377866
42
7.1588132155918185
0
LINE
5
168
100
AcDbEntity
8
0
100
AcDbLine
10
2.5877443318097706
20
-267.92037579645427
30
2.216286882783571e-33
11
2.5877443318130968
21
-214.02136916711231
31
2.0065105788192633e-33
0
ENDSEC
0
SECTION
2
OBJECTS
0
DICTIONARY
5
C
100
AcDbDictionary
3
ACAD_GROUP
350
D
3
ACAD_MLINESTYLE
350
17
0
DICTIONARY
5
D
100
AcDbDictionary
0
DICTIONARY
5
1A
330
C
100
AcDbDictionary
0
DICTIONARY
5
17
100
AcDbDictionary
0
ENDSEC
0
EOF
