0
SECTION
2
HEADER
9
$INSUNITS
70
4
9
$ACADVER
1
AC1014
9
$HANDSEED
5
FFFF
0
ENDSEC
0
SECTION
2
TABLES
0
TABLE
2
VPORT
5
8
100
AcDbSymbolTable
0
ENDTAB
0
TABLE
2
LTYPE
5
5
100
AcDbSymbolTable
0
LTYPE
5
14
100
AcDbSymbolTableRecord
100
AcDbLinetypeTableRecord
2
BYBLOCK
70
0
0
LTYPE
5
15
100
AcDbSymbolTableRecord
100
AcDbLinetypeTableRecord
2
BYLAYER
70
0
0
LTYPE
5
16
100
AcDbSymbolTableRecord
100
AcDbLinetypeTableRecord
2
DASHED
70
0
3
Dashed __ __ __ __ __ __ __ __ __ __ __ __ __ _
72
65
73
2
40
0.75
49
0.5
74
0
49
-0.25
74
0
0
ENDTAB
0
TABLE
2
LAYER
5
2
100
AcDbSymbolTable
70
3
0
LAYER
5
50
100
AcDbSymbolTableRecord
100
AcDbLayerTableRecord
2
1
70
0
62
7
6
DASHED
0
LAYER
5
51
100
AcDbSymbolTableRecord
100
AcDbLayerTableRecord
2
0
70
0
62
7
6
CONTINUOUS
0
ENDTAB
0
TABLE
2
STYLE
5
3
100
AcDbSymbolTable
70
1
0
STYLE
5
11
100
AcDbSymbolTableRecord
100
AcDbTextStyleTableRecord
2
STANDARD
70
0
0
ENDTAB
0
TABLE
2
VIEW
5
6
100
AcDbSymbolTable
70
0
0
ENDTAB
0
TABLE
2
UCS
5
7
100
AcDbSymbolTable
70
0
0
ENDTAB
0
TABLE
2
APPID
5
9
100
AcDbSymbolTable
70
2
0
APPID
5
12
100
AcDbSymbolTableRecord
100
AcDbRegAppTableRecord
2
ACAD
70
0
0
ENDTAB
0
TABLE
2
DIMSTYLE
5
A
100
AcDbSymbolTable
70
1
0
ENDTAB
0
TABLE
2
BLOCK_RECORD
5
1
100
AcDbSymbolTable
70
1
0
BLOCK_RECORD
5
1F
100
AcDbSymbolTableRecord
100
AcDbBlockTableRecord
2
*MODEL_SPACE
0
BLOCK_RECORD
5
1B
100
AcDbSymbolTableRecord
100
AcDbBlockTableRecord
2
*PAPER_SPACE
0
ENDTAB
0
ENDSEC
0
SECTION
2
BLOCKS
0
BLOCK
5
20
100
AcDbEntity
100
AcDbBlockBegin
2
*MODEL_SPACE
0
ENDBLK
5
21
100
AcDbEntity
100
AcDbBlockEnd
0
BLOCK
5
1C
100
AcDbEntity
100
AcDbBlockBegin
2
*PAPER_SPACE
0
ENDBLK
5
1D
100
AcDbEntity
100
AcDbBlockEnd
0
ENDSEC
0
SECTION
2
ENTITIES
0
CIRCLE
5
100
100
AcDbEntity
8
0
100
AcDbCircle
10
177.99593037254527
20
-131.00406962745379
30
0
40
1.6000000000000014
210
0
220
-0
230
1
0
ELLIPSE
5
101
100
AcDbEntity
8
0
100
AcDbEllipse
10
200.67923704765673
20
-90.155182047671971
30
0
11
1.6001194848039426
21
-6.7400105678919187e-16
31
0.0
40
0.99985066072382045
41
0
42
6.2831853071795862
0
CIRCLE
5
102
100
AcDbEntity
8
0
100
AcDbCircle
10
-114.13306962745501
20
-131.00406962745188
30
0
40
1.6000000000000014
210
0
220
-0
230
1
0
LWPOLYLINE
5
103
100
AcDbEntity
8
0
100
AcDbPolyline
90
6
70
1
43
0.0
10
-0.1600686706301957
20
-166.67458793826853
10
-0.1600686706301957
20
-145.51035055637826
10
0.72099901819878021
20
-145.5077815234323
10
0.71632543527013759
20
-143.90494380351214
10
55.113460334116517
20
-143.90494380351214
10
55.113460334116517
20
-166.67458793826853
0
CIRCLE
5
104
100
AcDbEntity
8
0
100
AcDbCircle
10
-129.13306962745432
20
-77.5335691900993
30
0
40
1.6000000000000014
210
0
220
-0
230
1
0
CIRCLE
5
105
100
AcDbEntity
8
0
100
AcDbCircle
10
-66.999999999999972
20
-73.085453088378912
30
0
40
2.0000000000000018
210
0
220
0
230
1
0
CIRCLE
5
106
100
AcDbEntity
8
0
100
AcDbCircle
10
-47.499998092651268
20
-26.515511392749428
30
0
40
2.0999999999999996
210
0
220
0
230
1
0
CIRCLE
5
107
100
AcDbEntity
8
0
100
AcDbCircle
10
-66.999999999999972
20
-20.914546911621095
30
0
40
2.0000000000000018
210
0
220
0
230
1
0
CIRCLE
5
108
100
AcDbEntity
8
0
100
AcDbCircle
10
-47.499998092651268
20
-67.515511392749389
30
0
40
2.0999999999999996
210
0
220
0
230
1
0
CIRCLE
5
109
100
AcDbEntity
8
0
100
AcDbCircle
10
-66.999999999999929
20
-105.48545308837895
30
0
40
2.0000000000000018
210
0
220
0
230
1
0
LWPOLYLINE
5
110
100
AcDbEntity
8
0
100
AcDbPolyline
90
8
70
1
43
0.0
10
-125.82842331004943
20
-24.015511392750525
10
-92.171569060557118
20
-24.015511392750319
10
-85.999996185303274
20
-30.187084268004078
10
-85.999996185303075
20
-63.84393851749639
10
-92.171569060556834
20
-70.015511392750213
10
-125.82842331004917
20
-70.015511392750412
10
-131.99999618530299
20
-63.843938517496674
10
-131.99999618530319
20
-30.187084268004341
0
CIRCLE
5
111
100
AcDbEntity
8
0
100
AcDbCircle
10
-66.999999999999929
20
11.485453088378929
30
0
40
2.0000000000000018
210
0
220
0
230
1
0
CIRCLE
5
112
100
AcDbEntity
8
0
100
AcDbCircle
10
-67
20
-47
30
0
40
2.1499999999999986
210
0
220
0
230
1
0
LWPOLYLINE
5
113
100
AcDbEntity
8
0
100
AcDbPolyline
90
4
70
1
43
0.0
10
114.99999999999997
20
-78.999999999999616
10
114.99999999999997
20
-15.00000000000008
10
226.50424860221005
20
-14.9999999999996
10
226.50424860221005
20
-78.999999999999119
0
LWPOLYLINE
5
114
100
AcDbEntity
8
0
100
AcDbPolyline
90
4
70
1
43
0.0
10
399.12556014930499
20
-371.82125381661319
10
399.12556014930499
20
27.685454479992586
10
-400.8748355706756
20
27.685454479992586
10
-400.8748355706756
20
-371.82125381661319
0
CIRCLE
5
115
100
AcDbEntity
8
0
100
AcDbCircle
10
177.99593037254527
20
-131.00406962745379
30
0
40
1.6000000000000014
210
0
220
0
230
1
0
ELLIPSE
5
116
100
AcDbEntity
8
0
100
AcDbEllipse
10
200.67923704765673
20
-90.155182047671971
30
0
11
1.6001194848039426
21
-6.7400105678919187e-16
31
0.0
40
0.99985066072382045
41
0
42
6.2831853071795862
0
CIRCLE
5
117
100
AcDbEntity
8
0
100
AcDbCircle
10
-114.13306962745501
20
-131.00406962745188
30
0
40
1.6000000000000014
210
0
220
0
230
1
0
LWPOLYLINE
5
118
100
AcDbEntity
8
0
100
AcDbPolyline
90
6
70
1
43
0.0
10
-0.1600686706301957
20
-145.51035055637826
10
-0.1600686706301957
20
-166.67458793826853
10
55.113460334116517
20
-166.67458793826853
10
55.113460334116517
20
-143.90494380351214
10
0.71632543527013759
20
-143.90494380351214
10
0.72099901819878021
20
-145.5077815234323
0
CIRCLE
5
119
100
AcDbEntity
8
0
100
AcDbCircle
10
-129.13306962745432
20
-77.5335691900993
30
0
40
1.6000000000000014
210
0
220
0
230
1
0
CIRCLE
5
120
100
AcDbEntity
8
0
100
AcDbCircle
10
-66.999999999999972
20
-73.085453088378912
30
0
40
2.0000000000000018
210
0
220
0
230
1
0
CIRCLE
5
121
100
AcDbEntity
8
0
100
AcDbCircle
10
-47.499998092651268
20
-26.515511392749428
30
0
40
2.0999999999999996
210
0
220
0
230
1
0
CIRCLE
5
122
100
AcDbEntity
8
0
100
AcDbCircle
10
-66.999999999999972
20
-20.914546911621095
30
0
40
2.0000000000000018
210
0
220
0
230
1
0
CIRCLE
5
123
100
AcDbEntity
8
0
100
AcDbCircle
10
-47.499998092651268
20
-67.515511392749389
30
0
40
2.0999999999999996
210
0
220
0
230
1
0
CIRCLE
5
124
100
AcDbEntity
8
0
100
AcDbCircle
10
-66.999999999999929
20
-105.48545308837895
30
0
40
2.0000000000000018
210
0
220
0
230
1
0
LWPOLYLINE
5
125
100
AcDbEntity
8
0
100
AcDbPolyline
90
8
70
1
43
0.0
10
-92.171569060557118
20
-24.015511392750323
10
-125.82842331004943
20
-24.015511392750529
10
-131.99999618530319
20
-30.187084268004334
10
-131.99999618530299
20
-63.843938517496674
10
-125.82842331004919
20
-70.015511392750412
10
-92.171569060556834
20
-70.015511392750213
10
-85.999996185303075
20
-63.84393851749639
10
-85.999996185303274
20
-30.187084268004078
0
CIRCLE
5
126
100
AcDbEntity
8
0
100
AcDbCircle
10
-66.999999999999929
20
11.485453088378929
30
0
40
2.0000000000000018
210
0
220
0
230
1
0
CIRCLE
5
127
100
AcDbEntity
8
0
100
AcDbCircle
10
-67
20
-47
30
0
40
2.1499999999999986
210
0
220
0
230
1
0
LWPOLYLINE
5
128
100
AcDbEntity
8
0
100
AcDbPolyline
90
4
70
1
43
0.0
10
114.99999999999997
20
-15.00000000000008
10
114.99999999999997
20
-78.999999999999616
10
226.50424860221005
20
-78.999999999999119
10
226.50424860221005
20
-15.00000000000008
0
LWPOLYLINE
5
129
100
AcDbEntity
8
0
100
AcDbPolyline
90
4
70
1
43
0.0
10
-400.8748355706756
20
-371.82125381661319
10
399.12556014930499
20
-371.82125381661319
10
399.12556014930499
20
27.685454479992586
10
-400.8748355706756
20
27.685454479992622
0
ENDSEC
0
SECTION
2
OBJECTS
0
DICTIONARY
5
C
100
AcDbDictionary
3
ACAD_GROUP
350
D
3
ACAD_MLINESTYLE
350
17
0
DICTIONARY
5
D
100
AcDbDictionary
0
DICTIONARY
5
1A
330
C
100
AcDbDictionary
0
DICTIONARY
5
17
100
AcDbDictionary
0
ENDSEC
0
EOF
