0
SECTION
2
HEADER
9
$INSUNITS
70
4
9
$ACADVER
1
AC1014
9
$HANDSEED
5
FFFF
0
ENDSEC
0
SECTION
2
TABLES
0
TABLE
2
VPORT
5
8
100
AcDbSymbolTable
0
ENDTAB
0
TABLE
2
LTYPE
5
5
100
AcDbSymbolTable
0
LTYPE
5
14
100
AcDbSymbolTableRecord
100
AcDbLinetypeTableRecord
2
BYBLOCK
70
0
0
LTYPE
5
15
100
AcDbSymbolTableRecord
100
AcDbLinetypeTableRecord
2
BYLAYER
70
0
0
LTYPE
5
16
100
AcDbSymbolTableRecord
100
AcDbLinetypeTableRecord
2
DASHED
70
0
3
Dashed __ __ __ __ __ __ __ __ __ __ __ __ __ _
72
65
73
2
40
0.75
49
0.5
74
0
49
-0.25
74
0
0
ENDTAB
0
TABLE
2
LAYER
5
2
100
AcDbSymbolTable
70
2
0
LAYER
5
50
100
AcDbSymbolTableRecord
100
AcDbLayerTableRecord
2
0
70
0
62
7
6
CONTINUOUS
0
ENDTAB
0
TABLE
2
STYLE
5
3
100
AcDbSymbolTable
70
1
0
STYLE
5
11
100
AcDbSymbolTableRecord
100
AcDbTextStyleTableRecord
2
STANDARD
70
0
0
ENDTAB
0
TABLE
2
VIEW
5
6
100
AcDbSymbolTable
70
0
0
ENDTAB
0
TABLE
2
UCS
5
7
100
AcDbSymbolTable
70
0
0
ENDTAB
0
TABLE
2
APPID
5
9
100
AcDbSymbolTable
70
2
0
APPID
5
12
100
AcDbSymbolTableRecord
100
AcDbRegAppTableRecord
2
ACAD
70
0
0
ENDTAB
0
TABLE
2
DIMSTYLE
5
A
100
AcDbSymbolTable
70
1
0
ENDTAB
0
TABLE
2
BLOCK_RECORD
5
1
100
AcDbSymbolTable
70
1
0
BLOCK_RECORD
5
1F
100
AcDbSymbolTableRecord
100
AcDbBlockTableRecord
2
*MODEL_SPACE
0
BLOCK_RECORD
5
1B
100
AcDbSymbolTableRecord
100
AcDbBlockTableRecord
2
*PAPER_SPACE
0
ENDTAB
0
ENDSEC
0
SECTION
2
BLOCKS
0
BLOCK
5
20
100
AcDbEntity
100
AcDbBlockBegin
2
*MODEL_SPACE
0
ENDBLK
5
21
100
AcDbEntity
100
AcDbBlockEnd
0
BLOCK
5
1C
100
AcDbEntity
100
AcDbBlockBegin
2
*PAPER_SPACE
0
ENDBLK
5
1D
100
AcDbEntity
100
AcDbBlockEnd
0
ENDSEC
0
SECTION
2
ENTITIES
0
SPLINE
5
100
100
AcDbEntity
8
0
100
AcDbSpline
70
0
71
2
72
6
73
3
74
0
42
0.000000001
43
0.0000000001
44
0.0000000001
40
-1
40
-1
40
-1
40
0
40
0
40
0
10
-221.53846800327301
20
187.97801971435547
30
0
10
-212.33791410923004
20
187.89011001586914
30
0
10
-211.30014479160309
20
187.45055198669434
30
0
0
SPLINE
5
101
100
AcDbEntity
8
0
100
AcDbSpline
70
0
71
2
72
6
73
3
74
0
42
0.000000001
43
0.0000000001
44
0.0000000001
40
-1
40
-1
40
-1
40
0
40
0
40
0
10
-211.30014479160309
20
187.45055198669434
30
0
10
-209.03572142124176
20
186.48351669311523
30
0
10
-209.90179121494293
20
183.93406867980957
30
0
0
SPLINE
5
102
100
AcDbEntity
8
0
100
AcDbSpline
70
0
71
2
72
6
73
3
74
0
42
0.000000001
43
0.0000000001
44
0.0000000001
40
-1
40
-1
40
-1
40
0
40
0
40
0
10
-209.90179121494293
20
183.93406867980957
30
0
10
-210.8578497171402
20
181.12088203430176
30
0
10
-214.19059813022614
20
180.10989189147949
30
0
0
SPLINE
5
103
100
AcDbEntity
8
0
100
AcDbSpline
70
0
71
2
72
6
73
3
74
0
42
0.000000001
43
0.0000000001
44
0.0000000001
40
-1
40
-1
40
-1
40
0
40
0
40
0
10
-214.19059813022614
20
180.10989189147949
30
0
10
-217.5233656167984
20
179.09890174865723
30
0
10
-225.87500631809235
20
179.09890174865723
30
0
0
SPLINE
5
104
100
AcDbEntity
8
0
100
AcDbSpline
70
0
71
2
72
6
73
3
74
0
42
0.000000001
43
0.0000000001
44
0.0000000001
40
-1
40
-1
40
-1
40
0
40
0
40
0
10
-225.87500631809235
20
179.09890174865723
30
0
10
-232.29259550571442
20
179.09890174865723
30
0
10
-234.26443159580231
20
180.02198219299316
30
0
0
SPLINE
5
105
100
AcDbEntity
8
0
100
AcDbSpline
70
0
71
2
72
6
73
3
74
0
42
0.000000001
43
0.0000000001
44
0.0000000001
40
-1
40
-1
40
-1
40
0
40
0
40
0
10
-234.26443159580231
20
180.02198219299316
30
0
10
-236.23627722263336
20
180.94505310058594
30
0
10
-235.35509169101715
20
183.53846549987793
30
0
0
SPLINE
5
106
100
AcDbEntity
8
0
100
AcDbSpline
70
0
71
2
72
6
73
3
74
0
42
0.000000001
43
0.0000000001
44
0.0000000001
40
-1
40
-1
40
-1
40
0
40
0
40
0
10
-235.35509169101715
20
183.53846549987793
30
0
10
-234.56319868564606
20
185.86812973022461
30
0
10
-231.84547483921051
20
187.01099395751953
30
0
0
SPLINE
5
107
100
AcDbEntity
8
0
100
AcDbSpline
70
0
71
2
72
6
73
3
74
0
42
0.000000001
43
0.0000000001
44
0.0000000001
40
-1
40
-1
40
-1
40
0
40
0
40
0
10
-231.84547483921051
20
187.01099395751953
30
0
10
-229.58242475986481
20
187.97801971435547
30
0
10
-221.53846800327301
20
187.97801971435547
30
0
0
SPLINE
5
108
100
AcDbEntity
8
0
100
AcDbSpline
70
0
71
2
72
6
73
3
74
0
42
0.000000001
43
0.0000000001
44
0.0000000001
40
-1
40
-1
40
-1
40
0
40
0
40
0
10
-224.70914900302887
20
202.83516883850098
30
0
10
-222.46292173862457
20
203.49451065063477
30
0
10
-213.89148771762848
20
203.49451065063477
30
0
0
SPLINE
5
109
100
AcDbEntity
8
0
100
AcDbSpline
70
0
71
2
72
6
73
3
74
0
42
0.000000001
43
0.0000000001
44
0.0000000001
40
-1
40
-1
40
-1
40
0
40
0
40
0
10
-213.89148771762848
20
203.49451065063477
30
0
10
-206.63875639438629
20
203.49451065063477
30
0
10
-205.22596418857574
20
202.21978187561035
30
0
0
SPLINE
5
110
100
AcDbEntity
8
0
100
AcDbSpline
70
0
71
2
72
6
73
3
74
0
42
0.000000001
43
0.0000000001
44
0.0000000001
40
-1
40
-1
40
-1
40
0
40
0
40
0
10
-205.22596418857574
20
202.21978187561035
30
0
10
-203.81319105625153
20
200.94505310058594
30
0
10
-205.51580488681793
20
195.93406677246094
30
0
0
LINE
5
111
100
AcDbEntity
8
0
100
AcDbLine
10
-205.5158048868179
20
195.93406677246091
30
0
11
-206.27817213535309
21
193.69230270385742
31
0
0
LINE
5
112
100
AcDbEntity
8
0
100
AcDbLine
10
-206.27817213535309
20
193.69230270385742
30
0
11
-206.98146879673004
21
193.69230270385742
31
0
0
SPLINE
5
113
100
AcDbEntity
8
0
100
AcDbSpline
70
0
71
2
72
6
73
3
74
0
42
0.000000001
43
0.0000000001
44
0.0000000001
40
-1
40
-1
40
-1
40
0
40
0
40
0
10
-206.98146879673004
20
193.69230270385742
30
0
10
-208.12500059604645
20
195.75824737548828
30
0
10
-210.2603155374527
20
196.39560699462891
30
0
0
SPLINE
5
114
100
AcDbEntity
8
0
100
AcDbSpline
70
0
71
2
72
6
73
3
74
0
42
0.000000001
43
0.0000000001
44
0.0000000001
40
-1
40
-1
40
-1
40
0
40
0
40
0
10
-210.2603155374527
20
196.39560699462891
30
0
10
-212.39561140537262
20
197.03296661376953
30
0
10
-217.89012968540192
20
197.03296661376953
30
0
0
SPLINE
5
115
100
AcDbEntity
8
0
100
AcDbSpline
70
0
71
2
72
6
73
3
74
0
42
0.000000001
43
0.0000000001
44
0.0000000001
40
-1
40
-1
40
-1
40
0
40
0
40
0
10
-217.89012968540192
20
197.03296661376953
30
0
10
-230.63736975193024
20
197.03296661376953
30
0
10
-235.65351545810699
20
196.24176025390625
30
0
0
SPLINE
5
116
100
AcDbEntity
8
0
100
AcDbSpline
70
0
71
2
72
6
73
3
74
0
42
0.000000001
43
0.0000000001
44
0.0000000001
40
-1
40
-1
40
-1
40
0
40
0
40
0
10
-235.65351545810699
20
196.24176025390625
30
0
10
-240.66965162754059
20
195.45055389404297
30
0
10
-244.45193350315094
20
192.85714149475098
30
0
0
SPLINE
5
117
100
AcDbEntity
8
0
100
AcDbSpline
70
0
71
2
72
6
73
3
74
0
42
0.000000001
43
0.0000000001
44
0.0000000001
40
-1
40
-1
40
-1
40
0
40
0
40
0
10
-244.45193350315094
20
192.85714149475098
30
0
10
-249.22047674655914
20
189.5604419708252
30
0
10
-251.74520552158356
20
182.13187217712402
30
0
0
SPLINE
5
118
100
AcDbEntity
8
0
100
AcDbSpline
70
0
71
2
72
6
73
3
74
0
42
0.000000001
43
0.0000000001
44
0.0000000001
40
-1
40
-1
40
-1
40
0
40
0
40
0
10
-251.74520552158356
20
182.13187217712402
30
0
10
-254.0158087015152
20
175.45055389404297
30
0
10
-251.93957388401031
20
172.5054931640625
30
0
0
SPLINE
5
119
100
AcDbEntity
8
0
100
AcDbSpline
70
0
71
2
72
6
73
3
74
0
42
0.000000001
43
0.0000000001
44
0.0000000001
40
-1
40
-1
40
-1
40
0
40
0
40
0
10
-251.93957388401031
20
172.5054931640625
30
0
10
-250.50207197666168
20
170.5274772644043
30
0
10
-247.30598509311676
20
169.71428871154785
30
0
0
SPLINE
5
120
100
AcDbEntity
8
0
100
AcDbSpline
70
0
71
2
72
6
73
3
74
0
42
0.000000001
43
0.0000000001
44
0.0000000001
40
-1
40
-1
40
-1
40
0
40
0
40
0
10
-247.30598509311676
20
169.71428871154785
30
0
10
-244.10989820957184
20
168.90110015869141
30
0
10
-237.69231855869293
20
168.90110015869141
30
0
0
SPLINE
5
121
100
AcDbEntity
8
0
100
AcDbSpline
70
0
71
2
72
6
73
3
74
0
42
0.000000001
43
0.0000000001
44
0.0000000001
40
-1
40
-1
40
-1
40
0
40
0
40
0
10
-237.69231855869293
20
168.90110015869141
30
0
10
-229.73627150058746
20
168.90110015869141
30
0
10
-225.97597181797028
20
169.23076629638672
30
0
0
SPLINE
5
122
100
AcDbEntity
8
0
100
AcDbSpline
70
0
71
2
72
6
73
3
74
0
42
0.000000001
43
0.0000000001
44
0.0000000001
40
-1
40
-1
40
-1
40
0
40
0
40
0
10
-225.97597181797028
20
169.23076629638672
30
0
10
-222.21567213535309
20
169.5604419708252
30
0
10
-219.89423811435699
20
170.4395580291748
30
0
0
SPLINE
5
123
100
AcDbEntity
8
0
100
AcDbSpline
70
0
71
2
72
6
73
3
74
0
42
0.000000001
43
0.0000000001
44
0.0000000001
40
-1
40
-1
40
-1
40
0
40
0
40
0
10
-219.89423811435699
20
170.4395580291748
30
0
10
-215.50275862216949
20
172.10988998413086
30
0
10
-212.48970091342926
20
175.80220222473145
30
0
0
LINE
5
124
100
AcDbEntity
8
0
100
AcDbLine
10
-212.48970091342926
20
175.80220222473145
30
0
11
-211.74245893955231
21
175.80220222473145
31
0
0
LINE
5
125
100
AcDbEntity
8
0
100
AcDbLine
10
-211.74245893955231
20
175.80220222473145
30
0
11
-213.7142950296402
21
170
31
0
0
LINE
5
126
100
AcDbEntity
8
0
100
AcDbLine
10
-213.7142950296402
20
170
30
0
11
-198.41758787631989
21
170
31
0
0
LINE
5
127
100
AcDbEntity
8
0
100
AcDbLine
10
-198.41758787631989
20
170
30
0
11
-189.70880568027496
21
195.62637329101562
31
0
0
SPLINE
5
128
100
AcDbEntity
8
0
100
AcDbSpline
70
0
71
2
72
6
73
3
74
0
42
0.000000001
43
0.0000000001
44
0.0000000001
40
-1
40
-1
40
-1
40
0
40
0
40
0
10
-189.70880568027496
20
195.62637329101562
30
0
10
-187.73696959018707
20
201.42856597900391
30
0
10
-187.4975973367691
20
204.39559936523438
30
0
0
SPLINE
5
129
100
AcDbEntity
8
0
100
AcDbSpline
70
0
71
2
72
6
73
3
74
0
42
0.000000001
43
0.0000000001
44
0.0000000001
40
-1
40
-1
40
-1
40
0
40
0
40
0
10
-187.4975973367691
20
204.39559936523438
30
0
10
-187.25824415683746
20
207.36263275146484
30
0
10
-188.65110456943512
20
209.47253227233887
30
0
0
SPLINE
5
130
100
AcDbEntity
8
0
100
AcDbSpline
70
0
71
2
72
6
73
3
74
0
42
0.000000001
43
0.0000000001
44
0.0000000001
40
-1
40
-1
40
-1
40
0
40
0
40
0
10
-188.65110456943512
20
209.47253227233887
30
0
10
-190.42171537876129
20
212.15385437011719
30
0
10
-193.97699415683746
20
212.94506072998047
30
0
0
SPLINE
5
131
100
AcDbEntity
8
0
100
AcDbSpline
70
0
71
2
72
6
73
3
74
0
42
0.000000001
43
0.0000000001
44
0.0000000001
40
-1
40
-1
40
-1
40
0
40
0
40
0
10
-193.97699415683746
20
212.94506072998047
30
0
10
-197.53229200839996
20
213.73626708984375
30
0
10
-208.03777754306793
20
213.73626708984375
30
0
0
SPLINE
5
132
100
AcDbEntity
8
0
100
AcDbSpline
70
0
71
2
72
6
73
3
74
0
42
0.000000001
43
0.0000000001
44
0.0000000001
40
-1
40
-1
40
-1
40
0
40
0
40
0
10
-208.03777754306793
20
213.73626708984375
30
0
10
-222.32349455356598
20
213.73626708984375
30
0
10
-228.81628096103668
20
212.28571891784668
30
0
0
SPLINE
5
133
100
AcDbEntity
8
0
100
AcDbSpline
70
0
71
2
72
6
73
3
74
0
42
0.000000001
43
0.0000000001
44
0.0000000001
40
-1
40
-1
40
-1
40
0
40
0
40
0
10
-228.81628096103668
20
212.28571891784668
30
0
10
-235.30907690525055
20
210.83517074584961
30
0
10
-239.55564558506012
20
206.74725532531738
30
0
0
SPLINE
5
134
100
AcDbEntity
8
0
100
AcDbSpline
70
0
71
2
72
6
73
3
74
0
42
0.000000001
43
0.0000000001
44
0.0000000001
40
-1
40
-1
40
-1
40
0
40
0
40
0
10
-239.55564558506012
20
206.74725532531738
30
0
10
-242.22391188144684
20
204.19780731201172
30
0
10
-244.21979010105133
20
199.23076629638672
30
0
0
LINE
5
135
100
AcDbEntity
8
0
100
AcDbLine
10
-244.21979010105136
20
199.23076629638672
30
0
11
-228.35166037082672
21
199.23076629638672
31
0
0
SPLINE
5
136
100
AcDbEntity
8
0
100
AcDbSpline
70
0
71
2
72
6
73
3
74
0
42
0.000000001
43
0.0000000001
44
0.0000000001
40
-1
40
-1
40
-1
40
0
40
0
40
0
10
-228.35166037082672
20
199.23076629638672
30
0
10
-226.95536673069
20
202.17582702636719
30
0
10
-224.70914900302887
20
202.83516883850098
30
0
0
SPLINE
5
137
100
AcDbEntity
8
0
100
AcDbSpline
70
0
71
2
72
6
73
3
74
0
42
0.000000001
43
0.0000000001
44
0.0000000001
40
-1
40
-1
40
-1
40
0
40
0
40
0
10
-231.84547483921051
20
187.01099395751953
30
0
10
-229.58242475986481
20
187.97801971435547
30
0
10
-221.53846800327301
20
187.97801971435547
30
0
0
SPLINE
5
138
100
AcDbEntity
8
0
100
AcDbSpline
70
0
71
2
72
6
73
3
74
0
42
0.000000001
43
0.0000000001
44
0.0000000001
40
-1
40
-1
40
-1
40
0
40
0
40
0
10
-235.35509169101715
20
183.53846549987793
30
0
10
-234.56319868564606
20
185.86812973022461
30
0
10
-231.84547483921051
20
187.01099395751953
30
0
0
SPLINE
5
139
100
AcDbEntity
8
0
100
AcDbSpline
70
0
71
2
72
6
73
3
74
0
42
0.000000001
43
0.0000000001
44
0.0000000001
40
-1
40
-1
40
-1
40
0
40
0
40
0
10
-234.26443159580231
20
180.02198219299316
30
0
10
-236.23627722263336
20
180.94505310058594
30
0
10
-235.35509169101715
20
183.53846549987793
30
0
0
SPLINE
5
140
100
AcDbEntity
8
0
100
AcDbSpline
70
0
71
2
72
6
73
3
74
0
42
0.000000001
43
0.0000000001
44
0.0000000001
40
-1
40
-1
40
-1
40
0
40
0
40
0
10
-225.87500631809235
20
179.09890174865723
30
0
10
-232.29259550571442
20
179.09890174865723
30
0
10
-234.26443159580231
20
180.02198219299316
30
0
0
SPLINE
5
141
100
AcDbEntity
8
0
100
AcDbSpline
70
0
71
2
72
6
73
3
74
0
42
0.000000001
43
0.0000000001
44
0.0000000001
40
-1
40
-1
40
-1
40
0
40
0
40
0
10
-214.19059813022614
20
180.10989189147949
30
0
10
-217.5233656167984
20
179.09890174865723
30
0
10
-225.87500631809235
20
179.09890174865723
30
0
0
SPLINE
5
142
100
AcDbEntity
8
0
100
AcDbSpline
70
0
71
2
72
6
73
3
74
0
42
0.000000001
43
0.0000000001
44
0.0000000001
40
-1
40
-1
40
-1
40
0
40
0
40
0
10
-209.90179121494293
20
183.93406867980957
30
0
10
-210.8578497171402
20
181.12088203430176
30
0
10
-214.19059813022614
20
180.10989189147949
30
0
0
SPLINE
5
143
100
AcDbEntity
8
0
100
AcDbSpline
70
0
71
2
72
6
73
3
74
0
42
0.000000001
43
0.0000000001
44
0.0000000001
40
-1
40
-1
40
-1
40
0
40
0
40
0
10
-211.30014479160309
20
187.45055198669434
30
0
10
-209.03572142124176
20
186.48351669311523
30
0
10
-209.90179121494293
20
183.93406867980957
30
0
0
SPLINE
5
144
100
AcDbEntity
8
0
100
AcDbSpline
70
0
71
2
72
6
73
3
74
0
42
0.000000001
43
0.0000000001
44
0.0000000001
40
-1
40
-1
40
-1
40
0
40
0
40
0
10
-221.53846800327301
20
187.97801971435547
30
0
10
-212.33791410923004
20
187.89011001586914
30
0
10
-211.30014479160309
20
187.45055198669434
30
0
0
SPLINE
5
145
100
AcDbEntity
8
0
100
AcDbSpline
70
0
71
2
72
6
73
3
74
0
42
0.000000001
43
0.0000000001
44
0.0000000001
40
0
40
0
40
0
40
1
40
1
40
1
10
-224.70914900302887
20
202.83516883850098
30
0
10
-226.95536673069
20
202.17582702636719
30
0
10
-228.35166037082672
20
199.23076629638672
30
0
0
LINE
5
146
100
AcDbEntity
8
0
100
AcDbLine
10
-228.35166037082672
20
199.23076629638672
30
0
11
-244.21979010105133
21
199.23076629638672
31
0
0
SPLINE
5
147
100
AcDbEntity
8
0
100
AcDbSpline
70
0
71
2
72
6
73
3
74
0
42
0.000000001
43
0.0000000001
44
0.0000000001
40
0
40
0
40
0
40
1
40
1
40
1
10
-244.21979010105133
20
199.23076629638672
30
0
10
-242.22391188144684
20
204.19780731201172
30
0
10
-239.55564558506012
20
206.74725532531738
30
0
0
SPLINE
5
148
100
AcDbEntity
8
0
100
AcDbSpline
70
0
71
2
72
6
73
3
74
0
42
0.000000001
43
0.0000000001
44
0.0000000001
40
0
40
0
40
0
40
1
40
1
40
1
10
-239.55564558506012
20
206.74725532531738
30
0
10
-235.30907690525055
20
210.83517074584961
30
0
10
-228.81628096103668
20
212.28571891784668
30
0
0
SPLINE
5
149
100
AcDbEntity
8
0
100
AcDbSpline
70
0
71
2
72
6
73
3
74
0
42
0.000000001
43
0.0000000001
44
0.0000000001
40
0
40
0
40
0
40
1
40
1
40
1
10
-228.81628096103668
20
212.28571891784668
30
0
10
-222.32349455356598
20
213.73626708984375
30
0
10
-208.03777754306793
20
213.73626708984375
30
0
0
SPLINE
5
150
100
AcDbEntity
8
0
100
AcDbSpline
70
0
71
2
72
6
73
3
74
0
42
0.000000001
43
0.0000000001
44
0.0000000001
40
0
40
0
40
0
40
1
40
1
40
1
10
-208.03777754306793
20
213.73626708984375
30
0
10
-197.53229200839996
20
213.73626708984375
30
0
10
-193.97699415683746
20
212.94506072998047
30
0
0
SPLINE
5
151
100
AcDbEntity
8
0
100
AcDbSpline
70
0
71
2
72
6
73
3
74
0
42
0.000000001
43
0.0000000001
44
0.0000000001
40
0
40
0
40
0
40
1
40
1
40
1
10
-193.97699415683746
20
212.94506072998047
30
0
10
-190.42171537876129
20
212.15385437011719
30
0
10
-188.65110456943512
20
209.47253227233887
30
0
0
SPLINE
5
152
100
AcDbEntity
8
0
100
AcDbSpline
70
0
71
2
72
6
73
3
74
0
42
0.000000001
43
0.0000000001
44
0.0000000001
40
0
40
0
40
0
40
1
40
1
40
1
10
-188.65110456943512
20
209.47253227233887
30
0
10
-187.25824415683746
20
207.36263275146484
30
0
10
-187.4975973367691
20
204.39559936523438
30
0
0
SPLINE
5
153
100
AcDbEntity
8
0
100
AcDbSpline
70
0
71
2
72
6
73
3
74
0
42
0.000000001
43
0.0000000001
44
0.0000000001
40
0
40
0
40
0
40
1
40
1
40
1
10
-187.4975973367691
20
204.39559936523438
30
0
10
-187.73696959018707
20
201.42856597900391
30
0
10
-189.70880568027496
20
195.62637329101562
30
0
0
LINE
5
154
100
AcDbEntity
8
0
100
AcDbLine
10
-189.70880568027496
20
195.62637329101562
30
0
11
-198.41758787631989
21
170
31
0
0
LINE
5
155
100
AcDbEntity
8
0
100
AcDbLine
10
-198.41758787631989
20
170
30
0
11
-213.7142950296402
21
170
31
0
0
LINE
5
156
100
AcDbEntity
8
0
100
AcDbLine
10
-213.7142950296402
20
170
30
0
11
-211.74245893955231
21
175.80220222473145
31
0
0
LINE
5
157
100
AcDbEntity
8
0
100
AcDbLine
10
-211.74245893955231
20
175.80220222473145
30
0
11
-212.48970091342926
21
175.80220222473145
31
0
0
SPLINE
5
158
100
AcDbEntity
8
0
100
AcDbSpline
70
0
71
2
72
6
73
3
74
0
42
0.000000001
43
0.0000000001
44
0.0000000001
40
0
40
0
40
0
40
1
40
1
40
1
10
-212.48970091342926
20
175.80220222473145
30
0
10
-215.50275862216949
20
172.10988998413086
30
0
10
-219.89423811435699
20
170.4395580291748
30
0
0
SPLINE
5
159
100
AcDbEntity
8
0
100
AcDbSpline
70
0
71
2
72
6
73
3
74
0
42
0.000000001
43
0.0000000001
44
0.0000000001
40
0
40
0
40
0
40
1
40
1
40
1
10
-219.89423811435699
20
170.4395580291748
30
0
10
-222.21567213535309
20
169.5604419708252
30
0
10
-225.97597181797028
20
169.23076629638672
30
0
0
SPLINE
5
160
100
AcDbEntity
8
0
100
AcDbSpline
70
0
71
2
72
6
73
3
74
0
42
0.000000001
43
0.0000000001
44
0.0000000001
40
0
40
0
40
0
40
1
40
1
40
1
10
-225.97597181797028
20
169.23076629638672
30
0
10
-229.73627150058746
20
168.90110015869141
30
0
10
-237.69231855869293
20
168.90110015869141
30
0
0
SPLINE
5
161
100
AcDbEntity
8
0
100
AcDbSpline
70
0
71
2
72
6
73
3
74
0
42
0.000000001
43
0.0000000001
44
0.0000000001
40
0
40
0
40
0
40
1
40
1
40
1
10
-237.69231855869293
20
168.90110015869141
30
0
10
-244.10989820957184
20
168.90110015869141
30
0
10
-247.30598509311676
20
169.71428871154785
30
0
0
SPLINE
5
162
100
AcDbEntity
8
0
100
AcDbSpline
70
0
71
2
72
6
73
3
74
0
42
0.000000001
43
0.0000000001
44
0.0000000001
40
0
40
0
40
0
40
1
40
1
40
1
10
-247.30598509311676
20
169.71428871154785
30
0
10
-250.50207197666168
20
170.5274772644043
30
0
10
-251.93957388401031
20
172.5054931640625
30
0
0
SPLINE
5
163
100
AcDbEntity
8
0
100
AcDbSpline
70
0
71
2
72
6
73
3
74
0
42
0.000000001
43
0.0000000001
44
0.0000000001
40
0
40
0
40
0
40
1
40
1
40
1
10
-251.93957388401031
20
172.5054931640625
30
0
10
-254.0158087015152
20
175.45055389404297
30
0
10
-251.74520552158356
20
182.13187217712402
30
0
0
SPLINE
5
164
100
AcDbEntity
8
0
100
AcDbSpline
70
0
71
2
72
6
73
3
74
0
42
0.000000001
43
0.0000000001
44
0.0000000001
40
0
40
0
40
0
40
1
40
1
40
1
10
-251.74520552158356
20
182.13187217712402
30
0
10
-249.22047674655914
20
189.5604419708252
30
0
10
-244.45193350315094
20
192.85714149475098
30
0
0
SPLINE
5
165
100
AcDbEntity
8
0
100
AcDbSpline
70
0
71
2
72
6
73
3
74
0
42
0.000000001
43
0.0000000001
44
0.0000000001
40
0
40
0
40
0
40
1
40
1
40
1
10
-244.45193350315094
20
192.85714149475098
30
0
10
-240.66965162754059
20
195.45055389404297
30
0
10
-235.65351545810699
20
196.24176025390625
30
0
0
SPLINE
5
166
100
AcDbEntity
8
0
100
AcDbSpline
70
0
71
2
72
6
73
3
74
0
42
0.000000001
43
0.0000000001
44
0.0000000001
40
0
40
0
40
0
40
1
40
1
40
1
10
-235.65351545810699
20
196.24176025390625
30
0
10
-230.63736975193024
20
197.03296661376953
30
0
10
-217.89012968540192
20
197.03296661376953
30
0
0
SPLINE
5
167
100
AcDbEntity
8
0
100
AcDbSpline
70
0
71
2
72
6
73
3
74
0
42
0.000000001
43
0.0000000001
44
0.0000000001
40
0
40
0
40
0
40
1
40
1
40
1
10
-217.89012968540192
20
197.03296661376953
30
0
10
-212.39561140537262
20
197.03296661376953
30
0
10
-210.2603155374527
20
196.39560699462891
30
0
0
SPLINE
5
168
100
AcDbEntity
8
0
100
AcDbSpline
70
0
71
2
72
6
73
3
74
0
42
0.000000001
43
0.0000000001
44
0.0000000001
40
0
40
0
40
0
40
1
40
1
40
1
10
-210.2603155374527
20
196.39560699462891
30
0
10
-208.12500059604645
20
195.75824737548828
30
0
10
-206.98146879673004
20
193.69230270385742
30
0
0
LINE
5
169
100
AcDbEntity
8
0
100
AcDbLine
10
-206.98146879673004
20
193.69230270385745
30
0
11
-206.27817213535309
21
193.69230270385742
31
0
0
LINE
5
170
100
AcDbEntity
8
0
100
AcDbLine
10
-206.27817213535309
20
193.69230270385742
30
0
11
-205.51580488681793
21
195.93406677246094
31
0
0
SPLINE
5
171
100
AcDbEntity
8
0
100
AcDbSpline
70
0
71
2
72
6
73
3
74
0
42
0.000000001
43
0.0000000001
44
0.0000000001
40
0
40
0
40
0
40
1
40
1
40
1
10
-205.51580488681793
20
195.93406677246094
30
0
10
-203.81319105625153
20
200.94505310058594
30
0
10
-205.22596418857574
20
202.21978187561035
30
0
0
SPLINE
5
172
100
AcDbEntity
8
0
100
AcDbSpline
70
0
71
2
72
6
73
3
74
0
42
0.000000001
43
0.0000000001
44
0.0000000001
40
0
40
0
40
0
40
1
40
1
40
1
10
-205.22596418857574
20
202.21978187561035
30
0
10
-206.63875639438629
20
203.49451065063477
30
0
10
-213.89148771762848
20
203.49451065063477
30
0
0
SPLINE
5
173
100
AcDbEntity
8
0
100
AcDbSpline
70
0
71
2
72
6
73
3
74
0
42
0.000000001
43
0.0000000001
44
0.0000000001
40
0
40
0
40
0
40
1
40
1
40
1
10
-213.89148771762848
20
203.49451065063477
30
0
10
-222.46292173862457
20
203.49451065063477
30
0
10
-224.70914900302887
20
202.83516883850098
30
0
0
ENDSEC
0
SECTION
2
OBJECTS
0
DICTIONARY
5
C
100
AcDbDictionary
3
ACAD_GROUP
350
D
3
ACAD_MLINESTYLE
350
17
0
DICTIONARY
5
D
100
AcDbDictionary
0
DICTIONARY
5
1A
330
C
100
AcDbDictionary
0
DICTIONARY
5
17
100
AcDbDictionary
0
ENDSEC
0
EOF
