0
SECTION
2
HEADER
9
$INSUNITS
70
4
9
$ACADVER
1
AC1014
9
$HANDSEED
5
FFFF
0
ENDSEC
0
SECTION
2
TABLES
0
TABLE
2
VPORT
5
8
100
AcDbSymbolTable
0
ENDTAB
0
TABLE
2
LTYPE
5
5
100
AcDbSymbolTable
0
LTYPE
5
14
100
AcDbSymbolTableRecord
100
AcDbLinetypeTableRecord
2
BYBLOCK
70
0
0
LTYPE
5
15
100
AcDbSymbolTableRecord
100
AcDbLinetypeTableRecord
2
BYLAYER
70
0
0
LTYPE
5
16
100
AcDbSymbolTableRecord
100
AcDbLinetypeTableRecord
2
DASHED
70
0
3
Dashed __ __ __ __ __ __ __ __ __ __ __ __ __ _
72
65
73
2
40
0.75
49
0.5
74
0
49
-0.25
74
0
0
ENDTAB
0
TABLE
2
LAYER
5
2
100
AcDbSymbolTable
70
2
0
LAYER
5
50
100
AcDbSymbolTableRecord
100
AcDbLayerTableRecord
2
0
70
0
62
7
6
CONTINUOUS
0
ENDTAB
0
TABLE
2
STYLE
5
3
100
AcDbSymbolTable
70
1
0
STYLE
5
11
100
AcDbSymbolTableRecord
100
AcDbTextStyleTableRecord
2
STANDARD
70
0
0
ENDTAB
0
TABLE
2
VIEW
5
6
100
AcDbSymbolTable
70
0
0
ENDTAB
0
TABLE
2
UCS
5
7
100
AcDbSymbolTable
70
0
0
ENDTAB
0
TABLE
2
APPID
5
9
100
AcDbSymbolTable
70
2
0
APPID
5
12
100
AcDbSymbolTableRecord
100
AcDbRegAppTableRecord
2
ACAD
70
0
0
ENDTAB
0
TABLE
2
DIMSTYLE
5
A
100
AcDbSymbolTable
70
1
0
ENDTAB
0
TABLE
2
BLOCK_RECORD
5
1
100
AcDbSymbolTable
70
1
0
BLOCK_RECORD
5
1F
100
AcDbSymbolTableRecord
100
AcDbBlockTableRecord
2
*MODEL_SPACE
0
BLOCK_RECORD
5
1B
100
AcDbSymbolTableRecord
100
AcDbBlockTableRecord
2
*PAPER_SPACE
0
ENDTAB
0
ENDSEC
0
SECTION
2
BLOCKS
0
BLOCK
5
20
100
AcDbEntity
100
AcDbBlockBegin
2
*MODEL_SPACE
0
ENDBLK
5
21
100
AcDbEntity
100
AcDbBlockEnd
0
BLOCK
5
1C
100
AcDbEntity
100
AcDbBlockBegin
2
*PAPER_SPACE
0
ENDBLK
5
1D
100
AcDbEntity
100
AcDbBlockEnd
0
ENDSEC
0
SECTION
2
ENTITIES
0
CIRCLE
5
100
100
AcDbEntity
8
0
100
AcDbCircle
10
-5.4816143044971959
20
-141.31350182536863
30
0
40
1.7000000000000026
210
1.5771435518890148e-68
220
1.2325951644078309e-32
230
1
0
CIRCLE
5
101
100
AcDbEntity
8
0
100
AcDbCircle
10
-320.20644063947157
20
-4.6239424248731638
30
0
40
1.7000000000000171
210
0
220
-0
230
1
0
CIRCLE
5
102
100
AcDbEntity
8
0
100
AcDbCircle
10
-5.4814966744945917
20
-4.6218329787790955
30
0
40
1.6999999999999997
210
-0
220
0
230
1
0
CIRCLE
5
103
100
AcDbEntity
8
0
100
AcDbCircle
10
-320.2065581939903
20
-141.32113625419157
30
0
40
1.7000000000000171
210
-0
220
0
230
1
0
LWPOLYLINE
5
104
100
AcDbEntity
8
0
100
AcDbPolyline
90
4
70
1
43
0.0
10
-38.37899999999734
20
-89.262999999999778
10
-38.37899999999734
20
-117.52559999999983
10
-92.320999999997298
20
-117.52559999999983
10
-92.320999999997312
20
-89.262999999999778
0
CIRCLE
5
105
100
AcDbEntity
8
0
100
AcDbCircle
10
-115.04999999999421
20
-72.724999999999767
30
0
40
1.6999999999999993
210
-0
220
0
230
1
0
CIRCLE
5
106
100
AcDbEntity
8
0
100
AcDbCircle
10
-115.04999999999421
20
-7.9499999999998074
30
0
40
1.6999999999999993
210
-0
220
0
230
1
0
CIRCLE
5
107
100
AcDbEntity
8
0
100
AcDbCircle
10
-35.399999999994279
20
-72.724999999999767
30
0
40
1.6999999999999993
210
-0
220
0
230
1
0
CIRCLE
5
108
100
AcDbEntity
8
0
100
AcDbCircle
10
-35.399999999994279
20
-7.9499999999998074
30
0
40
1.6999999999999993
210
-0
220
0
230
1
0
LWPOLYLINE
5
109
100
AcDbEntity
8
0
100
AcDbPolyline
90
4
70
1
43
0.0
10
-38.742486897152098
20
-66.870998182697079
10
-108.28710943465578
20
-66.870995125197197
10
-108.28710685758546
20
-7.1537974349538569
10
-38.742484296492307
20
-7.153799846526212
0
LWPOLYLINE
5
110
100
AcDbEntity
8
0
100
AcDbPolyline
90
20
70
1
43
0.0
10
-106.58031084490575
20
0.34292572382721398
10
-325.20644063947157
20
0.3429257238272343
10
-325.20644063947157
20
-52.774334707581623
10
-330.20644063947157
20
-52.774334707581623
10
-330.20644063947157
20
-92.768739931753885
10
-325.20644063947157
20
-92.768739931753913
10
-325.20644063947168
20
-146.32113625280968
10
-194.46360412829674
20
-146.31806240670002
10
-194.46348657515998
20
-151.31806240531813
10
-132.96120822581446
20
-151.31661644816984
10
-132.96132577895125
20
-146.31661644955176
10
-0.48149675274364867
20
-146.31350176565832
10
-0.48149675453390633
20
-92.768739983751033
10
4.5185032454660945
20
-92.768739983751033
10
4.5185032454660954
20
-52.774334707581673
10
-0.48149675453390495
20
-52.77433470758163
10
-0.48149675453388185
20
0.34292572382719655
10
-47.917441692057807
20
0.34292572382720682
10
-47.917441692057821
20
5.342925723827201
10
-106.58031084490574
20
5.3429257238272134
0
CIRCLE
5
111
100
AcDbEntity
8
0
100
AcDbCircle
10
-5.4816143044971959
20
-141.31350182536863
30
0
40
1.7000000000000026
210
0
220
0
230
1
0
CIRCLE
5
112
100
AcDbEntity
8
0
100
AcDbCircle
10
-320.20644063947157
20
-4.6239424248731638
30
0
40
1.7000000000000171
210
0
220
0
230
1
0
CIRCLE
5
113
100
AcDbEntity
8
0
100
AcDbCircle
10
-5.4814966744945917
20
-4.6218329787790955
30
0
40
1.6999999999999997
210
0
220
0
230
1
0
CIRCLE
5
114
100
AcDbEntity
8
0
100
AcDbCircle
10
-320.2065581939903
20
-141.32113625419157
30
0
40
1.7000000000000171
210
0
220
0
230
1
0
LWPOLYLINE
5
115
100
AcDbEntity
8
0
100
AcDbPolyline
90
4
70
1
43
0.0
10
-38.37899999999734
20
-117.52559999999983
10
-38.37899999999734
20
-89.262999999999778
10
-92.320999999997298
20
-89.262999999999778
10
-92.320999999997298
20
-117.52559999999983
0
CIRCLE
5
116
100
AcDbEntity
8
0
100
AcDbCircle
10
-115.04999999999421
20
-72.724999999999767
30
0
40
1.6999999999999993
210
0
220
0
230
1
0
CIRCLE
5
117
100
AcDbEntity
8
0
100
AcDbCircle
10
-115.04999999999421
20
-7.9499999999998074
30
0
40
1.6999999999999993
210
0
220
0
230
1
0
CIRCLE
5
118
100
AcDbEntity
8
0
100
AcDbCircle
10
-35.399999999994279
20
-72.724999999999767
30
0
40
1.6999999999999993
210
0
220
0
230
1
0
CIRCLE
5
119
100
AcDbEntity
8
0
100
AcDbCircle
10
-35.399999999994279
20
-7.9499999999998074
30
0
40
1.6999999999999993
210
0
220
0
230
1
0
LWPOLYLINE
5
120
100
AcDbEntity
8
0
100
AcDbPolyline
90
4
70
1
43
0.0
10
-108.28710943465578
20
-66.870995125197197
10
-38.742486897152091
20
-66.870998182697079
10
-38.742484296492293
20
-7.153799846526212
10
-108.28710685758544
20
-7.1537974349538445
0
LWPOLYLINE
5
121
100
AcDbEntity
8
0
100
AcDbPolyline
90
20
70
1
43
0.0
10
-325.20644063947157
20
-52.774334707581623
10
-325.20644063947157
20
0.34292572382724096
10
-106.58031084490575
20
0.34292572382721398
10
-106.58031084490574
20
5.3429257238272152
10
-47.917441692057821
20
5.342925723827201
10
-47.917441692057807
20
0.34292572382718656
10
-0.4814967545338808
20
0.34292572382719555
10
-0.48149675453390406
20
-52.774334707581644
10
4.5185032454660963
20
-52.774334707581644
10
4.5185032454660954
20
-92.768739983751033
10
-0.48149675453390522
20
-92.768739983751033
10
-0.48149675274363324
20
-146.31350176565832
10
-132.96132577895125
20
-146.31661644955176
10
-132.96120822581446
20
-151.31661644816984
10
-194.46348657515998
20
-151.31806240531813
10
-194.46360412829677
20
-146.31806240670002
10
-325.20644063947157
20
-146.32113625280968
10
-325.20644063947157
20
-92.768739931753913
10
-330.20644063947157
20
-92.768739931753927
10
-330.20644063947157
20
-52.774334707581623
0
ENDSEC
0
SECTION
2
OBJECTS
0
DICTIONARY
5
C
100
AcDbDictionary
3
ACAD_GROUP
350
D
3
ACAD_MLINESTYLE
350
17
0
DICTIONARY
5
D
100
AcDbDictionary
0
DICTIONARY
5
1A
330
C
100
AcDbDictionary
0
DICTIONARY
5
17
100
AcDbDictionary
0
ENDSEC
0
EOF
