0
SECTION
2
HEADER
9
$INSUNITS
70
4
9
$ACADVER
1
AC1014
9
$HANDSEED
5
FFFF
0
ENDSEC
0
SECTION
2
TABLES
0
TABLE
2
VPORT
5
8
100
AcDbSymbolTable
0
ENDTAB
0
TABLE
2
LTYPE
5
5
100
AcDbSymbolTable
0
LTYPE
5
14
100
AcDbSymbolTableRecord
100
AcDbLinetypeTableRecord
2
BYBLOCK
70
0
0
LTYPE
5
15
100
AcDbSymbolTableRecord
100
AcDbLinetypeTableRecord
2
BYLAYER
70
0
0
LTYPE
5
16
100
AcDbSymbolTableRecord
100
AcDbLinetypeTableRecord
2
DASHED
70
0
3
Dashed __ __ __ __ __ __ __ __ __ __ __ __ __ _
72
65
73
2
40
0.75
49
0.5
74
0
49
-0.25
74
0
0
ENDTAB
0
TABLE
2
LAYER
5
2
100
AcDbSymbolTable
70
2
0
LAYER
5
50
100
AcDbSymbolTableRecord
100
AcDbLayerTableRecord
2
0
70
0
62
7
6
CONTINUOUS
0
ENDTAB
0
TABLE
2
STYLE
5
3
100
AcDbSymbolTable
70
1
0
STYLE
5
11
100
AcDbSymbolTableRecord
100
AcDbTextStyleTableRecord
2
STANDARD
70
0
0
ENDTAB
0
TABLE
2
VIEW
5
6
100
AcDbSymbolTable
70
0
0
ENDTAB
0
TABLE
2
UCS
5
7
100
AcDbSymbolTable
70
0
0
ENDTAB
0
TABLE
2
APPID
5
9
100
AcDbSymbolTable
70
2
0
APPID
5
12
100
AcDbSymbolTableRecord
100
AcDbRegAppTableRecord
2
ACAD
70
0
0
ENDTAB
0
TABLE
2
DIMSTYLE
5
A
100
AcDbSymbolTable
70
1
0
ENDTAB
0
TABLE
2
BLOCK_RECORD
5
1
100
AcDbSymbolTable
70
1
0
BLOCK_RECORD
5
1F
100
AcDbSymbolTableRecord
100
AcDbBlockTableRecord
2
*MODEL_SPACE
0
BLOCK_RECORD
5
1B
100
AcDbSymbolTableRecord
100
AcDbBlockTableRecord
2
*PAPER_SPACE
0
ENDTAB
0
ENDSEC
0
SECTION
2
BLOCKS
0
BLOCK
5
20
100
AcDbEntity
100
AcDbBlockBegin
2
*MODEL_SPACE
0
ENDBLK
5
21
100
AcDbEntity
100
AcDbBlockEnd
0
BLOCK
5
1C
100
AcDbEntity
100
AcDbBlockBegin
2
*PAPER_SPACE
0
ENDBLK
5
1D
100
AcDbEntity
100
AcDbBlockEnd
0
ENDSEC
0
SECTION
2
ENTITIES
0
LWPOLYLINE
5
100
100
AcDbEntity
8
0
100
AcDbPolyline
90
4
70
1
43
0.0
10
-375.87445064349964
20
251.88730937640292
10
-375.87445064349964
20
-348.72920162442779
10
374.12555954658245
20
-348.7292016244279
10
374.12555954658245
20
251.88730937640292
0
ARC
5
101
100
AcDbEntity
8
0
100
AcDbCircle
10
-66.999999999998749
20
-47.000000000000313
30
0
40
182.59892789362112
210
0
220
0
230
1
100
AcDbArc
50
156.79070990556346
51
165.97179989391032
0
LINE
5
102
100
AcDbEntity
8
0
100
AcDbLine
10
-234.82146185754812
20
24.96058232042671
30
0
11
-317.92430679636374
21
85.338333366711581
31
0
0
ELLIPSE
5
103
100
AcDbEntity
8
0
100
AcDbEllipse
10
-309.09392133527535
20
97.470352614742325
30
0
11
-14.980020396136524
21
-0.99643485799714937
31
0.0
40
0.9991258287230832
41
5.5888771053379465
42
7.1588132155919757
0
LINE
5
104
100
AcDbEntity
8
0
100
AcDbLine
10
-321.2430305406549
20
106.28124211942239
30
0
11
-289.08966189583555
21
150.5365574043964
31
0
0
ELLIPSE
5
105
100
AcDbEntity
8
0
100
AcDbEllipse
10
-276.95572680707363
20
141.70478251994473
30
0
11
-3.6814150137276251
21
14.554761316888669
31
0.0
40
0.9991258287230832
41
5.407557398767203
42
6.9774935090212304
0
LINE
5
106
100
AcDbEntity
8
0
100
AcDbLine
10
-268.1462300197735
20
153.85197827783631
30
0
11
-184.30346792677875
21
92.936645951839807
31
0
0
ARC
5
107
100
AcDbEntity
8
0
100
AcDbCircle
10
-67.000000000004704
20
-46.999999999993598
30
0
40
182.59892789361197
210
0
220
0
230
1
100
AcDbArc
50
120.79070990556311
51
129.97179989391054
0
LINE
5
108
100
AcDbEntity
8
0
100
AcDbLine
10
-160.47304562927798
20
109.86031432037328
30
0
11
-192.2155078340933
21
207.55356767754142
31
0
0
ELLIPSE
5
109
100
AcDbEntity
8
0
100
AcDbEllipse
10
-177.9405539346705
20
212.17820707919668
30
0
11
-12.704780790958649
21
7.9989023339822225
31
0.0
40
0.99912582872308353
41
5.5888771053379438
42
7.1588132155919775
0
LINE
5
110
100
AcDbEntity
8
0
100
AcDbLine
10
-182.59047883791015
20
226.44743364345555
30
0
11
-130.56523551778736
21
243.35145989947281
31
0
0
ELLIPSE
5
111
100
AcDbEntity
8
0
100
AcDbEllipse
10
-125.93986285098426
20
229.07425583000918
30
0
11
5.5767467432514088
21
13.938930707071213
31
0.0
40
0.99912582872308331
41
5.4075573987672021
42
6.9774935090212296
0
LINE
5
112
100
AcDbEntity
8
0
100
AcDbLine
10
-111.6728877149686
20
233.7234513404498
30
0
11
-79.647802306115892
21
135.16037320099227
31
0
0
ARC
5
113
100
AcDbEntity
8
0
100
AcDbCircle
10
-67.000000000000085
20
-47.000000000006551
30
0
40
182.59892789362635
210
0
220
-0
230
1
100
AcDbArc
50
84.790709905563489
51
93.971799893910188
0
LINE
5
114
100
AcDbEntity
8
0
100
AcDbLine
10
-50.421103002593597
20
134.8447377359289
30
0
11
-18.678640797778048
21
232.53799109309705
31
0
0
ELLIPSE
5
115
100
AcDbEntity
8
0
100
AcDbEllipse
10
-4.4116656617624095
20
227.88879558265643
30
0
11
-5.5767467432513396
21
13.938930707071243
31
0.0
40
0.99912582872308264
41
5.5888771053379465
42
7.1588132155919748
0
LINE
5
116
100
AcDbEntity
8
0
100
AcDbLine
10
0.21370700504073414
20
242.16599965212009
30
0
11
52.238950325163543
21
225.26197339610269
31
0
0
ELLIPSE
5
117
100
AcDbEntity
8
0
100
AcDbEllipse
10
47.589025421923822
20
210.99274683184387
30
0
11
12.704780790958685
21
7.998902333982155
31
0.0
40
0.99912582872308364
41
5.407557398767203
42
6.9774935090212296
0
LINE
5
118
100
AcDbEntity
8
0
100
AcDbLine
10
61.86397932134669
20
206.36810743018862
30
0
11
29.838893912493898
21
107.80502929073116
31
0
0
ARC
5
119
100
AcDbEntity
8
0
100
AcDbCircle
10
-67.000000000006139
20
-47.000000000008043
30
0
40
182.59892789362993
210
0
220
-0
230
1
100
AcDbArc
50
48.790709905563588
51
57.97179989391006
0
LINE
5
120
100
AcDbEntity
8
0
100
AcDbLine
10
53.298264467065053
20
90.370652011670444
30
0
11
136.40110940588096
21
150.74840305795493
31
0
0
ELLIPSE
5
121
100
AcDbEntity
8
0
100
AcDbEllipse
10
145.21060619318104
20
138.60120730006341
30
0
11
3.6814150137276953
21
14.554761316888653
31
0.0
40
0.99912582872308309
41
5.5888771053379438
42
7.1588132155919757
0
LINE
5
122
100
AcDbEntity
8
0
100
AcDbLine
10
157.34454128194301
20
147.43298218451508
30
0
11
189.49790992676228
21
103.17766689954101
31
0
0
ELLIPSE
5
123
100
AcDbEntity
8
0
100
AcDbEllipse
10
177.34880072138276
20
94.366777394860975
30
0
11
14.980020396136515
21
-0.99643485799721987
31
0.0
40
0.99912582872308353
41
5.4075573987671994
42
6.9774935090212296
0
LINE
5
124
100
AcDbEntity
8
0
100
AcDbLine
10
186.17918618247108
20
82.23475814683016
30
0
11
102.3364240894763
21
21.319425820833739
31
0
0
ARC
5
125
100
AcDbEntity
8
0
100
AcDbCircle
10
-66.999999999997883
20
-46.99999999999924
30
0
40
182.59892789361766
210
0
220
-0
230
1
100
AcDbArc
50
12.79070990556324
51
21.971799893910376
0
LINE
5
126
100
AcDbEntity
8
0
100
AcDbLine
10
111.06778369792879
20
-6.5743537243121875
30
0
11
213.78854916592934
21
-6.5743537243122674
31
0
0
ELLIPSE
5
127
100
AcDbEntity
8
0
100
AcDbEllipse
10
213.77563925554838
20
-21.579733818138713
30
0
11
11.533401362156912
21
9.6111678017967819
31
0.0
40
0.99912582872308309
41
5.5888771053379438
42
7.1588132155919819
0
LINE
5
128
100
AcDbEntity
8
0
100
AcDbLine
10
228.78338597964705
20
-21.56682594357191
30
0
11
228.78338597964699
21
-76.269404001485299
31
0
0
ELLIPSE
5
129
100
AcDbEntity
8
0
100
AcDbEllipse
10
213.7756392555483
20
-76.256496126918506
30
0
11
11.533401362156862
21
-9.6111678017968334
31
0.0
40
0.9991258287230832
41
5.4075573987672012
42
6.9774935090212313
0
LINE
5
130
100
AcDbEntity
8
0
100
AcDbLine
10
213.78854916592934
20
-91.261876220744995
30
0
11
110.15319579764524
21
-91.261876220744952
31
0
0
ARC
5
131
100
AcDbEntity
8
0
100
AcDbCircle
10
-66.999999999999147
20
-47.000000000000341
30
0
40
182.59892789361891
210
0
220
0
230
1
100
AcDbArc
50
336.7907099055634
51
345.97179989391037
0
LINE
5
132
100
AcDbEntity
8
0
100
AcDbLine
10
100.82146185754806
20
-118.96058232042685
30
0
11
183.92430679636374
21
-179.33833336671159
31
0
0
ELLIPSE
5
133
100
AcDbEntity
8
0
100
AcDbEllipse
10
175.09392133527538
20
-191.47035261474235
30
0
11
14.980020396136524
21
0.99643485799714737
31
0.0
40
0.9991258287230832
41
5.5888771053379438
42
7.1588132155919766
0
LINE
5
134
100
AcDbEntity
8
0
100
AcDbLine
10
187.2430305406549
20
-200.28124211942244
30
0
11
155.08966189583555
21
-244.53655740439643
31
0
0
ELLIPSE
5
135
100
AcDbEntity
8
0
100
AcDbEllipse
10
142.95572680707366
20
-235.70478251994476
30
0
11
3.6814150137276238
21
-14.554761316888669
31
0.0
40
0.9991258287230832
41
5.4075573987671994
42
6.9774935090212269
0
LINE
5
136
100
AcDbEntity
8
0
100
AcDbLine
10
134.1462300197735
20
-247.85197827783631
30
0
11
50.303467926778751
21
-186.93664595183981
31
0
0
ARC
5
137
100
AcDbEntity
8
0
100
AcDbCircle
10
-66.99999999999703
20
-47.000000000004206
30
0
40
182.59892789361476
210
0
220
0
230
1
100
AcDbArc
50
300.79070990556323
51
309.97179989391049
0
LINE
5
138
100
AcDbEntity
8
0
100
AcDbLine
10
26.473045629278182
20
-203.86031432037316
30
0
11
58.215507834093323
21
-301.55356767754142
31
0
0
ELLIPSE
5
139
100
AcDbEntity
8
0
100
AcDbEllipse
10
43.940553934670525
20
-306.17820707919668
30
0
11
12.704780790958649
21
-7.9989023339822189
31
0.0
40
0.9991258287230832
41
5.5888771053379411
42
7.158813215591973
0
LINE
5
140
100
AcDbEntity
8
0
100
AcDbLine
10
48.590478837910183
20
-320.44743364345555
30
0
11
-3.4347644822126178
21
-337.35145989947284
31
0
0
ELLIPSE
5
141
100
AcDbEntity
8
0
100
AcDbEllipse
10
-8.0601371490157092
20
-323.07425583000918
30
0
11
-5.5767467432514088
21
-13.938930707071213
31
0.0
40
0.99912582872308331
41
5.4075573987671994
42
6.977493509021226
0
LINE
5
142
100
AcDbEntity
8
0
100
AcDbLine
10
-22.32711228503139
20
-327.72345134044974
30
0
11
-54.352197693884072
21
-229.16037320099224
31
0
0
ARC
5
143
100
AcDbEntity
8
0
100
AcDbCircle
10
-67.000000000000171
20
-46.999999999998039
30
0
40
182.59892789362181
210
0
220
0
230
1
100
AcDbArc
50
264.79070990556346
51
273.97179989391037
0
LINE
5
144
100
AcDbEntity
8
0
100
AcDbLine
10
-83.578896997406389
20
-228.84473773592896
30
0
11
-115.3213592022219
21
-326.53799109309705
31
0
0
ELLIPSE
5
145
100
AcDbEntity
8
0
100
AcDbEllipse
10
-129.58833433823753
20
-321.88879558265637
30
0
11
5.5767467432513405
21
-13.938930707071243
31
0.0
40
0.99912582872308309
41
5.5888771053379509
42
7.1588132155919739
0
LINE
5
146
100
AcDbEntity
8
0
100
AcDbLine
10
-134.21370700504067
20
-336.16599965212009
30
0
11
-186.2389503251635
21
-319.26197339610275
31
0
0
ELLIPSE
5
147
100
AcDbEntity
8
0
100
AcDbEllipse
10
-181.58902542192379
20
-304.99274683184393
30
0
11
-12.704780790958685
21
-7.9989023339821586
31
0.0
40
0.9991258287230832
41
5.4075573987672048
42
6.9774935090212304
0
LINE
5
148
100
AcDbEntity
8
0
100
AcDbLine
10
-195.86397932134668
20
-300.36810743018867
30
0
11
-163.83889391249386
21
-201.80502929073117
31
0
0
ARC
5
149
100
AcDbEntity
8
0
100
AcDbCircle
10
-66.999999999999062
20
-46.999999999999119
30
0
40
182.5989278936211
210
0
220
0
230
1
100
AcDbArc
50
228.79070990556326
51
237.97179989391023
0
LINE
5
150
100
AcDbEntity
8
0
100
AcDbLine
10
-187.29826446706514
20
-184.3706520116703
30
0
11
-270.4011094058809
21
-244.74840305795504
31
0
0
ELLIPSE
5
151
100
AcDbEntity
8
0
100
AcDbEllipse
10
-279.21060619318104
20
-232.60120730006344
30
0
11
-3.6814150137276953
21
-14.554761316888658
31
0.0
40
0.99912582872308264
41
5.58887710533795
42
7.1588132155919721
0
LINE
5
152
100
AcDbEntity
8
0
100
AcDbLine
10
-291.34454128194301
20
-241.43298218451514
30
0
11
-323.4979099267623
21
-197.17766689954104
31
0
0
ELLIPSE
5
153
100
AcDbEntity
8
0
100
AcDbEllipse
10
-311.34880072138276
20
-188.36677739486106
30
0
11
-14.980020396136517
21
0.99643485799721876
31
0.0
40
0.99912582872308353
41
5.4075573987671994
42
6.9774935090212242
0
LINE
5
154
100
AcDbEntity
8
0
100
AcDbLine
10
-320.17918618247108
20
-176.23475814683025
30
0
11
-236.33642408947628
21
-115.3194258208338
31
0
0
ARC
5
155
100
AcDbEntity
8
0
100
AcDbCircle
10
-67.000000000001847
20
-47.000000000000696
30
0
40
182.59892789361786
210
0
220
0
230
1
100
AcDbArc
50
192.7907099055632
51
201.97179989391034
0
LINE
5
156
100
AcDbEntity
8
0
100
AcDbLine
10
-245.06778369792872
20
-87.425646275687839
30
0
11
-347.78854916592934
21
-87.425646275687754
31
0
0
ELLIPSE
5
157
100
AcDbEntity
8
0
100
AcDbEllipse
10
-347.7756392555483
20
-72.420266181861294
30
0
11
-11.53340136215691
21
-9.6111678017967819
31
0.0
40
0.99912582872308309
41
5.5888771053379465
42
7.1588132155919766
0
LINE
5
158
100
AcDbEntity
8
0
100
AcDbLine
10
-362.78338597964699
20
-72.433174056428101
30
0
11
-362.78338597964694
21
-17.730595998514723
31
0
0
ELLIPSE
5
159
100
AcDbEntity
8
0
100
AcDbEllipse
10
-347.7756392555483
20
-17.743503873081529
30
0
11
-11.533401362156862
21
9.6111678017968298
31
0.0
40
0.99912582872308309
41
5.4075573987672021
42
6.9774935090212304
0
LINE
5
160
100
AcDbEntity
8
0
100
AcDbLine
10
-347.78854916592934
20
-2.7381237792550439
30
0
11
-244.15319579764517
21
-2.7381237792549529
31
0
0
CIRCLE
5
161
100
AcDbEntity
8
0
100
AcDbCircle
10
-67
20
-47
30
0
40
70
210
0
220
-0
230
1
0
CIRCLE
5
162
100
AcDbEntity
8
0
100
AcDbCircle
10
-67
20
-47
30
0
40
70
210
0
220
-0
230
1
0
CIRCLE
5
163
100
AcDbEntity
8
0
100
AcDbCircle
10
-88.999999999999986
20
-46.999999999999972
30
0
40
2.6999999999999957
210
0
220
-0
230
1
0
CIRCLE
5
164
100
AcDbEntity
8
0
100
AcDbCircle
10
-53.692061356856755
20
-69.000000000000384
30
0
40
2.7000000000000046
210
0
220
0
230
1
0
CIRCLE
5
165
100
AcDbEntity
8
0
100
AcDbCircle
10
-67
20
-47
30
0
40
2.1499999999999986
210
0
220
0
230
1
0
CIRCLE
5
166
100
AcDbEntity
8
0
100
AcDbCircle
10
-53.69206135685657
20
-25.000000000000004
30
0
40
2.6999999999999957
210
0
220
-0
230
1
0
CIRCLE
5
167
100
AcDbEntity
8
0
100
AcDbCircle
10
-67
20
-47
30
0
40
182.59892789361984
210
0
220
-0
230
1
0
LINE
5
168
100
AcDbEntity
8
0
100
AcDbLine
10
-67
20
-47
30
0
11
22.577857177848784
21
-328.89944677146417
31
0
0
LINE
5
169
100
AcDbEntity
8
0
100
AcDbLine
10
-67.000000000000171
20
-46.999999999998039
30
0
11
-160.22632866510207
21
-327.71398652411142
31
0
0
LINE
5
170
100
AcDbEntity
8
0
100
AcDbLine
10
-67.000000000000085
20
-47.000000000006551
30
0
11
-307.42122560435268
21
-219.30532454202807
31
0
0
LINE
5
171
100
AcDbEntity
8
0
100
AcDbLine
10
-67
20
-47
30
0
11
-362.78338597964694
21
-45.081885027471401
31
0
0
LINE
5
172
100
AcDbEntity
8
0
100
AcDbLine
10
-67.000000000000171
20
-46.999999999998039
30
0
11
-305.16634621824522
21
128.4088997619094
31
0
0
LINE
5
173
100
AcDbEntity
8
0
100
AcDbLine
10
-67.000000000004704
20
-46.999999999993598
30
0
11
-156.57785717784876
21
234.89944677146417
31
0
0
LINE
5
174
100
AcDbEntity
8
0
100
AcDbLine
10
-67
20
-47
30
0
11
26.226328665102141
21
233.71398652411136
31
0
0
LINE
5
175
100
AcDbEntity
8
0
100
AcDbLine
10
-66.999999999999147
20
-47.000000000000341
30
0
11
173.42122560435263
21
125.30532454202805
31
0
0
LINE
5
176
100
AcDbEntity
8
0
100
AcDbLine
10
-66.99999999999703
20
-47.000000000004206
30
0
11
228.78338597964702
21
-47.000000000004583
31
0
0
LINE
5
177
100
AcDbEntity
8
0
100
AcDbLine
10
171.16634621824522
20
-222.40889976190942
30
0
11
-67
21
-47
31
0
0
ENDSEC
0
SECTION
2
OBJECTS
0
DICTIONARY
5
C
100
AcDbDictionary
3
ACAD_GROUP
350
D
3
ACAD_MLINESTYLE
350
17
0
DICTIONARY
5
D
100
AcDbDictionary
0
DICTIONARY
5
1A
330
C
100
AcDbDictionary
0
DICTIONARY
5
17
100
AcDbDictionary
0
ENDSEC
0
EOF
