0
SECTION
2
HEADER
9
$INSUNITS
70
4
9
$ACADVER
1
AC1014
9
$HANDSEED
5
FFFF
0
ENDSEC
0
SECTION
2
TABLES
0
TABLE
2
VPORT
5
8
100
AcDbSymbolTable
0
ENDTAB
0
TABLE
2
LTYPE
5
5
100
AcDbSymbolTable
0
LTYPE
5
14
100
AcDbSymbolTableRecord
100
AcDbLinetypeTableRecord
2
BYBLOCK
70
0
0
LTYPE
5
15
100
AcDbSymbolTableRecord
100
AcDbLinetypeTableRecord
2
BYLAYER
70
0
0
LTYPE
5
16
100
AcDbSymbolTableRecord
100
AcDbLinetypeTableRecord
2
DASHED
70
0
3
Dashed __ __ __ __ __ __ __ __ __ __ __ __ __ _
72
65
73
2
40
0.75
49
0.5
74
0
49
-0.25
74
0
0
ENDTAB
0
TABLE
2
LAYER
5
2
100
AcDbSymbolTable
70
2
0
LAYER
5
50
100
AcDbSymbolTableRecord
100
AcDbLayerTableRecord
2
0
70
0
62
7
6
CONTINUOUS
0
ENDTAB
0
TABLE
2
STYLE
5
3
100
AcDbSymbolTable
70
1
0
STYLE
5
11
100
AcDbSymbolTableRecord
100
AcDbTextStyleTableRecord
2
STANDARD
70
0
0
ENDTAB
0
TABLE
2
VIEW
5
6
100
AcDbSymbolTable
70
0
0
ENDTAB
0
TABLE
2
UCS
5
7
100
AcDbSymbolTable
70
0
0
ENDTAB
0
TABLE
2
APPID
5
9
100
AcDbSymbolTable
70
2
0
APPID
5
12
100
AcDbSymbolTableRecord
100
AcDbRegAppTableRecord
2
ACAD
70
0
0
ENDTAB
0
TABLE
2
DIMSTYLE
5
A
100
AcDbSymbolTable
70
1
0
ENDTAB
0
TABLE
2
BLOCK_RECORD
5
1
100
AcDbSymbolTable
70
1
0
BLOCK_RECORD
5
1F
100
AcDbSymbolTableRecord
100
AcDbBlockTableRecord
2
*MODEL_SPACE
0
BLOCK_RECORD
5
1B
100
AcDbSymbolTableRecord
100
AcDbBlockTableRecord
2
*PAPER_SPACE
0
ENDTAB
0
ENDSEC
0
SECTION
2
BLOCKS
0
BLOCK
5
20
100
AcDbEntity
100
AcDbBlockBegin
2
*MODEL_SPACE
0
ENDBLK
5
21
100
AcDbEntity
100
AcDbBlockEnd
0
BLOCK
5
1C
100
AcDbEntity
100
AcDbBlockBegin
2
*PAPER_SPACE
0
ENDBLK
5
1D
100
AcDbEntity
100
AcDbBlockEnd
0
ENDSEC
0
SECTION
2
ENTITIES
0
CIRCLE
5
100
100
AcDbEntity
8
0
100
AcDbCircle
10
163.34360989970477
20
262.56563772785267
30
0
40
1.5999995684451731
210
2.6473070870462075e-24
220
-2.7105054311097705e-20
230
1
0
CIRCLE
5
101
100
AcDbEntity
8
0
100
AcDbCircle
10
185.01229506623307
20
240.90041068518786
30
0
40
1.5999998240440059
210
1.337706146862996e-24
220
5.2653768023391163e-31
230
1
0
CIRCLE
5
102
100
AcDbEntity
8
0
100
AcDbCircle
10
185.00877306641144
20
284.24314848448478
30
1.1102230246251565e-15
40
1.5999999999981918
210
4.9307719326399321e-24
220
1.9408128020216385e-30
230
1
0
CIRCLE
5
103
100
AcDbEntity
8
0
100
AcDbCircle
10
185.00947358650575
20
262.56634048315129
30
0
40
8.999999999999968
210
4.2134512451916593e-24
220
1.6584665097222751e-30
230
1
0
CIRCLE
5
104
100
AcDbEntity
8
0
100
AcDbCircle
10
206.68191973874937
20
262.56702623104235
30
1.1102230246251565e-15
40
1.6005658116149
210
3.7740115447728964e-24
220
1.4854976099352974e-30
230
1
0
LWPOLYLINE
5
105
100
AcDbEntity
8
0
100
AcDbPolyline
90
83
70
1
43
0.0
10
45.542798644953777
20
274.65091943039903
10
45.07821025307188
20
266.59556700168503
10
45.057748347322914
20
122.58880349727963
10
187.03143636418326
20
122.59169229959338
10
195.09229515268532
20
122.9406724387335
10
203.11965982192632
20
123.75347500554626
10
211.08686427376423
20
125.02739995164401
10
218.96744225622726
20
126.75821542647022
10
226.73521528178625
20
128.94017183507637
10
234.3643795896183
20
131.56602093770465
10
241.82959186312252
20
134.62703992770582
10
249.10605341787652
20
138.11306040783126
10
256.1695925803528
20
142.01250216861825
10
262.99674498381273
20
146.31241165668857
10
269.5648315145437
20
150.9985050051493
10
275.85203364961859
20
156.05521548315349
10
281.83746593581947
20
161.46574520702836
10
287.50124536902786
20
167.21212094114401
10
292.82455744354002
20
173.27525380320276
10
297.78971865199372
20
179.63500267557978
10
302.38023522818247
20
186.27024111209374
10
306.58085793768248
20
193.1589275179382
10
310.37763273429766
20
200.27817836963771
10
313.75794711397583
20
207.6043442318188
10
316.71057201229638
20
215.11308831824726
10
319.22569910627271
20
222.77946733619217
10
321.29497339664215
20
230.57801434553042
10
322.91152096230456
20
238.48282335736553
10
324.06997179482033
20
246.46763539111416
10
324.76647763702312
20
254.50592570419784
10
325.000690878314
20
262.63926754503223
10
324.76594168179236
20
270.63604265339785
10
324.06890166474852
20
278.67428666314845
10
322.909920212251
20
286.65902169559735
10
321.29284734414239
20
294.56372326395984
10
319.22305481386019
20
302.36213274456736
10
316.70741826403952
20
310.02834460537957
10
313.75429438631664
20
317.53689246155341
10
310.37349316122265
20
324.86283367221432
10
306.57624527044572
20
331.98183219740042
10
302.37516478959031
20
338.87023943993773
10
297.78420728553982
20
345.50517280370661
10
292.81862345742985
20
351.86459170731928
10
287.494908475361
20
357.92737080071834
10
281.83074718512324
20
363.67337014146307
10
275.84495536090321
20
369.08350209759681
10
269.55741720118039
20
374.13979475483308
10
262.98901927540146
20
378.82545161745679
10
256.16158114091911
20
383.12490740458713
10
249.09778286061749
20
387.02387975647696
10
241.82108966199536
20
390.5094166790775
10
234.35567398807703
20
393.56993956925612
10
226.72633519897349
20
396.19528167775729
10
218.95841719088
20
398.37672188211582
10
211.07772420623616
20
400.10701365735144
10
203.11043511461372
20
401.38040914819385
10
195.08301644912765
20
402.19267826288478
10
187.02213448730745
20
402.54112272510986
10
178.95456666838106
20
402.42458503740727
10
170.90711264132051
20
401.84345232625645
10
162.90650523910119
20
400.79965505608129
10
154.97932167493116
20
399.29666061644463
10
147.15189525540205
20
397.33946180372249
10
139.4502279039111
20
394.93456023554535
10
131.89990378487488
20
392.08994475307111
10
124.52600431571027
20
388.81506488286112
10
117.35302484889266
20
385.12079944650287
10
110.40479330085583
20
381.01942042226028
10
103.70439099804791
20
376.52455217879299
10
97.274076003079628
20
371.65112621637445
10
91.135209175705185
20
366.41533156595295
10
85.308183214156429
20
360.83456101081453
10
79.812354912685976
20
354.92735330950921
10
74.665980860204812
20
348.71333161195599
10
69.886156793785219
20
342.21313827331693
10
65.488760808270001
20
335.44836628216603
10
61.488400610913665
20
328.4414875307528
10
57.898364995977722
20
321.21577816563553
10
54.730579700744862
20
313.79524126666718
10
51.995567789397313
20
306.20452711117338
10
49.70241469644958
20
298.46885128821179
10
47.858738045867895
20
290.61391093492176
10
46.470662346076075
20
282.66579937321785
0
CIRCLE
5
106
100
AcDbEntity
8
0
100
AcDbCircle
10
206.68191985791225
20
262.56702623104229
30
2.2204460492503131e-15
40
1.6005658116148997
210
-2.4651903288156619e-32
220
3.880088450160645e-57
230
1
0
CIRCLE
5
107
100
AcDbEntity
8
0
100
AcDbCircle
10
185.00947370566874
20
262.56634048315107
30
1.1102230246251565e-15
40
8.9999999999999645
210
-2.4651903288156619e-32
220
3.880088450160645e-57
230
1
0
CIRCLE
5
108
100
AcDbEntity
8
0
100
AcDbCircle
10
185.0087731855744
20
284.24314848448472
30
2.2204460492503131e-15
40
1.5999999999981915
210
-2.4651903288156619e-32
220
3.880088450160645e-57
230
1
0
CIRCLE
5
109
100
AcDbEntity
8
0
100
AcDbCircle
10
185.012295185396
20
240.90041068518798
30
1.1102230246251565e-15
40
1.5999998240440054
210
-2.4651903288156619e-32
220
3.880088450160645e-57
230
1
0
CIRCLE
5
110
100
AcDbEntity
8
0
100
AcDbCircle
10
163.34361001886774
20
262.56563772785262
30
1.1102230246251565e-15
40
1.5999995684451729
210
-2.4651903288156619e-32
220
3.880088450160645e-57
230
1
0
LWPOLYLINE
5
111
100
AcDbEntity
8
0
100
AcDbPolyline
90
83
70
1
43
0.0
10
45.542798764116753
20
274.65091943039897
10
46.470662465239045
20
282.66579937321796
10
47.858738165030879
20
290.61391093492176
10
49.702414815612563
20
298.46885128821179
10
51.995567908560297
20
306.20452711117332
10
54.730579819907831
20
313.79524126666706
10
57.898365115140692
20
321.21577816563558
10
61.488400730076656
20
328.44148753075274
10
65.488760927432963
20
335.44836628216609
10
69.886156912948181
20
342.21313827331704
10
74.665980979367788
20
348.71333161195582
10
79.812355031848924
20
354.92735330950893
10
85.308183333319391
20
360.83456101081458
10
91.135209294868133
20
366.41533156595295
10
97.274076122242604
20
371.65112621637411
10
103.70439111721089
20
376.52455217879265
10
110.40479342001879
20
381.01942042226
10
117.35302496805562
20
385.12079944650282
10
124.52600443487324
20
388.81506488286078
10
131.89990390403784
20
392.08994475307077
10
139.45022802307406
20
394.93456023554558
10
147.15189537456502
20
397.33946180372254
10
154.97932179409415
20
399.29666061644457
10
162.90650535826416
20
400.79965505608135
10
170.90711276048347
20
401.84345232625628
10
178.95456678754402
20
402.42458503740698
10
187.02213460647042
20
402.54112272510986
10
195.08301656829062
20
402.19267826288433
10
203.11043523377666
20
401.38040914819385
10
211.07772432539912
20
400.10701365735122
10
218.95841731004293
20
398.3767218821157
10
226.72633531813642
20
396.19528167775712
10
234.35567410723996
20
393.56993956925612
10
241.82108978115832
20
390.50941667907722
10
249.09778297978045
20
387.02387975647707
10
256.16158126008207
20
383.12490740458713
10
262.98901939456437
20
378.82545161745668
10
269.55741732034335
20
374.13979475483302
10
275.84495548006618
20
369.08350209759675
10
281.83074730428615
20
363.67337014146358
10
287.49490859452391
20
357.92737080071839
10
292.8186235765927
20
351.86459170731951
10
297.78420740470273
20
345.50517280370673
10
302.37516490875328
20
338.87023943993796
10
306.57624538960869
20
331.98183219740076
10
310.37349328038556
20
324.86283367221438
10
313.75429450547955
20
317.53689246155352
10
316.70741838320237
20
310.02834460537963
10
319.22305493302309
20
302.36213274456748
10
321.29284746330541
20
294.56372326395962
10
322.9099203314139
20
286.6590216955974
10
324.06890178391137
20
278.67428666314851
10
324.76594180095526
20
270.63604265339779
10
325.00069099747691
20
262.63926754503211
10
324.76647775618602
20
254.50592570419789
10
324.06997191398318
20
246.46763539111421
10
322.91152108146747
20
238.48282335736556
10
321.29497351580494
20
230.57801434553056
10
319.22569922543562
20
222.77946733619217
10
316.71057213145929
20
215.11308831824724
10
313.75794723313879
20
207.60434423181889
10
310.37763285346057
20
200.27817836963774
10
306.58085805684539
20
193.1589275179382
10
302.38023534734538
20
186.27024111209377
10
297.78971877115669
20
179.63500267557976
10
292.82455756270286
20
173.27525380320282
10
287.50124548819082
20
167.21212094114395
10
281.83746605498243
20
161.46574520702839
10
275.85203376878161
20
156.05521548315346
10
269.56483163370672
20
150.99850500514938
10
262.99674510297569
20
146.31241165668843
10
256.16959269951576
20
142.0125021686184
10
249.10605353703943
20
138.11306040783134
10
241.82959198228548
20
134.62703992770588
10
234.3643797087812
20
131.56602093770456
10
226.73521540094922
20
128.94017183507637
10
218.96744237539022
20
126.75821542647027
10
211.08686439292714
20
125.02739995164399
10
203.11965994108925
20
123.75347500554646
10
195.09229527184817
20
122.94067243873359
10
187.0314364833462
20
122.59169229959329
10
45.057748466485904
20
122.58880349727949
10
45.078210372234864
20
266.59556700168514
0
ENDSEC
0
SECTION
2
OBJECTS
0
DICTIONARY
5
C
100
AcDbDictionary
3
ACAD_GROUP
350
D
3
ACAD_MLINESTYLE
350
17
0
DICTIONARY
5
D
100
AcDbDictionary
0
DICTIONARY
5
1A
330
C
100
AcDbDictionary
0
DICTIONARY
5
17
100
AcDbDictionary
0
ENDSEC
0
EOF
