0
SECTION
2
HEADER
9
$INSUNITS
70
4
9
$ACADVER
1
AC1014
9
$HANDSEED
5
FFFF
0
ENDSEC
0
SECTION
2
TABLES
0
TABLE
2
VPORT
5
8
100
AcDbSymbolTable
0
ENDTAB
0
TABLE
2
LTYPE
5
5
100
AcDbSymbolTable
0
LTYPE
5
14
100
AcDbSymbolTableRecord
100
AcDbLinetypeTableRecord
2
BYBLOCK
70
0
0
LTYPE
5
15
100
AcDbSymbolTableRecord
100
AcDbLinetypeTableRecord
2
BYLAYER
70
0
0
LTYPE
5
16
100
AcDbSymbolTableRecord
100
AcDbLinetypeTableRecord
2
DASHED
70
0
3
Dashed __ __ __ __ __ __ __ __ __ __ __ __ __ _
72
65
73
2
40
0.75
49
0.5
74
0
49
-0.25
74
0
0
ENDTAB
0
TABLE
2
LAYER
5
2
100
AcDbSymbolTable
70
2
0
LAYER
5
50
100
AcDbSymbolTableRecord
100
AcDbLayerTableRecord
2
0
70
0
62
7
6
CONTINUOUS
0
ENDTAB
0
TABLE
2
STYLE
5
3
100
AcDbSymbolTable
70
1
0
STYLE
5
11
100
AcDbSymbolTableRecord
100
AcDbTextStyleTableRecord
2
STANDARD
70
0
0
ENDTAB
0
TABLE
2
VIEW
5
6
100
AcDbSymbolTable
70
0
0
ENDTAB
0
TABLE
2
UCS
5
7
100
AcDbSymbolTable
70
0
0
ENDTAB
0
TABLE
2
APPID
5
9
100
AcDbSymbolTable
70
2
0
APPID
5
12
100
AcDbSymbolTableRecord
100
AcDbRegAppTableRecord
2
ACAD
70
0
0
ENDTAB
0
TABLE
2
DIMSTYLE
5
A
100
AcDbSymbolTable
70
1
0
ENDTAB
0
TABLE
2
BLOCK_RECORD
5
1
100
AcDbSymbolTable
70
1
0
BLOCK_RECORD
5
1F
100
AcDbSymbolTableRecord
100
AcDbBlockTableRecord
2
*MODEL_SPACE
0
BLOCK_RECORD
5
1B
100
AcDbSymbolTableRecord
100
AcDbBlockTableRecord
2
*PAPER_SPACE
0
ENDTAB
0
ENDSEC
0
SECTION
2
BLOCKS
0
BLOCK
5
20
100
AcDbEntity
100
AcDbBlockBegin
2
*MODEL_SPACE
0
ENDBLK
5
21
100
AcDbEntity
100
AcDbBlockEnd
0
BLOCK
5
1C
100
AcDbEntity
100
AcDbBlockBegin
2
*PAPER_SPACE
0
ENDBLK
5
1D
100
AcDbEntity
100
AcDbBlockEnd
0
ENDSEC
0
SECTION
2
ENTITIES
0
LWPOLYLINE
5
100
100
AcDbEntity
8
0
100
AcDbPolyline
90
85
70
1
43
0.0
10
-188.92290359503878
20
127.60053536671717
10
-100.05622483258817
20
127.59491727265558
10
-100.05551278234405
20
122.58365140808823
10
-50.057748192990907
20
122.59075558524285
10
-50.077906465439483
20
264.46060725221662
10
-50.416826264557876
20
272.26941642818156
10
-51.201428529293239
20
280.00986299251628
10
-52.430670091379284
20
287.69225057134156
10
-54.100467533966928
20
295.29105904569496
10
-56.205273957873459
20
302.78104593800981
10
-58.738097407833443
20
310.13733026506844
10
-61.690524099059203
20
317.33547519012961
10
-65.052746366997326
20
324.35156919962822
10
-68.813595247398837
20
331.1623055348548
10
-72.960577578493528
20
337.74505961462972
10
-77.479917502025714
20
344.07796419189765
10
-82.356602225257078
20
350.139981994528
10
-87.574431891967222
20
355.91097560901005
10
-93.116073396737548
20
361.37177437492596
10
-98.963117963789685
20
366.50423806793896
10
-105.09614229908534
20
371.29131715981572
10
-111.49477311255289
20
375.71710945522426
10
-118.13775479611695
20
379.76691291725047
10
-125.00302003267855
20
383.42727450606191
10
-132.06776310153586
20
386.68603486857108
10
-139.30851563668386
20
389.53236873056539
10
-146.70122458637385
20
391.95682085720478
10
-154.22133211492954
20
393.95133746234052
10
-161.84385718140527
20
395.50929296239178
10
-169.54347852409796
20
396.625511985863
10
-177.29461877522371
20
397.2962865654145
10
-185.13857506273641
20
397.52131184225874
10
-192.84715026889171
20
397.29418298936139
10
-200.59932568000906
20
396.62109926377298
10
-208.29862950491372
20
395.50269220862646
10
-215.92071152413936
20
393.94257060394568
10
-223.44025194773758
20
391.94591701679883
10
-230.8322716186297
20
389.51936412960993
10
-238.07221499085529
20
386.67097270703891
10
-245.13603170062248
20
383.4102048189439
10
-252.00025645919879
20
379.74789240833161
10
-258.64208700224316
20
375.69620130872011
10
-265.03945983663442
20
371.26859083047975
10
-271.17112353317123
20
366.47976905035944
10
-277.01670932169071
20
361.34564395271724
10
-282.55679875407054
20
355.88327058480786
10
-287.77298821035924
20
350.11079440163201
10
-292.64795003375258
20
344.04739098856396
10
-297.1654900913295
20
337.71320236196004
10
-301.31060156932824
20
331.12927005944192
10
-305.06951482427542
20
324.31746524199264
10
-308.42974312435609
20
317.30041604019289
10
-311.38012412908188
20
310.10143238580406
10
-313.91085696946243
20
302.74442857855837
10
-316.01353480550762
20
295.25384384523886
10
-317.68117275290314
20
287.65456115503764
10
-318.9082310860955
20
279.97182456082055
10
-319.69063364070217
20
272.23115534093313
10
-320.02578135411898
20
264.45826722007371
10
-319.91256089934637
20
256.67898095089305
10
-319.35134838334966
20
248.9191385400535
10
-318.344008097668
20
241.20451740366138
10
-316.8938863254271
20
233.56074473731002
10
-315.00580022531955
20
226.01321238509439
10
-312.68602182949559
20
218.58699249046057
10
-309.94225720849374
20
211.30675420907221
10
-306.78362087245654
20
204.19668176036527
10
-303.22060549364193
20
197.28039408997969
10
-299.26504705082004
20
190.58086641001725
10
-294.93008551134415
20
184.12035387768296
10
-290.23012118149916
20
177.92031766590131
10
-285.18076687013371
20
172.00135367145887
10
-279.79879602447699
20
166.38312409750196
10
-274.10208701043632
20
161.08429213767013
10
-268.10956372246039
20
156.12245997885199
10
-261.84113272027082
20
151.5141103284891
10
-255.31761710126688
20
147.2745516606781
10
-248.56068732829107
20
143.41786736296325
10
-241.59278924253351
20
139.9568689527226
10
-234.43706950070236
20
136.90305351861684
10
-227.11729868415929
20
134.26656552841845
10
-219.65779233543742
20
132.05616313007849
10
-212.08333018445686
20
130.27918905807806
10
-204.41907383275043
20
128.94154624158656
10
-196.6904831691545
20
128.0476781955112
0
ELLIPSE
5
101
100
AcDbEntity
8
0
100
AcDbEllipse
10
-206.68192065480918
20
262.57650960556236
30
0
11
3.7932908662331214e-17
21
-1.6005658278618962
31
0.0
40
0.99999998984922611
41
5.7742142918500896
42
10.015357017894583
0
ARC
5
102
100
AcDbEntity
8
0
100
AcDbCircle
10
-208.35202254328226
20
262.50832488720897
30
4.189994512208349e-39
40
1.5999999910886953
210
1.1299661120559393e-25
220
6.0711810351463374e-26
230
1
100
AcDbArc
50
60.871190216427564
51
303.80460610534726
0
CIRCLE
5
103
100
AcDbEntity
8
0
100
AcDbCircle
10
-185.05234911309691
20
262.53221604189639
30
0
40
9.0000000000000036
210
3.0965048684249243e-26
220
2.9523395501022697e-29
230
1
0
ELLIPSE
5
104
100
AcDbEntity
8
0
100
AcDbEllipse
10
-185.00877398254488
20
284.25263207904527
30
0
11
3.7919499103827849e-17
21
-1.6000000162394288
31
0.0
40
0.99999998984922611
41
0
42
6.2831853071795862
0
ELLIPSE
5
105
100
AcDbEntity
8
0
100
AcDbEllipse
10
-185.01229598221931
20
240.90989383978606
30
0
11
3.7919494934670694e-17
21
-1.5999998402852422
31
0.0
40
0.99999998984922622
41
0
42
6.2831853071795862
0
ELLIPSE
5
106
100
AcDbEntity
8
0
100
AcDbEllipse
10
-163.34361081576452
20
262.57512110238071
30
0
11
3.7919488877227605e-17
21
-1.5999995846863913
31
0.0
40
0.999999989849226
41
2.7825445687861117
42
6.5233716514607076
0
ARC
5
107
100
AcDbEntity
8
0
100
AcDbCircle
10
-162.40078278866542
20
262.51902194873134
30
4.5917748078995606e-40
40
1.5999999952228698
210
2.0430673586841474e-25
220
-3.5806657891816385e-26
230
1
100
AcDbArc
50
-110.57198746342119
51
103.76171145484123
0
ARC
5
108
100
AcDbEntity
8
0
100
AcDbCircle
10
-185.01229586305635
20
240.90918142226374
30
0
40
1.5999998402852449
210
1.1008948682914268e-38
220
-1.4637067577342992e-32
230
1
100
AcDbArc
50
179.98407204111314
51
179.99682782622017
0
ARC
5
109
100
AcDbEntity
8
0
100
AcDbCircle
10
-185.01229586305635
20
240.90918142226374
30
0
40
1.5999998402852464
210
1.1008948578419859e-38
220
-1.4637067577342992e-32
230
1
100
AcDbArc
50
0.022339403694283944
51
0.035095190661824503
0
ARC
5
110
100
AcDbEntity
8
0
100
AcDbCircle
10
-185.01229598221929
20
240.90989383978606
30
-3.4211388289180104e-48
40
1.5999998402852422
210
1.1008948652156092e-38
220
-1.4637067577343055e-32
230
1
100
AcDbArc
50
180.03509519066182
51
359.98407204111317
0
ARC
5
111
100
AcDbEntity
8
0
100
AcDbCircle
10
-185.00877386338186
20
284.25191966152295
30
0
40
1.6000000162394146
210
1.1008952328503859e-38
220
2.4651903288156619e-32
230
1
100
AcDbArc
50
179.98407204392765
51
179.99682782909258
0
ARC
5
112
100
AcDbEntity
8
0
100
AcDbCircle
10
-185.00877386338186
20
284.25191966152295
30
0
40
1.6000000162394143
210
1.1008952518761942e-38
220
2.4651903288156619e-32
230
1
100
AcDbArc
50
0.022339404183730385
51
0.035095187857865251
0
ARC
5
113
100
AcDbEntity
8
0
100
AcDbCircle
10
-185.00877398254485
20
284.25263207904527
30
2.292163015375067e-46
40
1.6000000162394117
210
1.100895225250647e-38
220
2.4651903288156723e-32
230
1
100
AcDbArc
50
180.03509518785785
51
359.98407204392771
0
LINE
5
114
100
AcDbEntity
8
0
100
AcDbLine
10
-207.46184267950207
20
261.17882130255521
30
0
11
-207.46242298558241
21
261.17843292530449
31
-8.881754552166599e-15
0
ARC
5
115
100
AcDbEntity
8
0
100
AcDbCircle
10
-206.68191826210446
20
262.57650960525388
30
9.347451554044396e-39
40
1.6005634351572209
210
1.6842534930892779e-38
220
3.3896367019612003e-32
230
1
100
AcDbArc
50
359.98408104970156
51
359.9968323411029
0
ARC
5
116
100
AcDbEntity
8
0
100
AcDbCircle
10
-206.68192053564616
20
262.57579718804004
30
-8.8817841970012523e-15
40
1.6005658278618826
210
-2.0757085365020654e-35
220
3.3896354303472828e-32
230
1
100
AcDbArc
50
0.035086169653988558
51
123.81268218951705
0
LINE
5
117
100
AcDbEntity
8
0
100
AcDbLine
10
-162.96184834381194
20
261.02062099857892
30
0
11
-162.96299711750279
21
261.02105164423062
31
6.6617925988842343e-20
0
ARC
5
118
100
AcDbEntity
8
0
100
AcDbCircle
10
-163.34361069660156
20
262.57440868485838
30
0
40
1.5999995846863819
210
1.100894795857632e-38
220
2.3111159332646923e-33
230
1
100
AcDbArc
50
69.471992667379212
51
179.98407203704014
0
ARC
5
119
100
AcDbEntity
8
0
100
AcDbCircle
10
-163.34360981970494
20
262.57512110295511
30
3.304621117495719e-39
40
1.600000580746135
210
8.9427242374403169e-39
220
2.3111159321775491e-33
230
1
100
AcDbArc
50
180.02233941529414
51
180.03509519344502
0
ARC
5
120
100
AcDbEntity
8
0
100
AcDbCircle
10
-208.35202252534657
20
262.50832488720908
30
-8.8817841970012523e-15
40
1.5999999933755193
210
-1.1357767492114426e-25
220
6.335317738553112e-26
230
1
100
AcDbArc
50
60.847394890594565
51
303.77960033566836
0
ARC
5
121
100
AcDbEntity
8
0
100
AcDbCircle
10
-162.40078277072965
20
262.51902194873145
30
0
40
1.5999999952237756
210
-4.8176600758612826e-27
220
1.8039385326762531e-27
230
1
100
AcDbArc
50
-110.5280550881026
51
103.80406410568106
0
LWPOLYLINE
5
122
100
AcDbEntity
8
0
100
AcDbPolyline
90
85
70
1
43
0.0
10
-100.05622481465245
20
127.59491727265566
10
-188.92290357710297
20
127.60053536671722
10
-196.69048315121881
20
128.04767819551125
10
-204.41907381481479
20
128.94154624158654
10
-212.08333016652116
20
130.279189058078
10
-219.65779231750176
20
132.05616313007852
10
-227.1172986662236
20
134.26656552841851
10
-234.43706948276667
20
136.9030535186169
10
-241.59278922459777
20
139.95686895272263
10
-248.56068731035535
20
143.41786736296325
10
-255.3176170833313
20
147.2745516606781
10
-261.84113270233496
20
151.51411032848912
10
-268.10956370452476
20
156.12245997885199
10
-274.10208699250057
20
161.08429213767008
10
-279.79879600654118
20
166.38312409750196
10
-285.18076685219791
20
172.00135367145887
10
-290.23012116356358
20
177.92031766590128
10
-294.93008549340834
20
184.12035387768293
10
-299.2650470328843
20
190.58086641001722
10
-303.22060547570618
20
197.28039408997967
10
-306.7836208545209
20
204.19668176036532
10
-309.942257190558
20
211.30675420907221
10
-312.6860218115599
20
218.58699249046055
10
-315.00580020738363
20
226.01321238509431
10
-316.89388630749141
20
233.56074473731007
10
-318.3440080797323
20
241.20451740366144
10
-319.35134836541391
20
248.91913854005355
10
-319.91256088141068
20
256.67898095089305
10
-320.02578133618329
20
264.45826722007371
10
-319.69063362276665
20
272.23115534093307
10
-318.90823106815975
20
279.97182456082061
10
-317.68117273496722
20
287.65456115503775
10
-316.01353478757187
20
295.25384384523886
10
-313.91085695152674
20
302.74442857855837
10
-311.38012411114602
20
310.10143238580412
10
-308.42974310642046
20
317.30041604019289
10
-305.06951480633955
20
324.31746524199269
10
-301.31060155139255
20
331.12927005944186
10
-297.16549007339376
20
337.71320236195976
10
-292.64795001581672
20
344.04739098856408
10
-287.77298819242355
20
350.11079440163195
10
-282.55679873613497
20
355.88327058480786
10
-277.01670930375496
20
361.3456439527173
10
-271.17112351523537
20
366.47976905035944
10
-265.03945981869856
20
371.26859083047998
10
-258.64208698430753
20
375.69620130871999
10
-252.00025644126296
20
379.7478924083315
10
-245.13603168268685
20
383.41020481894412
10
-238.07221497291962
20
386.67097270703897
10
-230.83227160069413
20
389.51936412960976
10
-223.44025192980186
20
391.94591701679877
10
-215.92071150620373
20
393.94257060394574
10
-208.29862948697809
20
395.50269220862651
10
-200.59932566207323
20
396.62109926377303
10
-192.84715025095602
20
397.29418298936116
10
-185.13857504480063
20
397.52131184225868
10
-177.29461875728805
20
397.2962865654145
10
-169.5434785061623
20
396.625511985863
10
-161.84385716346952
20
395.5092929623919
10
-154.22133209699379
20
393.95133746234052
10
-146.70122456843816
20
391.95682085720478
10
-139.30851561874826
20
389.53236873056539
10
-132.06776308360014
20
386.68603486857103
10
-125.00302001474279
20
383.42727450606219
10
-118.13775477818128
20
379.76691291725035
10
-111.49477309461709
20
375.71710945522426
10
-105.09614228114971
20
371.29131715981555
10
-98.963117945854094
20
366.50423806793918
10
-93.116073378801971
20
361.37177437492591
10
-87.574431874031546
20
355.91097560901005
10
-82.356602207321401
20
350.13998199452817
10
-77.479917484089952
20
344.07796419189765
10
-72.960577560557823
20
337.74505961462978
10
-68.813595229463147
20
331.16230553485491
10
-65.052746349061707
20
324.35156919962822
10
-61.690524081123506
20
317.33547519012967
10
-58.738097389897781
20
310.1373302650685
10
-56.205273939937825
20
302.78104593800981
10
-54.100467516031287
20
295.29105904569485
10
-52.430670073443515
20
287.69225057134156
10
-51.201428511357634
20
280.00986299251622
10
-50.416826246622293
20
272.26941642818161
10
-50.077906447503722
20
264.46060725221651
10
-50.057748175053945
20
122.59075558524289
10
-100.05551276440841
20
122.58365140808826
0
CIRCLE
5
123
100
AcDbEntity
8
0
100
AcDbCircle
10
-185.05234909516111
20
262.53221604189645
30
0
40
9.0000000000000018
210
0
220
0
230
1
0
ENDSEC
0
SECTION
2
OBJECTS
0
DICTIONARY
5
C
100
AcDbDictionary
3
ACAD_GROUP
350
D
3
ACAD_MLINESTYLE
350
17
0
DICTIONARY
5
D
100
AcDbDictionary
0
DICTIONARY
5
1A
330
C
100
AcDbDictionary
0
DICTIONARY
5
17
100
AcDbDictionary
0
ENDSEC
0
EOF
