0
SECTION
2
HEADER
9
$INSUNITS
70
4
9
$ACADVER
1
AC1014
9
$HANDSEED
5
FFFF
0
ENDSEC
0
SECTION
2
TABLES
0
TABLE
2
VPORT
5
8
100
AcDbSymbolTable
0
ENDTAB
0
TABLE
2
LTYPE
5
5
100
AcDbSymbolTable
0
LTYPE
5
14
100
AcDbSymbolTableRecord
100
AcDbLinetypeTableRecord
2
BYBLOCK
70
0
0
LTYPE
5
15
100
AcDbSymbolTableRecord
100
AcDbLinetypeTableRecord
2
BYLAYER
70
0
0
LTYPE
5
16
100
AcDbSymbolTableRecord
100
AcDbLinetypeTableRecord
2
DASHED
70
0
3
Dashed __ __ __ __ __ __ __ __ __ __ __ __ __ _
72
65
73
2
40
0.75
49
0.5
74
0
49
-0.25
74
0
0
ENDTAB
0
TABLE
2
LAYER
5
2
100
AcDbSymbolTable
70
2
0
LAYER
5
50
100
AcDbSymbolTableRecord
100
AcDbLayerTableRecord
2
0
70
0
62
7
6
CONTINUOUS
0
ENDTAB
0
TABLE
2
STYLE
5
3
100
AcDbSymbolTable
70
1
0
STYLE
5
11
100
AcDbSymbolTableRecord
100
AcDbTextStyleTableRecord
2
STANDARD
70
0
0
ENDTAB
0
TABLE
2
VIEW
5
6
100
AcDbSymbolTable
70
0
0
ENDTAB
0
TABLE
2
UCS
5
7
100
AcDbSymbolTable
70
0
0
ENDTAB
0
TABLE
2
APPID
5
9
100
AcDbSymbolTable
70
2
0
APPID
5
12
100
AcDbSymbolTableRecord
100
AcDbRegAppTableRecord
2
ACAD
70
0
0
ENDTAB
0
TABLE
2
DIMSTYLE
5
A
100
AcDbSymbolTable
70
1
0
ENDTAB
0
TABLE
2
BLOCK_RECORD
5
1
100
AcDbSymbolTable
70
1
0
BLOCK_RECORD
5
1F
100
AcDbSymbolTableRecord
100
AcDbBlockTableRecord
2
*MODEL_SPACE
0
BLOCK_RECORD
5
1B
100
AcDbSymbolTableRecord
100
AcDbBlockTableRecord
2
*PAPER_SPACE
0
ENDTAB
0
ENDSEC
0
SECTION
2
BLOCKS
0
BLOCK
5
20
100
AcDbEntity
100
AcDbBlockBegin
2
*MODEL_SPACE
0
ENDBLK
5
21
100
AcDbEntity
100
AcDbBlockEnd
0
BLOCK
5
1C
100
AcDbEntity
100
AcDbBlockBegin
2
*PAPER_SPACE
0
ENDBLK
5
1D
100
AcDbEntity
100
AcDbBlockEnd
0
ENDSEC
0
SECTION
2
ENTITIES
0
ELLIPSE
5
100
100
AcDbEntity
8
0
100
AcDbEllipse
10
2.4980018054066022e-15
20
11.329547507683767
30
0
11
-3.8431361647700628e-14
21
49.451275998835804
31
0.0
40
0.9848077530122078
41
0
42
6.2831853071795862
0
SPLINE
5
101
100
AcDbEntity
8
0
100
AcDbSpline
70
2
71
3
72
47
73
43
74
0
42
0.000000001
43
0.0000000001
44
0.0000000001
40
-3.1415926535897931
40
-3.1415926535897931
40
-3.1415926535897931
40
-3.1415926535897931
40
-2.6759991300356409
40
-2.6759991300356409
40
-2.6759991300356409
40
-2.204225477871351
40
-2.204225477871351
40
-2.204225477871351
40
-1.726446250909726
40
-1.726446250909726
40
-1.726446250909726
40
-1.2476796992244841
40
-1.2476796992244841
40
-1.2476796992244841
40
-0.77411150053546851
40
-0.77411150053546851
40
-0.77411150053546851
40
-0.28464848126981079
40
-0.28464848126981079
40
-0.28464848126981079
40
0.17945063464121491
40
0.17945063464121491
40
0.17945063464121491
40
0.64683108412630508
40
0.64683108412630508
40
0.64683108412630508
40
1.1203672905374831
40
1.1203672905374831
40
1.1203672905374831
40
1.5986744049387158
40
1.5986744049387158
40
1.5986744049387158
40
2.0754715386573741
40
2.0754715386573741
40
2.0754715386573741
40
2.5460667525325489
40
2.5460667525325489
40
2.5460667525325489
40
3.0095820951801762
40
3.0095820951801762
40
3.0095820951801762
40
3.1415926535897931
40
3.1415926535897931
40
3.1415926535897931
40
3.1415926535897931
10
6.9944050551384862e-14
20
-53.121728491152027
30
-3.5527136788005009e-14
10
-9.9220151363883797
20
-53.121728491152034
30
-3.5527136788005009e-14
10
-19.834713810594792
20
-50.732615778827466
30
-3.5527136788005009e-14
10
-28.680881652681297
20
-46.219428053657921
30
-1.7763568394002505e-14
10
-37.644470490132235
20
-41.646333823839605
30
-3.5527136788005009e-14
10
-45.497711301228058
20
-34.902013571910153
30
-1.7763568394002505e-14
10
-51.406732936496518
20
-26.731614638946581
30
-1.7763568394002505e-14
10
-57.390975117140655
20
-18.457208325132317
30
0
10
-61.373401792730306
20
-8.7344148291852903
30
0
10
-62.935301948771453
20
1.3726658191966146
30
1.7763568394002505e-14
10
-64.500429751710698
20
11.500632621778236
30
0
10
-63.633560021601184
20
21.999954673858475
30
1.7763568394002505e-14
10
-60.425222379374269
20
31.729126195019106
30
1.7763568394002505e-14
10
-57.251720235861029
20
41.352660286518457
30
1.7763568394002505e-14
10
-51.790968423224477
20
50.208617779068625
30
3.5527136788005009e-14
10
-44.613242651038618
20
57.334376278178816
30
3.5527136788005009e-14
10
-37.194604031214176
20
64.699303397836985
30
5.3290705182007514e-14
10
-27.95020151851228
20
70.197980434333346
30
5.3290705182007514e-14
10
-17.947987578009197
20
73.169715056109482
30
5.3290705182007514e-14
10
-8.4640869272412509
20
75.9874548166284
30
3.5527136788005009e-14
10
1.6817988819990626
20
76.530439670925574
30
7.1054273576010019e-14
10
11.409709713379392
20
74.738554137959113
30
5.3290705182007514e-14
10
21.206400077670185
20
72.933999384219319
30
5.3290705182007514e-14
10
30.561041192601067
20
68.765394875704132
30
5.3290705182007514e-14
10
38.477545190592586
20
62.694492694614823
30
3.5527136788005009e-14
10
46.498315583059366
20
56.543632102363865
30
3.5527136788005009e-14
10
53.0304371774887
20
48.452169094737478
30
3.5527136788005009e-14
10
57.385341745148693
20
39.307774266229089
30
3.5527136788005009e-14
10
61.784122258758529
20
30.071249066777828
30
1.7763568394002505e-14
10
63.956510590334645
20
19.774955649800393
30
1.7763568394002505e-14
10
63.675423841753286
20
9.5393498418137863
30
0
10
63.395224463540679
20
-0.66394290500528808
30
0
10
60.677501792243909
20
-10.792673067958184
30
-1.7763568394002505e-14
10
55.805148383412146
20
-19.74926159589139
30
-1.7763568394002505e-14
10
50.99617191868029
20
-28.589347653081791
30
-1.7763568394002505e-14
10
44.093999081115101
20
-36.273834333017959
30
-1.7763568394002505e-14
10
35.82045854376274
20
-41.966373859590931
30
-1.7763568394002505e-14
10
27.671389313965769
20
-47.573271956719694
30
-1.7763568394002505e-14
10
18.204489498772812
20
-51.236967120107892
30
-3.5527136788005009e-14
10
8.4145887052756745
20
-52.556950900530836
30
-3.5527136788005009e-14
10
5.6263956259652605
20
-52.932886236241465
30
-3.5527136788005009e-14
10
2.8132065684779564
20
-53.121728491152034
30
-3.5527136788005009e-14
10
6.9944050551384862e-14
20
-53.121728491152027
30
-3.5527136788005009e-14
0
ENDSEC
0
SECTION
2
OBJECTS
0
DICTIONARY
5
C
100
AcDbDictionary
3
ACAD_GROUP
350
D
3
ACAD_MLINESTYLE
350
17
0
DICTIONARY
5
D
100
AcDbDictionary
0
DICTIONARY
5
1A
330
C
100
AcDbDictionary
0
DICTIONARY
5
17
100
AcDbDictionary
0
ENDSEC
0
EOF
