0
SECTION
2
HEADER
9
$INSUNITS
70
4
9
$ACADVER
1
AC1014
9
$HANDSEED
5
FFFF
0
ENDSEC
0
SECTION
2
TABLES
0
TABLE
2
VPORT
5
8
100
AcDbSymbolTable
0
ENDTAB
0
TABLE
2
LTYPE
5
5
100
AcDbSymbolTable
0
LTYPE
5
14
100
AcDbSymbolTableRecord
100
AcDbLinetypeTableRecord
2
BYBLOCK
70
0
0
LTYPE
5
15
100
AcDbSymbolTableRecord
100
AcDbLinetypeTableRecord
2
BYLAYER
70
0
0
LTYPE
5
16
100
AcDbSymbolTableRecord
100
AcDbLinetypeTableRecord
2
DASHED
70
0
3
Dashed __ __ __ __ __ __ __ __ __ __ __ __ __ _
72
65
73
2
40
0.75
49
0.5
74
0
49
-0.25
74
0
0
ENDTAB
0
TABLE
2
LAYER
5
2
100
AcDbSymbolTable
70
2
0
LAYER
5
50
100
AcDbSymbolTableRecord
100
AcDbLayerTableRecord
2
0
70
0
62
7
6
CONTINUOUS
0
ENDTAB
0
TABLE
2
STYLE
5
3
100
AcDbSymbolTable
70
1
0
STYLE
5
11
100
AcDbSymbolTableRecord
100
AcDbTextStyleTableRecord
2
STANDARD
70
0
0
ENDTAB
0
TABLE
2
VIEW
5
6
100
AcDbSymbolTable
70
0
0
ENDTAB
0
TABLE
2
UCS
5
7
100
AcDbSymbolTable
70
0
0
ENDTAB
0
TABLE
2
APPID
5
9
100
AcDbSymbolTable
70
2
0
APPID
5
12
100
AcDbSymbolTableRecord
100
AcDbRegAppTableRecord
2
ACAD
70
0
0
ENDTAB
0
TABLE
2
DIMSTYLE
5
A
100
AcDbSymbolTable
70
1
0
ENDTAB
0
TABLE
2
BLOCK_RECORD
5
1
100
AcDbSymbolTable
70
1
0
BLOCK_RECORD
5
1F
100
AcDbSymbolTableRecord
100
AcDbBlockTableRecord
2
*MODEL_SPACE
0
BLOCK_RECORD
5
1B
100
AcDbSymbolTableRecord
100
AcDbBlockTableRecord
2
*PAPER_SPACE
0
ENDTAB
0
ENDSEC
0
SECTION
2
BLOCKS
0
BLOCK
5
20
100
AcDbEntity
100
AcDbBlockBegin
2
*MODEL_SPACE
0
ENDBLK
5
21
100
AcDbEntity
100
AcDbBlockEnd
0
BLOCK
5
1C
100
AcDbEntity
100
AcDbBlockBegin
2
*PAPER_SPACE
0
ENDBLK
5
1D
100
AcDbEntity
100
AcDbBlockEnd
0
ENDSEC
0
SECTION
2
ENTITIES
0
LWPOLYLINE
5
100
100
AcDbEntity
8
0
100
AcDbPolyline
90
10
70
1
43
0.0
10
182.78427779388005
20
-80.882734079710787
10
182.78428302764556
20
-80.890734077998758
10
182.78434844971463
20
-80.990734056598527
10
182.7875632093963
20
-85.890043789661675
10
142.79314654272957
20
-85.916208960172128
10
142.78994703970707
20
-81.016899227108979
10
142.78987638387247
20
-80.908899250221239
10
142.78991171178978
20
-80.908899227108975
10
142.78991171178978
20
-80.883348512612358
10
181.84509506983034
20
-80.883348512612216
0
LWPOLYLINE
5
101
100
AcDbEntity
8
0
100
AcDbPolyline
90
4
70
1
43
0.0
10
81.996064060456149
20
0.0097054057526868576
10
82.039771441166764
20
-66.810134922358671
10
67.061108598684797
20
-66.819929442928526
10
67.01740121211671
20
-8.3382063484904734e-05
0
LWPOLYLINE
5
102
100
AcDbEntity
8
0
100
AcDbPolyline
90
208
70
1
43
0.0
10
325.20622218644849
20
-99.623963553936505
10
330.27509525843584
20
-99.62394242487315
10
330.26855330025347
20
-89.623942424873178
10
330.20644063947157
20
-89.623942424873178
10
325.20617993016793
20
-89.623963554115079
10
325.20613767388744
20
-79.623963554293638
10
330.20644063947157
20
-79.623942424873164
10
330.26201134207105
20
-79.623942424873164
10
330.25546938388862
20
-69.623942424873178
10
330.20644063947157
20
-69.623942424873178
10
325.20609541760689
20
-69.623963554472212
10
325.20605316132645
20
-59.62396355465075
10
330.20644063947157
20
-59.623942424873164
10
330.24892742570626
20
-59.623942424873164
10
330.24238546752383
20
-49.623942424873178
10
330.20644063947157
20
-49.623942424873178
10
325.2060109050459
20
-49.623963554829331
10
325.20596864876546
20
-39.623963555007869
10
330.20644063947157
20
-39.623942424873164
10
330.23584350934141
20
-39.623942424873164
10
330.22930155115915
20
-29.623942424873171
10
330.20644063947157
20
-29.623942424873171
10
325.20592639248491
20
-29.623963555186439
10
325.20588413620442
20
-19.623963555364988
10
330.20644063947157
20
-19.623942424873164
10
330.22275959297679
20
-19.623942424873164
10
330.21621763479436
20
-9.6239424248731709
10
330.20644063947157
20
-9.6239424248731709
10
325.20584187992392
20
-9.6239635555435576
10
325.20579976355697
20
0.34292572382723208
10
315.48083557067548
20
0.34292572382723319
10
315.48083557067548
20
5.3332932837565927
10
315.48082706701189
20
5.3462932809753507
10
305.48082706701189
20
5.3397519999048875
10
305.48083557067548
20
5.3267520026861295
10
305.48083557067548
20
0.34292572382723208
10
295.48083557067548
20
0.34292572382723097
10
295.48083557067548
20
5.3202107216156644
10
295.48081790922038
20
5.3472107158392381
10
285.48081790922038
20
5.340669434768774
10
285.48083557067548
20
5.3136694405452012
10
285.48083557067548
20
0.34292572382722986
10
275.48083557067548
20
0.34292572382722764
10
275.48083557067548
20
5.3461281678184669
10
265.48081005968476
20
5.3395868700605469
10
265.48083557067548
20
5.3005868784042729
10
265.48083557067548
20
0.34292572382722653
10
255.48083557067548
20
0.34292572382722541
10
255.48083557067548
20
5.3470456086739322
10
245.48080090189325
20
5.3405043049244334
10
245.48083557067548
20
5.2875043162633446
10
245.48083557067548
20
0.3429257238272243
10
235.48083557067548
20
0.34292572382722319
10
235.48083557067548
20
5.345963049099173
10
225.48079305235763
20
5.3394217402162063
10
225.48083557067548
20
5.2744217541224181
10
225.48083557067548
20
0.34292572382722208
10
215.48083557067548
20
0.34292572382722097
10
215.48083557067548
20
5.346880489953354
10
205.48078389456609
20
5.3403391750800946
10
205.48083557067548
20
5.2613391919814898
10
205.48083557067548
20
0.34292572382721986
10
195.48083557067548
20
0.34292572382721875
10
195.48083557067548
20
5.3467979305936701
10
185.48077539090252
20
5.3402566101579243
10
185.48083557067548
20
5.2482566298405615
10
185.48083557067548
20
0.34292572382721653
10
175.48083557067548
20
0.34292572382721542
10
175.48083557067548
20
5.3457153710240624
10
165.4807675413669
20
5.3391740454529577
10
165.48083557067548
20
5.2351740677028964
10
165.48083557067548
20
0.34292572382721431
10
155.48083557067548
20
0.3429257238272132
10
155.48083557067548
20
5.3476328120911942
10
145.48075772944742
20
5.3410914801033007
10
145.48083557067548
20
5.2220915055623651
10
145.48083557067548
20
0.34292572382721209
10
135.48083557067548
20
0.34292572382721098
10
135.48083557067548
20
5.3445502520906709
10
125.48075118816774
20
5.3380089158233517
10
125.4808355706755
20
5.2090089434218338
10
125.4808355706755
20
0.34292572382720987
10
115.4808355706755
20
0.34292572382720876
10
115.4808355706755
20
5.344467692731298
10
105.48074268450418
20
5.3379263509015775
10
105.4808355706755
20
5.1959263812813017
10
105.4808355706755
20
0.34292572382720765
10
95.480835570675495
20
0.34292572382720654
10
95.480835570675495
20
5.3613851370092664
10
65.480723060665156
20
5.3417612202022617
10
65.480835570675495
20
5.1697612570002374
10
65.480835570675495
20
0.3429257238272021
10
55.480835570675495
20
0.34292572382720099
10
55.480835570675495
20
5.3462200150814319
10
45.480715865257515
20
5.3396786557083704
10
45.480835570675495
20
5.1566786948597052
10
45.480835570675495
20
0.34292572382719988
10
35.480835570675495
20
0.34292572382719877
10
35.480835570675495
20
5.346137455722026
10
25.480835570675495
20
5.3395961746457257
10
25.480835570675495
20
0.34292572382719766
10
15.480835570675495
20
0.34292572382719655
10
15.480835570675495
20
5.3440548959348542
10
5.4808355706754952
20
5.3375136148581559
10
5.4808355706754943
20
0.34292572382719544
10
0.48149675453385277
20
0.34292817771346085
10
0.48149675453385277
20
-9.6239325523200741
10
-4.5185032454661469
20
-9.6239325523200741
10
-4.5185032454661496
20
-19.62393660259842
10
0.48149675453385277
20
-19.623936602598416
10
0.48149675453385277
20
-29.623940652876783
10
-4.5185032454661496
20
-29.623940652876783
10
-4.5185032454661211
20
-39.623942424873121
10
0.48149675453387886
20
-39.623942424873121
10
0.48149675453387886
20
-49.623942424873142
10
-4.5185032454661211
20
-49.623942424873142
10
-4.5185032454661211
20
-59.623942424873128
10
0.48149675453387886
20
-59.623942424873128
10
0.48149675453385277
20
-69.62394242487315
10
-4.5185032454661211
20
-69.62394242487315
10
-4.5185032454661469
20
-79.623942424873121
10
0.48149675453385277
20
-79.623942424873121
10
0.48149675453385277
20
-89.623942424873135
10
-4.5185032454661469
20
-89.623942424873135
10
-4.5185032454661469
20
-99.623942424873121
10
0.48149675453385277
20
-99.623942424873121
10
0.48149675453385277
20
-109.62394242487314
10
-4.5185032454661469
20
-109.62394242487314
10
-4.5185032454661469
20
-119.62394242487312
10
0.48149675453385277
20
-119.62394242487312
10
0.48149675453385277
20
-129.62394242487312
10
-4.5185032454661469
20
-129.62394242487312
10
-4.5185050867479335
20
-146.31338421247258
10
5.4808355706755112
20
-146.31361930325031
10
5.4808355706755112
20
-151.3136193046322
10
15.480835570675513
20
-151.31385441090583
10
15.480835570675513
20
-146.31385440952397
10
25.480835570675509
20
-146.31408951579758
10
25.480835570675509
20
-151.31408951717947
10
35.480835570675509
20
-151.3143246234531
10
35.480835570675509
20
-146.31432462207124
10
45.480835570675502
20
-146.31455972834485
10
45.480835570675502
20
-151.31455972972671
10
55.480835570675502
20
-151.3147948360004
10
55.480835570675502
20
-146.31479483461851
10
65.480835570675481
20
-146.31502994089212
10
65.480835570675495
20
-151.31502994227401
10
75.480835570675495
20
-151.31526504854764
10
75.480835570675495
20
-146.31526504716578
10
85.480835570675495
20
-146.31550015343942
10
85.480835570675495
20
-151.31550015482128
10
95.480835570675481
20
-151.31573526109494
10
95.480835570675495
20
-146.31573525971305
10
105.4808355706755
20
-146.31597036598666
10
105.4808355706755
20
-151.31597036736855
10
115.48083557067548
20
-151.31620547364219
10
115.48083557067548
20
-146.31620547226032
10
125.4808355706755
20
-146.31644057853393
10
125.4808355706755
20
-151.31644057991582
10
135.48083557067548
20
-151.31667568618946
10
135.48083557067548
20
-146.31667568480759
10
145.48083557067551
20
-146.3169107910812
10
145.48083557067548
20
-151.31691079246309
10
155.48083557067548
20
-151.31714589873673
10
155.48083557067548
20
-146.31714589735486
10
165.48083557067554
20
-146.31738100362847
10
165.48083557067548
20
-151.31738100501036
10
175.48083557067554
20
-151.317616111284
10
175.48083557067554
20
-146.31761610990213
10
185.48083557067554
20
-146.31785121617577
10
185.48083557067548
20
-151.31785121755763
10
195.48083557067548
20
-151.31808632383127
10
195.48083557067548
20
-146.31808632244937
10
205.48083557067554
20
-146.31832142872301
10
205.48083557067548
20
-151.3183214301049
10
215.48083557067554
20
-151.31855653637854
10
215.48083557067554
20
-146.31855653499667
10
225.48083557067554
20
-146.31879164127031
10
225.48083557067554
20
-151.31879164265217
10
235.48083557067548
20
-151.31902674892584
10
235.48083557067548
20
-146.31902674754394
10
245.48083557067554
20
-146.31926185381755
10
245.48083557067548
20
-151.31926185519944
10
255.48083557067548
20
-151.31949696147308
10
255.48083557067554
20
-146.31949696009121
10
265.48083557067554
20
-146.31973206636485
10
265.48083557067554
20
-151.31973206774671
10
275.48083557067554
20
-151.31996717402038
10
275.48083557067554
20
-146.31996717263848
10
285.48083557067548
20
-146.32020227891212
10
285.48083557067548
20
-151.32020228029398
10
295.48083557067548
20
-151.32043738656765
10
295.48083557067548
20
-146.32043738518576
10
305.48083557067548
20
-146.32067249145939
10
305.48083557067548
20
-151.32067249284125
10
315.48083557067548
20
-151.32090759911492
10
315.48083557067554
20
-146.32090759773303
10
325.20642765483495
20
-146.32113625250443
10
325.20639121157046
20
-139.62396355322227
10
330.30126309116548
20
-139.62394242487315
10
330.29472113298306
20
-129.62394242487318
10
330.20644063947157
20
-129.62394242487318
10
325.20634895528991
20
-129.62396355340084
10
325.20630669900947
20
-119.62396355357939
10
330.28817917480069
20
-119.62394242487315
10
330.28163721661826
20
-109.62394242487318
10
330.20644063947157
20
-109.62394242487318
10
325.20626444272892
20
-109.62396355375796
0
ENDSEC
0
SECTION
2
OBJECTS
0
DICTIONARY
5
C
100
AcDbDictionary
3
ACAD_GROUP
350
D
3
ACAD_MLINESTYLE
350
17
0
DICTIONARY
5
D
100
AcDbDictionary
0
DICTIONARY
5
1A
330
C
100
AcDbDictionary
0
DICTIONARY
5
17
100
AcDbDictionary
0
ENDSEC
0
EOF
