0
SECTION
2
HEADER
9
$INSUNITS
70
4
9
$ACADVER
1
AC1014
9
$HANDSEED
5
FFFF
0
ENDSEC
0
SECTION
2
TABLES
0
TABLE
2
VPORT
5
8
100
AcDbSymbolTable
0
ENDTAB
0
TABLE
2
LTYPE
5
5
100
AcDbSymbolTable
0
LTYPE
5
14
100
AcDbSymbolTableRecord
100
AcDbLinetypeTableRecord
2
BYBLOCK
70
0
0
LTYPE
5
15
100
AcDbSymbolTableRecord
100
AcDbLinetypeTableRecord
2
BYLAYER
70
0
0
LTYPE
5
16
100
AcDbSymbolTableRecord
100
AcDbLinetypeTableRecord
2
DASHED
70
0
3
Dashed __ __ __ __ __ __ __ __ __ __ __ __ __ _
72
65
73
2
40
0.75
49
0.5
74
0
49
-0.25
74
0
0
ENDTAB
0
TABLE
2
LAYER
5
2
100
AcDbSymbolTable
70
2
0
LAYER
5
50
100
AcDbSymbolTableRecord
100
AcDbLayerTableRecord
2
0
70
0
62
7
6
CONTINUOUS
0
ENDTAB
0
TABLE
2
STYLE
5
3
100
AcDbSymbolTable
70
1
0
STYLE
5
11
100
AcDbSymbolTableRecord
100
AcDbTextStyleTableRecord
2
STANDARD
70
0
0
ENDTAB
0
TABLE
2
VIEW
5
6
100
AcDbSymbolTable
70
0
0
ENDTAB
0
TABLE
2
UCS
5
7
100
AcDbSymbolTable
70
0
0
ENDTAB
0
TABLE
2
APPID
5
9
100
AcDbSymbolTable
70
2
0
APPID
5
12
100
AcDbSymbolTableRecord
100
AcDbRegAppTableRecord
2
ACAD
70
0
0
ENDTAB
0
TABLE
2
DIMSTYLE
5
A
100
AcDbSymbolTable
70
1
0
ENDTAB
0
TABLE
2
BLOCK_RECORD
5
1
100
AcDbSymbolTable
70
1
0
BLOCK_RECORD
5
1F
100
AcDbSymbolTableRecord
100
AcDbBlockTableRecord
2
*MODEL_SPACE
0
BLOCK_RECORD
5
1B
100
AcDbSymbolTableRecord
100
AcDbBlockTableRecord
2
*PAPER_SPACE
0
ENDTAB
0
ENDSEC
0
SECTION
2
BLOCKS
0
BLOCK
5
20
100
AcDbEntity
100
AcDbBlockBegin
2
*MODEL_SPACE
0
ENDBLK
5
21
100
AcDbEntity
100
AcDbBlockEnd
0
BLOCK
5
1C
100
AcDbEntity
100
AcDbBlockBegin
2
*PAPER_SPACE
0
ENDBLK
5
1D
100
AcDbEntity
100
AcDbBlockEnd
0
ENDSEC
0
SECTION
2
ENTITIES
0
LWPOLYLINE
5
100
100
AcDbEntity
8
0
100
AcDbPolyline
90
140
70
1
43
0.0
10
47.953441692059499
20
122.59296951809404
10
0.48149675453555751
20
122.59297649245258
10
0.48149675453555807
20
112.62788363777145
10
-4.5189886963386714
20
112.62788363777145
10
-4.519005474461764
20
102.39977222388663
10
0.48149675453555751
20
102.39977222388663
10
0.48149675453555807
20
92.401881834942941
10
-4.5190218749319016
20
92.401881834942941
10
-4.5190386530553823
20
82.173770190014338
10
0.48149675453555751
20
82.173770190014338
10
0.48149675453555807
20
72.175878019260196
10
-4.5190550535284331
20
72.175878019260196
10
-4.5190718316545269
20
61.947764782535266
10
0.48149675453555751
20
61.947764782535266
10
0.48149675453555807
20
51.949872611781103
10
-4.5180882321275782
20
51.949872610140709
10
-4.5181050102536711
20
41.721759373415765
10
0.48149675453555807
20
41.721759375056152
10
0.48149675453555807
20
31.723867204301996
10
-4.5181214107267218
20
31.723867202661602
10
-4.5181381888528147
20
21.495753965936633
10
0.48149675453555807
20
21.495753967577027
10
0.48149675453555807
20
11.497861796822868
10
-4.5181545893258654
20
11.497861795182477
10
-4.5181644293228027
20
5.4993013903949981
10
-4.5181644293228009
20
-0.00069860796460874397
10
5.4808355706771987
20
-0.00069860796460874397
10
5.480835570677197
20
4.9993013920353917
10
15.480835570677197
20
4.9993013920353935
10
15.480835570677199
20
-0.00069860796460430308
10
25.480835570677201
20
-0.00069860796460446527
10
25.480835570677201
20
4.9993013920353953
10
35.480835570677201
20
4.9993013920353979
10
35.480835570677201
20
-0.0006986079646004173
10
45.480835570677201
20
-0.00069860796460018658
10
45.480835570677201
20
4.9993013920353997
10
55.480835570677201
20
4.9993013920354015
10
55.480835570677201
20
-0.00069860796459597641
10
65.480835570677201
20
-0.00069860796459590788
10
65.480835570677201
20
4.9993013920354041
10
95.480835570677201
20
4.9993013920354104
10
95.480835570677201
20
-0.00069860796458709462
10
105.4808355706772
20
-0.00069860796458735049
10
105.4808355706772
20
4.999301392035413
10
115.4808355706772
20
4.9993013920354148
10
115.4808355706772
20
-0.00069860796458320884
10
125.4808355706772
20
-0.0006986079645830718
10
125.4808355706772
20
4.9993013920354166
10
135.48083557067719
20
4.9993013920354192
10
135.48083557067719
20
-0.00069860796457876795
10
145.48083557067719
20
-0.0006986079645787931
10
145.48083557067719
20
4.999301392035421
10
155.48083557067719
20
4.9993013920354237
10
155.48083557067719
20
-0.00069860796457432706
10
165.48083557067719
20
-0.00069860796457451451
10
165.48083557067719
20
4.9993013920354255
10
175.48083557067719
20
4.9993013920354281
10
175.48083557067719
20
-0.00069860796457044128
10
185.48083557067719
20
-0.00069860796457023571
10
185.48083557067719
20
4.9993013920354299
10
195.48083557067719
20
4.9993013920354317
10
195.48083557067719
20
-0.00069860796456600038
10
205.48083557067719
20
-0.00069860796456595702
10
205.48083557067719
20
4.9993013920354343
10
215.48083557067719
20
4.9993013920354361
10
215.48083557067719
20
-0.00069860796456155949
10
225.48083557067719
20
-0.00069860796456167832
10
225.48083557067719
20
4.9993013920354388
10
235.48083557067719
20
4.9993013920354405
10
235.48083557067719
20
-0.0006986079645571186
10
245.48083557067719
20
-0.00069860796455739962
10
245.48083557067719
20
4.9993013920354423
10
255.48083557067719
20
4.999301392035445
10
255.48083557067719
20
-0.00069860796455323282
10
265.48083557067719
20
-0.00069860796455312104
10
265.48083557067719
20
4.9993013920354468
10
275.48083557067719
20
4.9993013920354485
10
275.48083557067719
20
-0.00069860796454879193
10
285.48083557067719
20
-0.00069860796454884234
10
285.48083557067719
20
4.9993013920354512
10
295.48083557067719
20
4.9993013920354539
10
295.48083557067719
20
-0.00069860796454435103
10
305.48083557067719
20
-0.00069860796454456354
10
305.48083557067719
20
4.9993013920354556
10
315.48083557067719
20
4.9993013920354574
10
315.48083557067719
20
-0.00069860796454046525
10
330.20643981927674
20
-0.00069860796453935503
10
330.20643981927674
20
5.4993013920354628
10
330.20642998620485
20
11.493640201399247
10
325.20577863541848
20
11.493640201399227
10
325.20577863541837
20
21.49153237215339
10
330.20641358573187
20
21.491532372153376
10
330.20639680760576
20
31.719645608878373
10
325.20577863541848
20
31.719645608878352
10
325.20577863541848
20
41.718382098717257
10
330.20638040574767
20
41.718382098717235
10
330.2063636290066
20
51.945651016357473
10
325.20577863541848
20
51.945651016357466
10
325.20577863541837
20
61.943543187111629
10
330.20634722853356
20
61.943543187111629
10
330.20633045040745
20
72.171656423836566
10
325.20577863541848
20
72.171656423836581
10
325.20577863541837
20
82.169548594590722
10
330.20631404993435
20
82.169548594590722
10
330.20629727180835
20
92.397661831315659
10
325.20577863541848
20
92.397661831315659
10
325.20577863541848
20
102.39639832115455
10
330.20628086995032
20
102.39639832115455
10
330.20626409320914
20
112.62366723879478
10
325.20577863541848
20
112.62366723879475
10
325.20577863541848
20
122.59296951809402
10
330.03976855607266
20
122.59296951809402
10
329.8958455716861
20
125.56531000311061
10
328.96692862025236
20
131.91978483898325
10
327.42838608091006
20
138.15478477674014
10
325.2946202399346
20
144.21195309497983
10
322.58561732086463
20
150.03462656147155
10
319.32667286463709
20
155.56830838958894
10
315.54833070294984
20
160.7612327347008
10
311.28595577180522
20
165.5648071372874
10
306.57936795168848
20
169.93407022271634
10
301.47265898765846
20
173.82813414435867
10
296.01361273629794
20
177.21059651338743
10
290.25327797925598
20
180.0497692486652
10
170.70246272733334
20
180.04973873534675
10
165.2620601135028
20
176.79463895723495
10
160.03619664120004
20
173.20520474963666
10
155.04540777369465
20
169.29550275232464
10
150.3092830613864
20
165.08091167776263
10
145.84640511516855
20
160.5779697445123
10
141.67431909310943
20
155.80435942057443
10
137.80938013386054
20
150.77881588343467
10
134.26679912663423
20
145.52108125008425
10
131.06045963129327
20
140.05179778040718
10
128.20294839166925
20
134.39243159388377
10
125.70549430892595
20
128.56522689961267
10
123.57790741492238
20
122.59303054473079
10
106.26631084490742
20
122.59303054473079
10
106.26631084490741
20
82.796475255366886
10
47.953441692059478
20
82.796475255366886
0
CIRCLE
5
101
100
AcDbEntity
8
0
100
AcDbCircle
10
115.04999999999889
20
100.02749261255774
30
0
40
1.6999999999999993
210
0
220
1.4489529157794557e-48
230
1
0
LWPOLYLINE
5
102
100
AcDbEntity
8
0
100
AcDbPolyline
90
2
70
1
43
0.0
10
35.50680797542632
20
100.15002364549761
42
0.99988111937270863
10
32.115586197242195
20
99.905862453315819
42
0.99999999999999989
0
CIRCLE
5
103
100
AcDbEntity
8
0
100
AcDbCircle
10
153.78824422511389
20
94.035739802540078
30
0
40
1.9999999999999929
210
0
220
-1.3684555315472905e-48
230
1
0
CIRCLE
5
104
100
AcDbEntity
8
0
100
AcDbCircle
10
231.28824306282328
20
16.535739951551712
30
0
40
1.9999999999999929
210
0
220
-1.3684555315472905e-48
230
1
0
CIRCLE
5
105
100
AcDbEntity
8
0
100
AcDbCircle
10
231.28824306282328
20
171.53574105423763
30
0
40
1.9999999999999929
210
0
220
-1.3684555315472905e-48
230
1
0
CIRCLE
5
106
100
AcDbEntity
8
0
100
AcDbCircle
10
308.78824532779976
20
94.035739802540107
30
0
40
1.9999999999999929
210
0
220
-1.3684555315472905e-48
230
1
0
CIRCLE
5
107
100
AcDbEntity
8
0
100
AcDbCircle
10
48.300000000001717
20
19.999003410339409
30
0
40
1.6000000000000014
210
0
220
1.1973985901163252e-48
230
1
0
LWPOLYLINE
5
108
100
AcDbEntity
8
0
100
AcDbPolyline
90
43
70
1
43
0.0
10
222.42110325499505
20
91.722248640192348
10
222.22362105844144
20
93.021048037025125
10
222.21735057151446
20
94.334768446545567
10
222.40242910414662
20
95.635398642481135
10
222.77492043826709
20
96.895217275083851
10
223.32686059777859
20
98.087380252509035
10
224.04650195510516
20
99.18647760887616
10
224.91849631110159
20
100.16908274399917
10
225.92427631153387
20
101.01424826481022
10
227.04239109358116
20
101.70396368513579
10
228.24900975558887
20
102.22353684217609
10
229.51842482682196
20
102.56188377302962
10
230.82357099387775
20
102.71179570622913
10
232.1366506237122
20
102.67007637167453
10
233.42965249005286
20
102.43762591225781
10
234.67502306640273
20
102.01937985722701
10
235.84623102243071
20
101.42427098053766
10
236.91831646370218
20
100.66496993764716
10
237.86840965809159
20
99.757664043955785
10
238.67628027551302
20
98.721691114986712
10
239.32470354774128
20
97.579135164917261
10
239.7998569415503
20
96.354338193484921
10
240.09162529189712
20
95.073411972892998
10
240.19376862517331
20
93.763658294761925
10
240.1041204957736
20
92.452989217079491
10
239.82460324275624
20
91.169339682822184
10
239.3611517065458
20
89.940064881917579
10
238.72366745895673
20
88.791368126524262
10
237.92571367000869
20
87.74773635464193
10
236.98431677135756
20
86.831406147039658
10
235.9195240131788
20
86.061913655810329
10
234.75405256100626
20
85.455652161253255
10
233.51272499934163
20
85.025544053702333
10
232.22199637522033
20
84.780766213660215
10
230.90937444516152
20
84.72652116191064
10
229.60285517877867
20
84.863976032881681
10
228.33026672243409
20
85.190193919679302
10
227.11875067282645
20
85.698225414042426
10
225.99410604064593
20
86.377245916275953
10
224.98030103747976
20
87.212776856808603
10
224.09896960605914
20
88.18701371436596
10
223.36887743718751
20
89.279192175790456
10
222.80558632323871
20
90.466038207487998
0
LWPOLYLINE
5
109
100
AcDbEntity
8
0
100
AcDbPolyline
90
43
70
1
43
0.0
10
256.4002463895572
20
36.058262745186482
10
254.09633828529647
20
32.507015955540339
10
251.29988419575025
20
29.329065288786893
10
248.07052240169179
20
26.592148404646707
10
244.47709094938563
20
24.354593418284978
10
240.59614775464664
20
22.664092646329337
10
236.5104296802613
20
21.556676596538935
10
232.30702173688539
20
21.055947320680559
10
228.07548051396336
20
21.172574944775064
10
223.90603389394411
20
21.904076447539254
10
219.88752140329015
20
23.234859523281202
10
216.10559392669327
20
25.136562042566908
10
212.64085239465362
20
27.568652783176049
10
209.56715429430932
20
30.479293431346406
10
206.95001172022148
20
33.806452317894227
10
204.84518776172922
20
37.479214583822866
10
203.29755225350982
20
41.419300217911328
10
202.34009009273177
20
45.542736567978821
10
201.99321468939115
20
49.761637648762047
10
202.26431026653574
20
53.986084525160791
10
203.14759455033271
20
58.126043837130794
10
204.62425608000089
20
62.093274882082881
10
206.66282036763161
20
65.803229068951552
10
209.21982119119292
20
69.176827318990988
10
212.24077702071796
20
72.142164997439338
10
215.66130475442532
20
74.636056650261864
10
219.40849281804691
20
76.605340448511399
10
223.40247260072363
20
78.008037694427159
10
227.55812720083523
20
78.814260592656069
10
231.78687645512551
20
79.006830144950513
10
235.99859927775987
20
78.581627053329086
10
240.10354074272445
20
77.547729030009904
10
244.01418865290611
20
75.92715906253332
10
247.6472111358099
20
73.754465855635019
10
250.92518064604729
20
71.075960998285623
10
253.77820642786946
20
67.948712024184914
10
256.14552120772328
20
64.43939053399248
10
257.9766254436903
20
60.622788485221903
10
259.23252311488125
20
56.580242942179098
10
259.88642352775867
20
52.397915887638788
10
259.92444312245976
20
48.1649481670825
10
259.3456970127516
20
43.971560034629533
10
258.16257360589634
20
39.907121185649288
0
LWPOLYLINE
5
110
100
AcDbEntity
8
0
100
AcDbPolyline
90
8
70
1
43
0.0
10
119.81182024022073
20
11.998056363625054
10
85.007337462482141
20
11.998056363625047
42
-0.41421356237309337
10
80.007337462482141
20
16.998056363625054
10
80.007337462482127
20
69.292797075149153
42
-0.41421356237309453
10
85.007337462482127
20
74.292797075149153
10
119.81182024022073
20
74.292797075149139
42
-0.41421356237309348
10
124.8118202402207
20
69.292797075149153
10
124.81182024022073
20
16.998056363625054
42
-0.41421356237309337
0
ENDSEC
0
SECTION
2
OBJECTS
0
DICTIONARY
5
C
100
AcDbDictionary
3
ACAD_GROUP
350
D
3
ACAD_MLINESTYLE
350
17
0
DICTIONARY
5
D
100
AcDbDictionary
0
DICTIONARY
5
1A
330
C
100
AcDbDictionary
0
DICTIONARY
5
17
100
AcDbDictionary
0
ENDSEC
0
EOF
