0
SECTION
2
HEADER
9
$INSUNITS
70
4
9
$ACADVER
1
AC1014
9
$HANDSEED
5
FFFF
0
ENDSEC
0
SECTION
2
TABLES
0
TABLE
2
VPORT
5
8
100
AcDbSymbolTable
0
ENDTAB
0
TABLE
2
LTYPE
5
5
100
AcDbSymbolTable
0
LTYPE
5
14
100
AcDbSymbolTableRecord
100
AcDbLinetypeTableRecord
2
BYBLOCK
70
0
0
LTYPE
5
15
100
AcDbSymbolTableRecord
100
AcDbLinetypeTableRecord
2
BYLAYER
70
0
0
LTYPE
5
16
100
AcDbSymbolTableRecord
100
AcDbLinetypeTableRecord
2
DASHED
70
0
3
Dashed __ __ __ __ __ __ __ __ __ __ __ __ __ _
72
65
73
2
40
0.75
49
0.5
74
0
49
-0.25
74
0
0
ENDTAB
0
TABLE
2
LAYER
5
2
100
AcDbSymbolTable
70
2
0
LAYER
5
50
100
AcDbSymbolTableRecord
100
AcDbLayerTableRecord
2
0
70
0
62
7
6
CONTINUOUS
0
ENDTAB
0
TABLE
2
STYLE
5
3
100
AcDbSymbolTable
70
1
0
STYLE
5
11
100
AcDbSymbolTableRecord
100
AcDbTextStyleTableRecord
2
STANDARD
70
0
0
ENDTAB
0
TABLE
2
VIEW
5
6
100
AcDbSymbolTable
70
0
0
ENDTAB
0
TABLE
2
UCS
5
7
100
AcDbSymbolTable
70
0
0
ENDTAB
0
TABLE
2
APPID
5
9
100
AcDbSymbolTable
70
2
0
APPID
5
12
100
AcDbSymbolTableRecord
100
AcDbRegAppTableRecord
2
ACAD
70
0
0
ENDTAB
0
TABLE
2
DIMSTYLE
5
A
100
AcDbSymbolTable
70
1
0
ENDTAB
0
TABLE
2
BLOCK_RECORD
5
1
100
AcDbSymbolTable
70
1
0
BLOCK_RECORD
5
1F
100
AcDbSymbolTableRecord
100
AcDbBlockTableRecord
2
*MODEL_SPACE
0
BLOCK_RECORD
5
1B
100
AcDbSymbolTableRecord
100
AcDbBlockTableRecord
2
*PAPER_SPACE
0
ENDTAB
0
ENDSEC
0
SECTION
2
BLOCKS
0
BLOCK
5
20
100
AcDbEntity
100
AcDbBlockBegin
2
*MODEL_SPACE
0
ENDBLK
5
21
100
AcDbEntity
100
AcDbBlockEnd
0
BLOCK
5
1C
100
AcDbEntity
100
AcDbBlockBegin
2
*PAPER_SPACE
0
ENDBLK
5
1D
100
AcDbEntity
100
AcDbBlockEnd
0
ENDSEC
0
SECTION
2
ENTITIES
0
LWPOLYLINE
5
100
100
AcDbEntity
8
0
100
AcDbPolyline
90
4
70
1
43
0.0
10
-85.883348512612628
20
86.304815332990557
10
-80.8833485126125
20
86.304815332990586
10
-80.883348512612315
20
36.304815332990579
10
-85.883348512612628
20
36.304815332990557
0
LWPOLYLINE
5
101
100
AcDbEntity
8
0
100
AcDbPolyline
90
89
70
1
43
0.0
10
-69.623942424873135
20
-0.02069813119388364
10
-59.623942424873128
20
-0.02069813119388586
10
-59.623942424873128
20
4.9999997854728111
10
-49.623942424873128
20
4.9999997854727933
10
-49.623942424873142
20
-0.0076981311938867369
10
-39.623942424873121
20
-0.0076981311938861818
10
-39.623942424873121
20
4.999999785472812
10
-29.623942424873121
20
4.9999997854727933
10
-29.623942424873128
20
0.0020861967583563068
10
-29.623938606366067
20
-0.003913802026560346
10
-19.623938606366057
20
0.0024503776938050647
10
-19.623942424873118
20
0.0084503764787219292
10
-19.623942424873121
20
4.9999997854728111
10
-9.6239424248731211
20
4.9999997854727933
10
-9.6239424248731265
20
0.014814556199087558
10
-9.6239309693519495
20
-0.0031854401556632647
10
0.37816702122090651
20
0.0031800747636078625
10
0.37331553479891089
20
11.493665860096623
10
5.3733137526132229
20
11.497887454015521
10
5.3690924595365157
20
21.495776060651369
10
0.36909424172222149
20
21.491554466732474
10
0.36477574509747701
20
31.719664057268325
10
5.3647739629118067
20
31.723885651187224
10
5.3605526698350996
20
41.721774257823078
10
0.36055445202078762
20
41.717552663904172
10
0.3562359553960609
20
51.945662254440009
10
5.3562341732103729
20
51.949883848358915
10
5.3520128801336835
20
61.947772454994762
10
0.35201466231938927
20
61.943550861075863
10
0.34769616569466255
20
72.171660451611672
10
5.3476943835089745
20
72.175882045530571
10
5.3434730904322674
20
82.173770652166411
10
0.3434748726179554
20
82.169549058247526
10
0.33915637599321091
20
92.397658648783349
10
5.3391545938075406
20
92.401880242702248
10
5.3349333007308335
20
102.3997688493381
10
0.33493508291652152
20
102.3955472554192
10
0.33061658629181256
20
112.62365684595503
10
5.3306148041061245
20
112.62787843987394
10
5.326407276645396
20
122.59316398089285
10
-52.774327105250613
20
122.59316397693559
10
-52.774334707581652
20
117.61090030808634
10
-92.768755188413095
20
117.61090030808639
10
-92.768739983751033
20
122.59316397421152
10
-146.31350445914964
20
122.59316397056455
10
-146.31350356830575
20
122.59105346854228
10
-151.31350356830586
20
122.59105346854228
10
-151.30928345472924
20
112.5931648614085
10
-146.30928345472907
20
112.5931648614085
10
-146.30496616476469
20
102.36505527036327
10
-151.30496616476483
20
102.36505527036327
10
-151.30074605118818
20
92.367166663229483
10
-146.30074605118804
20
92.367166663229483
10
-146.29642876122367
20
82.139057072184244
10
-151.29642876122381
20
82.139057072184244
10
-151.29220864764716
20
72.14116846505047
10
-146.29220864764702
20
72.14116846505047
10
-146.28789135768261
20
61.913058874005245
10
-151.28789135768275
20
61.913058874005245
10
-151.28367124410613
20
51.915170266871456
10
-146.28367124410596
20
51.915170266871456
10
-146.27935395414158
20
41.687060675826224
10
-151.27935395414173
20
41.687060675826224
10
-151.27513384056508
20
31.689172068692439
10
-146.27513384056493
20
31.689172068692439
10
-146.27081655060053
20
21.461062477647186
10
-151.27081655060067
20
21.461062477647186
10
-151.26659643702402
20
11.463173870513401
10
-146.26659643702388
20
11.463173870513401
10
-146.26175753115319
20
-0.000698131193888063
10
-139.62394242487309
20
-0.00069813119388584255
10
-139.62394242487309
20
4.9999997854728111
10
-129.62394242487309
20
4.9999997854727933
10
-129.62394242487312
20
-0.00069813119388528744
10
-119.62394242487312
20
-0.00069813119388584255
10
-119.62394242487309
20
4.9999997854728111
10
-109.62394242487309
20
4.9999997854727933
10
-109.62394242487314
20
-0.00069813119388528744
10
-99.623942424873121
20
-0.00069813119388584255
10
-99.623942424873093
20
4.9999997854728111
10
-89.623942424873093
20
4.9999997854727933
10
-89.623942424873135
20
-0.00069813119388528744
10
-85.883348512612628
20
-0.00069813119388584255
10
-85.883348512612628
20
-0.0011425228718519461
10
-80.990734056598527
20
-0.0011425228718520142
10
-80.990734056598527
20
-0.00069813119388584255
10
-79.623942424873121
20
-0.00069813119388584255
10
-79.623942424873121
20
4.9999997854728111
10
-69.623942424873121
20
4.9999997854727933
0
ENDSEC
0
SECTION
2
OBJECTS
0
DICTIONARY
5
C
100
AcDbDictionary
3
ACAD_GROUP
350
D
3
ACAD_MLINESTYLE
350
17
0
DICTIONARY
5
D
100
AcDbDictionary
0
DICTIONARY
5
1A
330
C
100
AcDbDictionary
0
DICTIONARY
5
17
100
AcDbDictionary
0
ENDSEC
0
EOF
