0
SECTION
2
HEADER
9
$INSUNITS
70
4
9
$ACADVER
1
AC1014
9
$HANDSEED
5
FFFF
0
ENDSEC
0
SECTION
2
TABLES
0
TABLE
2
VPORT
5
8
100
AcDbSymbolTable
0
ENDTAB
0
TABLE
2
LTYPE
5
5
100
AcDbSymbolTable
0
LTYPE
5
14
100
AcDbSymbolTableRecord
100
AcDbLinetypeTableRecord
2
BYBLOCK
70
0
0
LTYPE
5
15
100
AcDbSymbolTableRecord
100
AcDbLinetypeTableRecord
2
BYLAYER
70
0
0
LTYPE
5
16
100
AcDbSymbolTableRecord
100
AcDbLinetypeTableRecord
2
DASHED
70
0
3
Dashed __ __ __ __ __ __ __ __ __ __ __ __ __ _
72
65
73
2
40
0.75
49
0.5
74
0
49
-0.25
74
0
0
ENDTAB
0
TABLE
2
LAYER
5
2
100
AcDbSymbolTable
70
2
0
LAYER
5
50
100
AcDbSymbolTableRecord
100
AcDbLayerTableRecord
2
0
70
0
62
7
6
CONTINUOUS
0
ENDTAB
0
TABLE
2
STYLE
5
3
100
AcDbSymbolTable
70
1
0
STYLE
5
11
100
AcDbSymbolTableRecord
100
AcDbTextStyleTableRecord
2
STANDARD
70
0
0
ENDTAB
0
TABLE
2
VIEW
5
6
100
AcDbSymbolTable
70
0
0
ENDTAB
0
TABLE
2
UCS
5
7
100
AcDbSymbolTable
70
0
0
ENDTAB
0
TABLE
2
APPID
5
9
100
AcDbSymbolTable
70
2
0
APPID
5
12
100
AcDbSymbolTableRecord
100
AcDbRegAppTableRecord
2
ACAD
70
0
0
ENDTAB
0
TABLE
2
DIMSTYLE
5
A
100
AcDbSymbolTable
70
1
0
ENDTAB
0
TABLE
2
BLOCK_RECORD
5
1
100
AcDbSymbolTable
70
1
0
BLOCK_RECORD
5
1F
100
AcDbSymbolTableRecord
100
AcDbBlockTableRecord
2
*MODEL_SPACE
0
BLOCK_RECORD
5
1B
100
AcDbSymbolTableRecord
100
AcDbBlockTableRecord
2
*PAPER_SPACE
0
ENDTAB
0
ENDSEC
0
SECTION
2
BLOCKS
0
BLOCK
5
20
100
AcDbEntity
100
AcDbBlockBegin
2
*MODEL_SPACE
0
ENDBLK
5
21
100
AcDbEntity
100
AcDbBlockEnd
0
BLOCK
5
1C
100
AcDbEntity
100
AcDbBlockBegin
2
*PAPER_SPACE
0
ENDBLK
5
1D
100
AcDbEntity
100
AcDbBlockEnd
0
ENDSEC
0
SECTION
2
ENTITIES
0
LWPOLYLINE
5
100
100
AcDbEntity
8
0
100
AcDbPolyline
90
4
70
1
43
0.0
10
-157.84999999916067
20
86.767544267505613
10
-167.84999999916067
20
86.767544267505613
42
-0.99999999999999989
10
-167.84999999916067
20
90.167544267505647
10
-157.84999999916067
20
90.167544267505647
42
-0.99999999999999989
0
LWPOLYLINE
5
101
100
AcDbEntity
8
0
100
AcDbPolyline
90
4
70
1
43
0.0
10
-167.84999999916067
20
34.65708641164322
10
-157.84999999916067
20
34.65708641164322
42
-0.99999999999999989
10
-157.84999999916067
20
31.25708641164319
10
-167.84999999916067
20
31.25708641164319
42
-0.99999999999999989
0
CIRCLE
5
102
100
AcDbEntity
8
0
100
AcDbCircle
10
-91.926503657229389
20
15.172344233312653
30
0
40
1.6000000000000014
210
2.6727647100921956e-51
220
-1.4836824602749686e-67
230
1
0
CIRCLE
5
103
100
AcDbEntity
8
0
100
AcDbCircle
10
-240.87793083407263
20
13.646345210872838
30
0
40
1.7000000000000171
210
2.6727647100921968e-51
220
-3.0814879110195774e-33
230
1
0
CIRCLE
5
104
100
AcDbEntity
8
0
100
AcDbCircle
10
-65.389867417828455
20
73.029566760741517
30
0
40
1.6999999999999993
210
2.6727647100921968e-51
220
-3.0814879110195774e-33
230
1
0
CIRCLE
5
105
100
AcDbEntity
8
0
100
AcDbCircle
10
-41.185389539268598
20
97.310197980350921
30
0
40
1.6999999999999993
210
2.6727647100921968e-51
220
-3.0814879110195774e-33
230
1
0
LWPOLYLINE
5
106
100
AcDbEntity
8
0
100
AcDbPolyline
90
20
70
1
43
0.0
10
-0.48155149760488802
20
4.9988574836982691
10
-0.48155149760487742
20
36.304815339560683
10
4.5184485023951222
20
36.304815339560683
10
4.5184485023951257
20
86.30481533956069
10
-0.48155149760487348
20
86.30481533956069
10
-0.4815514976048787
20
117.61077319542311
10
-58.977990537302986
20
117.61077319542311
10
-58.977990537302986
20
104.2801033436177
42
-2.6660025110585508
10
-71.430576174618494
20
104.2801033436177
10
-71.43057617461848
20
117.61077319542311
10
-325.20601203647919
20
117.61077319542311
10
-325.20601203647919
20
86.304815339560705
10
-330.20601203647919
20
86.304815339560705
10
-330.20601203647919
20
36.304815339560676
10
-325.20601203647919
20
36.304815339560683
10
-325.20601203647919
20
4.9988574836982647
10
-182.78755881534425
20
4.9988574836982753
10
-182.78755881534425
20
-0.0011425163017247941
10
-142.79312508231533
20
-0.0011425163017280552
10
-142.79312508231533
20
4.9988574836982718
0
LWPOLYLINE
5
107
100
AcDbEntity
8
0
100
AcDbPolyline
90
4
70
1
43
0.0
10
-263.96156574287028
20
69.295780985997311
42
0.99999999999999989
10
-267.46156574287028
20
69.295780985997283
10
-267.46156574287028
20
48.800786804277166
42
0.99999999999999989
10
-263.96156574287028
20
48.800786804277166
0
LWPOLYLINE
5
108
100
AcDbEntity
8
0
100
AcDbPolyline
90
43
70
1
43
0.0
10
-232.19953806917056
20
84.983068643485282
10
-233.49026669329186
20
85.227846483527401
10
-234.73159425495649
20
85.657954591078322
10
-235.89706570712903
20
86.264216085635397
10
-236.96185846530778
20
87.033708576864726
10
-237.90325536395892
20
87.950038784466997
10
-238.70120915290696
20
88.993670556349329
10
-239.33869340049603
20
90.142367311742646
10
-239.80214493670647
20
91.371642112647251
10
-240.08166218972383
20
92.655291646904558
10
-240.17131031912353
20
93.965960724586992
10
-240.06916698584735
20
95.275714402718066
10
-239.77739863550053
20
96.556640623309988
10
-239.30224524169151
20
97.781437594742329
10
-238.65382196946325
20
98.923993544811779
10
-237.84595135204182
20
99.959966473780852
10
-236.89585815765241
20
100.86727236747222
10
-235.82377271638094
20
101.62657341036272
10
-234.65256476035296
20
102.22168228705208
10
-233.40719418400309
20
102.63992834208288
10
-232.11419231766243
20
102.87237880149959
10
-230.80111268782798
20
102.91409813605419
10
-229.49596652077219
20
102.76418620285469
10
-228.2265514495391
20
102.42583927200116
10
-227.01993278753139
20
101.90626611496086
10
-225.9018180054841
20
101.21655069463529
10
-224.89603800505182
20
100.37138517382424
10
-224.02404364905539
20
99.388780038701228
10
-223.30440229172888
20
98.289682682334103
10
-222.75246213221732
20
97.097519704908919
10
-222.37997079809685
20
95.837701072306203
10
-222.19489226546469
20
94.537070876370635
10
-222.20116275239167
20
93.223350466850192
10
-222.39864494894528
20
91.924551070017415
10
-222.78312801718894
20
90.668340637313065
10
-223.34641913113774
20
89.481494605615524
10
-224.07651130000937
20
88.389316144191028
10
-224.95784273142999
20
87.41507928663367
10
-225.97164773459616
20
86.579548346101021
10
-227.09629236677668
20
85.900527843867494
10
-228.30780841638432
20
85.39249634950437
10
-229.5803968727289
20
85.066278462706748
10
-230.88691613911175
20
84.928823591735707
0
LWPOLYLINE
5
109
100
AcDbEntity
8
0
100
AcDbPolyline
90
4
70
1
43
0.0
10
-285.05214332219805
20
40.388423859419845
10
-285.05214332219805
20
54.253165287716946
42
-0.99999999999999989
10
-280.65214332219801
20
54.253165287716982
10
-280.65214332219807
20
40.388423859419845
42
-0.99999999999999989
0
LWPOLYLINE
5
110
100
AcDbEntity
8
0
100
AcDbPolyline
90
4
70
1
43
0.0
10
-241.10806275985971
20
59.47480056154842
42
0.99999999999999989
10
-244.60806275985973
20
59.474800561548385
10
-244.60806275985973
20
39.014797185342999
42
0.99999999999999989
10
-241.10806275985971
20
39.014797185343006
0
LWPOLYLINE
5
111
100
AcDbEntity
8
0
100
AcDbPolyline
90
4
70
1
43
0.0
10
-316.84637185592783
20
40.134270997536312
10
-316.84637185592788
20
54.253165287717017
42
-0.99999999999999989
10
-312.44637185592785
20
54.253165287716982
10
-312.44637185592791
20
40.134270997536348
42
-0.99999999999999989
0
LWPOLYLINE
5
112
100
AcDbEntity
8
0
100
AcDbPolyline
90
4
70
1
43
0.0
10
-285.05214332219805
20
71.932735481436069
10
-285.05214332219805
20
85.983770116936853
42
-0.99999999999999989
10
-280.65214332219801
20
85.983770116936881
10
-280.65214332219807
20
71.932735481436069
42
-0.99999999999999989
0
LWPOLYLINE
5
113
100
AcDbEntity
8
0
100
AcDbPolyline
90
4
70
1
43
0.0
10
-36.146371855927811
20
46.753165287716968
42
0.99999999999999989
10
-40.546371855927816
20
46.753165287716968
10
-40.546371855927809
20
32.634270997536305
42
0.99999999999999989
10
-36.146371855927796
20
32.634270997536305
0
LWPOLYLINE
5
114
100
AcDbEntity
8
0
100
AcDbPolyline
90
4
70
1
43
0.0
10
-36.146371855927811
20
78.666495568280141
42
0.99999999999999989
10
-40.546371855927816
20
78.666495568280141
10
-40.546371855927809
20
64.432735481436069
42
0.99999999999999989
10
-36.146371855927796
20
64.432735481436069
0
LWPOLYLINE
5
115
100
AcDbEntity
8
0
100
AcDbPolyline
90
4
70
1
43
0.0
10
-4.952143322198002
20
46.753165287716968
42
0.99999999999999989
10
-9.3521433221980033
20
46.753165287716953
10
-9.3521433221980033
20
32.888423859419838
42
0.99999999999999989
10
-4.9521433221979967
20
32.888423859419838
0
LWPOLYLINE
5
116
100
AcDbEntity
8
0
100
AcDbPolyline
90
4
70
1
43
0.0
10
-11.137554154436579
20
66.06573400947488
42
0.99999999999999989
10
-34.526411926375772
20
66.06573400947488
10
-34.526411926375772
20
43.225052591565557
42
0.99999999999999989
10
-11.137554154436591
20
43.225052591565557
0
LWPOLYLINE
5
117
100
AcDbEntity
8
0
100
AcDbPolyline
90
4
70
1
43
0.0
10
-310.62641192637579
20
50.725052591565564
10
-310.62641192637579
20
73.565734009474937
42
-0.99999999999999989
10
-287.23755415443662
20
73.56573400947488
10
-287.23755415443657
20
50.725052591565564
42
-0.99999999999999989
0
LWPOLYLINE
5
118
100
AcDbEntity
8
0
100
AcDbPolyline
90
4
70
1
43
0.0
10
-312.44637185592785
20
86.166495568280112
10
-312.44637185592791
20
71.932735481436112
42
-0.99999999999999989
10
-316.84637185592783
20
71.932735481436069
10
-316.84637185592788
20
86.166495568280155
42
-0.99999999999999989
0
LWPOLYLINE
5
119
100
AcDbEntity
8
0
100
AcDbPolyline
90
4
70
1
43
0.0
10
-4.9521433221979985
20
78.483770116936867
42
0.99999999999999989
10
-9.3521433221979997
20
78.483770116936881
10
-9.3521433221979997
20
64.432735481436069
42
0.99999999999999989
10
-4.952143322197994
20
64.432735481436069
0
CIRCLE
5
120
100
AcDbEntity
8
0
100
AcDbCircle
10
-84.762167856920996
20
97.148167933155179
30
0
40
7.6212212237777521
210
-1.9259299443872359e-34
220
1.6036588260553174e-50
230
1
0
CIRCLE
5
121
100
AcDbEntity
8
0
100
AcDbCircle
10
-208.32495468076621
20
93.891341531817687
30
0
40
1.6000000000000014
210
-1.9259299443872359e-34
220
1.6036588260553174e-50
230
1
0
CIRCLE
5
122
100
AcDbEntity
8
0
100
AcDbCircle
10
-254.27615251537503
20
93.954525535984772
30
0
40
1.6000000000000014
210
-1.9259299443872359e-34
220
1.6036588260553174e-50
230
1
0
CIRCLE
5
123
100
AcDbEntity
8
0
100
AcDbCircle
10
-23.037675720610583
20
18.832702637114622
30
0
40
7
210
-1.7818431400614626e-52
220
9.8912164018331174e-69
230
1
0
CIRCLE
5
124
100
AcDbEntity
8
0
100
AcDbCircle
10
-274.40488662725028
20
21.26280474497683
30
0
40
6.999999999999992
210
2.6727647100921968e-51
220
-2.3111159332646834e-33
230
1
0
ENDSEC
0
SECTION
2
OBJECTS
0
DICTIONARY
5
C
100
AcDbDictionary
3
ACAD_GROUP
350
D
3
ACAD_MLINESTYLE
350
17
0
DICTIONARY
5
D
100
AcDbDictionary
0
DICTIONARY
5
1A
330
C
100
AcDbDictionary
0
DICTIONARY
5
17
100
AcDbDictionary
0
ENDSEC
0
EOF
