0
SECTION
2
HEADER
9
$INSUNITS
70
4
9
$ACADVER
1
AC1014
9
$HANDSEED
5
FFFF
0
ENDSEC
0
SECTION
2
TABLES
0
TABLE
2
VPORT
5
8
100
AcDbSymbolTable
0
ENDTAB
0
TABLE
2
LTYPE
5
5
100
AcDbSymbolTable
0
LTYPE
5
14
100
AcDbSymbolTableRecord
100
AcDbLinetypeTableRecord
2
BYBLOCK
70
0
0
LTYPE
5
15
100
AcDbSymbolTableRecord
100
AcDbLinetypeTableRecord
2
BYLAYER
70
0
0
LTYPE
5
16
100
AcDbSymbolTableRecord
100
AcDbLinetypeTableRecord
2
DASHED
70
0
3
Dashed __ __ __ __ __ __ __ __ __ __ __ __ __ _
72
65
73
2
40
0.75
49
0.5
74
0
49
-0.25
74
0
0
ENDTAB
0
TABLE
2
LAYER
5
2
100
AcDbSymbolTable
70
2
0
LAYER
5
50
100
AcDbSymbolTableRecord
100
AcDbLayerTableRecord
2
0
70
0
62
7
6
CONTINUOUS
0
ENDTAB
0
TABLE
2
STYLE
5
3
100
AcDbSymbolTable
70
1
0
STYLE
5
11
100
AcDbSymbolTableRecord
100
AcDbTextStyleTableRecord
2
STANDARD
70
0
0
ENDTAB
0
TABLE
2
VIEW
5
6
100
AcDbSymbolTable
70
0
0
ENDTAB
0
TABLE
2
UCS
5
7
100
AcDbSymbolTable
70
0
0
ENDTAB
0
TABLE
2
APPID
5
9
100
AcDbSymbolTable
70
2
0
APPID
5
12
100
AcDbSymbolTableRecord
100
AcDbRegAppTableRecord
2
ACAD
70
0
0
ENDTAB
0
TABLE
2
DIMSTYLE
5
A
100
AcDbSymbolTable
70
1
0
ENDTAB
0
TABLE
2
BLOCK_RECORD
5
1
100
AcDbSymbolTable
70
1
0
BLOCK_RECORD
5
1F
100
AcDbSymbolTableRecord
100
AcDbBlockTableRecord
2
*MODEL_SPACE
0
BLOCK_RECORD
5
1B
100
AcDbSymbolTableRecord
100
AcDbBlockTableRecord
2
*PAPER_SPACE
0
ENDTAB
0
ENDSEC
0
SECTION
2
BLOCKS
0
BLOCK
5
20
100
AcDbEntity
100
AcDbBlockBegin
2
*MODEL_SPACE
0
ENDBLK
5
21
100
AcDbEntity
100
AcDbBlockEnd
0
BLOCK
5
1C
100
AcDbEntity
100
AcDbBlockBegin
2
*PAPER_SPACE
0
ENDBLK
5
1D
100
AcDbEntity
100
AcDbBlockEnd
0
ENDSEC
0
SECTION
2
ENTITIES
0
LWPOLYLINE
5
100
100
AcDbEntity
8
0
100
AcDbPolyline
90
119
70
1
43
0.0
10
-330.21039313704676
20
4.9993013920359948
10
-330.21039313704671
20
-0.019620133380790494
10
-315.48439313297683
20
-0.019620058581957277
10
-315.48439313297683
20
4.9993013920359921
10
-305.48439313021311
20
4.9993013920359903
10
-305.48439313021311
20
-0.019619983783122907
10
-295.48439312744932
20
-0.019619908984289652
10
-295.48439312744938
20
4.9993013920359877
10
-285.48439312468565
20
4.9993013920359859
10
-285.48439312468565
20
-0.01961983418545532
10
-275.48439312192187
20
-0.01961975938662202
10
-275.48439312192181
20
4.9993013920359832
10
-265.48439311915809
20
4.9993013920359815
10
-265.48439311915814
20
-0.019619684587787733
10
-255.48439311639436
20
-0.019619609788954391
10
-255.48439311639436
20
4.9993013920359788
10
-245.48439311363057
20
4.999301392035977
10
-245.48439311363066
20
-0.019619534990120147
10
-235.4843931108669
20
-0.019619460191286762
10
-235.4843931108669
20
4.9993013920359743
10
-225.48439310810312
20
4.9993013920359726
10
-225.48439310810318
20
-0.01961938539245256
10
-215.48439310533939
20
-0.01961931059361913
10
-215.48439310533936
20
4.9993013920359699
10
-205.48439310257561
20
4.9993013920359681
10
-205.48439310257561
20
-0.019619235794784973
10
-195.4843930998118
20
-0.019619160995951505
10
-195.48439309981183
20
4.9993013920359655
10
-185.4843930970481
20
4.9993013920359637
10
-185.48439309704816
20
-0.019619086197117386
10
-175.48439309428437
20
-0.019619011398283873
10
-175.48439309428443
20
4.9993013920359619
10
-165.48439309152064
20
4.9993013920359601
10
-165.48439309152062
20
-0.019618936599449799
10
-155.48439308875683
20
-0.019618861800616241
10
-155.48439308875683
20
4.9993013920359584
10
-145.48439308599308
20
4.9993013920359557
10
-145.4843930859931
20
-0.019618787001782212
10
-135.48439308322938
20
-0.019618712202948613
10
-135.48439308322938
20
4.9993013920359539
10
-125.48439308046562
20
4.9993013920359513
10
-125.48439308046559
20
-0.019618637404114625
10
-115.48439307770184
20
-0.019618562605280984
10
-115.48439307770187
20
4.9993013920359495
10
-105.48439307493811
20
4.9993013920359468
10
-105.48439307493811
20
-0.019618487806447038
10
-95.484393072174356
20
-0.019618413007613352
10
-95.484393072174342
20
4.999301392035945
10
-85.484393069410601
20
4.9993013920359424
10
-85.484393069410615
20
-0.019618338208779451
10
-75.484393066646874
20
-0.019618263409945724
10
-75.484393066646859
20
4.9993013920359406
10
-65.484393063883118
20
4.9993013920359379
10
-65.484393063883104
20
-0.019618188611111864
10
-55.484393061119349
20
-0.019618113812278092
10
-55.48439306111937
20
4.9993013920359362
10
-45.484393058355622
20
4.9993013920359335
10
-45.484393058355622
20
-0.019618039013444277
10
-35.484393055591887
20
-0.019617964214610463
10
-35.484393055591887
20
4.9993013920359326
10
-25.484393052828132
20
4.9993013920359299
10
-25.484393052828139
20
-0.01961788941577669
10
-15.484393050064394
20
-0.019617814616942834
10
-15.484393050064387
20
4.9993013920359282
10
-5.4843930473006397
20
4.9993013920359255
10
-5.4843930473006397
20
-0.019617739818109103
10
4.5150651660514693
20
-0.019617665032673197
10
4.5150650803182
20
11.442548618703194
10
-0.48069090383650093
20
11.442550409323353
10
-0.48069090383654267
20
21.440440797769106
10
4.5150910137504532
20
21.440439007139666
10
4.5151070975048198
20
31.66855042050932
10
-0.48069090383654256
20
31.668552211144529
10
-0.48069090383654262
20
41.666442599590283
10
4.5151228192355166
20
41.666440808949417
10
4.5151428449969497
20
51.894552222317643
10
-0.48069090383654145
20
51.894554012965671
10
-0.48069090383654262
20
61.892442788957133
10
4.0179897263226003
20
61.892442788957126
10
4.5151546247205836
20
61.892442610759169
10
4.5151707084723638
20
72.120552380002337
10
-0.48069090383654145
20
72.120552380002337
10
-0.48069090383654267
20
82.118440987136125
10
4.515186430200262
20
82.118440987136125
10
4.5152025139517615
20
92.346550578181365
10
-0.48069090383654423
20
92.346550578181365
10
-0.48069090383654267
20
102.34443918531514
10
4.5152182356796597
20
102.34443918531514
10
4.5152343194311602
20
112.57254877636036
10
-0.48069090383654312
20
112.57254877636038
10
-0.48069090383654195
20
122.59105346854281
10
-132.96476573767194
20
122.59105346854285
10
-132.96476573767191
20
117.59175138520946
10
-194.46704410401509
20
117.59175138520956
10
-194.46704410401514
20
122.59105346854295
10
-325.20999820446082
20
122.59105346854297
10
-325.20999820446082
20
112.59315985833666
10
-330.21022136713111
20
112.59315980871745
10
-330.21022144513859
20
102.36504839533981
10
-325.20999820446082
20
102.36504844496127
10
-325.20999820446087
20
92.367158056515535
10
-330.21022152139039
20
92.36715800689629
10
-330.21022159939787
20
82.139046593520888
10
-325.2099982044607
20
82.139046643140134
10
-325.20999820446087
20
72.14115625469438
10
-330.21022167564973
20
72.141156205075148
10
-330.21022175365709
20
61.913044791697544
10
-325.20999820446082
20
61.913044841318992
10
-325.20999820446082
20
51.915154452873253
10
-330.21022182990896
20
51.915154403254022
10
-330.21022190791649
20
41.68704298987862
10
-325.2099982044607
20
41.687043039497851
10
-325.20999820446082
20
31.689152651052108
10
-330.21022198416824
20
31.689152601432873
10
-330.21022206217572
20
21.461041188057454
10
-325.20999820446082
20
21.461041237676696
10
-325.20999820446082
20
11.463150849230949
10
-330.21022213842747
20
11.463150799611713
10
-330.21022218807093
20
4.9993013920359939
0
ENDSEC
0
SECTION
2
OBJECTS
0
DICTIONARY
5
C
100
AcDbDictionary
3
ACAD_GROUP
350
D
3
ACAD_MLINESTYLE
350
17
0
DICTIONARY
5
D
100
AcDbDictionary
0
DICTIONARY
5
1A
330
C
100
AcDbDictionary
0
DICTIONARY
5
17
100
AcDbDictionary
0
ENDSEC
0
EOF
