0
SECTION
2
HEADER
9
$INSUNITS
70
4
9
$ACADVER
1
AC1014
9
$HANDSEED
5
FFFF
0
ENDSEC
0
SECTION
2
TABLES
0
TABLE
2
VPORT
5
8
100
AcDbSymbolTable
0
ENDTAB
0
TABLE
2
LTYPE
5
5
100
AcDbSymbolTable
0
LTYPE
5
14
100
AcDbSymbolTableRecord
100
AcDbLinetypeTableRecord
2
BYBLOCK
70
0
0
LTYPE
5
15
100
AcDbSymbolTableRecord
100
AcDbLinetypeTableRecord
2
BYLAYER
70
0
0
LTYPE
5
16
100
AcDbSymbolTableRecord
100
AcDbLinetypeTableRecord
2
DASHED
70
0
3
Dashed __ __ __ __ __ __ __ __ __ __ __ __ __ _
72
65
73
2
40
0.75
49
0.5
74
0
49
-0.25
74
0
0
ENDTAB
0
TABLE
2
LAYER
5
2
100
AcDbSymbolTable
70
2
0
LAYER
5
50
100
AcDbSymbolTableRecord
100
AcDbLayerTableRecord
2
0
70
0
62
7
6
CONTINUOUS
0
ENDTAB
0
TABLE
2
STYLE
5
3
100
AcDbSymbolTable
70
1
0
STYLE
5
11
100
AcDbSymbolTableRecord
100
AcDbTextStyleTableRecord
2
STANDARD
70
0
0
ENDTAB
0
TABLE
2
VIEW
5
6
100
AcDbSymbolTable
70
0
0
ENDTAB
0
TABLE
2
UCS
5
7
100
AcDbSymbolTable
70
0
0
ENDTAB
0
TABLE
2
APPID
5
9
100
AcDbSymbolTable
70
2
0
APPID
5
12
100
AcDbSymbolTableRecord
100
AcDbRegAppTableRecord
2
ACAD
70
0
0
ENDTAB
0
TABLE
2
DIMSTYLE
5
A
100
AcDbSymbolTable
70
1
0
ENDTAB
0
TABLE
2
BLOCK_RECORD
5
1
100
AcDbSymbolTable
70
1
0
BLOCK_RECORD
5
1F
100
AcDbSymbolTableRecord
100
AcDbBlockTableRecord
2
*MODEL_SPACE
0
BLOCK_RECORD
5
1B
100
AcDbSymbolTableRecord
100
AcDbBlockTableRecord
2
*PAPER_SPACE
0
ENDTAB
0
ENDSEC
0
SECTION
2
BLOCKS
0
BLOCK
5
20
100
AcDbEntity
100
AcDbBlockBegin
2
*MODEL_SPACE
0
ENDBLK
5
21
100
AcDbEntity
100
AcDbBlockEnd
0
BLOCK
5
1C
100
AcDbEntity
100
AcDbBlockBegin
2
*PAPER_SPACE
0
ENDBLK
5
1D
100
AcDbEntity
100
AcDbBlockEnd
0
ENDSEC
0
SECTION
2
ENTITIES
0
CIRCLE
5
100
100
AcDbEntity
8
0
100
AcDbCircle
10
124.52382259500783
20
33.55334085355782
30
0
40
10
210
5.9873533940577688e-80
220
1.8075744728271232e-127
230
1
0
LWPOLYLINE
5
101
100
AcDbEntity
8
0
100
AcDbPolyline
90
4
70
1
43
0.0
10
85.883348512612585
20
36.304815332990557
10
80.883348512612287
20
36.304815332990579
10
80.883348512612457
20
86.304815332990557
10
85.883348512612585
20
86.304815332990557
0
LWPOLYLINE
5
102
100
AcDbEntity
8
0
100
AcDbPolyline
90
82
70
1
43
0.0
10
99.623942424873121
20
4.9999997854728111
10
99.623942424873121
20
-2.1452721987724743e-07
10
109.62394242487314
20
-2.1452720655209129e-07
10
109.62394242487312
20
4.9999997854727933
10
119.62394242487312
20
4.9999997854728111
10
119.62394242487312
20
-2.1452721987724743e-07
10
129.62394242487312
20
-2.1452720655209129e-07
10
129.62394242487312
20
4.9999997854727933
10
139.62394242487312
20
4.9999997854728111
10
139.62394242487312
20
-2.1452721987724743e-07
10
146.26386803355149
20
-2.1452719239922757e-07
10
146.26386803355149
20
4.999301868806115
10
146.26659643702388
20
11.463173870513401
10
151.26659643702402
20
11.463173870513401
10
151.27081655060067
20
21.461062477647186
10
146.27081655060053
20
21.461062477647186
10
146.27513384056493
20
31.689172068692439
10
151.27513384056508
20
31.689172068692439
10
151.27935395414173
20
41.687060675826224
10
146.27935395414158
20
41.687060675826224
10
146.28367124410596
20
51.915170266871456
10
151.28367124410613
20
51.915170266871456
10
151.28789135768275
20
61.913058874005245
10
146.28789135768261
20
61.913058874005245
10
146.29220864764702
20
72.14116846505047
10
151.29220864764716
20
72.14116846505047
10
151.29642876122381
20
82.139057072184244
10
146.29642876122367
20
82.139057072184244
10
146.30074605118804
20
92.367166663229483
10
151.30074605118818
20
92.367166663229483
10
151.30496616476483
20
102.36505527036327
10
146.30496616476469
20
102.36505527036327
10
146.30928345472907
20
112.5931648614085
10
151.30928345472924
20
112.5931648614085
10
151.31351165107537
20
122.6102023914038
10
92.768739931753871
20
122.61020239140379
10
92.768755188413024
20
117.61090030808639
10
52.774334707581602
20
117.61090030808639
10
52.774327079252011
20
122.61020239140556
10
-5.3264000827140467
20
122.61020239140819
10
-5.3306148041061245
20
112.62787843987394
10
-0.33061658629181201
20
112.62365684595503
10
-0.33493508291652158
20
102.3955472554192
10
-5.3349333007308344
20
102.3997688493381
10
-5.3391545938075406
20
92.401880242702248
10
-0.33915637599321036
20
92.397658648783349
10
-0.34347487261795545
20
82.169549058247526
10
-5.3434026266278778
20
82.173770592672483
10
-5.3435205405742812
20
72.175878521475326
10
-0.347696165694662
20
72.171660451611672
10
-0.35201466231938933
20
61.943550861075863
10
-5.34364116972045
20
61.947765386599883
10
-5.3437590836668534
20
51.949873315402726
10
-0.35623595539606034
20
51.945662254440009
10
-0.36055445202078767
20
41.717552663904172
10
-5.3438797128130231
20
41.721760180527269
10
-5.3439976267594256
20
31.723868109330098
10
-0.36477574509747646
20
31.719664057268325
10
-0.36909424172222155
20
21.491554466732474
10
-5.3441182559055953
20
21.495754974454616
10
-5.3442361698519996
20
11.49786290325746
10
-0.37331553479891033
20
11.493665860096623
10
-0.37605757512687848
20
4.9993018688061008
10
-0.3760575751268696
20
-2.1452722431813953e-07
10
9.6239424248731318
20
-2.1452720655209129e-07
10
9.6239424248731211
20
4.9999997854727933
10
19.623942424873121
20
4.9999997854728111
10
19.623942424873121
20
-2.1452721987724743e-07
10
29.623942424873132
20
-2.1452720655209129e-07
10
29.623942424873121
20
4.9999997854727933
10
39.623942424873121
20
4.9999997854728111
10
39.623942424873121
20
-2.1452721987724743e-07
10
49.623942424873135
20
-2.1452720655209129e-07
10
49.623942424873121
20
4.9999997854727933
10
59.623942424873121
20
4.9999997854728111
10
59.623942424873121
20
-2.1452721987724743e-07
10
69.623942424873135
20
-2.1452720655209129e-07
10
69.623942424873121
20
4.9999997854727933
10
79.623942424873121
20
4.9999997854728111
10
79.623942424873121
20
-2.1452721987724743e-07
10
89.623942424873135
20
-2.1452720655209129e-07
10
89.623942424873121
20
4.9999997854727933
0
ENDSEC
0
SECTION
2
OBJECTS
0
DICTIONARY
5
C
100
AcDbDictionary
3
ACAD_GROUP
350
D
3
ACAD_MLINESTYLE
350
17
0
DICTIONARY
5
D
100
AcDbDictionary
0
DICTIONARY
5
1A
330
C
100
AcDbDictionary
0
DICTIONARY
5
17
100
AcDbDictionary
0
ENDSEC
0
EOF
