0
SECTION
2
HEADER
9
$INSUNITS
70
4
9
$ACADVER
1
AC1014
9
$HANDSEED
5
FFFF
0
ENDSEC
0
SECTION
2
TABLES
0
TABLE
2
VPORT
5
8
100
AcDbSymbolTable
0
ENDTAB
0
TABLE
2
LTYPE
5
5
100
AcDbSymbolTable
0
LTYPE
5
14
100
AcDbSymbolTableRecord
100
AcDbLinetypeTableRecord
2
BYBLOCK
70
0
0
LTYPE
5
15
100
AcDbSymbolTableRecord
100
AcDbLinetypeTableRecord
2
BYLAYER
70
0
0
LTYPE
5
16
100
AcDbSymbolTableRecord
100
AcDbLinetypeTableRecord
2
DASHED
70
0
3
Dashed __ __ __ __ __ __ __ __ __ __ __ __ __ _
72
65
73
2
40
0.75
49
0.5
74
0
49
-0.25
74
0
0
ENDTAB
0
TABLE
2
LAYER
5
2
100
AcDbSymbolTable
70
2
0
LAYER
5
50
100
AcDbSymbolTableRecord
100
AcDbLayerTableRecord
2
0
70
0
62
7
6
CONTINUOUS
0
ENDTAB
0
TABLE
2
STYLE
5
3
100
AcDbSymbolTable
70
1
0
STYLE
5
11
100
AcDbSymbolTableRecord
100
AcDbTextStyleTableRecord
2
STANDARD
70
0
0
ENDTAB
0
TABLE
2
VIEW
5
6
100
AcDbSymbolTable
70
0
0
ENDTAB
0
TABLE
2
UCS
5
7
100
AcDbSymbolTable
70
0
0
ENDTAB
0
TABLE
2
APPID
5
9
100
AcDbSymbolTable
70
2
0
APPID
5
12
100
AcDbSymbolTableRecord
100
AcDbRegAppTableRecord
2
ACAD
70
0
0
ENDTAB
0
TABLE
2
DIMSTYLE
5
A
100
AcDbSymbolTable
70
1
0
ENDTAB
0
TABLE
2
BLOCK_RECORD
5
1
100
AcDbSymbolTable
70
1
0
BLOCK_RECORD
5
1F
100
AcDbSymbolTableRecord
100
AcDbBlockTableRecord
2
*MODEL_SPACE
0
BLOCK_RECORD
5
1B
100
AcDbSymbolTableRecord
100
AcDbBlockTableRecord
2
*PAPER_SPACE
0
ENDTAB
0
ENDSEC
0
SECTION
2
BLOCKS
0
BLOCK
5
20
100
AcDbEntity
100
AcDbBlockBegin
2
*MODEL_SPACE
0
ENDBLK
5
21
100
AcDbEntity
100
AcDbBlockEnd
0
BLOCK
5
1C
100
AcDbEntity
100
AcDbBlockBegin
2
*PAPER_SPACE
0
ENDBLK
5
1D
100
AcDbEntity
100
AcDbBlockEnd
0
ENDSEC
0
SECTION
2
ENTITIES
0
CIRCLE
5
100
100
AcDbEntity
8
0
100
AcDbCircle
10
1.9999999999999996
20
4.8000000715079505
30
0
40
1.4999999999999993
210
0
220
-0
230
1
0
CIRCLE
5
101
100
AcDbEntity
8
0
100
AcDbCircle
10
-5.9999999999999982
20
12.800000071507949
30
-1.7347234759768071e-17
40
1.4999999999999993
210
0
220
2.8025969286496335e-45
230
1
0
CIRCLE
5
102
100
AcDbEntity
8
0
100
AcDbCircle
10
-5.9999999999999982
20
16.800000071507956
30
-1.7347234759768071e-17
40
1.4999999999999993
210
0
220
2.8025969286496335e-45
230
1
0
CIRCLE
5
103
100
AcDbEntity
8
0
100
AcDbCircle
10
-10.000000000000002
20
16.800000071507956
30
-1.7347234759768071e-17
40
1.4999999999999993
210
0
220
2.8025969286496335e-45
230
1
0
CIRCLE
5
104
100
AcDbEntity
8
0
100
AcDbCircle
10
-10.000000000000002
20
12.800000071507949
30
-1.7347234759768071e-17
40
1.4999999999999993
210
0
220
2.8025969286496335e-45
230
1
0
CIRCLE
5
105
100
AcDbEntity
8
0
100
AcDbCircle
10
6.0000000000000009
20
16.800000071507956
30
-1.7347234759768071e-17
40
1.4999999999999993
210
0
220
2.8025969286496335e-45
230
1
0
CIRCLE
5
106
100
AcDbEntity
8
0
100
AcDbCircle
10
10
20
16.800000071507956
30
-1.7347234759768071e-17
40
1.4999999999999993
210
0
220
2.8025969286496335e-45
230
1
0
CIRCLE
5
107
100
AcDbEntity
8
0
100
AcDbCircle
10
10
20
12.800000071507949
30
-1.7347234759768071e-17
40
1.4999999999999993
210
0
220
2.8025969286496335e-45
230
1
0
CIRCLE
5
108
100
AcDbEntity
8
0
100
AcDbCircle
10
6.0000000000000009
20
12.800000071507949
30
-1.7347234759768071e-17
40
1.4999999999999993
210
0
220
2.8025969286496335e-45
230
1
0
CIRCLE
5
109
100
AcDbEntity
8
0
100
AcDbCircle
10
10
20
16.800000071507956
30
-1.7347234759768071e-17
40
1.4999999999999993
210
0
220
2.8025969286496335e-45
230
1
0
CIRCLE
5
110
100
AcDbEntity
8
0
100
AcDbCircle
10
-10.000000000000002
20
0.80000007150794805
30
-1.7347234759768071e-17
40
1.4999999999999993
210
0
220
2.8025969286496335e-45
230
1
0
CIRCLE
5
111
100
AcDbEntity
8
0
100
AcDbCircle
10
-5.9999999999999982
20
-3.1999999284920522
30
-1.7347234759768071e-17
40
1.4999999999999993
210
0
220
2.8025969286496335e-45
230
1
0
CIRCLE
5
112
100
AcDbEntity
8
0
100
AcDbCircle
10
-1.9999999999999996
20
-3.1999999284920522
30
-1.7347234759768071e-17
40
1.4999999999999996
210
0
220
2.8025969286496335e-45
230
1
0
CIRCLE
5
113
100
AcDbEntity
8
0
100
AcDbCircle
10
1.9999999999999996
20
-3.1999999284920522
30
-1.7347234759768071e-17
40
1.4999999999999993
210
0
220
2.8025969286496335e-45
230
1
0
CIRCLE
5
114
100
AcDbEntity
8
0
100
AcDbCircle
10
6.0000000000000009
20
-3.1999999284920522
30
-1.7347234759768071e-17
40
1.4999999999999993
210
0
220
2.8025969286496335e-45
230
1
0
CIRCLE
5
115
100
AcDbEntity
8
0
100
AcDbCircle
10
10
20
0.80000007150794805
30
-1.7347234759768071e-17
40
1.4999999999999993
210
0
220
2.8025969286496335e-45
230
1
0
LINE
5
116
100
AcDbEntity
8
0
100
AcDbLine
10
16
20
-9.1999999284920548
30
-1.7347234759768071e-17
11
16
21
22.800000071507949
31
-1.7347234759768071e-17
0
LWPOLYLINE
5
117
100
AcDbEntity
8
0
100
AcDbPolyline
90
4
70
1
43
0.0
10
16
20
22.800000071507949
10
26
20
22.800000071507949
10
26
20
-9.1999999284920531
10
16
20
-9.1999999284920531
0
LINE
5
118
100
AcDbEntity
8
0
100
AcDbLine
10
26
20
-9.1999999284920531
30
-1.7347234759768071e-17
11
307.87762028239814
21
-9.1999999284920531
31
-1.7347234759768071e-17
6
DASHED
0
LINE
5
119
100
AcDbEntity
8
0
100
AcDbLine
10
307.87762028239814
20
-9.1999999284920531
30
-1.7347234759768071e-17
11
307.87762028239814
21
22.800000071507949
31
-1.7347234759768071e-17
6
DASHED
0
LINE
5
120
100
AcDbEntity
8
0
100
AcDbLine
10
307.87762028239814
20
22.800000071507949
30
-1.7347234759768071e-17
11
26
21
22.800000071507949
31
-1.7347234759768071e-17
6
DASHED
0
LINE
5
121
100
AcDbEntity
8
0
100
AcDbLine
10
26
20
22.800000071507949
30
-1.7347234759768071e-17
11
26
21
-9.1999999284920531
31
-1.7347234759768071e-17
6
DASHED
0
LINE
5
122
100
AcDbEntity
8
0
100
AcDbLine
10
26
20
-0.69999897481773488
30
-1.7347234759768071e-17
11
26
21
14.300002217275161
31
-1.7347234759768071e-17
0
LINE
5
123
100
AcDbEntity
8
0
100
AcDbLine
10
26
20
14.300002217275161
30
-1.7347234759768071e-17
11
36.780219882726669
21
14.300002217275161
31
-1.7347234759768071e-17
0
SPLINE
5
124
100
AcDbEntity
8
0
100
AcDbSpline
70
0
71
2
72
6
73
3
74
0
42
0.000000001
43
0.0000000001
44
0.0000000001
40
0
40
0
40
0
40
1
40
1
40
1
10
36.780219882726669
20
14.300002217275161
30
-1.7347234759768071e-17
10
40.219781011343002
20
14.289012312871474
30
-1.7347234759768071e-17
10
40.868132919073105
20
14.245056271535415
30
-1.7347234759768071e-17
0
SPLINE
5
125
100
AcDbEntity
8
0
100
AcDbSpline
70
0
71
2
72
6
73
3
74
0
42
0.000000001
43
0.0000000001
44
0.0000000001
40
0
40
0
40
0
40
1
40
1
40
1
10
40.868132919073105
20
14.245056271535415
30
-1.7347234759768071e-17
10
42.340659707784653
20
14.157144188863295
30
-1.7347234759768071e-17
10
43.032967656850815
20
13.7175837755027
30
-1.7347234759768071e-17
0
SPLINE
5
126
100
AcDbEntity
8
0
100
AcDbSpline
70
0
71
2
72
6
73
3
74
0
42
0.000000001
43
0.0000000001
44
0.0000000001
40
0
40
0
40
0
40
1
40
1
40
1
10
43.032967656850815
20
13.7175837755027
30
-1.7347234759768071e-17
10
43.703296989202499
20
13.300001978856582
30
-1.7347234759768071e-17
10
43.99450621008873
20
12.525276303273696
30
-1.7347234759768071e-17
0
SPLINE
5
127
100
AcDbEntity
8
0
100
AcDbSpline
70
0
71
2
72
6
73
3
74
0
42
0.000000001
43
0.0000000001
44
0.0000000001
40
0
40
0
40
0
40
1
40
1
40
1
10
43.99450621008873
20
12.525276303273696
30
-1.7347234759768071e-17
10
44.28571543097496
20
11.75055062769081
30
-1.7347234759768071e-17
10
44.28571543097496
20
10.398900866490859
30
-1.7347234759768071e-17
0
SPLINE
5
128
100
AcDbEntity
8
0
100
AcDbSpline
70
0
71
2
72
6
73
3
74
0
42
0.000000001
43
0.0000000001
44
0.0000000001
40
0
40
0
40
0
40
1
40
1
40
1
10
44.28571543097496
20
10.398900866490859
30
-1.7347234759768071e-17
10
44.28571543097496
20
8.7835172414603413
30
-1.7347234759768071e-17
10
43.840659469366074
20
8.0252770185294331
30
-1.7347234759768071e-17
0
SPLINE
5
129
100
AcDbEntity
8
0
100
AcDbSpline
70
0
71
2
72
6
73
3
74
0
42
0.000000001
43
0.0000000001
44
0.0000000001
40
0
40
0
40
0
40
1
40
1
40
1
10
43.840659469366074
20
8.0252770185294331
30
-1.7347234759768071e-17
10
43.395604699850082
20
7.2670344114127339
30
-1.7347234759768071e-17
10
42.263736337423325
20
6.9373635053458393
30
-1.7347234759768071e-17
0
SPLINE
5
130
100
AcDbEntity
8
0
100
AcDbSpline
70
0
71
2
72
6
73
3
74
0
42
0.000000001
43
0.0000000001
44
0.0000000001
40
0
40
0
40
0
40
1
40
1
40
1
10
42.263736337423325
20
6.9373635053458393
30
-1.7347234759768071e-17
10
43.263736575841904
20
6.7615393400016011
30
-1.7347234759768071e-17
10
43.747253030538559
20
6.4318684339347065
30
-1.7347234759768071e-17
0
SPLINE
5
131
100
AcDbEntity
8
0
100
AcDbSpline
70
0
71
2
72
6
73
3
74
0
42
0.000000001
43
0.0000000001
44
0.0000000001
40
0
40
0
40
0
40
1
40
1
40
1
10
43.747253030538559
20
6.4318684339347065
30
-1.7347234759768071e-17
10
44.846154063940048
20
5.6956056356253804
30
-1.7347234759768071e-17
10
44.846154063940048
20
3.3329681157889546
30
-1.7347234759768071e-17
0
SPLINE
5
132
100
AcDbEntity
8
0
100
AcDbSpline
70
0
71
2
72
6
73
3
74
0
42
0.000000001
43
0.0000000001
44
0.0000000001
40
0
40
0
40
0
40
1
40
1
40
1
10
44.846154063940048
20
3.3329681157889546
30
-1.7347234759768071e-17
10
44.846154063940048
20
1.4978030919852436
30
-1.7347234759768071e-17
10
44.274725526571274
20
0.61868226526405223
30
-1.7347234759768071e-17
0
SPLINE
5
133
100
AcDbEntity
8
0
100
AcDbSpline
70
0
71
2
72
6
73
3
74
0
42
0.000000001
43
0.0000000001
44
0.0000000001
40
0
40
0
40
0
40
1
40
1
40
1
10
44.274725526571274
20
0.61868226526405223
30
-1.7347234759768071e-17
10
43.890111058950424
20
0.02527511118080028
30
-1.7347234759768071e-17
10
43.230770438909531
20
-0.25494301320884816
30
-1.7347234759768071e-17
0
SPLINE
5
134
100
AcDbEntity
8
0
100
AcDbSpline
70
0
71
2
72
6
73
3
74
0
42
0.000000001
43
0.0000000001
44
0.0000000001
40
0
40
0
40
0
40
1
40
1
40
1
10
43.230770438909531
20
-0.25494301320884816
30
-1.7347234759768071e-17
10
42.571428626775742
20
-0.53516352178428761
30
-1.7347234759768071e-17
10
41.373626798391342
20
-0.62307560445640675
30
-1.7347234759768071e-17
0
SPLINE
5
135
100
AcDbEntity
8
0
100
AcDbSpline
70
0
71
2
72
6
73
3
74
0
42
0.000000001
43
0.0000000001
44
0.0000000001
40
0
40
0
40
0
40
1
40
1
40
1
10
41.373626798391342
20
-0.62307560445640675
30
-1.7347234759768071e-17
10
40.593406766653061
20
-0.67802155019615284
30
-1.7347234759768071e-17
10
36.813187211751938
20
-0.69999897481773488
30
-1.7347234759768071e-17
0
LINE
5
136
100
AcDbEntity
8
0
100
AcDbLine
10
36.813187211751938
20
-0.69999897481773488
30
-1.7347234759768071e-17
11
26
21
-0.69999897481773488
31
-1.7347234759768071e-17
0
LINE
5
137
100
AcDbEntity
8
0
100
AcDbLine
10
30.351648539304733
20
8.3879140615287007
30
-1.7347234759768071e-17
11
36.79120859503746
21
8.3879140615287007
31
-1.7347234759768071e-17
0
SPLINE
5
138
100
AcDbEntity
8
0
100
AcDbSpline
70
0
71
2
72
6
73
3
74
0
42
0.000000001
43
0.0000000001
44
0.0000000001
40
0
40
0
40
0
40
1
40
1
40
1
10
36.79120859503746
20
8.3879140615287007
30
-1.7347234759768071e-17
10
38.912088483572006
20
8.3879140615287007
30
-1.7347234759768071e-17
10
39.318681567907333
20
8.5527495145621479
30
-1.7347234759768071e-17
0
SPLINE
5
139
100
AcDbEntity
8
0
100
AcDbSpline
70
0
71
2
72
6
73
3
74
0
42
0.000000001
43
0.0000000001
44
0.0000000001
40
0
40
0
40
0
40
1
40
1
40
1
10
39.318681567907333
20
8.5527495145621479
30
-1.7347234759768071e-17
10
39.857142776250839
20
8.7615398168387593
30
-1.7347234759768071e-17
10
39.857142776250839
20
9.6296719312491597
30
-1.7347234759768071e-17
0
SPLINE
5
140
100
AcDbEntity
8
0
100
AcDbSpline
70
0
71
2
72
6
73
3
74
0
42
0.000000001
43
0.0000000001
44
0.0000000001
40
0
40
0
40
0
40
1
40
1
40
1
10
39.857142776250839
20
9.6296719312491597
30
-1.7347234759768071e-17
10
39.857142776250839
20
10.519781470281142
30
-1.7347234759768071e-17
10
39.208792060613632
20
10.69560563562538
30
-1.7347234759768071e-17
0
SPLINE
5
141
100
AcDbEntity
8
0
100
AcDbSpline
70
0
71
2
72
6
73
3
74
0
42
0.000000001
43
0.0000000001
44
0.0000000001
40
0
40
0
40
0
40
1
40
1
40
1
10
39.208792060613632
20
10.69560563562538
30
-1.7347234759768071e-17
10
38.956044524908066
20
10.761540293675917
30
-1.7347234759768071e-17
10
36.79120859503746
20
10.772529005986708
30
-1.7347234759768071e-17
0
LINE
5
142
100
AcDbEntity
8
0
100
AcDbLine
10
36.79120859503746
20
10.772529005986708
30
-1.7347234759768071e-17
11
30.351648539304733
21
10.772529005986708
31
-1.7347234759768071e-17
0
LINE
5
143
100
AcDbEntity
8
0
100
AcDbLine
10
30.351648539304733
20
10.772529005986708
30
-1.7347234759768071e-17
11
30.351648539304733
21
8.3879140615287007
31
-1.7347234759768071e-17
0
LINE
5
144
100
AcDbEntity
8
0
100
AcDbLine
10
30.351648539304733
20
2.9043964147391499
30
-1.7347234759768071e-17
11
36.813187211751938
21
2.9043964147391499
31
-1.7347234759768071e-17
0
SPLINE
5
145
100
AcDbEntity
8
0
100
AcDbSpline
70
0
71
2
72
6
73
3
74
0
42
0.000000001
43
0.0000000001
44
0.0000000001
40
0
40
0
40
0
40
1
40
1
40
1
10
36.813187211751938
20
2.9043964147391499
30
-1.7347234759768071e-17
10
38.824176400899887
20
2.9153851270499409
30
-1.7347234759768071e-17
10
39.197802156209946
20
2.9373625516715229
30
-1.7347234759768071e-17
0
SPLINE
5
146
100
AcDbEntity
8
0
100
AcDbSpline
70
0
71
2
72
6
73
3
74
0
42
0.000000001
43
0.0000000001
44
0.0000000001
40
0
40
0
40
0
40
1
40
1
40
1
10
39.197802156209946
20
2.9373625516715229
30
-1.7347234759768071e-17
10
39.5714291036129
20
2.959342360478896
30
-1.7347234759768071e-17
10
39.824176639318466
20
3.0582431554618061
30
-1.7347234759768071e-17
0
SPLINE
5
147
100
AcDbEntity
8
0
100
AcDbSpline
70
0
71
2
72
6
73
3
74
0
42
0.000000001
43
0.0000000001
44
0.0000000001
40
0
40
0
40
0
40
1
40
1
40
1
10
39.824176639318466
20
3.0582431554618061
30
-1.7347234759768071e-17
10
40.417582601308823
20
3.2890108823599995
30
-1.7347234759768071e-17
10
40.417582601308823
20
4.201100230199355
30
-1.7347234759768071e-17
0
SPLINE
5
148
100
AcDbEntity
8
0
100
AcDbSpline
70
0
71
2
72
6
73
3
74
0
42
0.000000001
43
0.0000000001
44
0.0000000001
40
0
40
0
40
0
40
1
40
1
40
1
10
40.417582601308823
20
4.201100230199355
30
-1.7347234759768071e-17
10
40.417582601308823
20
5.1461557149710835
30
-1.7347234759768071e-17
10
39.736264556646347
20
5.3109911680045307
30
-1.7347234759768071e-17
0
SPLINE
5
149
100
AcDbEntity
8
0
100
AcDbSpline
70
0
71
2
72
6
73
3
74
0
42
0.000000001
43
0.0000000001
44
0.0000000001
40
0
40
0
40
0
40
1
40
1
40
1
10
39.736264556646347
20
5.3109911680045307
30
-1.7347234759768071e-17
10
39.494505733251572
20
5.3769234418692768
30
-1.7347234759768071e-17
10
36.813187211751938
20
5.3879145383658589
30
-1.7347234759768071e-17
0
LINE
5
150
100
AcDbEntity
8
0
100
AcDbLine
10
36.813187211751938
20
5.3879145383658589
30
-1.7347234759768071e-17
11
30.351648539304733
21
5.3879145383658589
31
-1.7347234759768071e-17
0
LINE
5
151
100
AcDbEntity
8
0
100
AcDbLine
10
30.351648539304733
20
5.3879145383658589
30
-1.7347234759768071e-17
11
30.351648539304733
21
2.9043964147391499
31
-1.7347234759768071e-17
0
SPLINE
5
152
100
AcDbEntity
8
0
100
AcDbSpline
70
0
71
2
72
6
73
3
74
0
42
0.000000001
43
0.0000000001
44
0.0000000001
40
0
40
0
40
0
40
1
40
1
40
1
10
53.51648411154747
20
10.223079085332412
30
-1.7347234759768071e-17
10
56.230769962072372
20
10.223079085332412
30
-1.7347234759768071e-17
10
57.576924175024033
20
10.008793234807509
30
-1.7347234759768071e-17
0
SPLINE
5
153
100
AcDbEntity
8
0
100
AcDbSpline
70
0
71
2
72
6
73
3
74
0
42
0.000000001
43
0.0000000001
44
0.0000000001
40
0
40
0
40
0
40
1
40
1
40
1
10
57.576924175024033
20
10.008793234807509
30
-1.7347234759768071e-17
10
58.923078387975693
20
9.7945073842826069
30
-1.7347234759768071e-17
10
59.681320995092392
20
9.245055079442519
30
-1.7347234759768071e-17
0
SPLINE
5
154
100
AcDbEntity
8
0
100
AcDbSpline
70
0
71
2
72
6
73
3
74
0
42
0.000000001
43
0.0000000001
44
0.0000000001
40
0
40
0
40
0
40
1
40
1
40
1
10
59.681320995092392
20
9.245055079442519
30
-1.7347234759768071e-17
10
60.472527354955673
20
8.6736277341666401
30
-1.7347234759768071e-17
10
60.758243411779404
20
7.7505520582022847
30
-1.7347234759768071e-17
0
SPLINE
5
155
100
AcDbEntity
8
0
100
AcDbSpline
70
0
71
2
72
6
73
3
74
0
42
0.000000001
43
0.0000000001
44
0.0000000001
40
0
40
0
40
0
40
1
40
1
40
1
10
60.758243411779404
20
7.7505520582022847
30
-1.7347234759768071e-17
10
61.043957084417343
20
6.8274739980521382
30
-1.7347234759768071e-17
10
61.043957084417343
20
4.82747352121498
30
-1.7347234759768071e-17
0
SPLINE
5
156
100
AcDbEntity
8
0
100
AcDbSpline
70
0
71
2
72
6
73
3
74
0
42
0.000000001
43
0.0000000001
44
0.0000000001
40
0
40
0
40
0
40
1
40
1
40
1
10
61.043957084417343
20
4.82747352121498
30
-1.7347234759768071e-17
10
61.043957084417343
20
3.3439568280997456
30
-1.7347234759768071e-17
10
60.961538165807724
20
2.6021984815421284
30
-1.7347234759768071e-17
0
SPLINE
5
157
100
AcDbEntity
8
0
100
AcDbSpline
70
0
71
2
72
6
73
3
74
0
42
0.000000001
43
0.0000000001
44
0.0000000001
40
0
40
0
40
0
40
1
40
1
40
1
10
60.961538165807724
20
2.6021984815421284
30
-1.7347234759768071e-17
10
60.879121631383896
20
1.8604401349845112
30
-1.7347234759768071e-17
10
60.659342616796494
20
1.2670353650870503
30
-1.7347234759768071e-17
0
SPLINE
5
158
100
AcDbEntity
8
0
100
AcDbSpline
70
0
71
2
72
6
73
3
74
0
42
0.000000001
43
0.0000000001
44
0.0000000001
40
0
40
0
40
0
40
1
40
1
40
1
10
60.659342616796494
20
1.2670353650870503
30
-1.7347234759768071e-17
10
60.087912887334824
20
-0.22747242452476613
30
-1.7347234759768071e-17
10
58.340659946203232
20
-0.63406431676719777
30
-1.7347234759768071e-17
0
SPLINE
5
159
100
AcDbEntity
8
0
100
AcDbSpline
70
0
71
2
72
6
73
3
74
0
42
0.000000001
43
0.0000000001
44
0.0000000001
40
0
40
0
40
0
40
1
40
1
40
1
10
58.340659946203232
20
-0.63406431676719777
30
-1.7347234759768071e-17
10
56.890111774206161
20
-0.97472393514488331
30
-1.7347234759768071e-17
10
53.527472823858261
20
-0.97472393514488331
30
-1.7347234759768071e-17
0
SPLINE
5
160
100
AcDbEntity
8
0
100
AcDbSpline
70
0
71
2
72
6
73
3
74
0
42
0.000000001
43
0.0000000001
44
0.0000000001
40
0
40
0
40
0
40
1
40
1
40
1
10
53.527472823858261
20
-0.97472393514488331
30
-1.7347234759768071e-17
10
50.549450725317001
20
-0.97472393514488331
30
-1.7347234759768071e-17
10
49.263735622167587
20
-0.76043808461998097
30
-1.7347234759768071e-17
0
SPLINE
5
161
100
AcDbEntity
8
0
100
AcDbSpline
70
0
71
2
72
6
73
3
74
0
42
0.000000001
43
0.0000000001
44
0.0000000001
40
0
40
0
40
0
40
1
40
1
40
1
10
49.263735622167587
20
-0.76043808461998097
30
-1.7347234759768071e-17
10
47.978022903203964
20
-0.54615223409507863
30
-1.7347234759768071e-17
10
47.208791583776474
20
0.09120976923133739
30
-1.7347234759768071e-17
0
SPLINE
5
162
100
AcDbEntity
8
0
100
AcDbSpline
70
0
71
2
72
6
73
3
74
0
42
0.000000001
43
0.0000000001
44
0.0000000001
40
0
40
0
40
0
40
1
40
1
40
1
10
47.208791583776474
20
0.09120976923133739
30
-1.7347234759768071e-17
10
46.472528785467148
20
0.69560563562538036
30
-1.7347234759768071e-17
10
46.225274413824081
20
1.6736272573294819
30
-1.7347234759768071e-17
0
SPLINE
5
163
100
AcDbEntity
8
0
100
AcDbSpline
70
0
71
2
72
6
73
3
74
0
42
0.000000001
43
0.0000000001
44
0.0000000001
40
0
40
0
40
0
40
1
40
1
40
1
10
46.225274413824081
20
1.6736272573294819
30
-1.7347234759768071e-17
10
45.978022426366806
20
2.6516488790335835
30
-1.7347234759768071e-17
10
45.978022426366806
20
4.9703315496268452
30
-1.7347234759768071e-17
0
SPLINE
5
164
100
AcDbEntity
8
0
100
AcDbSpline
70
0
71
2
72
6
73
3
74
0
42
0.000000001
43
0.0000000001
44
0.0000000001
40
0
40
0
40
0
40
1
40
1
40
1
10
45.978022426366806
20
4.9703315496268452
30
-1.7347234759768071e-17
10
45.978022426366806
20
6.2890127897086323
30
-1.7347234759768071e-17
10
46.082418769598007
20
6.9758251905265034
30
-1.7347234759768071e-17
0
SPLINE
5
165
100
AcDbEntity
8
0
100
AcDbSpline
70
0
71
2
72
6
73
3
74
0
42
0.000000001
43
0.0000000001
44
0.0000000001
40
0
40
0
40
0
40
1
40
1
40
1
10
46.082418769598007
20
6.9758251905265034
30
-1.7347234759768071e-17
10
46.186812728643417
20
7.6626375913443745
30
-1.7347234759768071e-17
10
46.483517497777939
20
8.2340673208060444
30
-1.7347234759768071e-17
0
SPLINE
5
166
100
AcDbEntity
8
0
100
AcDbSpline
70
0
71
2
72
6
73
3
74
0
42
0.000000001
43
0.0000000001
44
0.0000000001
40
0
40
0
40
0
40
1
40
1
40
1
10
46.483517497777939
20
8.2340673208060444
30
-1.7347234759768071e-17
10
47.087913364171982
20
9.3989018201651753
30
-1.7347234759768071e-17
10
48.527472823858261
20
9.8054960965933979
30
-1.7347234759768071e-17
0
SPLINE
5
167
100
AcDbEntity
8
0
100
AcDbSpline
70
0
71
2
72
6
73
3
74
0
42
0.000000001
43
0.0000000001
44
0.0000000001
40
0
40
0
40
0
40
1
40
1
40
1
10
48.527472823858261
20
9.8054960965933979
30
-1.7347234759768071e-17
10
49.96703228354454
20
10.212090373021621
30
-1.7347234759768071e-17
10
53.51648411154747
20
10.223079085332412
30
-1.7347234759768071e-17
0
SPLINE
5
168
100
AcDbEntity
8
0
100
AcDbSpline
70
0
71
2
72
6
73
3
74
0
42
0.000000001
43
0.0000000001
44
0.0000000001
40
0
40
0
40
0
40
1
40
1
40
1
10
53.549452632665634
20
7.2230771779837788
30
-1.7347234759768071e-17
10
51.571429580450058
20
7.2230771779837788
30
-1.7347234759768071e-17
10
50.879121631383896
20
6.9153860807242573
30
-1.7347234759768071e-17
0
SPLINE
5
169
100
AcDbEntity
8
0
100
AcDbSpline
70
0
71
2
72
6
73
3
74
0
42
0.000000001
43
0.0000000001
44
0.0000000001
40
0
40
0
40
0
40
1
40
1
40
1
10
50.879121631383896
20
6.9153860807242573
30
-1.7347234759768071e-17
10
50.373626559972763
20
6.6846159696402729
30
-1.7347234759768071e-17
10
50.164836257696152
20
6.1461547612967671
30
-1.7347234759768071e-17
0
SPLINE
5
170
100
AcDbEntity
8
0
100
AcDbSpline
70
0
71
2
72
6
73
3
74
0
42
0.000000001
43
0.0000000001
44
0.0000000001
40
0
40
0
40
0
40
1
40
1
40
1
10
50.164836257696152
20
6.1461547612967671
30
-1.7347234759768071e-17
10
49.956043571233749
20
5.6076935529532612
30
-1.7347234759768071e-17
10
49.956043571233749
20
4.5527485608878315
30
-1.7347234759768071e-17
0
SPLINE
5
171
100
AcDbEntity
8
0
100
AcDbSpline
70
0
71
2
72
6
73
3
74
0
42
0.000000001
43
0.0000000001
44
0.0000000001
40
0
40
0
40
0
40
1
40
1
40
1
10
49.956043571233749
20
4.5527485608878315
30
-1.7347234759768071e-17
10
49.956043571233749
20
3.5087922811331929
30
-1.7347234759768071e-17
10
50.131867736577988
20
3.0582431554618061
30
-1.7347234759768071e-17
0
SPLINE
5
172
100
AcDbEntity
8
0
100
AcDbSpline
70
0
71
2
72
6
73
3
74
0
42
0.000000001
43
0.0000000001
44
0.0000000001
40
0
40
0
40
0
40
1
40
1
40
1
10
50.131867736577988
20
3.0582431554618061
30
-1.7347234759768071e-17
10
50.307694286108017
20
2.6076940297904194
30
-1.7347234759768071e-17
10
50.802198261022568
20
2.376923918706435
30
-1.7347234759768071e-17
0
SPLINE
5
173
100
AcDbEntity
8
0
100
AcDbSpline
70
0
71
2
72
6
73
3
74
0
42
0.000000001
43
0.0000000001
44
0.0000000001
40
0
40
0
40
0
40
1
40
1
40
1
10
50.802198261022568
20
2.376923918706435
30
-1.7347234759768071e-17
10
51.560440868139267
20
2.0252755880179585
30
-1.7347234759768071e-17
10
53.538461536169052
20
2.0252755880179585
30
-1.7347234759768071e-17
0
SPLINE
5
174
100
AcDbEntity
8
0
100
AcDbSpline
70
0
71
2
72
6
73
3
74
0
42
0.000000001
43
0.0000000001
44
0.0000000001
40
0
40
0
40
0
40
1
40
1
40
1
10
53.538461536169052
20
2.0252755880179585
30
-1.7347234759768071e-17
10
55.802198261022568
20
2.0252755880179585
30
-1.7347234759768071e-17
10
56.434067100286484
20
2.4978045224967182
30
-1.7347234759768071e-17
0
SPLINE
5
175
100
AcDbEntity
8
0
100
AcDbSpline
70
0
71
2
72
6
73
3
74
0
42
0.000000001
43
0.0000000001
44
0.0000000001
40
0
40
0
40
0
40
1
40
1
40
1
10
56.434067100286484
20
2.4978045224967182
30
-1.7347234759768071e-17
10
57.0659359395504
20
2.970331072789687
30
-1.7347234759768071e-17
10
57.0659359395504
20
4.6516493558707417
30
-1.7347234759768071e-17
0
SPLINE
5
176
100
AcDbEntity
8
0
100
AcDbSpline
70
0
71
2
72
6
73
3
74
0
42
0.000000001
43
0.0000000001
44
0.0000000001
40
0
40
0
40
0
40
1
40
1
40
1
10
57.0659359395504
20
4.6516493558707417
30
-1.7347234759768071e-17
10
57.0659359395504
20
5.7065943479361714
30
-1.7347234759768071e-17
10
56.868134349584579
20
6.1901119947257222
30
-1.7347234759768071e-17
0
SPLINE
5
177
100
AcDbEntity
8
0
100
AcDbSpline
70
0
71
2
72
6
73
3
74
0
42
0.000000001
43
0.0000000001
44
0.0000000001
40
0
40
0
40
0
40
1
40
1
40
1
10
56.868134349584579
20
6.1901119947257222
30
-1.7347234759768071e-17
10
56.670330375432968
20
6.6736272573294819
30
-1.7347234759768071e-17
10
56.153846591711044
20
6.8934086561026753
30
-1.7347234759768071e-17
0
SPLINE
5
178
100
AcDbEntity
8
0
100
AcDbSpline
70
0
71
2
72
6
73
3
74
0
42
0.000000001
43
0.0000000001
44
0.0000000001
40
0
40
0
40
0
40
1
40
1
40
1
10
56.153846591711044
20
6.8934086561026753
30
-1.7347234759768071e-17
10
55.395603984594345
20
7.2230771779837788
30
-1.7347234759768071e-17
10
53.549452632665634
20
7.2230771779837788
30
-1.7347234759768071e-17
0
SPLINE
5
179
100
AcDbEntity
8
0
100
AcDbSpline
70
0
71
2
72
6
73
3
74
0
42
0.000000001
43
0.0000000001
44
0.0000000001
40
0
40
0
40
0
40
1
40
1
40
1
10
69.791208118200302
20
10.223079085332412
30
-1.7347234759768071e-17
10
72.505498737096786
20
10.223079085332412
30
-1.7347234759768071e-17
10
73.851648181676865
20
10.008793234807509
30
-1.7347234759768071e-17
0
SPLINE
5
180
100
AcDbEntity
8
0
100
AcDbSpline
70
0
71
2
72
6
73
3
74
0
42
0.000000001
43
0.0000000001
44
0.0000000001
40
0
40
0
40
0
40
1
40
1
40
1
10
73.851648181676865
20
10.008793234807509
30
-1.7347234759768071e-17
10
75.197807163000107
20
9.7945073842826069
30
-1.7347234759768071e-17
10
75.956045001745224
20
9.245055079442519
30
-1.7347234759768071e-17
0
SPLINE
5
181
100
AcDbEntity
8
0
100
AcDbSpline
70
0
71
2
72
6
73
3
74
0
42
0.000000001
43
0.0000000001
44
0.0000000001
40
0
40
0
40
0
40
1
40
1
40
1
10
75.956045001745224
20
9.245055079442519
30
-1.7347234759768071e-17
10
76.747256129980087
20
8.6736277341666401
30
-1.7347234759768071e-17
10
77.032972186803818
20
7.7505520582022847
30
-1.7347234759768071e-17
0
SPLINE
5
182
100
AcDbEntity
8
0
100
AcDbSpline
70
0
71
2
72
6
73
3
74
0
42
0.000000001
43
0.0000000001
44
0.0000000001
40
0
40
0
40
0
40
1
40
1
40
1
10
77.032972186803818
20
7.7505520582022847
30
-1.7347234759768071e-17
10
77.318683475255966
20
6.8274739980521382
30
-1.7347234759768071e-17
10
77.318683475255966
20
4.82747352121498
30
-1.7347234759768071e-17
0
SPLINE
5
183
100
AcDbEntity
8
0
100
AcDbSpline
70
0
71
2
72
6
73
3
74
0
42
0.000000001
43
0.0000000001
44
0.0000000001
40
0
40
0
40
0
40
1
40
1
40
1
10
77.318683475255966
20
4.82747352121498
30
-1.7347234759768071e-17
10
77.318683475255966
20
3.3439568280997456
30
-1.7347234759768071e-17
10
77.236266940832138
20
2.6021984815421284
30
-1.7347234759768071e-17
0
SPLINE
5
184
100
AcDbEntity
8
0
100
AcDbSpline
70
0
71
2
72
6
73
3
74
0
42
0.000000001
43
0.0000000001
44
0.0000000001
40
0
40
0
40
0
40
1
40
1
40
1
10
77.236266940832138
20
2.6021984815421284
30
-1.7347234759768071e-17
10
77.15385040640831
20
1.8604401349845112
30
-1.7347234759768071e-17
10
76.934066623449326
20
1.2670353650870503
30
-1.7347234759768071e-17
0
SPLINE
5
185
100
AcDbEntity
8
0
100
AcDbSpline
70
0
71
2
72
6
73
3
74
0
42
0.000000001
43
0.0000000001
44
0.0000000001
40
0
40
0
40
0
40
1
40
1
40
1
10
76.934066623449326
20
1.2670353650870503
30
-1.7347234759768071e-17
10
76.362639278173447
20
-0.22747242452476613
30
-1.7347234759768071e-17
10
74.615388721227646
20
-0.63406431676719777
30
-1.7347234759768071e-17
0
SPLINE
5
186
100
AcDbEntity
8
0
100
AcDbSpline
70
0
71
2
72
6
73
3
74
0
42
0.000000001
43
0.0000000001
44
0.0000000001
40
0
40
0
40
0
40
1
40
1
40
1
10
74.615388721227646
20
-0.63406431676719777
30
-1.7347234759768071e-17
10
73.164835780858994
20
-0.97472393514488331
30
-1.7347234759768071e-17
10
69.802199214696884
20
-0.97472393514488331
30
-1.7347234759768071e-17
0
SPLINE
5
187
100
AcDbEntity
8
0
100
AcDbSpline
70
0
71
2
72
6
73
3
74
0
42
0.000000001
43
0.0000000001
44
0.0000000001
40
0
40
0
40
0
40
1
40
1
40
1
10
69.802199214696884
20
-0.97472393514488331
30
-1.7347234759768071e-17
10
66.824179500341415
20
-0.97472393514488331
30
-1.7347234759768071e-17
10
65.538464397192001
20
-0.76043808461998097
30
-1.7347234759768071e-17
0
SPLINE
5
188
100
AcDbEntity
8
0
100
AcDbSpline
70
0
71
2
72
6
73
3
74
0
42
0.000000001
43
0.0000000001
44
0.0000000001
40
0
40
0
40
0
40
1
40
1
40
1
10
65.538464397192001
20
-0.76043808461998097
30
-1.7347234759768071e-17
10
64.252749294042587
20
-0.54615223409507863
30
-1.7347234759768071e-17
10
63.483517974615097
20
0.09120976923133739
30
-1.7347234759768071e-17
0
SPLINE
5
189
100
AcDbEntity
8
0
100
AcDbSpline
70
0
71
2
72
6
73
3
74
0
42
0.000000001
43
0.0000000001
44
0.0000000001
40
0
40
0
40
0
40
1
40
1
40
1
10
63.483517974615097
20
0.09120976923133739
30
-1.7347234759768071e-17
10
62.747255176305771
20
0.69560563562538036
30
-1.7347234759768071e-17
10
62.500000804662704
20
1.6736272573294819
30
-1.7347234759768071e-17
0
SPLINE
5
190
100
AcDbEntity
8
0
100
AcDbSpline
70
0
71
2
72
6
73
3
74
0
42
0.000000001
43
0.0000000001
44
0.0000000001
40
0
40
0
40
0
40
1
40
1
40
1
10
62.500000804662704
20
1.6736272573294819
30
-1.7347234759768071e-17
10
62.252748817205429
20
2.6516488790335835
30
-1.7347234759768071e-17
10
62.252748817205429
20
4.9703315496268452
30
-1.7347234759768071e-17
0
SPLINE
5
191
100
AcDbEntity
8
0
100
AcDbSpline
70
0
71
2
72
6
73
3
74
0
42
0.000000001
43
0.0000000001
44
0.0000000001
40
0
40
0
40
0
40
1
40
1
40
1
10
62.252748817205429
20
4.9703315496268452
30
-1.7347234759768071e-17
10
62.252748817205429
20
6.2890127897086323
30
-1.7347234759768071e-17
10
62.35714516043663
20
6.9758251905265034
30
-1.7347234759768071e-17
0
SPLINE
5
192
100
AcDbEntity
8
0
100
AcDbSpline
70
0
71
2
72
6
73
3
74
0
42
0.000000001
43
0.0000000001
44
0.0000000001
40
0
40
0
40
0
40
1
40
1
40
1
10
62.35714516043663
20
6.9758251905265034
30
-1.7347234759768071e-17
10
62.46153911948204
20
7.6626375913443745
30
-1.7347234759768071e-17
10
62.758243888616562
20
8.2340673208060444
30
-1.7347234759768071e-17
0
SPLINE
5
193
100
AcDbEntity
8
0
100
AcDbSpline
70
0
71
2
72
6
73
3
74
0
42
0.000000001
43
0.0000000001
44
0.0000000001
40
0
40
0
40
0
40
1
40
1
40
1
10
62.758243888616562
20
8.2340673208060444
30
-1.7347234759768071e-17
10
63.362639755010605
20
9.3989018201651753
30
-1.7347234759768071e-17
10
64.802199214696884
20
9.8054960965933979
30
-1.7347234759768071e-17
0
SPLINE
5
194
100
AcDbEntity
8
0
100
AcDbSpline
70
0
71
2
72
6
73
3
74
0
42
0.000000001
43
0.0000000001
44
0.0000000001
40
0
40
0
40
0
40
1
40
1
40
1
10
64.802199214696884
20
9.8054960965933979
30
-1.7347234759768071e-17
10
66.241761058568954
20
10.212090373021621
30
-1.7347234759768071e-17
10
69.791208118200302
20
10.223079085332412
30
-1.7347234759768071e-17
0
SPLINE
5
195
100
AcDbEntity
8
0
100
AcDbSpline
70
0
71
2
72
6
73
3
74
0
42
0.000000001
43
0.0000000001
44
0.0000000001
40
0
40
0
40
0
40
1
40
1
40
1
10
69.824176639318466
20
7.2230771779837788
30
-1.7347234759768071e-17
10
67.846155971288681
20
7.2230771779837788
30
-1.7347234759768071e-17
10
67.15385040640831
20
6.9153860807242573
30
-1.7347234759768071e-17
0
SPLINE
5
196
100
AcDbEntity
8
0
100
AcDbSpline
70
0
71
2
72
6
73
3
74
0
42
0.000000001
43
0.0000000001
44
0.0000000001
40
0
40
0
40
0
40
1
40
1
40
1
10
67.15385040640831
20
6.9153860807242573
30
-1.7347234759768071e-17
10
66.648355334997177
20
6.6846159696402729
30
-1.7347234759768071e-17
10
66.439562648534775
20
6.1461547612967671
30
-1.7347234759768071e-17
0
SPLINE
5
197
100
AcDbEntity
8
0
100
AcDbSpline
70
0
71
2
72
6
73
3
74
0
42
0.000000001
43
0.0000000001
44
0.0000000001
40
0
40
0
40
0
40
1
40
1
40
1
10
66.439562648534775
20
6.1461547612967671
30
-1.7347234759768071e-17
10
66.230769962072372
20
5.6076935529532612
30
-1.7347234759768071e-17
10
66.230769962072372
20
4.5527485608878315
30
-1.7347234759768071e-17
0
SPLINE
5
198
100
AcDbEntity
8
0
100
AcDbSpline
70
0
71
2
72
6
73
3
74
0
42
0.000000001
43
0.0000000001
44
0.0000000001
40
0
40
0
40
0
40
1
40
1
40
1
10
66.230769962072372
20
4.5527485608878315
30
-1.7347234759768071e-17
10
66.230769962072372
20
3.5087922811331929
30
-1.7347234759768071e-17
10
66.406594127416611
20
3.0582431554618061
30
-1.7347234759768071e-17
0
SPLINE
5
199
100
AcDbEntity
8
0
100
AcDbSpline
70
0
71
2
72
6
73
3
74
0
42
0.000000001
43
0.0000000001
44
0.0000000001
40
0
40
0
40
0
40
1
40
1
40
1
10
66.406594127416611
20
3.0582431554618061
30
-1.7347234759768071e-17
10
66.582418292760849
20
2.6076940297904194
30
-1.7347234759768071e-17
10
67.076927036046982
20
2.376923918706435
30
-1.7347234759768071e-17
0
SPLINE
5
200
100
AcDbEntity
8
0
100
AcDbSpline
70
0
71
2
72
6
73
3
74
0
42
0.000000001
43
0.0000000001
44
0.0000000001
40
0
40
0
40
0
40
1
40
1
40
1
10
67.076927036046982
20
2.376923918706435
30
-1.7347234759768071e-17
10
67.835164874792099
20
2.0252755880179585
30
-1.7347234759768071e-17
10
69.813190311193466
20
2.0252755880179585
30
-1.7347234759768071e-17
0
SPLINE
5
201
100
AcDbEntity
8
0
100
AcDbSpline
70
0
71
2
72
6
73
3
74
0
42
0.000000001
43
0.0000000001
44
0.0000000001
40
0
40
0
40
0
40
1
40
1
40
1
10
69.813190311193466
20
2.0252755880179585
30
-1.7347234759768071e-17
10
72.076927036046982
20
2.0252755880179585
30
-1.7347234759768071e-17
10
72.708793491125107
20
2.4978045224967182
30
-1.7347234759768071e-17
0
SPLINE
5
202
100
AcDbEntity
8
0
100
AcDbSpline
70
0
71
2
72
6
73
3
74
0
42
0.000000001
43
0.0000000001
44
0.0000000001
40
0
40
0
40
0
40
1
40
1
40
1
10
72.708793491125107
20
2.4978045224967182
30
-1.7347234759768071e-17
10
73.340659946203232
20
2.970331072789687
30
-1.7347234759768071e-17
10
73.340659946203232
20
4.6516493558707417
30
-1.7347234759768071e-17
0
SPLINE
5
203
100
AcDbEntity
8
0
100
AcDbSpline
70
0
71
2
72
6
73
3
74
0
42
0.000000001
43
0.0000000001
44
0.0000000001
40
0
40
0
40
0
40
1
40
1
40
1
10
73.340659946203232
20
4.6516493558707417
30
-1.7347234759768071e-17
10
73.340659946203232
20
5.7065943479361714
30
-1.7347234759768071e-17
10
73.142858356237411
20
6.1901119947257222
30
-1.7347234759768071e-17
0
SPLINE
5
204
100
AcDbEntity
8
0
100
AcDbSpline
70
0
71
2
72
6
73
3
74
0
42
0.000000001
43
0.0000000001
44
0.0000000001
40
0
40
0
40
0
40
1
40
1
40
1
10
73.142858356237411
20
6.1901119947257222
30
-1.7347234759768071e-17
10
72.945056766271591
20
6.6736272573294819
30
-1.7347234759768071e-17
10
72.428575366735458
20
6.8934086561026753
30
-1.7347234759768071e-17
0
SPLINE
5
205
100
AcDbEntity
8
0
100
AcDbSpline
70
0
71
2
72
6
73
3
74
0
42
0.000000001
43
0.0000000001
44
0.0000000001
40
0
40
0
40
0
40
1
40
1
40
1
10
72.428575366735458
20
6.8934086561026753
30
-1.7347234759768071e-17
10
71.670332759618759
20
7.2230771779837788
30
-1.7347234759768071e-17
10
69.824176639318466
20
7.2230771779837788
30
-1.7347234759768071e-17
0
LINE
5
206
100
AcDbEntity
8
0
100
AcDbLine
10
80.230770915746689
20
12.398902535420913
30
-1.7347234759768071e-17
11
84.208794444799423
21
12.398902535420913
31
-1.7347234759768071e-17
0
LINE
5
207
100
AcDbEntity
8
0
100
AcDbLine
10
84.208794444799423
20
12.398902535420913
30
-1.7347234759768071e-17
11
84.208794444799423
21
9.9483517408194722
31
-1.7347234759768071e-17
0
LINE
5
208
100
AcDbEntity
8
0
100
AcDbLine
10
84.208794444799423
20
9.9483517408194722
30
-1.7347234759768071e-17
11
90.505500644445419
21
9.9483517408194722
31
-1.7347234759768071e-17
0
LINE
5
209
100
AcDbEntity
8
0
100
AcDbLine
10
90.505500644445419
20
9.9483517408194722
30
-1.7347234759768071e-17
11
90.505500644445419
21
7.1021989583792866
31
-1.7347234759768071e-17
0
LINE
5
210
100
AcDbEntity
8
0
100
AcDbLine
10
90.505500644445419
20
7.1021989583792866
30
-1.7347234759768071e-17
11
84.208794444799423
21
7.1021989583792866
31
-1.7347234759768071e-17
0
LINE
5
211
100
AcDbEntity
8
0
100
AcDbLine
10
84.208794444799423
20
7.1021989583792866
30
-1.7347234759768071e-17
11
84.208794444799423
21
4.0032986402335347
31
-1.7347234759768071e-17
0
SPLINE
5
212
100
AcDbEntity
8
0
100
AcDbSpline
70
0
71
2
72
6
73
3
74
0
42
0.000000001
43
0.0000000001
44
0.0000000001
40
0
40
0
40
0
40
1
40
1
40
1
10
84.208794444799423
20
4.0032986402335347
30
-1.7347234759768071e-17
10
84.208794444799423
20
2.7505496740164936
30
-1.7347234759768071e-17
10
84.384618610143661
20
2.4318698644461811
30
-1.7347234759768071e-17
0
SPLINE
5
213
100
AcDbEntity
8
0
100
AcDbSpline
70
0
71
2
72
6
73
3
74
0
42
0.000000001
43
0.0000000001
44
0.0000000001
40
0
40
0
40
0
40
1
40
1
40
1
10
84.384618610143661
20
2.4318698644461811
30
-1.7347234759768071e-17
10
84.681320995092392
20
1.8824175596060932
30
-1.7347234759768071e-17
10
85.791211932897568
20
1.8824175596060932
30
-1.7347234759768071e-17
0
SPLINE
5
214
100
AcDbEntity
8
0
100
AcDbSpline
70
0
71
2
72
6
73
3
74
0
42
0.000000001
43
0.0000000001
44
0.0000000001
40
0
40
0
40
0
40
1
40
1
40
1
10
85.791211932897568
20
1.8824175596060932
30
-1.7347234759768071e-17
10
86.945057719945908
20
1.8824175596060932
30
-1.7347234759768071e-17
10
87.219782680273056
20
2.4098900556388081
30
-1.7347234759768071e-17
0
SPLINE
5
215
100
AcDbEntity
8
0
100
AcDbSpline
70
0
71
2
72
6
73
3
74
0
42
0.000000001
43
0.0000000001
44
0.0000000001
40
0
40
0
40
0
40
1
40
1
40
1
10
87.219782680273056
20
2.4098900556388081
30
-1.7347234759768071e-17
10
87.329674571752548
20
2.6186827421012104
30
-1.7347234759768071e-17
10
87.35165199637413
20
2.8219798803153218
30
-1.7347234759768071e-17
0
SPLINE
5
216
100
AcDbEntity
8
0
100
AcDbSpline
70
0
71
2
72
6
73
3
74
0
42
0.000000001
43
0.0000000001
44
0.0000000001
40
0
40
0
40
0
40
1
40
1
40
1
10
87.35165199637413
20
2.8219798803153218
30
-1.7347234759768071e-17
10
87.373629420995712
20
3.0252770185294331
30
-1.7347234759768071e-17
10
87.373629420995712
20
3.8604406118216694
30
-1.7347234759768071e-17
0
LINE
5
217
100
AcDbEntity
8
0
100
AcDbLine
10
87.373629420995712
20
3.8604406118216694
30
-1.7347234759768071e-17
11
91.010995715856552
21
3.8604406118216694
31
-1.7347234759768071e-17
0
SPLINE
5
218
100
AcDbEntity
8
0
100
AcDbSpline
70
0
71
2
72
6
73
3
74
0
42
0.000000001
43
0.0000000001
44
0.0000000001
40
0
40
0
40
0
40
1
40
1
40
1
10
91.010995715856552
20
3.8604406118216694
30
-1.7347234759768071e-17
10
90.989013522863388
20
2.332969069463271
30
-1.7347234759768071e-17
10
90.829673618078232
20
1.6516498327078999
30
-1.7347234759768071e-17
0
SPLINE
5
219
100
AcDbEntity
8
0
100
AcDbSpline
70
0
71
2
72
6
73
3
74
0
42
0.000000001
43
0.0000000001
44
0.0000000001
40
0
40
0
40
0
40
1
40
1
40
1
10
90.829673618078232
20
1.6516498327078999
30
-1.7347234759768071e-17
10
90.670333713293076
20
0.9703305959525288
30
-1.7347234759768071e-17
10
90.208793491125107
20
0.38791215418006786
30
-1.7347234759768071e-17
0
SPLINE
5
220
100
AcDbEntity
8
0
100
AcDbSpline
70
0
71
2
72
6
73
3
74
0
42
0.000000001
43
0.0000000001
44
0.0000000001
40
0
40
0
40
0
40
1
40
1
40
1
10
90.208793491125107
20
0.38791215418006786
30
-1.7347234759768071e-17
10
89.615388721227646
20
-0.37032806875084034
30
-1.7347234759768071e-17
10
88.565936893224716
20
-0.67252600194786183
30
-1.7347234759768071e-17
0
SPLINE
5
221
100
AcDbEntity
8
0
100
AcDbSpline
70
0
71
2
72
6
73
3
74
0
42
0.000000001
43
0.0000000001
44
0.0000000001
40
0
40
0
40
0
40
1
40
1
40
1
10
88.565936893224716
20
-0.67252600194786183
30
-1.7347234759768071e-17
10
87.516489833593369
20
-0.97472393514488331
30
-1.7347234759768071e-17
10
85.450554698705673
20
-0.97472393514488331
30
-1.7347234759768071e-17
0
SPLINE
5
222
100
AcDbEntity
8
0
100
AcDbSpline
70
0
71
2
72
6
73
3
74
0
42
0.000000001
43
0.0000000001
44
0.0000000001
40
0
40
0
40
0
40
1
40
1
40
1
10
85.450554698705673
20
-0.97472393514488331
30
-1.7347234759768071e-17
10
83.538466304540634
20
-0.97472393514488331
30
-1.7347234759768071e-17
10
82.609892696142197
20
-0.76593363286827199
30
-1.7347234759768071e-17
0
SPLINE
5
223
100
AcDbEntity
8
0
100
AcDbSpline
70
0
71
2
72
6
73
3
74
0
42
0.000000001
43
0.0000000001
44
0.0000000001
40
0
40
0
40
0
40
1
40
1
40
1
10
82.609892696142197
20
-0.76593363286827199
30
-1.7347234759768071e-17
10
81.681323856115341
20
-0.55714094640586964
30
-1.7347234759768071e-17
10
81.09890541434288
20
0.014286398870009265
30
-1.7347234759768071e-17
0
SPLINE
5
224
100
AcDbEntity
8
0
100
AcDbSpline
70
0
71
2
72
6
73
3
74
0
42
0.000000001
43
0.0000000001
44
0.0000000001
40
0
40
0
40
0
40
1
40
1
40
1
10
81.09890541434288
20
0.014286398870009265
30
-1.7347234759768071e-17
10
80.670333713293076
20
0.43186938760902294
30
-1.7347234759768071e-17
10
80.483518451452255
20
0.92637574670936473
30
-1.7347234759768071e-17
0
SPLINE
5
225
100
AcDbEntity
8
0
100
AcDbSpline
70
0
71
2
72
6
73
3
74
0
42
0.000000001
43
0.0000000001
44
0.0000000001
40
0
40
0
40
0
40
1
40
1
40
1
10
80.483518451452255
20
0.92637574670936473
30
-1.7347234759768071e-17
10
80.296707957983017
20
1.4208797216239155
30
-1.7347234759768071e-17
10
80.252753108739853
20
2.2890118360343159
30
-1.7347234759768071e-17
0
SPLINE
5
226
100
AcDbEntity
8
0
100
AcDbSpline
70
0
71
2
72
6
73
3
74
0
42
0.000000001
43
0.0000000001
44
0.0000000001
40
0
40
0
40
0
40
1
40
1
40
1
10
80.252753108739853
20
2.2890118360343159
30
-1.7347234759768071e-17
10
80.230770915746689
20
2.6076940297904194
30
-1.7347234759768071e-17
10
80.230770915746689
20
4.0032986402335347
30
-1.7347234759768071e-17
0
LINE
5
227
100
AcDbEntity
8
0
100
AcDbLine
10
80.230770915746689
20
4.0032986402335347
30
-1.7347234759768071e-17
11
80.230770915746689
21
7.1021989583792866
31
-1.7347234759768071e-17
0
LINE
5
228
100
AcDbEntity
8
0
100
AcDbLine
10
80.230770915746689
20
7.1021989583792866
30
-1.7347234759768071e-17
11
78.131872028112411
21
7.1021989583792866
31
-1.7347234759768071e-17
0
LINE
5
229
100
AcDbEntity
8
0
100
AcDbLine
10
78.131872028112411
20
7.1021989583792866
30
-1.7347234759768071e-17
11
78.131872028112411
21
9.9483517408194722
31
-1.7347234759768071e-17
0
LINE
5
230
100
AcDbEntity
8
0
100
AcDbLine
10
78.131872028112411
20
9.9483517408194722
30
-1.7347234759768071e-17
11
80.230770915746689
21
9.9483517408194722
31
-1.7347234759768071e-17
0
LINE
5
231
100
AcDbEntity
8
0
100
AcDbLine
10
80.230770915746689
20
9.9483517408194722
30
-1.7347234759768071e-17
11
80.230770915746689
21
12.398902535420913
31
-1.7347234759768071e-17
0
LINE
5
232
100
AcDbEntity
8
0
100
AcDbLine
10
92.120881885290146
20
14.300002217275161
30
-1.7347234759768071e-17
11
96.09890541434288
21
14.300002217275161
31
-1.7347234759768071e-17
0
LINE
5
233
100
AcDbEntity
8
0
100
AcDbLine
10
96.09890541434288
20
14.300002217275161
30
-1.7347234759768071e-17
11
96.09890541434288
21
8.3219794034781636
31
-1.7347234759768071e-17
0
LINE
5
234
100
AcDbEntity
8
0
100
AcDbLine
10
96.09890541434288
20
8.3219794034781636
30
-1.7347234759768071e-17
11
96.274729579687119
21
8.3219794034781636
31
-1.7347234759768071e-17
0
SPLINE
5
235
100
AcDbEntity
8
0
100
AcDbSpline
70
0
71
2
72
6
73
3
74
0
42
0.000000001
43
0.0000000001
44
0.0000000001
40
0
40
0
40
0
40
1
40
1
40
1
10
96.274729579687119
20
8.3219794034781636
30
-1.7347234759768071e-17
10
96.769233554601669
20
9.3329695463004292
30
-1.7347234759768071e-17
10
97.818685382604599
20
9.7780231237235249
30
-1.7347234759768071e-17
0
SPLINE
5
236
100
AcDbEntity
8
0
100
AcDbSpline
70
0
71
2
72
6
73
3
74
0
42
0.000000001
43
0.0000000001
44
0.0000000001
40
0
40
0
40
0
40
1
40
1
40
1
10
97.818685382604599
20
9.7780231237235249
30
-1.7347234759768071e-17
10
98.868137210607529
20
10.223076701146621
30
-1.7347234759768071e-17
10
100.7582434117794
20
10.223076701146621
30
-1.7347234759768071e-17
0
SPLINE
5
237
100
AcDbEntity
8
0
100
AcDbSpline
70
0
71
2
72
6
73
3
74
0
42
0.000000001
43
0.0000000001
44
0.0000000001
40
0
40
0
40
0
40
1
40
1
40
1
10
100.7582434117794
20
10.223076701146621
30
-1.7347234759768071e-17
10
102.52747616171837
20
10.223076701146621
30
-1.7347234759768071e-17
10
103.60439857840538
20
9.9153856038870991
30
-1.7347234759768071e-17
0
SPLINE
5
238
100
AcDbEntity
8
0
100
AcDbSpline
70
0
71
2
72
6
73
3
74
0
42
0.000000001
43
0.0000000001
44
0.0000000001
40
0
40
0
40
0
40
1
40
1
40
1
10
103.60439857840538
20
9.9153856038870991
30
-1.7347234759768071e-17
10
104.68132099509239
20
9.6076945066275776
30
-1.7347234759768071e-17
10
105.36264023184776
20
8.8934067487540425
30
-1.7347234759768071e-17
0
SPLINE
5
239
100
AcDbEntity
8
0
100
AcDbSpline
70
0
71
2
72
6
73
3
74
0
42
0.000000001
43
0.0000000001
44
0.0000000001
40
0
40
0
40
0
40
1
40
1
40
1
10
105.36264023184776
20
8.8934067487540425
30
-1.7347234759768071e-17
10
106.05495056509972
20
8.1791237592520893
30
-1.7347234759768071e-17
10
106.2967070043087
20
7.2725275754752339
30
-1.7347234759768071e-17
0
SPLINE
5
240
100
AcDbEntity
8
0
100
AcDbSpline
70
0
71
2
72
6
73
3
74
0
42
0.000000001
43
0.0000000001
44
0.0000000001
40
0
40
0
40
0
40
1
40
1
40
1
10
106.2967070043087
20
7.2725275754752339
30
-1.7347234759768071e-17
10
106.53846344351768
20
6.3659361600699604
30
-1.7347234759768071e-17
10
106.53846344351768
20
4.4868139028372944
30
-1.7347234759768071e-17
0
LINE
5
241
100
AcDbEntity
8
0
100
AcDbLine
10
106.53846344351768
20
4.4868139028372944
30
-1.7347234759768071e-17
11
106.53846344351768
21
-0.69999897481773488
31
-1.7347234759768071e-17
0
LINE
5
242
100
AcDbEntity
8
0
100
AcDbLine
10
106.53846344351768
20
-0.69999897481773488
30
-1.7347234759768071e-17
11
102.56043991446495
21
-0.69999897481773488
31
-1.7347234759768071e-17
0
LINE
5
243
100
AcDbEntity
8
0
100
AcDbLine
10
102.56043991446495
20
-0.69999897481773488
30
-1.7347234759768071e-17
11
102.56043991446495
21
4.4868139028372944
31
-1.7347234759768071e-17
0
SPLINE
5
244
100
AcDbEntity
8
0
100
AcDbSpline
70
0
71
2
72
6
73
3
74
0
42
0.000000001
43
0.0000000001
44
0.0000000001
40
0
40
0
40
0
40
1
40
1
40
1
10
102.56043991446495
20
4.4868139028372944
30
-1.7347234759768071e-17
10
102.56043991446495
20
5.4318693876090229
30
-1.7347234759768071e-17
10
102.46703705191612
20
5.8769253492179097
30
-1.7347234759768071e-17
0
SPLINE
5
245
100
AcDbEntity
8
0
100
AcDbSpline
70
0
71
2
72
6
73
3
74
0
42
0.000000001
43
0.0000000001
44
0.0000000001
40
0
40
0
40
0
40
1
40
1
40
1
10
102.46703705191612
20
5.8769253492179097
30
-1.7347234759768071e-17
10
102.37362942099571
20
6.3219789266410054
30
-1.7347234759768071e-17
10
102.10989555716515
20
6.5967038869681538
30
-1.7347234759768071e-17
0
SPLINE
5
246
100
AcDbEntity
8
0
100
AcDbSpline
70
0
71
2
72
6
73
3
74
0
42
0.000000001
43
0.0000000001
44
0.0000000001
40
0
40
0
40
0
40
1
40
1
40
1
10
102.10989555716515
20
6.5967038869681538
30
-1.7347234759768071e-17
10
101.53846344351768
20
7.2230795621695698
30
-1.7347234759768071e-17
10
99.483519405126572
20
7.2230795621695698
30
-1.7347234759768071e-17
0
SPLINE
5
247
100
AcDbEntity
8
0
100
AcDbSpline
70
0
71
2
72
6
73
3
74
0
42
0.000000001
43
0.0000000001
44
0.0000000001
40
0
40
0
40
0
40
1
40
1
40
1
10
99.483519405126572
20
7.2230795621695698
30
-1.7347234759768071e-17
10
97.384620517492294
20
7.2230795621695698
30
-1.7347234759768071e-17
10
96.703301280736923
20
6.5417603254141987
30
-1.7347234759768071e-17
0
SPLINE
5
248
100
AcDbEntity
8
0
100
AcDbSpline
70
0
71
2
72
6
73
3
74
0
42
0.000000001
43
0.0000000001
44
0.0000000001
40
0
40
0
40
0
40
1
40
1
40
1
10
96.703301280736923
20
6.5417603254141987
30
-1.7347234759768071e-17
10
96.351652950048447
20
6.2011007070365132
30
-1.7347234759768071e-17
10
96.225276798009872
20
5.6351665258231343
30
-1.7347234759768071e-17
0
SPLINE
5
249
100
AcDbEntity
8
0
100
AcDbSpline
70
0
71
2
72
6
73
3
74
0
42
0.000000001
43
0.0000000001
44
0.0000000001
40
0
40
0
40
0
40
1
40
1
40
1
10
96.225276798009872
20
5.6351665258231343
30
-1.7347234759768071e-17
10
96.09890541434288
20
5.0692323446097554
30
-1.7347234759768071e-17
10
96.09890541434288
20
3.8494518995108784
30
-1.7347234759768071e-17
0
LINE
5
250
100
AcDbEntity
8
0
100
AcDbLine
10
96.09890541434288
20
3.8494518995108784
30
-1.7347234759768071e-17
11
96.09890541434288
21
-0.69999897481773488
31
-1.7347234759768071e-17
0
LINE
5
251
100
AcDbEntity
8
0
100
AcDbLine
10
96.09890541434288
20
-0.69999897481773488
30
-1.7347234759768071e-17
11
92.120881885290146
21
-0.69999897481773488
31
-1.7347234759768071e-17
0
LINE
5
252
100
AcDbEntity
8
0
100
AcDbLine
10
92.120881885290146
20
-0.69999897481773488
30
-1.7347234759768071e-17
11
92.120881885290146
21
14.300002217275161
31
-1.7347234759768071e-17
0
LINE
5
253
100
AcDbEntity
8
0
100
AcDbLine
10
113.90110573172569
20
9.9483517408194722
30
-1.7347234759768071e-17
11
117.64835914969444
21
9.9483517408194722
31
-1.7347234759768071e-17
0
LINE
5
254
100
AcDbEntity
8
0
100
AcDbLine
10
117.64835914969444
20
9.9483517408194722
30
-1.7347234759768071e-17
11
117.64835914969444
21
8.3439568280997456
31
-1.7347234759768071e-17
0
LINE
5
255
100
AcDbEntity
8
0
100
AcDbLine
10
117.64835914969444
20
8.3439568280997456
30
-1.7347234759768071e-17
11
117.84616073966026
21
8.3439568280997456
31
-1.7347234759768071e-17
0
SPLINE
5
256
100
AcDbEntity
8
0
100
AcDbSpline
70
0
71
2
72
6
73
3
74
0
42
0.000000001
43
0.0000000001
44
0.0000000001
40
0
40
0
40
0
40
1
40
1
40
1
10
117.84616073966026
20
8.3439568280997456
30
-1.7347234759768071e-17
10
118.40659698843956
20
9.3659356832328022
30
-1.7347234759768071e-17
10
119.346156924963
20
9.7945073842826069
30
-1.7347234759768071e-17
0
SPLINE
5
257
100
AcDbEntity
8
0
100
AcDbSpline
70
0
71
2
72
6
73
3
74
0
42
0.000000001
43
0.0000000001
44
0.0000000001
40
0
40
0
40
0
40
1
40
1
40
1
10
119.346156924963
20
9.7945073842826069
30
-1.7347234759768071e-17
10
120.2857263982296
20
10.223076701146621
30
-1.7347234759768071e-17
10
121.96703514456749
20
10.223076701146621
30
-1.7347234759768071e-17
0
SPLINE
5
258
100
AcDbEntity
8
0
100
AcDbSpline
70
0
71
2
72
6
73
3
74
0
42
0.000000001
43
0.0000000001
44
0.0000000001
40
0
40
0
40
0
40
1
40
1
40
1
10
121.96703514456749
20
10.223076701146621
30
-1.7347234759768071e-17
10
124.37363228201866
20
10.223076701146621
30
-1.7347234759768071e-17
10
125.3186853826046
20
9.2780236005606831
30
-1.7347234759768071e-17
0
SPLINE
5
259
100
AcDbEntity
8
0
100
AcDbSpline
70
0
71
2
72
6
73
3
74
0
42
0.000000001
43
0.0000000001
44
0.0000000001
40
0
40
0
40
0
40
1
40
1
40
1
10
125.3186853826046
20
9.2780236005606831
30
-1.7347234759768071e-17
10
126.26373848319054
20
8.3329681157889546
30
-1.7347234759768071e-17
10
126.26373848319054
20
5.9263757467093647
30
-1.7347234759768071e-17
0
SPLINE
5
260
100
AcDbEntity
8
0
100
AcDbSpline
70
0
71
2
72
6
73
3
74
0
42
0.000000001
43
0.0000000001
44
0.0000000001
40
0
40
0
40
0
40
1
40
1
40
1
10
126.26373848319054
20
5.9263757467093647
30
-1.7347234759768071e-17
10
126.26373848319054
20
5.7835177182974995
30
-1.7347234759768071e-17
10
126.24176582694054
20
5.2120903730216206
30
-1.7347234759768071e-17
0
LINE
5
261
100
AcDbEntity
8
0
100
AcDbLine
10
126.24176582694054
20
5.2120903730216206
30
-1.7347234759768071e-17
11
122.49451240897179
21
5.2120903730216206
31
-1.7347234759768071e-17
0
SPLINE
5
262
100
AcDbEntity
8
0
100
AcDbSpline
70
0
71
2
72
6
73
3
74
0
42
0.000000001
43
0.0000000001
44
0.0000000001
40
0
40
0
40
0
40
1
40
1
40
1
10
122.49451240897179
20
5.2120903730216206
30
-1.7347234759768071e-17
10
122.49451240897179
20
6.1461547612967671
30
-1.7347234759768071e-17
10
122.29671081900597
20
6.5197829007926167
30
-1.7347234759768071e-17
0
SPLINE
5
263
100
AcDbEntity
8
0
100
AcDbSpline
70
0
71
2
72
6
73
3
74
0
42
0.000000001
43
0.0000000001
44
0.0000000001
40
0
40
0
40
0
40
1
40
1
40
1
10
122.29671081900597
20
6.5197829007926167
30
-1.7347234759768071e-17
10
121.91209396719933
20
7.2230795621695698
30
-1.7347234759768071e-17
10
120.39560875296593
20
7.2230795621695698
30
-1.7347234759768071e-17
0
SPLINE
5
264
100
AcDbEntity
8
0
100
AcDbSpline
70
0
71
2
72
6
73
3
74
0
42
0.000000001
43
0.0000000001
44
0.0000000001
40
0
40
0
40
0
40
1
40
1
40
1
10
120.39560875296593
20
7.2230795621695698
30
-1.7347234759768071e-17
10
118.97802910208702
20
7.2230795621695698
30
-1.7347234759768071e-17
10
118.38462433218956
20
6.4538482427420796
30
-1.7347234759768071e-17
0
SPLINE
5
265
100
AcDbEntity
8
0
100
AcDbSpline
70
0
71
2
72
6
73
3
74
0
42
0.000000001
43
0.0000000001
44
0.0000000001
40
0
40
0
40
0
40
1
40
1
40
1
10
118.38462433218956
20
6.4538482427420796
30
-1.7347234759768071e-17
10
118.08791717886925
20
6.069231390935439
30
-1.7347234759768071e-17
10
117.98352798819542
20
5.50329720972206
30
-1.7347234759768071e-17
0
SPLINE
5
266
100
AcDbEntity
8
0
100
AcDbSpline
70
0
71
2
72
6
73
3
74
0
42
0.000000001
43
0.0000000001
44
0.0000000001
40
0
40
0
40
0
40
1
40
1
40
1
10
117.98352798819542
20
5.50329720972206
30
-1.7347234759768071e-17
10
117.87912926077843
20
4.9373654126944722
30
-1.7347234759768071e-17
10
117.87912926077843
20
3.7175825834098042
30
-1.7347234759768071e-17
0
LINE
5
267
100
AcDbEntity
8
0
100
AcDbLine
10
117.87912926077843
20
3.7175825834098042
30
-1.7347234759768071e-17
11
117.87912926077843
21
-0.69999897481773488
31
-1.7347234759768071e-17
0
LINE
5
268
100
AcDbEntity
8
0
100
AcDbLine
10
117.87912926077843
20
-0.69999897481773488
30
-1.7347234759768071e-17
11
113.90110573172569
21
-0.69999897481773488
31
-1.7347234759768071e-17
0
LINE
5
269
100
AcDbEntity
8
0
100
AcDbLine
10
113.90110573172569
20
-0.69999897481773488
30
-1.7347234759768071e-17
11
113.90110573172569
21
9.9483517408194722
31
-1.7347234759768071e-17
0
LINE
5
270
100
AcDbEntity
8
0
100
AcDbLine
10
137.56043991446495
20
2.7065948247733296
30
-1.7347234759768071e-17
11
141.52747711539268
21
2.7065948247733296
31
-1.7347234759768071e-17
0
SPLINE
5
271
100
AcDbEntity
8
0
100
AcDbSpline
70
0
71
2
72
6
73
3
74
0
42
0.000000001
43
0.0000000001
44
0.0000000001
40
0
40
0
40
0
40
1
40
1
40
1
10
141.52747711539268
20
2.7065948247733296
30
-1.7347234759768071e-17
10
141.36263450980186
20
0.9703305959525288
30
-1.7347234759768071e-17
10
140.47253212332726
20
0.21208798883582958
30
-1.7347234759768071e-17
0
SPLINE
5
272
100
AcDbEntity
8
0
100
AcDbSpline
70
0
71
2
72
6
73
3
74
0
42
0.000000001
43
0.0000000001
44
0.0000000001
40
0
40
0
40
0
40
1
40
1
40
1
10
140.47253212332726
20
0.21208798883582958
30
-1.7347234759768071e-17
10
139.70329841971397
20
-0.45824015142295949
30
-1.7347234759768071e-17
10
138.29670509696007
20
-0.71648323537681691
30
-1.7347234759768071e-17
0
SPLINE
5
273
100
AcDbEntity
8
0
100
AcDbSpline
70
0
71
2
72
6
73
3
74
0
42
0.000000001
43
0.0000000001
44
0.0000000001
40
0
40
0
40
0
40
1
40
1
40
1
10
138.29670509696007
20
-0.71648323537681691
30
-1.7347234759768071e-17
10
136.89011177420616
20
-0.97472393514488331
30
-1.7347234759768071e-17
10
134.07692512869835
20
-0.97472393514488331
30
-1.7347234759768071e-17
0
SPLINE
5
274
100
AcDbEntity
8
0
100
AcDbSpline
70
0
71
2
72
6
73
3
74
0
42
0.000000001
43
0.0000000001
44
0.0000000001
40
0
40
0
40
0
40
1
40
1
40
1
10
134.07692512869835
20
-0.97472393514488331
30
-1.7347234759768071e-17
10
131.75823768973351
20
-0.97472393514488331
30
-1.7347234759768071e-17
10
130.51648697257042
20
-0.74944937230918995
30
-1.7347234759768071e-17
0
SPLINE
5
275
100
AcDbEntity
8
0
100
AcDbSpline
70
0
71
2
72
6
73
3
74
0
42
0.000000001
43
0.0000000001
44
0.0000000001
40
0
40
0
40
0
40
1
40
1
40
1
10
130.51648697257042
20
-0.74944937230918995
30
-1.7347234759768071e-17
10
129.27472671866417
20
-0.52417480947349659
30
-1.7347234759768071e-17
10
128.54944786429405
20
0.02527511118080028
30
-1.7347234759768071e-17
0
SPLINE
5
276
100
AcDbEntity
8
0
100
AcDbSpline
70
0
71
2
72
6
73
3
74
0
42
0.000000001
43
0.0000000001
44
0.0000000001
40
0
40
0
40
0
40
1
40
1
40
1
10
128.54944786429405
20
0.02527511118080028
30
-1.7347234759768071e-17
10
127.78022369742393
20
0.60769355295326122
30
-1.7347234759768071e-17
10
127.49450287222862
20
1.5802220105948628
30
-1.7347234759768071e-17
0
SPLINE
5
277
100
AcDbEntity
8
0
100
AcDbSpline
70
0
71
2
72
6
73
3
74
0
42
0.000000001
43
0.0000000001
44
0.0000000001
40
0
40
0
40
0
40
1
40
1
40
1
10
127.49450287222862
20
1.5802220105948628
30
-1.7347234759768071e-17
10
127.20879158377647
20
2.5527480840506733
30
-1.7347234759768071e-17
10
127.20879158377647
20
4.5747259855094136
30
-1.7347234759768071e-17
0
SPLINE
5
278
100
AcDbEntity
8
0
100
AcDbSpline
70
0
71
2
72
6
73
3
74
0
42
0.000000001
43
0.0000000001
44
0.0000000001
40
0
40
0
40
0
40
1
40
1
40
1
10
127.20879158377647
20
4.5747259855094136
30
-1.7347234759768071e-17
10
127.20879158377647
20
6.091211199742812
30
-1.7347234759768071e-17
10
127.31868347525597
20
6.8549469709220112
30
-1.7347234759768071e-17
0
SPLINE
5
279
100
AcDbEntity
8
0
100
AcDbSpline
70
0
71
2
72
6
73
3
74
0
42
0.000000001
43
0.0000000001
44
0.0000000001
40
0
40
0
40
0
40
1
40
1
40
1
10
127.31868347525597
20
6.8549469709220112
30
-1.7347234759768071e-17
10
127.42857536673546
20
7.6186827421012104
30
-1.7347234759768071e-17
10
127.73626884818077
20
8.2340673208060444
30
-1.7347234759768071e-17
0
SPLINE
5
280
100
AcDbEntity
8
0
100
AcDbSpline
70
0
71
2
72
6
73
3
74
0
42
0.000000001
43
0.0000000001
44
0.0000000001
40
0
40
0
40
0
40
1
40
1
40
1
10
127.73626884818077
20
8.2340673208060444
30
-1.7347234759768071e-17
10
128.3736284673214
20
9.5087937116446675
30
-1.7347234759768071e-17
10
130.04396042227745
20
9.8934081792655171
30
-1.7347234759768071e-17
0
SPLINE
5
281
100
AcDbEntity
8
0
100
AcDbSpline
70
0
71
2
72
6
73
3
74
0
42
0.000000001
43
0.0000000001
44
0.0000000001
40
0
40
0
40
0
40
1
40
1
40
1
10
130.04396042227745
20
9.8934081792655171
30
-1.7347234759768071e-17
10
131.47252640128136
20
10.223079085332412
30
-1.7347234759768071e-17
10
134.48351463675499
20
10.223079085332412
30
-1.7347234759768071e-17
0
SPLINE
5
282
100
AcDbEntity
8
0
100
AcDbSpline
70
0
71
2
72
6
73
3
74
0
42
0.000000001
43
0.0000000001
44
0.0000000001
40
0
40
0
40
0
40
1
40
1
40
1
10
134.48351463675499
20
10.223079085332412
30
-1.7347234759768071e-17
10
137.14285454154015
20
10.223079085332412
30
-1.7347234759768071e-17
10
138.23076805472374
20
10.036266207677382
30
-1.7347234759768071e-17
0
SPLINE
5
283
100
AcDbEntity
8
0
100
AcDbSpline
70
0
71
2
72
6
73
3
74
0
42
0.000000001
43
0.0000000001
44
0.0000000001
40
0
40
0
40
0
40
1
40
1
40
1
10
138.23076805472374
20
10.036266207677382
30
-1.7347234759768071e-17
10
140.16483864188194
20
9.7065953016104878
30
-1.7347234759768071e-17
10
140.8901079595089
20
8.591211199742812
30
-1.7347234759768071e-17
0
SPLINE
5
284
100
AcDbEntity
8
0
100
AcDbSpline
70
0
71
2
72
6
73
3
74
0
42
0.000000001
43
0.0000000001
44
0.0000000001
40
0
40
0
40
0
40
1
40
1
40
1
10
140.8901079595089
20
8.591211199742812
30
-1.7347234759768071e-17
10
141.61538681387901
20
7.4758247136893452
30
-1.7347234759768071e-17
10
141.61538681387901
20
4.838462233525771
30
-1.7347234759768071e-17
0
SPLINE
5
285
100
AcDbEntity
8
0
100
AcDbSpline
70
0
71
2
72
6
73
3
74
0
42
0.000000001
43
0.0000000001
44
0.0000000001
40
0
40
0
40
0
40
1
40
1
40
1
10
141.61538681387901
20
4.838462233525771
30
-1.7347234759768071e-17
10
141.61538681387901
20
4.5857146978202046
30
-1.7347234759768071e-17
10
141.59340462088585
20
3.7615398168387593
30
-1.7347234759768071e-17
0
LINE
5
286
100
AcDbEntity
8
0
100
AcDbLine
10
141.59340462088585
20
3.7615398168387593
30
-1.7347234759768071e-17
11
131.18681511282921
21
3.7615398168387593
31
-1.7347234759768071e-17
0
SPLINE
5
287
100
AcDbEntity
8
0
100
AcDbSpline
70
0
71
2
72
6
73
3
74
0
42
0.000000001
43
0.0000000001
44
0.0000000001
40
0
40
0
40
0
40
1
40
1
40
1
10
131.18681511282921
20
3.7615398168387593
30
-1.7347234759768071e-17
10
131.18681511282921
20
2.948353648168105
30
-1.7347234759768071e-17
10
131.2912138402462
20
2.5967053174796284
30
-1.7347234759768071e-17
0
SPLINE
5
288
100
AcDbEntity
8
0
100
AcDbSpline
70
0
71
2
72
6
73
3
74
0
42
0.000000001
43
0.0000000001
44
0.0000000001
40
0
40
0
40
0
40
1
40
1
40
1
10
131.2912138402462
20
2.5967053174796284
30
-1.7347234759768071e-17
10
131.39560303092003
20
2.2450569867911518
30
-1.7347234759768071e-17
10
131.70329651236534
20
2.0142868757071675
30
-1.7347234759768071e-17
0
SPLINE
5
289
100
AcDbEntity
8
0
100
AcDbSpline
70
0
71
2
72
6
73
3
74
0
42
0.000000001
43
0.0000000001
44
0.0000000001
40
0
40
0
40
0
40
1
40
1
40
1
10
131.70329651236534
20
2.0142868757071675
30
-1.7347234759768071e-17
10
132.2967012822628
20
1.5747264623465718
30
-1.7347234759768071e-17
10
134.38461861014366
20
1.5747264623465718
30
-1.7347234759768071e-17
0
SPLINE
5
290
100
AcDbEntity
8
0
100
AcDbSpline
70
0
71
2
72
6
73
3
74
0
42
0.000000001
43
0.0000000001
44
0.0000000001
40
0
40
0
40
0
40
1
40
1
40
1
10
134.38461861014366
20
1.5747264623465718
30
-1.7347234759768071e-17
10
135.71428856253624
20
1.5747264623465718
30
-1.7347234759768071e-17
10
136.37912353873253
20
1.6791228055777729
30
-1.7347234759768071e-17
0
SPLINE
5
291
100
AcDbEntity
8
0
100
AcDbSpline
70
0
71
2
72
6
73
3
74
0
42
0.000000001
43
0.0000000001
44
0.0000000001
40
0
40
0
40
0
40
1
40
1
40
1
10
136.37912353873253
20
1.6791228055777729
30
-1.7347234759768071e-17
10
137.04395851492882
20
1.7835167646231831
30
-1.7347234759768071e-17
10
137.2857149541378
20
2.0252755880179585
30
-1.7347234759768071e-17
0
SPLINE
5
292
100
AcDbEntity
8
0
100
AcDbSpline
70
0
71
2
72
6
73
3
74
0
42
0.000000001
43
0.0000000001
44
0.0000000001
40
0
40
0
40
0
40
1
40
1
40
1
10
137.2857149541378
20
2.0252755880179585
30
-1.7347234759768071e-17
10
137.48351654410362
20
2.2230771779837788
30
-1.7347234759768071e-17
10
137.56043991446495
20
2.7065948247733296
30
-1.7347234759768071e-17
0
SPLINE
5
293
100
AcDbEntity
8
0
100
AcDbSpline
70
0
71
2
72
6
73
3
74
0
42
0.000000001
43
0.0000000001
44
0.0000000001
40
0
40
0
40
0
40
1
40
1
40
1
10
137.61538109183311
20
5.9373644590201557
30
-1.7347234759768071e-17
10
137.59340843558311
20
6.5637377500357807
30
-1.7347234759768071e-17
10
137.53296455740929
20
6.8000010251822651
30
-1.7347234759768071e-17
0
SPLINE
5
294
100
AcDbEntity
8
0
100
AcDbSpline
70
0
71
2
72
6
73
3
74
0
42
0.000000001
43
0.0000000001
44
0.0000000001
40
0
40
0
40
0
40
1
40
1
40
1
10
137.53296455740929
20
6.8000010251822651
30
-1.7347234759768071e-17
10
137.47253021597862
20
7.0362643003287495
30
-1.7347234759768071e-17
10
137.2967012822628
20
7.2230771779837788
30
-1.7347234759768071e-17
0
SPLINE
5
295
100
AcDbEntity
8
0
100
AcDbSpline
70
0
71
2
72
6
73
3
74
0
42
0.000000001
43
0.0000000001
44
0.0000000001
40
0
40
0
40
0
40
1
40
1
40
1
10
137.2967012822628
20
7.2230771779837788
30
-1.7347234759768071e-17
10
136.78021988272667
20
7.7505520582022847
30
-1.7347234759768071e-17
10
134.53846535086632
20
7.7505520582022847
30
-1.7347234759768071e-17
0
SPLINE
5
296
100
AcDbEntity
8
0
100
AcDbSpline
70
0
71
2
72
6
73
3
74
0
42
0.000000001
43
0.0000000001
44
0.0000000001
40
0
40
0
40
0
40
1
40
1
40
1
10
134.53846535086632
20
7.7505520582022847
30
-1.7347234759768071e-17
10
132.52747139334679
20
7.7505520582022847
30
-1.7347234759768071e-17
10
131.87912544608116
20
7.3989013433280171
30
-1.7347234759768071e-17
0
SPLINE
5
297
100
AcDbEntity
8
0
100
AcDbSpline
70
0
71
2
72
6
73
3
74
0
42
0.000000001
43
0.0000000001
44
0.0000000001
40
0
40
0
40
0
40
1
40
1
40
1
10
131.87912544608116
20
7.3989013433280171
30
-1.7347234759768071e-17
10
131.23076996207237
20
7.0472530126395405
30
-1.7347234759768071e-17
10
131.18681511282921
20
5.9373644590201557
30
-1.7347234759768071e-17
0
LINE
5
298
100
AcDbEntity
8
0
100
AcDbLine
10
131.18681511282921
20
5.9373644590201557
30
-1.7347234759768071e-17
11
137.61538109183311
21
5.9373644590201557
31
-1.7347234759768071e-17
0
LINE
5
299
100
AcDbEntity
8
0
100
AcDbLine
10
147.16484627127647
20
6.6076925992789448
30
-1.7347234759768071e-17
11
143.19780907034874
21
6.6076925992789448
31
-1.7347234759768071e-17
0
SPLINE
5
300
100
AcDbEntity
8
0
100
AcDbSpline
70
0
71
2
72
6
73
3
74
0
42
0.000000001
43
0.0000000001
44
0.0000000001
40
0
40
0
40
0
40
1
40
1
40
1
10
143.19780907034874
20
6.6076925992789448
30
-1.7347234759768071e-17
10
143.27473244071007
20
7.8494528531851948
30
-1.7347234759768071e-17
10
143.72527679800987
20
8.4868148565116108
30
-1.7347234759768071e-17
0
SPLINE
5
301
100
AcDbEntity
8
0
100
AcDbSpline
70
0
71
2
72
6
73
3
74
0
42
0.000000001
43
0.0000000001
44
0.0000000001
40
0
40
0
40
0
40
1
40
1
40
1
10
143.72527679800987
20
8.4868148565116108
30
-1.7347234759768071e-17
10
144.43956932425499
20
9.5087937116446675
30
-1.7347234759768071e-17
10
145.93956550955772
20
9.871430754643935
30
-1.7347234759768071e-17
0
SPLINE
5
302
100
AcDbEntity
8
0
100
AcDbSpline
70
0
71
2
72
6
73
3
74
0
42
0.000000001
43
0.0000000001
44
0.0000000001
40
0
40
0
40
0
40
1
40
1
40
1
10
145.93956550955772
20
9.871430754643935
30
-1.7347234759768071e-17
10
147.43957123160362
20
10.234067797643203
30
-1.7347234759768071e-17
10
151.01099571585655
20
10.234067797643203
30
-1.7347234759768071e-17
0
SPLINE
5
303
100
AcDbEntity
8
0
100
AcDbSpline
70
0
71
2
72
6
73
3
74
0
42
0.000000001
43
0.0000000001
44
0.0000000001
40
0
40
0
40
0
40
1
40
1
40
1
10
151.01099571585655
20
10.234067797643203
30
-1.7347234759768071e-17
10
153.63736709952354
20
10.234067797643203
30
-1.7347234759768071e-17
10
154.59341606497765
20
10.036266207677382
30
-1.7347234759768071e-17
0
SPLINE
5
304
100
AcDbEntity
8
0
100
AcDbSpline
70
0
71
2
72
6
73
3
74
0
42
0.000000001
43
0.0000000001
44
0.0000000001
40
0
40
0
40
0
40
1
40
1
40
1
10
154.59341606497765
20
10.036266207677382
30
-1.7347234759768071e-17
10
155.54945549368858
20
9.838464617711562
30
-1.7347234759768071e-17
10
156.21978363394737
20
9.1681340932669819
30
-1.7347234759768071e-17
0
SPLINE
5
305
100
AcDbEntity
8
0
100
AcDbSpline
70
0
71
2
72
6
73
3
74
0
42
0.000000001
43
0.0000000001
44
0.0000000001
40
0
40
0
40
0
40
1
40
1
40
1
10
156.21978363394737
20
9.1681340932669819
30
-1.7347234759768071e-17
10
156.74726089835167
20
8.6406592130484761
30
-1.7347234759768071e-17
10
156.93956932425499
20
7.8989008664908589
30
-1.7347234759768071e-17
0
SPLINE
5
306
100
AcDbEntity
8
0
100
AcDbSpline
70
0
71
2
72
6
73
3
74
0
42
0.000000001
43
0.0000000001
44
0.0000000001
40
0
40
0
40
0
40
1
40
1
40
1
10
156.93956932425499
20
7.8989008664908589
30
-1.7347234759768071e-17
10
157.13187775015831
20
7.1571425199332417
30
-1.7347234759768071e-17
10
157.13187775015831
20
5.7065943479361714
30
-1.7347234759768071e-17
0
LINE
5
307
100
AcDbEntity
8
0
100
AcDbLine
10
157.13187775015831
20
5.7065943479361714
30
-1.7347234759768071e-17
11
157.13187775015831
21
-0.69999897481773488
31
-1.7347234759768071e-17
0
LINE
5
308
100
AcDbEntity
8
0
100
AcDbLine
10
157.13187775015831
20
-0.69999897481773488
30
-1.7347234759768071e-17
11
153.30770096182823
21
-0.69999897481773488
31
-1.7347234759768071e-17
0
LINE
5
309
100
AcDbEntity
8
0
100
AcDbLine
10
153.30770096182823
20
-0.69999897481773488
30
-1.7347234759768071e-17
11
153.30770096182823
21
0.75055158136512645
31
-1.7347234759768071e-17
0
LINE
5
310
100
AcDbEntity
8
0
100
AcDbLine
10
153.30770096182823
20
0.75055158136512645
30
-1.7347234759768071e-17
11
153.12088569998741
21
0.75055158136512645
31
-1.7347234759768071e-17
0
SPLINE
5
311
100
AcDbEntity
8
0
100
AcDbSpline
70
0
71
2
72
6
73
3
74
0
42
0.000000001
43
0.0000000001
44
0.0000000001
40
0
40
0
40
0
40
1
40
1
40
1
10
153.12088569998741
20
0.75055158136512645
30
-1.7347234759768071e-17
10
152.68132767081261
20
-0.17252647878502003
30
-1.7347234759768071e-17
10
151.72527870535851
20
-0.5901094675240337
30
-1.7347234759768071e-17
0
SPLINE
5
312
100
AcDbEntity
8
0
100
AcDbSpline
70
0
71
2
72
6
73
3
74
0
42
0.000000001
43
0.0000000001
44
0.0000000001
40
0
40
0
40
0
40
1
40
1
40
1
10
151.72527870535851
20
-0.5901094675240337
30
-1.7347234759768071e-17
10
151.21978363394737
20
-0.80988848211143605
30
-1.7347234759768071e-17
10
150.3076990544796
20
-0.89230740072105519
30
-1.7347234759768071e-17
0
SPLINE
5
313
100
AcDbEntity
8
0
100
AcDbSpline
70
0
71
2
72
6
73
3
74
0
42
0.000000001
43
0.0000000001
44
0.0000000001
40
0
40
0
40
0
40
1
40
1
40
1
10
150.3076990544796
20
-0.89230740072105519
30
-1.7347234759768071e-17
10
149.39561447501183
20
-0.97472393514488331
30
-1.7347234759768071e-17
10
147.40660271048546
20
-0.97472393514488331
30
-1.7347234759768071e-17
0
SPLINE
5
314
100
AcDbEntity
8
0
100
AcDbSpline
70
0
71
2
72
6
73
3
74
0
42
0.000000001
43
0.0000000001
44
0.0000000001
40
0
40
0
40
0
40
1
40
1
40
1
10
147.40660271048546
20
-0.97472393514488331
30
-1.7347234759768071e-17
10
145.80220779776573
20
-0.97472393514488331
30
-1.7347234759768071e-17
10
144.93406853079796
20
-0.77142679693077199
30
-1.7347234759768071e-17
0
SPLINE
5
315
100
AcDbEntity
8
0
100
AcDbSpline
70
0
71
2
72
6
73
3
74
0
42
0.000000001
43
0.0000000001
44
0.0000000001
40
0
40
0
40
0
40
1
40
1
40
1
10
144.93406853079796
20
-0.77142679693077199
30
-1.7347234759768071e-17
10
144.06593880057335
20
-0.56812965871666066
30
-1.7347234759768071e-17
10
143.53847107291222
20
-0.073625683802109876
30
-1.7347234759768071e-17
0
SPLINE
5
316
100
AcDbEntity
8
0
100
AcDbSpline
70
0
71
2
72
6
73
3
74
0
42
0.000000001
43
0.0000000001
44
0.0000000001
40
0
40
0
40
0
40
1
40
1
40
1
10
143.53847107291222
20
-0.073625683802109876
30
-1.7347234759768071e-17
10
142.76923736929893
20
0.66263949869300731
30
-1.7347234759768071e-17
10
142.76923736929893
20
2.332969069463271
30
-1.7347234759768071e-17
0
SPLINE
5
317
100
AcDbEntity
8
0
100
AcDbSpline
70
0
71
2
72
6
73
3
74
0
42
0.000000001
43
0.0000000001
44
0.0000000001
40
0
40
0
40
0
40
1
40
1
40
1
10
142.76923736929893
20
2.332969069463271
30
-1.7347234759768071e-17
10
142.76923736929893
20
4.190111517888564
30
-1.7347234759768071e-17
10
143.68132194876671
20
5.0142863988700093
30
-1.7347234759768071e-17
0
SPLINE
5
318
100
AcDbEntity
8
0
100
AcDbSpline
70
0
71
2
72
6
73
3
74
0
42
0.000000001
43
0.0000000001
44
0.0000000001
40
0
40
0
40
0
40
1
40
1
40
1
10
143.68132194876671
20
5.0142863988700093
30
-1.7347234759768071e-17
10
144.40660080313683
20
5.6626394986930073
30
-1.7347234759768071e-17
10
145.59341034293175
20
5.8604410886588276
30
-1.7347234759768071e-17
0
SPLINE
5
319
100
AcDbEntity
8
0
100
AcDbSpline
70
0
71
2
72
6
73
3
74
0
42
0.000000001
43
0.0000000001
44
0.0000000001
40
0
40
0
40
0
40
1
40
1
40
1
10
145.59341034293175
20
5.8604410886588276
30
-1.7347234759768071e-17
10
146.78022941946983
20
6.0582426786246479
30
-1.7347234759768071e-17
10
149.96703705191612
20
6.0582426786246479
30
-1.7347234759768071e-17
0
SPLINE
5
320
100
AcDbEntity
8
0
100
AcDbSpline
70
0
71
2
72
6
73
3
74
0
42
0.000000001
43
0.0000000001
44
0.0000000001
40
0
40
0
40
0
40
1
40
1
40
1
10
149.96703705191612
20
6.0582426786246479
30
-1.7347234759768071e-17
10
151.34066185355186
20
6.0582426786246479
30
-1.7347234759768071e-17
10
151.92858299612999
20
5.8989027738394917
30
-1.7347234759768071e-17
0
SPLINE
5
321
100
AcDbEntity
8
0
100
AcDbSpline
70
0
71
2
72
6
73
3
74
0
42
0.000000001
43
0.0000000001
44
0.0000000001
40
0
40
0
40
0
40
1
40
1
40
1
10
151.92858299612999
20
5.8989027738394917
30
-1.7347234759768071e-17
10
152.51649460196495
20
5.7395628690543354
30
-1.7347234759768071e-17
10
152.97802528738976
20
5.2230767011466206
30
-1.7347234759768071e-17
0
LINE
5
322
100
AcDbEntity
8
0
100
AcDbLine
10
152.97802528738976
20
5.2230767011466206
30
-1.7347234759768071e-17
11
153.15385422110558
21
5.2230767011466206
31
-1.7347234759768071e-17
0
LINE
5
323
100
AcDbEntity
8
0
100
AcDbLine
10
153.15385422110558
20
5.2230767011466206
30
-1.7347234759768071e-17
11
153.15385422110558
21
5.7835177182974995
31
-1.7347234759768071e-17
0
SPLINE
5
324
100
AcDbEntity
8
0
100
AcDbSpline
70
0
71
2
72
6
73
3
74
0
42
0.000000001
43
0.0000000001
44
0.0000000001
40
0
40
0
40
0
40
1
40
1
40
1
10
153.15385422110558
20
5.7835177182974995
30
-1.7347234759768071e-17
10
153.15385422110558
20
7.0362643003287495
30
-1.7347234759768071e-17
10
152.69231399893761
20
7.354946494084853
30
-1.7347234759768071e-17
0
SPLINE
5
325
100
AcDbEntity
8
0
100
AcDbSpline
70
0
71
2
72
6
73
3
74
0
42
0.000000001
43
0.0000000001
44
0.0000000001
40
0
40
0
40
0
40
1
40
1
40
1
10
152.69231399893761
20
7.354946494084853
30
-1.7347234759768071e-17
10
152.23077377676964
20
7.6736286878409565
30
-1.7347234759768071e-17
10
150.41759094595909
20
7.6736286878409565
30
-1.7347234759768071e-17
0
SPLINE
5
326
100
AcDbEntity
8
0
100
AcDbSpline
70
0
71
2
72
6
73
3
74
0
42
0.000000001
43
0.0000000001
44
0.0000000001
40
0
40
0
40
0
40
1
40
1
40
1
10
150.41759094595909
20
7.6736286878409565
30
-1.7347234759768071e-17
10
148.27473244071007
20
7.6736286878409565
30
-1.7347234759768071e-17
10
147.76923736929893
20
7.5087932348075093
30
-1.7347234759768071e-17
0
SPLINE
5
327
100
AcDbEntity
8
0
100
AcDbSpline
70
0
71
2
72
6
73
3
74
0
42
0.000000001
43
0.0000000001
44
0.0000000001
40
0
40
0
40
0
40
1
40
1
40
1
10
147.76923736929893
20
7.5087932348075093
30
-1.7347234759768071e-17
10
147.2637422978878
20
7.343957781774062
30
-1.7347234759768071e-17
10
147.16484627127647
20
6.6076925992789448
30
-1.7347234759768071e-17
0
SPLINE
5
328
100
AcDbEntity
8
0
100
AcDbSpline
70
0
71
2
72
6
73
3
74
0
42
0.000000001
43
0.0000000001
44
0.0000000001
40
0
40
0
40
0
40
1
40
1
40
1
10
149.82418617606163
20
3.7945059537711323
30
-1.7347234759768071e-17
10
147.8131922185421
20
3.7945059537711323
30
-1.7347234759768071e-17
10
147.32967934012413
20
3.5527495145621479
30
-1.7347234759768071e-17
0
SPLINE
5
329
100
AcDbEntity
8
0
100
AcDbSpline
70
0
71
2
72
6
73
3
74
0
42
0.000000001
43
0.0000000001
44
0.0000000001
40
0
40
0
40
0
40
1
40
1
40
1
10
147.32967934012413
20
3.5527495145621479
30
-1.7347234759768071e-17
10
146.74726089835167
20
3.2670334577384175
30
-1.7347234759768071e-17
10
146.74726089835167
20
2.6846174001517475
30
-1.7347234759768071e-17
0
SPLINE
5
330
100
AcDbEntity
8
0
100
AcDbSpline
70
0
71
2
72
6
73
3
74
0
42
0.000000001
43
0.0000000001
44
0.0000000001
40
0
40
0
40
0
40
1
40
1
40
1
10
146.74726089835167
20
2.6846174001517475
30
-1.7347234759768071e-17
10
146.74726089835167
20
2.0362643003287495
30
-1.7347234759768071e-17
10
147.31869301199913
20
1.8054965734305561
30
-1.7347234759768071e-17
0
SPLINE
5
331
100
AcDbEntity
8
0
100
AcDbSpline
70
0
71
2
72
6
73
3
74
0
42
0.000000001
43
0.0000000001
44
0.0000000001
40
0
40
0
40
0
40
1
40
1
40
1
10
147.31869301199913
20
1.8054965734305561
30
-1.7347234759768071e-17
10
147.89011558890343
20
1.5747264623465718
30
-1.7347234759768071e-17
10
149.49451050162315
20
1.5747264623465718
30
-1.7347234759768071e-17
0
SPLINE
5
332
100
AcDbEntity
8
0
100
AcDbSpline
70
0
71
2
72
6
73
3
74
0
42
0.000000001
43
0.0000000001
44
0.0000000001
40
0
40
0
40
0
40
1
40
1
40
1
10
149.49451050162315
20
1.5747264623465718
30
-1.7347234759768071e-17
10
151.58242782950401
20
1.5747264623465718
30
-1.7347234759768071e-17
10
152.32967934012413
20
1.8274739980521382
30
-1.7347234759768071e-17
0
SPLINE
5
333
100
AcDbEntity
8
0
100
AcDbSpline
70
0
71
2
72
6
73
3
74
0
42
0.000000001
43
0.0000000001
44
0.0000000001
40
0
40
0
40
0
40
1
40
1
40
1
10
152.32967934012413
20
1.8274739980521382
30
-1.7347234759768071e-17
10
153.07693085074425
20
2.0802215337577046
30
-1.7347234759768071e-17
10
153.07693085074425
20
2.7835181951346577
30
-1.7347234759768071e-17
0
SPLINE
5
334
100
AcDbEntity
8
0
100
AcDbSpline
70
0
71
2
72
6
73
3
74
0
42
0.000000001
43
0.0000000001
44
0.0000000001
40
0
40
0
40
0
40
1
40
1
40
1
10
153.07693085074425
20
2.7835181951346577
30
-1.7347234759768071e-17
10
153.07693085074425
20
3.4208801984610737
30
-1.7347234759768071e-17
10
152.42857536673546
20
3.6626390218558491
30
-1.7347234759768071e-17
0
SPLINE
5
335
100
AcDbEntity
8
0
100
AcDbSpline
70
0
71
2
72
6
73
3
74
0
42
0.000000001
43
0.0000000001
44
0.0000000001
40
0
40
0
40
0
40
1
40
1
40
1
10
152.42857536673546
20
3.6626390218558491
30
-1.7347234759768071e-17
10
152.13187775015831
20
3.7725285291495503
30
-1.7347234759768071e-17
10
149.82418617606163
20
3.7945059537711323
30
-1.7347234759768071e-17
0
LINE
5
336
100
AcDbEntity
8
0
100
AcDbLine
10
173.54945740103722
20
14.300002217275161
30
-1.7347234759768071e-17
11
173.54945740103722
21
-0.69999897481773488
31
-1.7347234759768071e-17
0
LINE
5
337
100
AcDbEntity
8
0
100
AcDbLine
10
173.54945740103722
20
-0.69999897481773488
30
-1.7347234759768071e-17
11
169.80220398306847
21
-0.69999897481773488
31
-1.7347234759768071e-17
0
LINE
5
338
100
AcDbEntity
8
0
100
AcDbLine
10
169.80220398306847
20
-0.69999897481773488
30
-1.7347234759768071e-17
11
169.80220398306847
21
0.69560563562538036
31
-1.7347234759768071e-17
0
LINE
5
339
100
AcDbEntity
8
0
100
AcDbLine
10
169.80220398306847
20
0.69560563562538036
30
-1.7347234759768071e-17
11
169.58242020010948
21
0.69560563562538036
31
-1.7347234759768071e-17
0
SPLINE
5
340
100
AcDbEntity
8
0
100
AcDbSpline
70
0
71
2
72
6
73
3
74
0
42
0.000000001
43
0.0000000001
44
0.0000000001
40
0
40
0
40
0
40
1
40
1
40
1
10
169.58242020010948
20
0.69560563562538036
30
-1.7347234759768071e-17
10
169.16483482718468
20
-0.029668450373154798
30
-1.7347234759768071e-17
10
168.65934929251671
20
-0.32637321950767628
30
-1.7347234759768071e-17
0
SPLINE
5
341
100
AcDbEntity
8
0
100
AcDbSpline
70
0
71
2
72
6
73
3
74
0
42
0.000000001
43
0.0000000001
44
0.0000000001
40
0
40
0
40
0
40
1
40
1
40
1
10
168.65934929251671
20
-0.32637321950767628
30
-1.7347234759768071e-17
10
167.56043991446495
20
-0.97472393514488331
30
-1.7347234759768071e-17
10
164.87912735342979
20
-0.97472393514488331
30
-1.7347234759768071e-17
0
SPLINE
5
342
100
AcDbEntity
8
0
100
AcDbSpline
70
0
71
2
72
6
73
3
74
0
42
0.000000001
43
0.0000000001
44
0.0000000001
40
0
40
0
40
0
40
1
40
1
40
1
10
164.87912735342979
20
-0.97472393514488331
30
-1.7347234759768071e-17
10
162.72528252005577
20
-0.97472393514488331
30
-1.7347234759768071e-17
10
161.56044563651085
20
-0.72197639943931691
30
-1.7347234759768071e-17
0
SPLINE
5
343
100
AcDbEntity
8
0
100
AcDbSpline
70
0
71
2
72
6
73
3
74
0
42
0.000000001
43
0.0000000001
44
0.0000000001
40
0
40
0
40
0
40
1
40
1
40
1
10
161.56044563651085
20
-0.72197639943931691
30
-1.7347234759768071e-17
10
160.39560875296593
20
-0.4692288637337505
30
-1.7347234759768071e-17
10
159.71429428458214
20
0.1571444272818745
30
-1.7347234759768071e-17
0
SPLINE
5
344
100
AcDbEntity
8
0
100
AcDbSpline
70
0
71
2
72
6
73
3
74
0
42
0.000000001
43
0.0000000001
44
0.0000000001
40
0
40
0
40
0
40
1
40
1
40
1
10
159.71429428458214
20
0.1571444272818745
30
-1.7347234759768071e-17
10
159.05495247244835
20
0.75055158136512645
30
-1.7347234759768071e-17
10
158.8076933324337
20
1.728573203069228
30
-1.7347234759768071e-17
0
SPLINE
5
345
100
AcDbEntity
8
0
100
AcDbSpline
70
0
71
2
72
6
73
3
74
0
42
0.000000001
43
0.0000000001
44
0.0000000001
40
0
40
0
40
0
40
1
40
1
40
1
10
158.8076933324337
20
1.728573203069228
30
-1.7347234759768071e-17
10
158.56044372916222
20
2.7065948247733296
30
-1.7347234759768071e-17
10
158.56044372916222
20
4.6846178769889057
30
-1.7347234759768071e-17
0
SPLINE
5
346
100
AcDbEntity
8
0
100
AcDbSpline
70
0
71
2
72
6
73
3
74
0
42
0.000000001
43
0.0000000001
44
0.0000000001
40
0
40
0
40
0
40
1
40
1
40
1
10
158.56044372916222
20
4.6846178769889057
30
-1.7347234759768071e-17
10
158.56044372916222
20
6.0582426786246479
30
-1.7347234759768071e-17
10
158.69781097769737
20
6.8934086561026753
30
-1.7347234759768071e-17
0
SPLINE
5
347
100
AcDbEntity
8
0
100
AcDbSpline
70
0
71
2
72
6
73
3
74
0
42
0.000000001
43
0.0000000001
44
0.0000000001
40
0
40
0
40
0
40
1
40
1
40
1
10
158.69781097769737
20
6.8934086561026753
30
-1.7347234759768071e-17
10
158.83516868948936
20
7.7285722493949116
30
-1.7347234759768071e-17
10
159.16483482718468
20
8.3659342527213276
30
-1.7347234759768071e-17
0
SPLINE
5
348
100
AcDbEntity
8
0
100
AcDbSpline
70
0
71
2
72
6
73
3
74
0
42
0.000000001
43
0.0000000001
44
0.0000000001
40
0
40
0
40
0
40
1
40
1
40
1
10
159.16483482718468
20
8.3659342527213276
30
-1.7347234759768071e-17
10
159.79121765494347
20
9.5527485608878315
30
-1.7347234759768071e-17
10
161.36264404654503
20
9.9373654126944722
30
-1.7347234759768071e-17
0
SPLINE
5
349
100
AcDbEntity
8
0
100
AcDbSpline
70
0
71
2
72
6
73
3
74
0
42
0.000000001
43
0.0000000001
44
0.0000000001
40
0
40
0
40
0
40
1
40
1
40
1
10
161.36264404654503
20
9.9373654126944722
30
-1.7347234759768071e-17
10
162.51648506522179
20
10.223079085332412
30
-1.7347234759768071e-17
10
164.92308220267296
20
10.223079085332412
30
-1.7347234759768071e-17
0
SPLINE
5
350
100
AcDbEntity
8
0
100
AcDbSpline
70
0
71
2
72
6
73
3
74
0
42
0.000000001
43
0.0000000001
44
0.0000000001
40
0
40
0
40
0
40
1
40
1
40
1
10
164.92308220267296
20
10.223079085332412
30
-1.7347234759768071e-17
10
167.02198585867882
20
10.223079085332412
30
-1.7347234759768071e-17
10
167.92857727408409
20
9.8769263028922261
30
-1.7347234759768071e-17
0
SPLINE
5
351
100
AcDbEntity
8
0
100
AcDbSpline
70
0
71
2
72
6
73
3
74
0
42
0.000000001
43
0.0000000001
44
0.0000000001
40
0
40
0
40
0
40
1
40
1
40
1
10
167.92857727408409
20
9.8769263028922261
30
-1.7347234759768071e-17
10
168.83516868948936
20
9.5307711362662495
30
-1.7347234759768071e-17
10
169.40660080313683
20
8.5197809934439839
30
-1.7347234759768071e-17
0
LINE
5
352
100
AcDbEntity
8
0
100
AcDbLine
10
169.40660080313683
20
8.5197809934439839
30
-1.7347234759768071e-17
11
169.57143387198448
21
8.5197809934439839
31
-1.7347234759768071e-17
0
LINE
5
353
100
AcDbEntity
8
0
100
AcDbLine
10
169.57143387198448
20
8.5197809934439839
30
-1.7347234759768071e-17
11
169.57143387198448
21
14.300002217275161
31
-1.7347234759768071e-17
0
LINE
5
354
100
AcDbEntity
8
0
100
AcDbLine
10
169.57143387198448
20
14.300002217275161
30
-1.7347234759768071e-17
11
173.54945740103722
21
14.300002217275161
31
-1.7347234759768071e-17
0
SPLINE
5
355
100
AcDbEntity
8
0
100
AcDbSpline
70
0
71
2
72
6
73
3
74
0
42
0.000000001
43
0.0000000001
44
0.0000000001
40
0
40
0
40
0
40
1
40
1
40
1
10
166.21978363394737
20
7.2230771779837788
30
-1.7347234759768071e-17
10
163.86813721060753
20
7.2230771779837788
30
-1.7347234759768071e-17
10
163.20330223441124
20
6.7725280523123921
30
-1.7347234759768071e-17
0
SPLINE
5
356
100
AcDbEntity
8
0
100
AcDbSpline
70
0
71
2
72
6
73
3
74
0
42
0.000000001
43
0.0000000001
44
0.0000000001
40
0
40
0
40
0
40
1
40
1
40
1
10
163.20330223441124
20
6.7725280523123921
30
-1.7347234759768071e-17
10
162.53846725821495
20
6.3219789266410054
30
-1.7347234759768071e-17
10
162.53846725821495
20
4.7395614385428608
30
-1.7347234759768071e-17
0
SPLINE
5
357
100
AcDbEntity
8
0
100
AcDbSpline
70
0
71
2
72
6
73
3
74
0
42
0.000000001
43
0.0000000001
44
0.0000000001
40
0
40
0
40
0
40
1
40
1
40
1
10
162.53846725821495
20
4.7395614385428608
30
-1.7347234759768071e-17
10
162.53846725821495
20
3.5417584180655659
30
-1.7347234759768071e-17
10
162.73626884818077
20
3.0307701825919331
30
-1.7347234759768071e-17
0
SPLINE
5
358
100
AcDbEntity
8
0
100
AcDbSpline
70
0
71
2
72
6
73
3
74
0
42
0.000000001
43
0.0000000001
44
0.0000000001
40
0
40
0
40
0
40
1
40
1
40
1
10
162.73626884818077
20
3.0307701825919331
30
-1.7347234759768071e-17
10
162.93407043814659
20
2.5197819471183003
30
-1.7347234759768071e-17
10
163.47253403067589
20
2.3109892606558979
30
-1.7347234759768071e-17
0
SPLINE
5
359
100
AcDbEntity
8
0
100
AcDbSpline
70
0
71
2
72
6
73
3
74
0
42
0.000000001
43
0.0000000001
44
0.0000000001
40
0
40
0
40
0
40
1
40
1
40
1
10
163.47253403067589
20
2.3109892606558979
30
-1.7347234759768071e-17
10
164.18681702017784
20
2.0252755880179585
30
-1.7347234759768071e-17
10
165.97802719473839
20
2.0252755880179585
30
-1.7347234759768071e-17
0
SPLINE
5
360
100
AcDbEntity
8
0
100
AcDbSpline
70
0
71
2
72
6
73
3
74
0
42
0.000000001
43
0.0000000001
44
0.0000000001
40
0
40
0
40
0
40
1
40
1
40
1
10
165.97802719473839
20
2.0252755880179585
30
-1.7347234759768071e-17
10
168.19780907034874
20
2.0252755880179585
30
-1.7347234759768071e-17
10
168.93407425284386
20
2.4868134260001362
30
-1.7347234759768071e-17
0
SPLINE
5
361
100
AcDbEntity
8
0
100
AcDbSpline
70
0
71
2
72
6
73
3
74
0
42
0.000000001
43
0.0000000001
44
0.0000000001
40
0
40
0
40
0
40
1
40
1
40
1
10
168.93407425284386
20
2.4868134260001362
30
-1.7347234759768071e-17
10
169.29670891165733
20
2.7065948247733296
30
-1.7347234759768071e-17
10
169.44506248831749
20
3.1901100873770893
30
-1.7347234759768071e-17
0
SPLINE
5
362
100
AcDbEntity
8
0
100
AcDbSpline
70
0
71
2
72
6
73
3
74
0
42
0.000000001
43
0.0000000001
44
0.0000000001
40
0
40
0
40
0
40
1
40
1
40
1
10
169.44506248831749
20
3.1901100873770893
30
-1.7347234759768071e-17
10
169.59341606497765
20
3.6736277341666401
30
-1.7347234759768071e-17
10
169.59341606497765
20
4.6076945066275776
30
-1.7347234759768071e-17
0
SPLINE
5
363
100
AcDbEntity
8
0
100
AcDbSpline
70
0
71
2
72
6
73
3
74
0
42
0.000000001
43
0.0000000001
44
0.0000000001
40
0
40
0
40
0
40
1
40
1
40
1
10
169.59341606497765
20
4.6076945066275776
30
-1.7347234759768071e-17
10
169.59341606497765
20
5.6956056356253804
30
-1.7347234759768071e-17
10
169.39560493826866
20
6.2011007070365132
30
-1.7347234759768071e-17
0
SPLINE
5
364
100
AcDbEntity
8
0
100
AcDbSpline
70
0
71
2
72
6
73
3
74
0
42
0.000000001
43
0.0000000001
44
0.0000000001
40
0
40
0
40
0
40
1
40
1
40
1
10
169.39560493826866
20
6.2011007070365132
30
-1.7347234759768071e-17
10
169.19780334830284
20
6.706593394261855
30
-1.7347234759768071e-17
10
168.69230827689171
20
6.9153860807242573
30
-1.7347234759768071e-17
0
SPLINE
5
365
100
AcDbEntity
8
0
100
AcDbSpline
70
0
71
2
72
6
73
3
74
0
42
0.000000001
43
0.0000000001
44
0.0000000001
40
0
40
0
40
0
40
1
40
1
40
1
10
168.69230827689171
20
6.9153860807242573
30
-1.7347234759768071e-17
10
167.96703895926476
20
7.2230771779837788
30
-1.7347234759768071e-17
10
166.21978363394737
20
7.2230771779837788
30
-1.7347234759768071e-17
0
LINE
5
366
100
AcDbEntity
8
0
100
AcDbLine
10
174.15384849905968
20
9.9483541250052632
30
-1.7347234759768071e-17
11
178.52747520804405
21
9.9483541250052632
31
-1.7347234759768071e-17
0
LINE
5
367
100
AcDbEntity
8
0
100
AcDbLine
10
178.52747520804405
20
9.9483541250052632
30
-1.7347234759768071e-17
11
181.56044563651085
21
2.2120884656729878
31
-1.7347234759768071e-17
0
LINE
5
368
100
AcDbEntity
8
0
100
AcDbLine
10
181.56044563651085
20
2.2120884656729878
30
-1.7347234759768071e-17
11
184.94505485892296
21
9.9483541250052632
31
-1.7347234759768071e-17
0
LINE
5
369
100
AcDbEntity
8
0
100
AcDbLine
10
184.94505485892296
20
9.9483541250052632
30
-1.7347234759768071e-17
11
189.35165962576866
21
9.9483541250052632
31
-1.7347234759768071e-17
0
LINE
5
370
100
AcDbEntity
8
0
100
AcDbLine
10
189.35165962576866
20
9.9483541250052632
30
-1.7347234759768071e-17
11
183.68132194876671
21
-2.0736261606392681
31
-1.7347234759768071e-17
0
SPLINE
5
371
100
AcDbEntity
8
0
100
AcDbSpline
70
0
71
2
72
6
73
3
74
0
42
0.000000001
43
0.0000000001
44
0.0000000001
40
0
40
0
40
0
40
1
40
1
40
1
10
183.68132194876671
20
-2.0736261606392681
30
-1.7347234759768071e-17
10
182.85714706778526
20
-3.8208791017708599
30
-1.7347234759768071e-17
10
182.59890159964561
20
-4.2109891176400005
30
-1.7347234759768071e-17
0
SPLINE
5
372
100
AcDbEntity
8
0
100
AcDbSpline
70
0
71
2
72
6
73
3
74
0
42
0.000000001
43
0.0000000001
44
0.0000000001
40
0
40
0
40
0
40
1
40
1
40
1
10
182.59890159964561
20
-4.2109891176400005
30
-1.7347234759768071e-17
10
182.34066566824913
20
-4.6010991335091411
30
-1.7347234759768071e-17
10
181.835170596838
20
-4.9197789430794536
30
-1.7347234759768071e-17
0
SPLINE
5
373
100
AcDbEntity
8
0
100
AcDbSpline
70
0
71
2
72
6
73
3
74
0
42
0.000000001
43
0.0000000001
44
0.0000000001
40
0
40
0
40
0
40
1
40
1
40
1
10
181.835170596838
20
-4.9197789430794536
30
-1.7347234759768071e-17
10
180.91209015250206
20
-5.4912086725411235
30
-1.7347234759768071e-17
10
178.93406471610069
20
-5.4912086725411235
30
-1.7347234759768071e-17
0
SPLINE
5
374
100
AcDbEntity
8
0
100
AcDbSpline
70
0
71
2
72
6
73
3
74
0
42
0.000000001
43
0.0000000001
44
0.0000000001
40
0
40
0
40
0
40
1
40
1
40
1
10
178.93406471610069
20
-5.4912086725411235
30
-1.7347234759768071e-17
10
177.64834961295128
20
-5.4912086725411235
30
-1.7347234759768071e-17
10
177.21977791190147
20
-5.4362627268013775
30
-1.7347234759768071e-17
0
LINE
5
375
100
AcDbEntity
8
0
100
AcDbLine
10
177.21977791190147
20
-5.4362627268013775
30
-1.7347234759768071e-17
11
177.21977791190147
21
-2.6890107393441021
31
-1.7347234759768071e-17
0
SPLINE
5
376
100
AcDbEntity
8
0
100
AcDbSpline
70
0
71
2
72
6
73
3
74
0
42
0.000000001
43
0.0000000001
44
0.0000000001
40
0
40
0
40
0
40
1
40
1
40
1
10
177.21977791190147
20
-2.6890107393441021
30
-1.7347234759768071e-17
10
177.46154388785362
20
-2.678022027033311
30
-1.7347234759768071e-17
10
178.10988983511925
20
-2.678022027033311
30
-1.7347234759768071e-17
0
SPLINE
5
377
100
AcDbEntity
8
0
100
AcDbSpline
70
0
71
2
72
6
73
3
74
0
42
0.000000001
43
0.0000000001
44
0.0000000001
40
0
40
0
40
0
40
1
40
1
40
1
10
178.10988983511925
20
-2.678022027033311
30
-1.7347234759768071e-17
10
179.12087997794151
20
-2.6890107393441021
30
-1.7347234759768071e-17
10
179.58242020010948
20
-2.3043938875374614
30
-1.7347234759768071e-17
0
SPLINE
5
378
100
AcDbEntity
8
0
100
AcDbSpline
70
0
71
2
72
6
73
3
74
0
42
0.000000001
43
0.0000000001
44
0.0000000001
40
0
40
0
40
0
40
1
40
1
40
1
10
179.58242020010948
20
-2.3043938875374614
30
-1.7347234759768071e-17
10
180.04396042227745
20
-1.9197794199166118
30
-1.7347234759768071e-17
10
180.51648697257042
20
-0.69999897481773488
30
-1.7347234759768071e-17
0
LINE
5
379
100
AcDbEntity
8
0
100
AcDbLine
10
180.51648697257042
20
-0.69999897481773488
30
-1.7347234759768071e-17
11
178.90110573172569
21
-0.69999897481773488
31
-1.7347234759768071e-17
0
LINE
5
380
100
AcDbEntity
8
0
100
AcDbLine
10
178.90110573172569
20
-0.69999897481773488
30
-1.7347234759768071e-17
11
174.15384849905968
21
9.9483541250052632
31
-1.7347234759768071e-17
0
ENDSEC
0
SECTION
2
OBJECTS
0
DICTIONARY
5
C
100
AcDbDictionary
3
ACAD_GROUP
350
D
3
ACAD_MLINESTYLE
350
17
0
DICTIONARY
5
D
100
AcDbDictionary
0
DICTIONARY
5
1A
330
C
100
AcDbDictionary
0
DICTIONARY
5
17
100
AcDbDictionary
0
ENDSEC
0
EOF
