0
SECTION
2
HEADER
9
$INSUNITS
70
4
9
$ACADVER
1
AC1014
9
$HANDSEED
5
FFFF
0
ENDSEC
0
SECTION
2
TABLES
0
TABLE
2
VPORT
5
8
100
AcDbSymbolTable
0
ENDTAB
0
TABLE
2
LTYPE
5
5
100
AcDbSymbolTable
0
LTYPE
5
14
100
AcDbSymbolTableRecord
100
AcDbLinetypeTableRecord
2
BYBLOCK
70
0
0
LTYPE
5
15
100
AcDbSymbolTableRecord
100
AcDbLinetypeTableRecord
2
BYLAYER
70
0
0
LTYPE
5
16
100
AcDbSymbolTableRecord
100
AcDbLinetypeTableRecord
2
DASHED
70
0
3
Dashed __ __ __ __ __ __ __ __ __ __ __ __ __ _
72
65
73
2
40
0.75
49
0.5
74
0
49
-0.25
74
0
0
ENDTAB
0
TABLE
2
LAYER
5
2
100
AcDbSymbolTable
70
2
0
LAYER
5
50
100
AcDbSymbolTableRecord
100
AcDbLayerTableRecord
2
0
70
0
62
7
6
CONTINUOUS
0
ENDTAB
0
TABLE
2
STYLE
5
3
100
AcDbSymbolTable
70
1
0
STYLE
5
11
100
AcDbSymbolTableRecord
100
AcDbTextStyleTableRecord
2
STANDARD
70
0
0
ENDTAB
0
TABLE
2
VIEW
5
6
100
AcDbSymbolTable
70
0
0
ENDTAB
0
TABLE
2
UCS
5
7
100
AcDbSymbolTable
70
0
0
ENDTAB
0
TABLE
2
APPID
5
9
100
AcDbSymbolTable
70
2
0
APPID
5
12
100
AcDbSymbolTableRecord
100
AcDbRegAppTableRecord
2
ACAD
70
0
0
ENDTAB
0
TABLE
2
DIMSTYLE
5
A
100
AcDbSymbolTable
70
1
0
ENDTAB
0
TABLE
2
BLOCK_RECORD
5
1
100
AcDbSymbolTable
70
1
0
BLOCK_RECORD
5
1F
100
AcDbSymbolTableRecord
100
AcDbBlockTableRecord
2
*MODEL_SPACE
0
BLOCK_RECORD
5
1B
100
AcDbSymbolTableRecord
100
AcDbBlockTableRecord
2
*PAPER_SPACE
0
ENDTAB
0
ENDSEC
0
SECTION
2
BLOCKS
0
BLOCK
5
20
100
AcDbEntity
100
AcDbBlockBegin
2
*MODEL_SPACE
0
ENDBLK
5
21
100
AcDbEntity
100
AcDbBlockEnd
0
BLOCK
5
1C
100
AcDbEntity
100
AcDbBlockBegin
2
*PAPER_SPACE
0
ENDBLK
5
1D
100
AcDbEntity
100
AcDbBlockEnd
0
ENDSEC
0
SECTION
2
ENTITIES
0
CIRCLE
5
100
100
AcDbEntity
8
0
100
AcDbCircle
10
1.9999999999999996
20
12.80000007150795
30
0
40
1.4999999999999993
210
0
220
-0
230
1
0
CIRCLE
5
101
100
AcDbEntity
8
0
100
AcDbCircle
10
-14.000000000000002
20
20.800000071507956
30
-1.7347234759768071e-17
40
1.4999999999999993
210
0
220
2.8025969286496335e-45
230
1
0
CIRCLE
5
102
100
AcDbEntity
8
0
100
AcDbCircle
10
-10.000000000000002
20
16.800000071507956
30
-1.7347234759768071e-17
40
1.4999999999999993
210
0
220
2.8025969286496335e-45
230
1
0
CIRCLE
5
103
100
AcDbEntity
8
0
100
AcDbCircle
10
-5.9999999999999982
20
12.800000071507949
30
-1.7347234759768071e-17
40
1.4999999999999993
210
0
220
2.8025969286496335e-45
230
1
0
CIRCLE
5
104
100
AcDbEntity
8
0
100
AcDbCircle
10
-1.9999999999999996
20
8.8000000715079487
30
-1.7347234759768071e-17
40
1.4999999999999996
210
0
220
2.8025969286496335e-45
230
1
0
CIRCLE
5
105
100
AcDbEntity
8
0
100
AcDbCircle
10
1.9999999999999996
20
4.8000000715079496
30
-1.7347234759768071e-17
40
1.4999999999999993
210
0
220
2.8025969286496335e-45
230
1
0
CIRCLE
5
106
100
AcDbEntity
8
0
100
AcDbCircle
10
6.0000000000000009
20
0.80000007150794805
30
-1.7347234759768071e-17
40
1.4999999999999993
210
0
220
2.8025969286496335e-45
230
1
0
CIRCLE
5
107
100
AcDbEntity
8
0
100
AcDbCircle
10
1.9999999999999996
20
8.8000000715079487
30
-1.7347234759768071e-17
40
1.4999999999999993
210
0
220
2.8025969286496335e-45
230
1
0
CIRCLE
5
108
100
AcDbEntity
8
0
100
AcDbCircle
10
-1.9999999999999996
20
4.8000000715079496
30
-1.7347234759768071e-17
40
1.4999999999999996
210
0
220
2.8025969286496335e-45
230
1
0
CIRCLE
5
109
100
AcDbEntity
8
0
100
AcDbCircle
10
10
20
-3.1999999284920522
30
-1.7347234759768071e-17
40
1.4999999999999993
210
0
220
2.8025969286496335e-45
230
1
0
CIRCLE
5
110
100
AcDbEntity
8
0
100
AcDbCircle
10
14.000000000000002
20
-7.1999999284920531
30
-1.7347234759768071e-17
40
1.4999999999999993
210
0
220
2.8025969286496335e-45
230
1
0
CIRCLE
5
111
100
AcDbEntity
8
0
100
AcDbCircle
10
-5.9999999999999982
20
0.80000007150794805
30
-1.7347234759768071e-17
40
1.4999999999999993
210
0
220
2.8025969286496335e-45
230
1
0
CIRCLE
5
112
100
AcDbEntity
8
0
100
AcDbCircle
10
-10.000000000000002
20
-3.1999999284920522
30
-1.7347234759768071e-17
40
1.4999999999999993
210
0
220
2.8025969286496335e-45
230
1
0
CIRCLE
5
113
100
AcDbEntity
8
0
100
AcDbCircle
10
-14.000000000000002
20
-7.1999999284920531
30
-1.7347234759768071e-17
40
1.4999999999999993
210
0
220
2.8025969286496335e-45
230
1
0
CIRCLE
5
114
100
AcDbEntity
8
0
100
AcDbCircle
10
6.0000000000000009
20
12.800000071507949
30
-1.7347234759768071e-17
40
1.4999999999999993
210
0
220
2.8025969286496335e-45
230
1
0
CIRCLE
5
115
100
AcDbEntity
8
0
100
AcDbCircle
10
10
20
16.800000071507956
30
-1.7347234759768071e-17
40
1.4999999999999993
210
0
220
2.8025969286496335e-45
230
1
0
CIRCLE
5
116
100
AcDbEntity
8
0
100
AcDbCircle
10
14.000000000000002
20
20.800000071507956
30
-1.7347234759768071e-17
40
1.4999999999999993
210
0
220
2.8025969286496335e-45
230
1
0
CIRCLE
5
117
100
AcDbEntity
8
0
100
AcDbCircle
10
14.000000000000002
20
20.800000071507956
30
-1.7347234759768071e-17
40
1.4999999999999993
210
0
220
2.8025969286496335e-45
230
1
0
LINE
5
118
100
AcDbEntity
8
0
100
AcDbLine
10
16.000347729874491
20
-9.1999999473682319
30
-1.7347234759768071e-17
11
15.994860275757661
21
22.744730040152213
31
-1.7347234759768071e-17
0
LINE
5
119
100
AcDbEntity
8
0
100
AcDbLine
10
16.000347729874491
20
-9.1999999473682319
30
-1.7347234759768071e-17
11
15.994860275757661
21
-9.1999999284920531
31
-1.7347234759768071e-17
0
LINE
5
120
100
AcDbEntity
8
0
100
AcDbLine
10
26.017059158742569
20
-8.753056391625357
30
-1.7347234759768071e-17
11
215.29608536733318
21
-8.6196570823334149
31
-1.7347234759768071e-17
6
DASHED
0
LINE
5
121
100
AcDbEntity
8
0
100
AcDbLine
10
215.29608536733318
20
-8.6196570823334149
30
-1.7347234759768071e-17
11
215.27388648434865
21
22.878129349444155
31
-1.7347234759768071e-17
6
DASHED
0
LINE
5
122
100
AcDbEntity
8
0
100
AcDbLine
10
215.27388648434865
20
22.878129349444155
30
-1.7347234759768071e-17
11
25.994860275757659
21
22.744730040152213
31
-1.7347234759768071e-17
6
DASHED
0
LINE
5
123
100
AcDbEntity
8
0
100
AcDbLine
10
25.994860275757659
20
22.744730040152213
30
-1.7347234759768071e-17
11
26.017059158742569
21
-8.753056391625357
31
-1.7347234759768071e-17
6
DASHED
0
LINE
5
124
100
AcDbEntity
8
0
100
AcDbLine
10
26.011245535339974
20
-0.50416078469581738
30
-1.7347234759768071e-17
11
26.000673897575702
21
14.495836682079409
31
-1.7347234759768071e-17
0
LINE
5
125
100
AcDbEntity
8
0
100
AcDbLine
10
26.000673897575702
20
14.495836682079409
30
-1.7347234759768071e-17
11
36.275397349209783
21
14.503078060266251
31
-1.7347234759768071e-17
0
SPLINE
5
126
100
AcDbEntity
8
0
100
AcDbSpline
70
0
71
2
72
6
73
3
74
0
42
0.000000001
43
0.0000000001
44
0.0000000001
40
0
40
0
40
0
40
1
40
1
40
1
10
36.27539734920979
20
14.503078060266253
30
-1.7347234759768071e-17
10
39.330340867310348
20
14.505231111047438
30
-1.7347234759768071e-17
10
40.209547860674
20
14.384971313290652
30
-1.7347234759768071e-17
0
SPLINE
5
127
100
AcDbEntity
8
0
100
AcDbSpline
70
0
71
2
72
6
73
3
74
0
42
0.000000001
43
0.0000000001
44
0.0000000001
40
0
40
0
40
0
40
1
40
1
40
1
10
40.209547860674
20
14.384971313290652
30
-1.7347234759768071e-17
10
42.440524619887427
20
14.089840001370808
30
-1.7347234759768071e-17
10
43.227040398359534
20
12.953031317740118
30
-1.7347234759768071e-17
0
SPLINE
5
128
100
AcDbEntity
8
0
100
AcDbSpline
70
0
71
2
72
6
73
3
74
0
42
0.000000001
43
0.0000000001
44
0.0000000001
40
0
40
0
40
0
40
1
40
1
40
1
10
43.227040398359534
20
12.953031317740118
30
-1.7347234759768071e-17
10
44.013556176831628
20
11.816222634109428
30
-1.7347234759768071e-17
10
44.015616290991055
20
8.8931460151744055
30
-1.7347234759768071e-17
0
SPLINE
5
129
100
AcDbEntity
8
0
100
AcDbSpline
70
0
71
2
72
6
73
3
74
0
42
0.000000001
43
0.0000000001
44
0.0000000001
40
0
40
0
40
0
40
1
40
1
40
1
10
44.015616290991055
20
8.8931460151744055
30
-1.7347234759768071e-17
10
44.017575723110092
20
6.1129261970792159
30
-1.7347234759768071e-17
10
43.370015135659827
20
4.9915922676329316
30
-1.7347234759768071e-17
0
SPLINE
5
130
100
AcDbEntity
8
0
100
AcDbSpline
70
0
71
2
72
6
73
3
74
0
42
0.000000001
43
0.0000000001
44
0.0000000001
40
0
40
0
40
0
40
1
40
1
40
1
10
43.370015135659827
20
4.9915922676329316
30
-1.7347234759768071e-17
10
42.93098922250222
20
4.2330400572894389
30
-1.7347234759768071e-17
10
42.140058294406408
20
3.8368793499959164
30
-1.7347234759768071e-17
0
SPLINE
5
131
100
AcDbEntity
8
0
100
AcDbSpline
70
0
71
2
72
6
73
3
74
0
42
0.000000001
43
0.0000000001
44
0.0000000001
40
0
40
0
40
0
40
1
40
1
40
1
10
42.140058294406408
20
3.8368793499959164
30
-1.7347234759768071e-17
10
41.349128560083521
20
3.4407162593573526
30
-1.7347234759768071e-17
10
39.975611334960057
20
3.2859014584915425
30
-1.7347234759768071e-17
0
SPLINE
5
132
100
AcDbEntity
8
0
100
AcDbSpline
70
0
71
2
72
6
73
3
74
0
42
0.000000001
43
0.0000000001
44
0.0000000001
40
0
40
0
40
0
40
1
40
1
40
1
10
39.975611334960057
20
3.2859014584915425
30
-1.7347234759768071e-17
10
38.99766740361688
20
3.1753226925234923
30
-1.7347234759768071e-17
10
36.327338257616432
20
3.1734407087094718
30
-1.7347234759768071e-17
0
LINE
5
133
100
AcDbEntity
8
0
100
AcDbLine
10
36.327338257616432
20
3.1734407087094718
30
-1.7347234759768071e-17
11
30.580086386213146
21
3.169390183697117
31
-1.7347234759768071e-17
0
LINE
5
134
100
AcDbEntity
8
0
100
AcDbLine
10
30.580086386213146
20
3.1693901836971161
30
-1.7347234759768071e-17
11
30.582673145990142
21
-0.50093895236735297
31
-1.7347234759768071e-17
0
LINE
5
135
100
AcDbEntity
8
0
100
AcDbLine
10
30.582673145990142
20
-0.50093895236735353
30
-1.7347234759768071e-17
11
26.011245535339974
21
-0.5041607846958166
31
-1.7347234759768071e-17
0
LINE
5
136
100
AcDbEntity
8
0
100
AcDbLine
10
30.577445412706652
20
6.916642671018649
30
-1.7347234759768071e-17
11
36.29172996327226
21
6.9206699614554834
31
-1.7347234759768071e-17
0
SPLINE
5
137
100
AcDbEntity
8
0
100
AcDbSpline
70
0
71
2
72
6
73
3
74
0
42
0.000000001
43
0.0000000001
44
0.0000000001
40
0
40
0
40
0
40
1
40
1
40
1
10
36.29172996327226
20
6.9206699614554834
30
-1.7347234759768071e-17
10
37.852161894628068
20
6.9327584314233714
30
-1.7347234759768071e-17
10
38.198291357364297
20
6.9659685202708665
30
-1.7347234759768071e-17
0
SPLINE
5
138
100
AcDbEntity
8
0
100
AcDbSpline
70
0
71
2
72
6
73
3
74
0
42
0.000000001
43
0.0000000001
44
0.0000000001
40
0
40
0
40
0
40
1
40
1
40
1
10
38.198291357364297
20
6.9659685202708665
30
-1.7347234759768071e-17
10
38.544422010512804
20
6.9991809941437255
30
-1.7347234759768071e-17
10
38.819047413503149
20
7.1422302232334234
30
-1.7347234759768071e-17
0
SPLINE
5
139
100
AcDbEntity
8
0
100
AcDbSpline
70
0
71
2
72
6
73
3
74
0
42
0.000000001
43
0.0000000001
44
0.0000000001
40
0
40
0
40
0
40
1
40
1
40
1
10
38.819047413503149
20
7.1422302232334234
30
-1.7347234759768071e-17
10
39.170563995663834
20
7.3292908877244356
30
-1.7347234759768071e-17
10
39.302164891403876
20
7.7085050345882333
30
-1.7347234759768071e-17
0
SPLINE
5
140
100
AcDbEntity
8
0
100
AcDbSpline
70
0
71
2
72
6
73
3
74
0
42
0.000000001
43
0.0000000001
44
0.0000000001
40
0
40
0
40
0
40
1
40
1
40
1
10
39.302164891403876
20
7.7085050345882333
30
-1.7347234759768071e-17
10
39.433765787143919
20
8.0877191814520266
30
-1.7347234759768071e-17
10
39.433200417793913
20
8.8899164385825493
30
-1.7347234759768071e-17
0
SPLINE
5
141
100
AcDbEntity
8
0
100
AcDbSpline
70
0
71
2
72
6
73
3
74
0
42
0.000000001
43
0.0000000001
44
0.0000000001
40
0
40
0
40
0
40
1
40
1
40
1
10
39.433200417793913
20
8.8899164385825493
30
-1.7347234759768071e-17
10
39.432635046763586
20
9.6921160798982697
30
-1.7347234759768071e-17
10
39.267536312279063
20
10.065625570379249
30
-1.7347234759768071e-17
0
SPLINE
5
142
100
AcDbEntity
8
0
100
AcDbSpline
70
0
71
2
72
6
73
3
74
0
42
0.000000001
43
0.0000000001
44
0.0000000001
40
0
40
0
40
0
40
1
40
1
40
1
10
39.267536312279063
20
10.065625570379249
30
-1.7347234759768071e-17
10
39.102437577794532
20
10.439135060860224
30
-1.7347234759768071e-17
10
38.68473971365944
20
10.603674979320765
30
-1.7347234759768071e-17
0
SPLINE
5
143
100
AcDbEntity
8
0
100
AcDbSpline
70
0
71
2
72
6
73
3
74
0
42
0.000000001
43
0.0000000001
44
0.0000000001
40
0
40
0
40
0
40
1
40
1
40
1
10
38.68473971365944
20
10.603674979320765
30
-1.7347234759768071e-17
10
38.376962307840316
20
10.724337506919381
30
-1.7347234759768071e-17
10
36.289027032297973
20
10.755833317523173
30
-1.7347234759768071e-17
0
LINE
5
144
100
AcDbEntity
8
0
100
AcDbLine
10
36.289027032297973
20
10.755833317523173
30
-1.7347234759768071e-17
11
30.574742481732372
21
10.751806027086339
31
-1.7347234759768071e-17
0
LINE
5
145
100
AcDbEntity
8
0
100
AcDbLine
10
30.574742481732365
20
10.751806027086339
30
-1.7347234759768071e-17
11
30.577445412706652
21
6.9166426710186464
31
-1.7347234759768071e-17
0
LINE
5
146
100
AcDbEntity
8
0
100
AcDbLine
10
45.363306936439606
20
14.50948300056063
30
-1.7347234759768071e-17
11
49.341327093347125
21
14.512286613575291
31
-1.7347234759768071e-17
0
LINE
5
147
100
AcDbEntity
8
0
100
AcDbLine
10
49.341327093347132
20
14.512286613575291
30
-1.7347234759768071e-17
11
49.351898731111405
21
-0.48771085319993412
31
-1.7347234759768071e-17
0
LINE
5
148
100
AcDbEntity
8
0
100
AcDbLine
10
49.351898731111405
20
-0.4877108531999319
30
-1.7347234759768071e-17
11
45.373878574203879
21
-0.4905144662145936
31
-1.7347234759768071e-17
0
LINE
5
149
100
AcDbEntity
8
0
100
AcDbLine
10
45.373878574203871
20
-0.49051446621459327
30
-1.7347234759768071e-17
11
45.363306936439606
21
14.509483000560632
31
-1.7347234759768071e-17
0
LINE
5
150
100
AcDbEntity
8
0
100
AcDbLine
10
61.206639734094153
20
2.9272387290233803
30
-1.7347234759768071e-17
11
65.173673565605185
21
2.9300345991399039
31
-1.7347234759768071e-17
0
SPLINE
5
151
100
AcDbEntity
8
0
100
AcDbSpline
70
0
71
2
72
6
73
3
74
0
42
0.000000001
43
0.0000000001
44
0.0000000001
40
0
40
0
40
0
40
1
40
1
40
1
10
65.173673565605185
20
2.9300345991399057
30
-1.7347234759768071e-17
10
65.010059446326252
20
1.1936546278103632
30
-1.7347234759768071e-17
10
64.120486903578367
20
0.43478488302898022
30
-1.7347234759768071e-17
0
SPLINE
5
152
100
AcDbEntity
8
0
100
AcDbSpline
70
0
71
2
72
6
73
3
74
0
42
0.000000001
43
0.0000000001
44
0.0000000001
40
0
40
0
40
0
40
1
40
1
40
1
10
64.120486903578367
20
0.43478488302898022
30
-1.7347234759768071e-17
10
63.351725822055656
20
-0.23608522804576371
30
-1.7347234759768071e-17
10
61.9453148521103
20
-0.49531958079099159
30
-1.7347234759768071e-17
0
SPLINE
5
153
100
AcDbEntity
8
0
100
AcDbSpline
70
0
71
2
72
6
73
3
74
0
42
0.000000001
43
0.0000000001
44
0.0000000001
40
0
40
0
40
0
40
1
40
1
40
1
10
61.9453148521103
20
-0.49531958079099159
30
-1.7347234759768071e-17
10
60.538903880484625
20
-0.75455154935101909
30
-1.7347234759768071e-17
10
57.725717933644347
20
-0.75653421520542441
30
-1.7347234759768071e-17
0
SPLINE
5
154
100
AcDbEntity
8
0
100
AcDbSpline
70
0
71
2
72
6
73
3
74
0
42
0.000000001
43
0.0000000001
44
0.0000000001
40
0
40
0
40
0
40
1
40
1
40
1
10
57.725717933644347
20
-0.75653421520542441
30
-1.7347234759768071e-17
10
55.407038223091547
20
-0.75816836494748685
30
-1.7347234759768071e-17
10
54.165121893708132
20
-0.53376901894950368
30
-1.7347234759768071e-17
0
SPLINE
5
155
100
AcDbEntity
8
0
100
AcDbSpline
70
0
71
2
72
6
73
3
74
0
42
0.000000001
43
0.0000000001
44
0.0000000001
40
0
40
0
40
0
40
1
40
1
40
1
10
54.165121893708132
20
-0.53376901894950368
30
-1.7347234759768071e-17
10
52.923205564324711
20
-0.30936967295151163
30
-1.7347234759768071e-17
10
52.197542035261435
20
0.23956895394360522
30
-1.7347234759768071e-17
0
SPLINE
5
156
100
AcDbEntity
8
0
100
AcDbSpline
70
0
71
2
72
6
73
3
74
0
42
0.000000001
43
0.0000000001
44
0.0000000001
40
0
40
0
40
0
40
1
40
1
40
1
10
52.197542035261435
20
0.23956895394360522
30
-1.7347234759768071e-17
10
51.427902816640916
20
0.82144511713550639
30
-1.7347234759768071e-17
10
51.141501416259217
20
1.7937719674842212
30
-1.7347234759768071e-17
0
SPLINE
5
157
100
AcDbEntity
8
0
100
AcDbSpline
70
0
71
2
72
6
73
3
74
0
42
0.000000001
43
0.0000000001
44
0.0000000001
40
0
40
0
40
0
40
1
40
1
40
1
10
51.141501416259217
20
1.7937719674842212
30
-1.7347234759768071e-17
10
50.855102401743025
20
2.7660964353280537
30
-1.7347234759768071e-17
10
50.853677360660178
20
4.7880738346194995
30
-1.7347234759768071e-17
0
SPLINE
5
158
100
AcDbEntity
8
0
100
AcDbSpline
70
0
71
2
72
6
73
3
74
0
42
0.000000001
43
0.0000000001
44
0.0000000001
40
0
40
0
40
0
40
1
40
1
40
1
10
50.853677360660178
20
4.7880738346194995
30
-1.7347234759768071e-17
10
50.852608578587791
20
6.3045586722269809
30
-1.7347234759768071e-17
10
50.961959796104694
20
7.0683717011938318
30
-1.7347234759768071e-17
0
SPLINE
5
159
100
AcDbEntity
8
0
100
AcDbSpline
70
0
71
2
72
6
73
3
74
0
42
0.000000001
43
0.0000000001
44
0.0000000001
40
0
40
0
40
0
40
1
40
1
40
1
10
50.961959796104694
20
7.0683717011938318
30
-1.7347234759768071e-17
10
51.071313397806783
20
7.8321847318410009
30
-1.7347234759768071e-17
10
51.378570710494188
20
8.4477860109499758
30
-1.7347234759768071e-17
0
SPLINE
5
160
100
AcDbEntity
8
0
100
AcDbSpline
70
0
71
2
72
6
73
3
74
0
42
0.000000001
43
0.0000000001
44
0.0000000001
40
0
40
0
40
0
40
1
40
1
40
1
10
51.378570710494188
20
8.4477860109499758
30
-1.7347234759768071e-17
10
52.015034159223454
20
9.722961282517133
30
-1.7347234759768071e-17
10
53.685092248192703
20
10.108752862468302
30
-1.7347234759768071e-17
0
SPLINE
5
161
100
AcDbEntity
8
0
100
AcDbSpline
70
0
71
2
72
6
73
3
74
0
42
0.000000001
43
0.0000000001
44
0.0000000001
40
0
40
0
40
0
40
1
40
1
40
1
10
53.685092248192703
20
10.108752862468302
30
-1.7347234759768071e-17
10
55.113432680886532
20
10.439430510424369
30
-1.7347234759768071e-17
10
58.12442016856771
20
10.441552582051582
30
-1.7347234759768071e-17
0
SPLINE
5
162
100
AcDbEntity
8
0
100
AcDbSpline
70
0
71
2
72
6
73
3
74
0
42
0.000000001
43
0.0000000001
44
0.0000000001
40
0
40
0
40
0
40
1
40
1
40
1
10
58.12442016856771
20
10.441552582051582
30
-1.7347234759768071e-17
10
60.783759412893865
20
10.443426820446993
30
-1.7347234759768071e-17
10
61.871804317083601
20
10.257380724298862
30
-1.7347234759768071e-17
0
SPLINE
5
163
100
AcDbEntity
8
0
100
AcDbSpline
70
0
71
2
72
6
73
3
74
0
42
0.000000001
43
0.0000000001
44
0.0000000001
40
0
40
0
40
0
40
1
40
1
40
1
10
61.871804317083601
20
10.257380724298862
30
-1.7347234759768071e-17
10
63.806101999611187
20
9.929072982882122
30
-1.7347234759768071e-17
10
64.532162001201698
20
8.8142003136456069
30
-1.7347234759768071e-17
0
SPLINE
5
164
100
AcDbEntity
8
0
100
AcDbSpline
70
0
71
2
72
6
73
3
74
0
42
0.000000001
43
0.0000000001
44
0.0000000001
40
0
40
0
40
0
40
1
40
1
40
1
10
64.532162001201698
20
8.8142003136456069
30
-1.7347234759768071e-17
10
65.258222004472529
20
7.6993252602238904
30
-1.7347234759768071e-17
10
65.260080753711037
20
5.0619634350611342
30
-1.7347234759768071e-17
0
SPLINE
5
165
100
AcDbEntity
8
0
100
AcDbSpline
70
0
71
2
72
6
73
3
74
0
42
0.000000001
43
0.0000000001
44
0.0000000001
40
0
40
0
40
0
40
1
40
1
40
1
10
65.260080753711037
20
5.0619634350611342
30
-1.7347234759768071e-17
10
65.260258884056427
20
4.8092159621265518
30
-1.7347234759768071e-17
10
65.238862323399957
20
3.9850257966757319
30
-1.7347234759768071e-17
0
LINE
5
166
100
AcDbEntity
8
0
100
AcDbLine
10
65.238862323399957
20
3.9850257966757319
30
-1.7347234759768071e-17
11
54.832270631496158
21
3.9776914809219441
31
-1.7347234759768071e-17
0
SPLINE
5
167
100
AcDbEntity
8
0
100
AcDbSpline
70
0
71
2
72
6
73
3
74
0
42
0.000000001
43
0.0000000001
44
0.0000000001
40
0
40
0
40
0
40
1
40
1
40
1
10
54.832270631496165
20
3.9776914809219432
30
-1.7347234759768071e-17
10
54.832843745424626
20
3.1645055142097256
30
-1.7347234759768071e-17
10
54.937487895960324
20
2.8129308468704828
30
-1.7347234759768071e-17
0
SPLINE
5
168
100
AcDbEntity
8
0
100
AcDbSpline
70
0
71
2
72
6
73
3
74
0
42
0.000000001
43
0.0000000001
44
0.0000000001
40
0
40
0
40
0
40
1
40
1
40
1
10
54.937487895960324
20
2.8129308468704828
30
-1.7347234759768071e-17
10
55.042132046496022
20
2.46135617953124
30
-1.7347234759768071e-17
10
55.349985708527569
20
2.2308029789977146
30
-1.7347234759768071e-17
0
SPLINE
5
169
100
AcDbEntity
8
0
100
AcDbSpline
70
0
71
2
72
6
73
3
74
0
42
0.000000001
43
0.0000000001
44
0.0000000001
40
0
40
0
40
0
40
1
40
1
40
1
10
55.349985708527569
20
2.2308029789977146
30
-1.7347234759768071e-17
10
55.943702506775239
20
1.7916608938026668
30
-1.7347234759768071e-17
10
58.031614547742052
20
1.7931324040365615
30
-1.7347234759768071e-17
0
SPLINE
5
170
100
AcDbEntity
8
0
100
AcDbSpline
70
0
71
2
72
6
73
3
74
0
42
0.000000001
43
0.0000000001
44
0.0000000001
40
0
40
0
40
0
40
1
40
1
40
1
10
58.031614547742052
20
1.7931324040365615
30
-1.7347234759768071e-17
10
59.361284169905126
20
1.7940695232342652
30
-1.7347234759768071e-17
10
60.026045404970873
20
1.8989344001370156
30
-1.7347234759768071e-17
0
SPLINE
5
171
100
AcDbEntity
8
0
100
AcDbSpline
70
0
71
2
72
6
73
3
74
0
42
0.000000001
43
0.0000000001
44
0.0000000001
40
0
40
0
40
0
40
1
40
1
40
1
10
60.026045404970873
20
1.8989344001370156
30
-1.7347234759768071e-17
10
60.690806641716932
20
2.0037968928545702
30
-1.7347234759768071e-17
10
60.932395019302881
20
2.2457260419743985
30
-1.7347234759768071e-17
0
SPLINE
5
172
100
AcDbEntity
8
0
100
AcDbSpline
70
0
71
2
72
6
73
3
74
0
42
0.000000001
43
0.0000000001
44
0.0000000001
40
0
40
0
40
0
40
1
40
1
40
1
10
60.932395019302881
20
2.2457260419743985
30
-1.7347234759768071e-17
10
61.130059538556182
20
2.4436669902684294
30
-1.7347234759768071e-17
10
61.206639734094153
20
2.9272387290233803
30
-1.7347234759768071e-17
0
SPLINE
5
173
100
AcDbEntity
8
0
100
AcDbSpline
70
0
71
2
72
6
73
3
74
0
42
0.000000001
43
0.0000000001
44
0.0000000001
40
0
40
0
40
0
40
1
40
1
40
1
10
61.259308697950587
20
6.1580462854666429
30
-1.7347234759768071e-17
10
61.236887441867893
20
6.784403930082421
30
-1.7347234759768071e-17
10
61.176281834438413
20
7.0206245505302034
30
-1.7347234759768071e-17
0
SPLINE
5
174
100
AcDbEntity
8
0
100
AcDbSpline
70
0
71
2
72
6
73
3
74
0
42
0.000000001
43
0.0000000001
44
0.0000000001
40
0
40
0
40
0
40
1
40
1
40
1
10
61.176281834438413
20
7.0206245505302034
30
-1.7347234759768071e-17
10
61.115676227008933
20
7.2568451709779858
30
-1.7347234759768071e-17
10
60.939720444137066
20
7.4435340856213017
30
-1.7347234759768071e-17
0
SPLINE
5
175
100
AcDbEntity
8
0
100
AcDbSpline
70
0
71
2
72
6
73
3
74
0
42
0.000000001
43
0.0000000001
44
0.0000000001
40
0
40
0
40
0
40
1
40
1
40
1
10
60.939720444137066
20
7.4435340856213017
30
-1.7347234759768071e-17
10
60.422865037158182
20
7.970644829569804
30
-1.7347234759768071e-17
10
58.181108677862447
20
7.9690648935572339
30
-1.7347234759768071e-17
0
SPLINE
5
176
100
AcDbEntity
8
0
100
AcDbSpline
70
0
71
2
72
6
73
3
74
0
42
0.000000001
43
0.0000000001
44
0.0000000001
40
0
40
0
40
0
40
1
40
1
40
1
10
58.181108677862447
20
7.9690648935572339
30
-1.7347234759768071e-17
10
56.170119988152692
20
7.967647597052836
30
-1.7347234759768071e-17
10
55.522014884263214
20
7.6155400259412787
30
-1.7347234759768071e-17
0
SPLINE
5
177
100
AcDbEntity
8
0
100
AcDbSpline
70
0
71
2
72
6
73
3
74
0
42
0.000000001
43
0.0000000001
44
0.0000000001
40
0
40
0
40
0
40
1
40
1
40
1
10
55.522014884263214
20
7.6155400259412787
30
-1.7347234759768071e-17
10
54.873912162878625
20
7.2634348406952309
30
-1.7347234759768071e-17
10
54.830737162954321
20
6.1535155827275156
30
-1.7347234759768071e-17
0
LINE
5
178
100
AcDbEntity
8
0
100
AcDbLine
10
54.830737162954321
20
6.1535155827275156
30
-1.7347234759768071e-17
11
61.259308697950587
21
6.158046285466642
31
-1.7347234759768071e-17
0
LINE
5
179
100
AcDbEntity
8
0
100
AcDbLine
10
70.808287153767452
20
6.8351044827579388
30
-1.7347234759768071e-17
11
66.841255706441615
21
6.8323086143217315
31
-1.7347234759768071e-17
0
SPLINE
5
180
100
AcDbEntity
8
0
100
AcDbSpline
70
0
71
2
72
6
73
3
74
0
42
0.000000001
43
0.0000000001
44
0.0000000001
40
0
40
0
40
0
40
1
40
1
40
1
10
66.841255706441629
20
6.8323086143217315
30
-1.7347234759768071e-17
10
66.917303895128626
20
8.0741227735607435
30
-1.7347234759768071e-17
10
67.36740371159155
20
8.7118021547136451
30
-1.7347234759768071e-17
0
SPLINE
5
181
100
AcDbEntity
8
0
100
AcDbSpline
70
0
71
2
72
6
73
3
74
0
42
0.000000001
43
0.0000000001
44
0.0000000001
40
0
40
0
40
0
40
1
40
1
40
1
10
67.36740371159155
20
8.7118021547136451
30
-1.7347234759768071e-17
10
68.080971026108472
20
9.7342841687560355
30
-1.7347234759768071e-17
10
69.580711261070164
20
10.097978282696669
30
-1.7347234759768071e-17
0
SPLINE
5
182
100
AcDbEntity
8
0
100
AcDbSpline
70
0
71
2
72
6
73
3
74
0
42
0.000000001
43
0.0000000001
44
0.0000000001
40
0
40
0
40
0
40
1
40
1
40
1
10
69.580711261070164
20
10.097978282696669
30
-1.7347234759768071e-17
10
71.080456264402244
20
10.461672399997934
30
-1.7347234759768071e-17
10
74.651884630046254
20
10.464189456888523
30
-1.7347234759768071e-17
0
SPLINE
5
183
100
AcDbEntity
8
0
100
AcDbSpline
70
0
71
2
72
6
73
3
74
0
42
0.000000001
43
0.0000000001
44
0.0000000001
40
0
40
0
40
0
40
1
40
1
40
1
10
74.651884630046254
20
10.464189456888523
30
-1.7347234759768071e-17
10
77.27825536144212
20
10.466040459868253
30
-1.7347234759768071e-17
10
78.234443495229996
20
10.26891271919698
30
-1.7347234759768071e-17
0
SPLINE
5
184
100
AcDbEntity
8
0
100
AcDbSpline
70
0
71
2
72
6
73
3
74
0
42
0.000000001
43
0.0000000001
44
0.0000000001
40
0
40
0
40
0
40
1
40
1
40
1
10
78.234443495229996
20
10.26891271919698
30
-1.7347234759768071e-17
10
79.190622092277053
20
10.071784971804432
30
-1.7347234759768071e-17
10
79.861427267155477
20
9.4019270482480088
30
-1.7347234759768071e-17
0
SPLINE
5
185
100
AcDbEntity
8
0
100
AcDbSpline
70
0
71
2
72
6
73
3
74
0
42
0.000000001
43
0.0000000001
44
0.0000000001
40
0
40
0
40
0
40
1
40
1
40
1
10
79.861427267155477
20
9.4019270482480088
30
-1.7347234759768071e-17
10
80.389271383716036
20
8.8748240488779615
30
-1.7347234759768071e-17
10
80.582102535187033
20
8.1332014208630952
30
-1.7347234759768071e-17
0
SPLINE
5
186
100
AcDbEntity
8
0
100
AcDbSpline
70
0
71
2
72
6
73
3
74
0
42
0.000000001
43
0.0000000001
44
0.0000000001
40
0
40
0
40
0
40
1
40
1
40
1
10
80.582102535187033
20
8.1332014208630952
30
-1.7347234759768071e-17
10
80.774933686658059
20
7.3915787928482368
30
-1.7347234759768071e-17
10
80.775955997899075
20
5.9410309811013207
30
-1.7347234759768071e-17
0
LINE
5
187
100
AcDbEntity
8
0
100
AcDbLine
10
80.775955997899075
20
5.9410309811013207
30
-1.7347234759768071e-17
11
80.780471209800965
21
-0.46556075054635881
31
-1.7347234759768071e-17
0
LINE
5
188
100
AcDbEntity
8
0
100
AcDbLine
10
80.780471209800993
20
-0.46556075054635659
30
-1.7347234759768071e-17
11
76.956295371222382
21
-0.46825593778234298
31
-1.7347234759768071e-17
0
LINE
5
189
100
AcDbEntity
8
0
100
AcDbLine
10
76.956295371222382
20
-0.46825593778234698
30
-1.7347234759768071e-17
11
76.955273058301046
21
0.98229425814976845
31
-1.7347234759768071e-17
0
LINE
5
190
100
AcDbEntity
8
0
100
AcDbLine
10
76.955273058301046
20
0.98229425814976512
30
-1.7347234759768071e-17
11
76.768457842856634
21
0.98216259527509442
31
-1.7347234759768071e-17
0
SPLINE
5
191
100
AcDbEntity
8
0
100
AcDbSpline
70
0
71
2
72
6
73
3
74
0
42
0.000000001
43
0.0000000001
44
0.0000000001
40
0
40
0
40
0
40
1
40
1
40
1
10
76.76845784285662
20
0.98216259527509564
30
-1.7347234759768071e-17
10
76.329550485921672
20
0.058774974516100364
30
-1.7347234759768071e-17
10
75.373800828659867
20
-0.3594817073232992
30
-1.7347234759768071e-17
0
SPLINE
5
192
100
AcDbEntity
8
0
100
AcDbSpline
70
0
71
2
72
6
73
3
74
0
42
0.000000001
43
0.0000000001
44
0.0000000001
40
0
40
0
40
0
40
1
40
1
40
1
10
75.373800828659867
20
-0.3594817073232992
30
-1.7347234759768071e-17
10
74.868460777720429
20
-0.57961692801838716
30
-1.7347234759768071e-17
10
73.956429743261438
20
-0.66267864465407555
30
-1.7347234759768071e-17
0
SPLINE
5
193
100
AcDbEntity
8
0
100
AcDbSpline
70
0
71
2
72
6
73
3
74
0
42
0.000000001
43
0.0000000001
44
0.0000000001
40
0
40
0
40
0
40
1
40
1
40
1
10
73.956429743261438
20
-0.66267864465407555
30
-1.7347234759768071e-17
10
73.044398707122127
20
-0.74573797710456802
30
-1.7347234759768071e-17
10
71.055392204946173
20
-0.74713978109142598
30
-1.7347234759768071e-17
0
SPLINE
5
194
100
AcDbEntity
8
0
100
AcDbSpline
70
0
71
2
72
6
73
3
74
0
42
0.000000001
43
0.0000000001
44
0.0000000001
40
0
40
0
40
0
40
1
40
1
40
1
10
71.055392204946173
20
-0.74713978109142598
30
-1.7347234759768071e-17
10
69.450992922314725
20
-0.7482705231520681
30
-1.7347234759768071e-17
10
68.582720128791834
20
-0.54558527224844333
30
-1.7347234759768071e-17
0
SPLINE
5
195
100
AcDbEntity
8
0
100
AcDbSpline
70
0
71
2
72
6
73
3
74
0
42
0.000000001
43
0.0000000001
44
0.0000000001
40
0
40
0
40
0
40
1
40
1
40
1
10
68.582720128791834
20
-0.54558527224844333
30
-1.7347234759768071e-17
10
67.714442566898555
20
-0.34290002470545478
30
-1.7347234759768071e-17
10
67.186621687433984
20
0.15123207754911494
30
-1.7347234759768071e-17
0
SPLINE
5
196
100
AcDbEntity
8
0
100
AcDbSpline
70
0
71
2
72
6
73
3
74
0
42
0.000000001
43
0.0000000001
44
0.0000000001
40
0
40
0
40
0
40
1
40
1
40
1
10
67.186621687433984
20
0.15123207754911494
30
-1.7347234759768071e-17
10
66.416874041354461
20
0.88695494325513824
30
-1.7347234759768071e-17
10
66.415696833503404
20
2.5572840991915502
30
-1.7347234759768071e-17
0
SPLINE
5
197
100
AcDbEntity
8
0
100
AcDbSpline
70
0
71
2
72
6
73
3
74
0
42
0.000000001
43
0.0000000001
44
0.0000000001
40
0
40
0
40
0
40
1
40
1
40
1
10
66.415696833503404
20
2.5572840991915502
30
-1.7347234759768071e-17
10
66.414387964458001
20
4.4144260863871754
30
-1.7347234759768071e-17
10
67.32589622726897
20
5.2392435811762672
30
-1.7347234759768071e-17
0
SPLINE
5
198
100
AcDbEntity
8
0
100
AcDbSpline
70
0
71
2
72
6
73
3
74
0
42
0.000000001
43
0.0000000001
44
0.0000000001
40
0
40
0
40
0
40
1
40
1
40
1
10
67.32589622726897
20
5.2392435811762672
30
-1.7347234759768071e-17
10
68.050713189571098
20
5.8881076755983708
30
-1.7347234759768071e-17
10
69.237387797214112
20
6.0867456544367604
30
-1.7347234759768071e-17
0
SPLINE
5
199
100
AcDbEntity
8
0
100
AcDbSpline
70
0
71
2
72
6
73
3
74
0
42
0.000000001
43
0.0000000001
44
0.0000000001
40
0
40
0
40
0
40
1
40
1
40
1
10
69.237387797214112
20
6.0867456544367604
30
-1.7347234759768071e-17
10
70.424057636486751
20
6.2853836299145183
30
-1.7347234759768071e-17
10
73.610874014215852
20
6.2876296215182625
30
-1.7347234759768071e-17
0
SPLINE
5
200
100
AcDbEntity
8
0
100
AcDbSpline
70
0
71
2
72
6
73
3
74
0
42
0.000000001
43
0.0000000001
44
0.0000000001
40
0
40
0
40
0
40
1
40
1
40
1
10
73.610874014215852
20
6.2876296215182625
30
-1.7347234759768071e-17
10
74.984498474705703
20
6.288597719029787
30
-1.7347234759768071e-17
10
75.572522233438235
20
6.1296721996867687
30
-1.7347234759768071e-17
0
SPLINE
5
201
100
AcDbEntity
8
0
100
AcDbSpline
70
0
71
2
72
6
73
3
74
0
42
0.000000001
43
0.0000000001
44
0.0000000001
40
0
40
0
40
0
40
1
40
1
40
1
10
75.572522233438235
20
6.1296721996867687
30
-1.7347234759768071e-17
10
76.160545992170782
20
5.9707466803437459
30
-1.7347234759768071e-17
10
76.622450106662711
20
5.4545859230846672
30
-1.7347234759768071e-17
0
LINE
5
202
100
AcDbEntity
8
0
100
AcDbLine
10
76.622450106662711
20
5.4545859230846672
30
-1.7347234759768071e-17
11
76.798274228340233
21
5.454709839700568
31
-1.7347234759768071e-17
0
LINE
5
203
100
AcDbEntity
8
0
100
AcDbLine
10
76.798274228340233
20
5.4547098397005689
30
-1.7347234759768071e-17
11
76.797879243076864
21
6.0151507176634045
31
-1.7347234759768071e-17
0
SPLINE
5
204
100
AcDbEntity
8
0
100
AcDbSpline
70
0
71
2
72
6
73
3
74
0
42
0.000000001
43
0.0000000001
44
0.0000000001
40
0
40
0
40
0
40
1
40
1
40
1
10
76.797879243076864
20
6.0151507176634045
30
-1.7347234759768071e-17
10
76.796996337608633
20
7.2678969885694134
30
-1.7347234759768071e-17
10
76.335231630569808
20
7.5862538208023889
30
-1.7347234759768071e-17
0
SPLINE
5
205
100
AcDbEntity
8
0
100
AcDbSpline
70
0
71
2
72
6
73
3
74
0
42
0.000000001
43
0.0000000001
44
0.0000000001
40
0
40
0
40
0
40
1
40
1
40
1
10
76.335231630569808
20
7.5862538208023889
30
-1.7347234759768071e-17
10
75.873466923531012
20
7.9046106530353599
30
-1.7347234759768071e-17
10
74.060284543032552
20
7.9033327656644037
30
-1.7347234759768071e-17
0
SPLINE
5
206
100
AcDbEntity
8
0
100
AcDbSpline
70
0
71
2
72
6
73
3
74
0
42
0.000000001
43
0.0000000001
44
0.0000000001
40
0
40
0
40
0
40
1
40
1
40
1
10
74.060284543032552
20
7.9033327656644037
30
-1.7347234759768071e-17
10
71.917426569972065
20
7.9018225308579249
30
-1.7347234759768071e-17
10
71.412047796140342
20
7.7366308580713117
30
-1.7347234759768071e-17
0
SPLINE
5
207
100
AcDbEntity
8
0
100
AcDbSpline
70
0
71
2
72
6
73
3
74
0
42
0.000000001
43
0.0000000001
44
0.0000000001
40
0
40
0
40
0
40
1
40
1
40
1
10
71.412047796140342
20
7.7366308580713117
30
-1.7347234759768071e-17
10
70.906669022308634
20
7.5714391852846985
30
-1.7347234759768071e-17
10
70.808287153767452
20
6.8351044827579388
30
-1.7347234759768071e-17
0
SPLINE
5
208
100
AcDbEntity
8
0
100
AcDbSpline
70
0
71
2
72
6
73
3
74
0
42
0.000000001
43
0.0000000001
44
0.0000000001
40
0
40
0
40
0
40
1
40
1
40
1
10
73.469609063948013
20
4.0237927743130797
30
-1.7347234759768071e-17
10
71.458620374238265
20
4.0223754778086818
30
-1.7347234759768071e-17
10
70.975277999989515
20
3.7802783304677412
30
-1.7347234759768071e-17
0
SPLINE
5
209
100
AcDbEntity
8
0
100
AcDbSpline
70
0
71
2
72
6
73
3
74
0
42
0.000000001
43
0.0000000001
44
0.0000000001
40
0
40
0
40
0
40
1
40
1
40
1
10
70.975277999989515
20
3.7802783304677412
30
-1.7347234759768071e-17
10
70.393061068624348
20
3.4941518701825913
30
-1.7347234759768071e-17
10
70.393471541364335
20
2.9117359572415635
30
-1.7347234759768071e-17
0
SPLINE
5
210
100
AcDbEntity
8
0
100
AcDbSpline
70
0
71
2
72
6
73
3
74
0
42
0.000000001
43
0.0000000001
44
0.0000000001
40
0
40
0
40
0
40
1
40
1
40
1
10
70.393471541364335
20
2.9117359572415635
30
-1.7347234759768071e-17
10
70.393928484935657
20
2.2633830184399706
30
-1.7347234759768071e-17
10
70.965518327803181
20
2.0330180770154982
30
-1.7347234759768071e-17
0
SPLINE
5
211
100
AcDbEntity
8
0
100
AcDbSpline
70
0
71
2
72
6
73
3
74
0
42
0.000000001
43
0.0000000001
44
0.0000000001
40
0
40
0
40
0
40
1
40
1
40
1
10
70.965518327803181
20
2.0330180770154982
30
-1.7347234759768071e-17
10
71.537108172350997
20
1.8026507514058254
30
-1.7347234759768071e-17
10
73.141502686612029
20
1.8037814901058358
30
-1.7347234759768071e-17
0
SPLINE
5
212
100
AcDbEntity
8
0
100
AcDbSpline
70
0
71
2
72
6
73
3
74
0
42
0.000000001
43
0.0000000001
44
0.0000000001
40
0
40
0
40
0
40
1
40
1
40
1
10
73.141502686612029
20
1.8037814901058358
30
-1.7347234759768071e-17
10
75.229414727578842
20
1.805253000339726
30
-1.7347234759768071e-17
10
75.976492690640697
20
2.0585271214123546
30
-1.7347234759768071e-17
0
SPLINE
5
213
100
AcDbEntity
8
0
100
AcDbSpline
70
0
71
2
72
6
73
3
74
0
42
0.000000001
43
0.0000000001
44
0.0000000001
40
0
40
0
40
0
40
1
40
1
40
1
10
75.976492690640697
20
2.0585271214123546
30
-1.7347234759768071e-17
10
76.723565885332135
20
2.3118012391243559
30
-1.7347234759768071e-17
10
76.723070218868543
20
3.0150977258344236
30
-1.7347234759768071e-17
0
SPLINE
5
214
100
AcDbEntity
8
0
100
AcDbSpline
70
0
71
2
72
6
73
3
74
0
42
0.000000001
43
0.0000000001
44
0.0000000001
40
0
40
0
40
0
40
1
40
1
40
1
10
76.723070218868543
20
3.0150977258344236
30
-1.7347234759768071e-17
10
76.72262102155598
20
3.6524595708691221
30
-1.7347234759768071e-17
10
76.074100081172645
20
3.8937613923309966
30
-1.7347234759768071e-17
0
SPLINE
5
215
100
AcDbEntity
8
0
100
AcDbSpline
70
0
71
2
72
6
73
3
74
0
42
0.000000001
43
0.0000000001
44
0.0000000001
40
0
40
0
40
0
40
1
40
1
40
1
10
76.074100081172645
20
3.8937613923309966
30
-1.7347234759768071e-17
10
75.777320322446428
20
4.0034417636739317
30
-1.7347234759768071e-17
10
73.469609063948013
20
4.0237927743130797
30
-1.7347234759768071e-17
0
LINE
5
216
100
AcDbEntity
8
0
100
AcDbLine
10
82.162696599991079
20
2.9200306242481
30
-1.7347234759768071e-17
11
86.217642492340872
21
2.922888452672574
31
-1.7347234759768071e-17
0
SPLINE
5
217
100
AcDbEntity
8
0
100
AcDbSpline
70
0
71
2
72
6
73
3
74
0
42
0.000000001
43
0.0000000001
44
0.0000000001
40
0
40
0
40
0
40
1
40
1
40
1
10
86.217642492340886
20
2.9228884526725762
30
-1.7347234759768071e-17
10
86.273063833370841
20
2.2416081063378535
30
-1.7347234759768071e-17
10
86.976538450426304
20
1.9893562998668735
30
-1.7347234759768071e-17
0
SPLINE
5
218
100
AcDbEntity
8
0
100
AcDbSpline
70
0
71
2
72
6
73
3
74
0
42
0.000000001
43
0.0000000001
44
0.0000000001
40
0
40
0
40
0
40
1
40
1
40
1
10
86.976538450426304
20
1.9893562998668735
30
-1.7347234759768071e-17
10
87.680013067481767
20
1.7371044933958935
30
-1.7347234759768071e-17
10
89.548146148444289
20
1.7384211087000701
30
-1.7347234759768071e-17
0
SPLINE
5
219
100
AcDbEntity
8
0
100
AcDbSpline
70
0
71
2
72
6
73
3
74
0
42
0.000000001
43
0.0000000001
44
0.0000000001
40
0
40
0
40
0
40
1
40
1
40
1
10
89.548146148444289
20
1.7384211087000701
30
-1.7347234759768071e-17
10
91.482211486896986
20
1.7397841914749712
30
-1.7347234759768071e-17
10
92.179867660557534
20
1.949066236912107
30
-1.7347234759768071e-17
0
SPLINE
5
220
100
AcDbEntity
8
0
100
AcDbSpline
70
0
71
2
72
6
73
3
74
0
42
0.000000001
43
0.0000000001
44
0.0000000001
40
0
40
0
40
0
40
1
40
1
40
1
10
92.179867660557534
20
1.949066236912107
30
-1.7347234759768071e-17
10
92.877523832537776
20
2.1583506665344343
30
-1.7347234759768071e-17
10
92.877121104376258
20
2.729777869893768
30
-1.7347234759768071e-17
0
SPLINE
5
221
100
AcDbEntity
8
0
100
AcDbSpline
70
0
71
2
72
6
73
3
74
0
42
0.000000001
43
0.0000000001
44
0.0000000001
40
0
40
0
40
0
40
1
40
1
40
1
10
92.877121104376258
20
2.729777869893768
30
-1.7347234759768071e-17
10
92.876733863691342
20
3.2792300382749051
30
-1.7347234759768071e-17
10
92.206269460346789
20
3.4655704351255645
30
-1.7347234759768071e-17
0
SPLINE
5
222
100
AcDbEntity
8
0
100
AcDbSpline
70
0
71
2
72
6
73
3
74
0
42
0.000000001
43
0.0000000001
44
0.0000000001
40
0
40
0
40
0
40
1
40
1
40
1
10
92.206269460346789
20
3.4655704351255645
30
-1.7347234759768071e-17
10
91.898518865380993
20
3.553265644406971
30
-1.7347234759768071e-17
10
88.810580024336986
20
3.5840554844347183
30
-1.7347234759768071e-17
0
SPLINE
5
223
100
AcDbEntity
8
0
100
AcDbSpline
70
0
71
2
72
6
73
3
74
0
42
0.000000001
43
0.0000000001
44
0.0000000001
40
0
40
0
40
0
40
1
40
1
40
1
10
88.810580024336986
20
3.5840554844347183
30
-1.7347234759768071e-17
10
85.931461820006533
20
3.5820263511095929
30
-1.7347234759768071e-17
10
85.261064143340349
20
3.6804546904821267
30
-1.7347234759768071e-17
0
SPLINE
5
224
100
AcDbEntity
8
0
100
AcDbSpline
70
0
71
2
72
6
73
3
74
0
42
0.000000001
43
0.0000000001
44
0.0000000001
40
0
40
0
40
0
40
1
40
1
40
1
10
85.261064143340349
20
3.6804546904821267
30
-1.7347234759768071e-17
10
83.392752932032437
20
3.9318855481125281
30
-1.7347234759768071e-17
10
82.732729742261711
20
4.8984535291890863
30
-1.7347234759768071e-17
0
SPLINE
5
225
100
AcDbEntity
8
0
100
AcDbSpline
70
0
71
2
72
6
73
3
74
0
42
0.000000001
43
0.0000000001
44
0.0000000001
40
0
40
0
40
0
40
1
40
1
40
1
10
82.732729742261711
20
4.8984535291890863
30
-1.7347234759768071e-17
10
82.237714732858592
20
5.6233813048157222
30
-1.7347234759768071e-17
10
82.236847316547298
20
6.8541501565583429
30
-1.7347234759768071e-17
0
SPLINE
5
226
100
AcDbEntity
8
0
100
AcDbSpline
70
0
71
2
72
6
73
3
74
0
42
0.000000001
43
0.0000000001
44
0.0000000001
40
0
40
0
40
0
40
1
40
1
40
1
10
82.236847316547298
20
6.8541501565583429
30
-1.7347234759768071e-17
10
82.235189933069876
20
9.205795995856235
30
-1.7347234759768071e-17
10
83.970950317959279
20
9.9213072533352928
30
-1.7347234759768071e-17
0
SPLINE
5
227
100
AcDbEntity
8
0
100
AcDbSpline
70
0
71
2
72
6
73
3
74
0
42
0.000000001
43
0.0000000001
44
0.0000000001
40
0
40
0
40
0
40
1
40
1
40
1
10
83.970950317959279
20
9.9213072533352928
30
-1.7347234759768071e-17
10
85.278263026532812
20
10.460689957990335
30
-1.7347234759768071e-17
10
89.585951623446789
20
10.463725913399573
30
-1.7347234759768071e-17
0
SPLINE
5
228
100
AcDbEntity
8
0
100
AcDbSpline
70
0
71
2
72
6
73
3
74
0
42
0.000000001
43
0.0000000001
44
0.0000000001
40
0
40
0
40
0
40
1
40
1
40
1
10
89.585951623446789
20
10.463725913399573
30
-1.7347234759768071e-17
10
92.300241568237013
20
10.4656388797282
30
-1.7347234759768071e-17
10
93.531148930511421
20
10.263209204954521
30
-1.7347234759768071e-17
0
SPLINE
5
229
100
AcDbEntity
8
0
100
AcDbSpline
70
0
71
2
72
6
73
3
74
0
42
0.000000001
43
0.0000000001
44
0.0000000001
40
0
40
0
40
0
40
1
40
1
40
1
10
93.531148930511421
20
10.263209204954521
30
-1.7347234759768071e-17
10
94.76206582952662
20
10.060779536902093
30
-1.7347234759768071e-17
10
95.443782858544751
20
9.4898301233036264
30
-1.7347234759768071e-17
0
SPLINE
5
230
100
AcDbEntity
8
0
100
AcDbSpline
70
0
71
2
72
6
73
3
74
0
42
0.000000001
43
0.0000000001
44
0.0000000001
40
0
40
0
40
0
40
1
40
1
40
1
10
95.443782858544751
20
9.4898301233036264
30
-1.7347234759768071e-17
10
95.861615960992154
20
9.138476184011747
30
-1.7347234759768071e-17
10
96.043281759799939
20
8.6441001199744516
30
-1.7347234759768071e-17
0
SPLINE
5
231
100
AcDbEntity
8
0
100
AcDbSpline
70
0
71
2
72
6
73
3
74
0
42
0.000000001
43
0.0000000001
44
0.0000000001
40
0
40
0
40
0
40
1
40
1
40
1
10
96.043281759799939
20
8.6441001199744516
30
-1.7347234759768071e-17
10
96.22494756028803
20
8.1497216717519549
30
-1.7347234759768071e-17
10
96.302552452932559
20
7.1827432162551075
30
-1.7347234759768071e-17
0
LINE
5
232
100
AcDbEntity
8
0
100
AcDbLine
10
96.302552452932559
20
7.1827432162551075
30
-1.7347234759768071e-17
11
92.247606560582781
21
7.1798853878306339
31
-1.7347234759768071e-17
0
SPLINE
5
233
100
AcDbEntity
8
0
100
AcDbSpline
70
0
71
2
72
6
73
3
74
0
42
0.000000001
43
0.0000000001
44
0.0000000001
40
0
40
0
40
0
40
1
40
1
40
1
10
92.247606560582767
20
7.1798853878306312
30
-1.7347234759768071e-17
10
92.137440653220196
20
7.5754110237279049
30
-1.7347234759768071e-17
10
91.972525407794009
20
7.6851867141974894
30
-1.7347234759768071e-17
0
SPLINE
5
234
100
AcDbEntity
8
0
100
AcDbSpline
70
0
71
2
72
6
73
3
74
0
42
0.000000001
43
0.0000000001
44
0.0000000001
40
0
40
0
40
0
40
1
40
1
40
1
10
91.972525407794009
20
7.6851867141974894
30
-1.7347234759768071e-17
10
91.47780470077376
20
7.9925316047937223
30
-1.7347234759768071e-17
10
89.466816011063997
20
7.9911143082893243
30
-1.7347234759768071e-17
0
SPLINE
5
235
100
AcDbEntity
8
0
100
AcDbSpline
70
0
71
2
72
6
73
3
74
0
42
0.000000001
43
0.0000000001
44
0.0000000001
40
0
40
0
40
0
40
1
40
1
40
1
10
89.466816011063997
20
7.9911143082893243
30
-1.7347234759768071e-17
10
87.598682930101489
20
7.9897976929851477
30
-1.7347234759768071e-17
10
86.906509200032957
20
7.8024945573359084
30
-1.7347234759768071e-17
0
SPLINE
5
236
100
AcDbEntity
8
0
100
AcDbSpline
70
0
71
2
72
6
73
3
74
0
42
0.000000001
43
0.0000000001
44
0.0000000001
40
0
40
0
40
0
40
1
40
1
40
1
10
86.906509200032957
20
7.8024945573359084
30
-1.7347234759768071e-17
10
86.214335468284148
20
7.6151938058718649
30
-1.7347234759768071e-17
10
86.214683984396487
20
7.1206875695843985
30
-1.7347234759768071e-17
0
SPLINE
5
237
100
AcDbEntity
8
0
100
AcDbSpline
70
0
71
2
72
6
73
3
74
0
42
0.000000001
43
0.0000000001
44
0.0000000001
40
0
40
0
40
0
40
1
40
1
40
1
10
86.214683984396487
20
7.1206875695843985
30
-1.7347234759768071e-17
10
86.215140926287503
20
6.472337014968006
30
-1.7347234759768071e-17
10
87.171231355083194
20
6.4070761701016332
30
-1.7347234759768071e-17
0
SPLINE
5
238
100
AcDbEntity
8
0
100
AcDbSpline
70
0
71
2
72
6
73
3
74
0
42
0.000000001
43
0.0000000001
44
0.0000000001
40
0
40
0
40
0
40
1
40
1
40
1
10
87.171231355083194
20
6.4070761701016332
30
-1.7347234759768071e-17
10
87.918521403012321
20
6.3526592669705773
30
-1.7347234759768071e-17
10
92.599858897860386
20
6.3229900318382404
30
-1.7347234759768071e-17
0
SPLINE
5
239
100
AcDbEntity
8
0
100
AcDbSpline
70
0
71
2
72
6
73
3
74
0
42
0.000000001
43
0.0000000001
44
0.0000000001
40
0
40
0
40
0
40
1
40
1
40
1
10
92.599858897860386
20
6.3229900318382404
30
-1.7347234759768071e-17
10
94.841630154290186
20
6.3135812633100574
30
-1.7347234759768071e-17
10
95.842150828668636
20
5.5670347100353901
30
-1.7347234759768071e-17
0
SPLINE
5
240
100
AcDbEntity
8
0
100
AcDbSpline
70
0
71
2
72
6
73
3
74
0
42
0.000000001
43
0.0000000001
44
0.0000000001
40
0
40
0
40
0
40
1
40
1
40
1
10
95.842150828668636
20
5.5670347100353901
30
-1.7347234759768071e-17
10
96.85365962228623
20
4.8314822317766248
30
-1.7347234759768071e-17
10
96.854945257596285
20
3.0073063733260863
30
-1.7347234759768071e-17
0
SPLINE
5
241
100
AcDbEntity
8
0
100
AcDbSpline
70
0
71
2
72
6
73
3
74
0
42
0.000000001
43
0.0000000001
44
0.0000000001
40
0
40
0
40
0
40
1
40
1
40
1
10
96.854945257596285
20
3.0073063733260863
30
-1.7347234759768071e-17
10
96.855797183070365
20
1.7985173249320541
30
-1.7347234759768071e-17
10
96.460724619295348
20
1.0454916414661408
30
-1.7347234759768071e-17
0
SPLINE
5
242
100
AcDbEntity
8
0
100
AcDbSpline
70
0
71
2
72
6
73
3
74
0
42
0.000000001
43
0.0000000001
44
0.0000000001
40
0
40
0
40
0
40
1
40
1
40
1
10
96.460724619295348
20
1.0454916414661408
30
-1.7347234759768071e-17
10
96.065652057200651
20
0.29246357381503163
30
-1.7347234759768071e-17
10
95.219758515761654
20
-0.081758439727850352
30
-1.7347234759768071e-17
0
SPLINE
5
243
100
AcDbEntity
8
0
100
AcDbSpline
70
0
71
2
72
6
73
3
74
0
42
0.000000001
43
0.0000000001
44
0.0000000001
40
0
40
0
40
0
40
1
40
1
40
1
10
95.219758515761654
20
-0.081758439727850352
30
-1.7347234759768071e-17
10
93.813622484232525
20
-0.73110032727144336
30
-1.7347234759768071e-17
10
89.26417750815088
20
-0.73430666676730372
30
-1.7347234759768071e-17
0
SPLINE
5
244
100
AcDbEntity
8
0
100
AcDbSpline
70
0
71
2
72
6
73
3
74
0
42
0.000000001
43
0.0000000001
44
0.0000000001
40
0
40
0
40
0
40
1
40
1
40
1
10
89.26417750815088
20
-0.73430666676730372
30
-1.7347234759768071e-17
10
86.352086022519757
20
-0.73635903886874576
30
-1.7347234759768071e-17
10
85.088194658158159
20
-0.51197518034735268
30
-1.7347234759768071e-17
0
SPLINE
5
245
100
AcDbEntity
8
0
100
AcDbSpline
70
0
71
2
72
6
73
3
74
0
42
0.000000001
43
0.0000000001
44
0.0000000001
40
0
40
0
40
0
40
1
40
1
40
1
10
85.088194658158159
20
-0.51197518034735268
30
-1.7347234759768071e-17
10
83.824298525426144
20
-0.28759132518658692
30
-1.7347234759768071e-17
10
83.098559931402889
20
0.37123916757619391
30
-1.7347234759768071e-17
0
SPLINE
5
246
100
AcDbEntity
8
0
100
AcDbSpline
70
0
71
2
72
6
73
3
74
0
42
0.000000001
43
0.0000000001
44
0.0000000001
40
0
40
0
40
0
40
1
40
1
40
1
10
83.098559931402889
20
0.37123916757619391
30
-1.7347234759768071e-17
10
82.196888789923463
20
1.1837900620519992
30
-1.7347234759768071e-17
10
82.162696599991079
20
2.9200306242481
30
-1.7347234759768071e-17
0
LINE
5
247
100
AcDbEntity
8
0
100
AcDbLine
10
108.3824526599476
20
2.9604871083375262
30
-1.7347234759768071e-17
11
112.34948887564384
21
2.9632829801343661
31
-1.7347234759768071e-17
0
SPLINE
5
248
100
AcDbEntity
8
0
100
AcDbSpline
70
0
71
2
72
6
73
3
74
0
42
0.000000001
43
0.0000000001
44
0.0000000001
40
0
40
0
40
0
40
1
40
1
40
1
10
112.34948887564384
20
2.9632829801343652
30
-1.7347234759768071e-17
10
112.18586998799452
20
1.2269030054441865
30
-1.7347234759768071e-17
10
111.29630221361701
20
0.4680332640234397
30
-1.7347234759768071e-17
0
SPLINE
5
249
100
AcDbEntity
8
0
100
AcDbSpline
70
0
71
2
72
6
73
3
74
0
42
0.000000001
43
0.0000000001
44
0.0000000001
40
0
40
0
40
0
40
1
40
1
40
1
10
111.29630221361701
20
0.4680332640234397
30
-1.7347234759768071e-17
10
110.5275411320943
20
-0.20283684705130423
30
-1.7347234759768071e-17
10
109.12113016214894
20
-0.46207119979653211
30
-1.7347234759768071e-17
0
SPLINE
5
250
100
AcDbEntity
8
0
100
AcDbSpline
70
0
71
2
72
6
73
3
74
0
42
0.000000001
43
0.0000000001
44
0.0000000001
40
0
40
0
40
0
40
1
40
1
40
1
10
109.12113016214894
20
-0.46207119979653211
30
-1.7347234759768071e-17
10
107.71471919052328
20
-0.72130316835655961
30
-1.7347234759768071e-17
10
104.90153324368301
20
-0.72328583421096493
30
-1.7347234759768071e-17
0
SPLINE
5
251
100
AcDbEntity
8
0
100
AcDbSpline
70
0
71
2
72
6
73
3
74
0
42
0.000000001
43
0.0000000001
44
0.0000000001
40
0
40
0
40
0
40
1
40
1
40
1
10
104.90153324368301
20
-0.72328583421096493
30
-1.7347234759768071e-17
10
102.582851148945
20
-0.72491998563334548
30
-1.7347234759768071e-17
10
101.34093243537637
20
-0.50052064131567597
30
-1.7347234759768071e-17
0
SPLINE
5
252
100
AcDbEntity
8
0
100
AcDbSpline
70
0
71
2
72
6
73
3
74
0
42
0.000000001
43
0.0000000001
44
0.0000000001
40
0
40
0
40
0
40
1
40
1
40
1
10
101.34093243537637
20
-0.50052064131567597
30
-1.7347234759768071e-17
10
100.09901849017817
20
-0.27612129363737026
30
-1.7347234759768071e-17
10
99.373357345300093
20
0.2728173349380647
30
-1.7347234759768071e-17
0
SPLINE
5
253
100
AcDbEntity
8
0
100
AcDbSpline
70
0
71
2
72
6
73
3
74
0
42
0.000000001
43
0.0000000001
44
0.0000000001
40
0
40
0
40
0
40
1
40
1
40
1
10
99.373357345300093
20
0.2728173349380647
30
-1.7347234759768071e-17
10
98.603713358309179
20
0.85469349476933409
30
-1.7347234759768071e-17
10
98.317316726297875
20
1.8270203484786807
30
-1.7347234759768071e-17
0
SPLINE
5
254
100
AcDbEntity
8
0
100
AcDbSpline
70
0
71
2
72
6
73
3
74
0
42
0.000000001
43
0.0000000001
44
0.0000000001
40
0
40
0
40
0
40
1
40
1
40
1
10
98.317316726297875
20
1.8270203484786807
30
-1.7347234759768071e-17
10
98.030915327596503
20
2.7993448146421995
30
-1.7347234759768071e-17
10
98.029490286513635
20
4.8213222139336454
30
-1.7347234759768071e-17
0
SPLINE
5
255
100
AcDbEntity
8
0
100
AcDbSpline
70
0
71
2
72
6
73
3
74
0
42
0.000000001
43
0.0000000001
44
0.0000000001
40
0
40
0
40
0
40
1
40
1
40
1
10
98.029490286513635
20
4.8213222139336454
30
-1.7347234759768071e-17
10
98.028421504441269
20
6.3378070515411267
30
-1.7347234759768071e-17
10
98.137775106143351
20
7.1016200821882913
30
-1.7347234759768071e-17
0
SPLINE
5
256
100
AcDbEntity
8
0
100
AcDbSpline
70
0
71
2
72
6
73
3
74
0
42
0.000000001
43
0.0000000001
44
0.0000000001
40
0
40
0
40
0
40
1
40
1
40
1
10
98.137775106143351
20
7.1016200821882913
30
-1.7347234759768071e-17
10
98.247123939475046
20
7.8654331094748242
30
-1.7347234759768071e-17
10
98.554383636347637
20
8.4810343902641208
30
-1.7347234759768071e-17
0
SPLINE
5
257
100
AcDbEntity
8
0
100
AcDbSpline
70
0
71
2
72
6
73
3
74
0
42
0.000000001
43
0.0000000001
44
0.0000000001
40
0
40
0
40
0
40
1
40
1
40
1
10
98.554383636347637
20
8.4810343902641208
30
-1.7347234759768071e-17
10
99.190849469262105
20
9.7562096635115925
30
-1.7347234759768071e-17
10
100.86090517404615
20
10.142001241782443
30
-1.7347234759768071e-17
0
SPLINE
5
258
100
AcDbEntity
8
0
100
AcDbSpline
70
0
71
2
72
6
73
3
74
0
42
0.000000001
43
0.0000000001
44
0.0000000001
40
0
40
0
40
0
40
1
40
1
40
1
10
100.86090517404615
20
10.142001241782443
30
-1.7347234759768071e-17
10
102.2892432225548
20
10.472678888058198
30
-1.7347234759768071e-17
10
105.30023071023595
20
10.474800959685409
30
-1.7347234759768071e-17
0
SPLINE
5
259
100
AcDbEntity
8
0
100
AcDbSpline
70
0
71
2
72
6
73
3
74
0
42
0.000000001
43
0.0000000001
44
0.0000000001
40
0
40
0
40
0
40
1
40
1
40
1
10
105.30023071023595
20
10.474800959685409
30
-1.7347234759768071e-17
10
107.9595699545621
20
10.476675198080819
30
-1.7347234759768071e-17
10
109.04761485875186
20
10.290629101932684
30
-1.7347234759768071e-17
0
SPLINE
5
260
100
AcDbEntity
8
0
100
AcDbSpline
70
0
71
2
72
6
73
3
74
0
42
0.000000001
43
0.0000000001
44
0.0000000001
40
0
40
0
40
0
40
1
40
1
40
1
10
109.04761485875186
20
10.290629101932684
30
-1.7347234759768071e-17
10
110.98191730964983
20
9.9623213638765797
30
-1.7347234759768071e-17
10
111.70797254286995
20
8.8474486912794283
30
-1.7347234759768071e-17
0
SPLINE
5
261
100
AcDbEntity
8
0
100
AcDbSpline
70
0
71
2
72
6
73
3
74
0
42
0.000000001
43
0.0000000001
44
0.0000000001
40
0
40
0
40
0
40
1
40
1
40
1
10
111.70797254286995
20
8.8474486912794283
30
-1.7347234759768071e-17
10
112.43403731451119
20
7.7325736412183499
30
-1.7347234759768071e-17
10
112.43589606374969
20
5.0952118160555937
30
-1.7347234759768071e-17
0
SPLINE
5
262
100
AcDbEntity
8
0
100
AcDbSpline
70
0
71
2
72
6
73
3
74
0
42
0.000000001
43
0.0000000001
44
0.0000000001
40
0
40
0
40
0
40
1
40
1
40
1
10
112.43589606374969
20
5.0952118160555937
30
-1.7347234759768071e-17
10
112.43607419409508
20
4.8424643431210113
30
-1.7347234759768071e-17
10
112.4146728650682
20
4.0182741743095596
30
-1.7347234759768071e-17
0
LINE
5
263
100
AcDbEntity
8
0
100
AcDbLine
10
112.4146728650682
20
4.0182741743095596
30
-1.7347234759768071e-17
11
102.0080859415348
21
4.0109398619164054
31
-1.7347234759768071e-17
0
SPLINE
5
264
100
AcDbEntity
8
0
100
AcDbSpline
70
0
71
2
72
6
73
3
74
0
42
0.000000001
43
0.0000000001
44
0.0000000001
40
0
40
0
40
0
40
1
40
1
40
1
10
102.00808594153483
20
4.0109398619164027
30
-1.7347234759768071e-17
10
102.00865905546328
20
3.1977538952041851
30
-1.7347234759768071e-17
10
102.11330082181378
20
2.8461792261846242
30
-1.7347234759768071e-17
0
SPLINE
5
265
100
AcDbEntity
8
0
100
AcDbSpline
70
0
71
2
72
6
73
3
74
0
42
0.000000001
43
0.0000000001
44
0.0000000001
40
0
40
0
40
0
40
1
40
1
40
1
10
102.11330082181378
20
2.8461792261846242
30
-1.7347234759768071e-17
10
102.21794258816429
20
2.4946045571650632
30
-1.7347234759768071e-17
10
102.52579863438102
20
2.2640513583118604
30
-1.7347234759768071e-17
0
SPLINE
5
266
100
AcDbEntity
8
0
100
AcDbSpline
70
0
71
2
72
6
73
3
74
0
42
0.000000001
43
0.0000000001
44
0.0000000001
40
0
40
0
40
0
40
1
40
1
40
1
10
102.52579863438102
20
2.2640513583118604
30
-1.7347234759768071e-17
10
103.11951304844349
20
1.8249092714364945
30
-1.7347234759768071e-17
10
105.20742985778071
20
1.826380785031021
30
-1.7347234759768071e-17
0
SPLINE
5
267
100
AcDbEntity
8
0
100
AcDbSpline
70
0
71
2
72
6
73
3
74
0
42
0.000000001
43
0.0000000001
44
0.0000000001
40
0
40
0
40
0
40
1
40
1
40
1
10
105.20742985778071
20
1.826380785031021
30
-1.7347234759768071e-17
10
106.53709947994379
20
1.8273179042287246
30
-1.7347234759768071e-17
10
107.20186071500953
20
1.9321827811314751
30
-1.7347234759768071e-17
0
SPLINE
5
268
100
AcDbEntity
8
0
100
AcDbSpline
70
0
71
2
72
6
73
3
74
0
42
0.000000001
43
0.0000000001
44
0.0000000001
40
0
40
0
40
0
40
1
40
1
40
1
10
107.20186071500953
20
1.9321827811314751
30
-1.7347234759768071e-17
10
107.86662195175559
20
2.0370452738490297
30
-1.7347234759768071e-17
10
108.10820794515635
20
2.2789744212885399
30
-1.7347234759768071e-17
0
SPLINE
5
269
100
AcDbEntity
8
0
100
AcDbSpline
70
0
71
2
72
6
73
3
74
0
42
0.000000001
43
0.0000000001
44
0.0000000001
40
0
40
0
40
0
40
1
40
1
40
1
10
108.10820794515635
20
2.2789744212885399
30
-1.7347234759768071e-17
10
108.30587008022445
20
2.4769153679022571
30
-1.7347234759768071e-17
10
108.3824526599476
20
2.9604871083375262
30
-1.7347234759768071e-17
0
SPLINE
5
270
100
AcDbEntity
8
0
100
AcDbSpline
70
0
71
2
72
6
73
3
74
0
42
0.000000001
43
0.0000000001
44
0.0000000001
40
0
40
0
40
0
40
1
40
1
40
1
10
108.43512639217444
20
6.1912946681414205
30
-1.7347234759768071e-17
10
108.41270275190655
20
6.8176523110768805
30
-1.7347234759768071e-17
10
108.35209237610667
20
7.0538729281640311
30
-1.7347234759768071e-17
0
SPLINE
5
271
100
AcDbEntity
8
0
100
AcDbSpline
70
0
71
2
72
6
73
3
74
0
42
0.000000001
43
0.0000000001
44
0.0000000001
40
0
40
0
40
0
40
1
40
1
40
1
10
108.35209237610667
20
7.0538729281640311
30
-1.7347234759768071e-17
10
108.29149153704759
20
7.2900935519724452
30
-1.7347234759768071e-17
10
108.11553098580531
20
7.4767824632551294
30
-1.7347234759768071e-17
0
SPLINE
5
272
100
AcDbEntity
8
0
100
AcDbSpline
70
0
71
2
72
6
73
3
74
0
42
0.000000001
43
0.0000000001
44
0.0000000001
40
0
40
0
40
0
40
1
40
1
40
1
10
108.11553098580531
20
7.4767824632551294
30
-1.7347234759768071e-17
10
107.59867796301164
20
8.0038932088839445
30
-1.7347234759768071e-17
10
105.3569239879011
20
8.0023132745516925
30
-1.7347234759768071e-17
0
SPLINE
5
273
100
AcDbEntity
8
0
100
AcDbSpline
70
0
71
2
72
6
73
3
74
0
42
0.000000001
43
0.0000000001
44
0.0000000001
40
0
40
0
40
0
40
1
40
1
40
1
10
105.3569239879011
20
8.0023132745516925
30
-1.7347234759768071e-17
10
103.34593052982095
20
8.0008959746866637
30
-1.7347234759768071e-17
10
102.69782781011668
20
7.64878840525542
30
-1.7347234759768071e-17
0
SPLINE
5
274
100
AcDbEntity
8
0
100
AcDbSpline
70
0
71
2
72
6
73
3
74
0
42
0.000000001
43
0.0000000001
44
0.0000000001
40
0
40
0
40
0
40
1
40
1
40
1
10
102.69782781011668
20
7.64878840525542
30
-1.7347234759768071e-17
10
102.04972508873209
20
7.2966832200093723
30
-1.7347234759768071e-17
10
102.00655247299296
20
6.1867639637219751
30
-1.7347234759768071e-17
0
LINE
5
275
100
AcDbEntity
8
0
100
AcDbLine
10
102.00655247299296
20
6.1867639637219751
30
-1.7347234759768071e-17
11
108.43512639217444
21
6.1912946681414169
31
-1.7347234759768071e-17
0
LINE
5
276
100
AcDbEntity
8
0
100
AcDbLine
10
118.43228752513869
20
10.209328705022163
30
-1.7347234759768071e-17
11
122.64108012000261
21
10.212294960905627
31
-1.7347234759768071e-17
0
LINE
5
277
100
AcDbEntity
8
0
100
AcDbLine
10
122.64108012000261
20
10.212294960905627
30
-1.7347234759768071e-17
11
125.08608796705367
21
2.477752947199936
31
-1.7347234759768071e-17
0
LINE
5
278
100
AcDbEntity
8
0
100
AcDbLine
10
125.08608796705369
20
2.4777529471999404
30
-1.7347234759768071e-17
11
127.90481744493164
21
10.216004716484498
31
-1.7347234759768071e-17
0
LINE
5
279
100
AcDbEntity
8
0
100
AcDbLine
10
127.90481744493164
20
10.216004716484495
30
-1.7347234759768071e-17
11
131.67404258304617
21
10.218661175787261
31
-1.7347234759768071e-17
0
LINE
5
280
100
AcDbEntity
8
0
100
AcDbLine
10
131.67404258304617
20
10.218661175787261
30
-1.7347234759768071e-17
11
134.55853269312297
21
2.6053095324313116
31
-1.7347234759768071e-17
0
LINE
5
281
100
AcDbEntity
8
0
100
AcDbLine
10
134.55853269312297
20
2.6053095324313125
30
-1.7347234759768071e-17
11
137.03667591002522
21
10.222440630891899
31
-1.7347234759768071e-17
0
LINE
5
282
100
AcDbEntity
8
0
100
AcDbLine
10
137.03667591002522
20
10.222440630891899
30
-1.7347234759768071e-17
11
141.28942334321593
21
10.225437865089182
31
-1.7347234759768071e-17
0
LINE
5
283
100
AcDbEntity
8
0
100
AcDbLine
10
141.28942334321593
20
10.225437865089182
30
-1.7347234759768071e-17
11
137.32990136410092
21
-0.42570607105787195
31
-1.7347234759768071e-17
0
LINE
5
284
100
AcDbEntity
8
0
100
AcDbLine
10
137.32990136410092
20
-0.42570607105786973
30
-1.7347234759768071e-17
11
131.93428998745077
21
-0.4295087682994525
31
-1.7347234759768071e-17
0
LINE
5
285
100
AcDbEntity
8
0
100
AcDbLine
10
131.93428998745077
20
-0.42950876829945361
30
-1.7347234759768071e-17
11
129.83098185875616
21
5.8327481048295944
31
-1.7347234759768071e-17
0
LINE
5
286
100
AcDbEntity
8
0
100
AcDbLine
10
129.83098185875616
20
5.8327481048295926
30
-1.7347234759768071e-17
11
127.69253841639737
21
-0.43249825287733468
31
-1.7347234759768071e-17
0
LINE
5
287
100
AcDbEntity
8
0
100
AcDbLine
10
127.69253841639737
20
-0.43249825287733135
30
-1.7347234759768071e-17
11
122.38484625314157
21
-0.43623898677001477
31
-1.7347234759768071e-17
0
LINE
5
288
100
AcDbEntity
8
0
100
AcDbLine
10
122.38484625314157
20
-0.43623898677001449
30
-1.7347234759768071e-17
11
118.43228752513872
21
10.209328705022164
31
-1.7347234759768071e-17
0
LINE
5
289
100
AcDbEntity
8
0
100
AcDbLine
10
145.70936775676014
20
6.8878929644920328
30
-1.7347234759768071e-17
11
141.74233154106392
21
6.8850970926951929
31
-1.7347234759768071e-17
0
SPLINE
5
290
100
AcDbEntity
8
0
100
AcDbSpline
70
0
71
2
72
6
73
3
74
0
42
0.000000001
43
0.0000000001
44
0.0000000001
40
0
40
0
40
0
40
1
40
1
40
1
10
141.74233154106392
20
6.8850970926951938
30
-1.7347234759768071e-17
10
141.81837972975092
20
8.1269112519342066
30
-1.7347234759768071e-17
10
142.26847477784344
20
8.7645906297264773
30
-1.7347234759768071e-17
0
SPLINE
5
291
100
AcDbEntity
8
0
100
AcDbSpline
70
0
71
2
72
6
73
3
74
0
42
0.000000001
43
0.0000000001
44
0.0000000001
40
0
40
0
40
0
40
1
40
1
40
1
10
142.26847477784344
20
8.7645906297264773
30
-1.7347234759768071e-17
10
142.98204686073075
20
9.7870726471294986
30
-1.7347234759768071e-17
10
144.48178709569245
20
10.15076676107013
30
-1.7347234759768071e-17
0
SPLINE
5
292
100
AcDbEntity
8
0
100
AcDbSpline
70
0
71
2
72
6
73
3
74
0
42
0.000000001
43
0.0000000001
44
0.0000000001
40
0
40
0
40
0
40
1
40
1
40
1
10
144.48178709569245
20
10.15076676107013
30
-1.7347234759768071e-17
10
145.98153686739494
20
10.514460881732028
30
-1.7347234759768071e-17
10
149.55296046466853
20
10.516977935261986
30
-1.7347234759768071e-17
0
SPLINE
5
293
100
AcDbEntity
8
0
100
AcDbSpline
70
0
71
2
72
6
73
3
74
0
42
0.000000001
43
0.0000000001
44
0.0000000001
40
0
40
0
40
0
40
1
40
1
40
1
10
149.55296046466853
20
10.516977935261986
30
-1.7347234759768071e-17
10
152.1793311960644
20
10.518828938241718
30
-1.7347234759768071e-17
10
153.13551932985229
20
10.321701197570441
30
-1.7347234759768071e-17
0
SPLINE
5
294
100
AcDbEntity
8
0
100
AcDbSpline
70
0
71
2
72
6
73
3
74
0
42
0.000000001
43
0.0000000001
44
0.0000000001
40
0
40
0
40
0
40
1
40
1
40
1
10
153.13551932985229
20
10.321701197570441
30
-1.7347234759768071e-17
10
154.09169792689934
20
10.124573450177895
30
-1.7347234759768071e-17
10
154.76249833340736
20
9.454715523260834
30
-1.7347234759768071e-17
0
SPLINE
5
295
100
AcDbEntity
8
0
100
AcDbSpline
70
0
71
2
72
6
73
3
74
0
42
0.000000001
43
0.0000000001
44
0.0000000001
40
0
40
0
40
0
40
1
40
1
40
1
10
154.76249833340736
20
9.454715523260834
30
-1.7347234759768071e-17
10
155.29034721833833
20
8.9276125272514193
30
-1.7347234759768071e-17
10
155.48317836980934
20
8.1859898992365565
30
-1.7347234759768071e-17
0
SPLINE
5
296
100
AcDbEntity
8
0
100
AcDbSpline
70
0
71
2
72
6
73
3
74
0
42
0.000000001
43
0.0000000001
44
0.0000000001
40
0
40
0
40
0
40
1
40
1
40
1
10
155.48317836980934
20
8.1859898992365565
30
-1.7347234759768071e-17
10
155.67600952128035
20
7.4443672712216946
30
-1.7347234759768071e-17
10
155.67703183252135
20
5.9938194594747785
30
-1.7347234759768071e-17
0
LINE
5
297
100
AcDbEntity
8
0
100
AcDbLine
10
155.67703183252135
20
5.9938194594747785
30
-1.7347234759768071e-17
11
155.68154704442324
21
-0.41277227217290102
31
-1.7347234759768071e-17
0
LINE
5
298
100
AcDbEntity
8
0
100
AcDbLine
10
155.68154704442327
20
-0.4127722721728988
30
-1.7347234759768071e-17
11
151.85737120584466
21
-0.41546745940888519
31
-1.7347234759768071e-17
0
LINE
5
299
100
AcDbEntity
8
0
100
AcDbLine
10
151.85737120584466
20
-0.41546745940888474
30
-1.7347234759768071e-17
11
151.85634889292334
21
1.0350827365232307
31
-1.7347234759768071e-17
0
LINE
5
300
100
AcDbEntity
8
0
100
AcDbLine
10
151.85634889292334
20
1.0350827365232274
30
-1.7347234759768071e-17
11
151.66953367747891
21
1.0349510736485565
31
-1.7347234759768071e-17
0
SPLINE
5
301
100
AcDbEntity
8
0
100
AcDbSpline
70
0
71
2
72
6
73
3
74
0
42
0.000000001
43
0.0000000001
44
0.0000000001
40
0
40
0
40
0
40
1
40
1
40
1
10
151.66953367747891
20
1.0349510736485579
30
-1.7347234759768071e-17
10
151.23062632054396
20
0.1115634528895626
30
-1.7347234759768071e-17
10
150.27487189491177
20
-0.30669323231047319
30
-1.7347234759768071e-17
0
SPLINE
5
302
100
AcDbEntity
8
0
100
AcDbSpline
70
0
71
2
72
6
73
3
74
0
42
0.000000001
43
0.0000000001
44
0.0000000001
40
0
40
0
40
0
40
1
40
1
40
1
10
150.27487189491177
20
-0.30669323231047319
30
-1.7347234759768071e-17
10
149.76953184397229
20
-0.52682845300556114
30
-1.7347234759768071e-17
10
148.85750557788373
20
-0.60989016628061332
30
-1.7347234759768071e-17
0
SPLINE
5
303
100
AcDbEntity
8
0
100
AcDbSpline
70
0
71
2
72
6
73
3
74
0
42
0.000000001
43
0.0000000001
44
0.0000000001
40
0
40
0
40
0
40
1
40
1
40
1
10
148.85750557788373
20
-0.60989016628061332
30
-1.7347234759768071e-17
10
147.94547931011482
20
-0.69294949537047401
30
-1.7347234759768071e-17
10
145.95646803956845
20
-0.69435130271796375
30
-1.7347234759768071e-17
0
SPLINE
5
304
100
AcDbEntity
8
0
100
AcDbSpline
70
0
71
2
72
6
73
3
74
0
42
0.000000001
43
0.0000000001
44
0.0000000001
40
0
40
0
40
0
40
1
40
1
40
1
10
145.95646803956845
20
-0.69435130271796375
30
-1.7347234759768071e-17
10
144.35207352530742
20
-0.6954820414179741
30
-1.7347234759768071e-17
10
143.48379119504375
20
-0.49279679723561731
30
-1.7347234759768071e-17
0
SPLINE
5
305
100
AcDbEntity
8
0
100
AcDbSpline
70
0
71
2
72
6
73
3
74
0
42
0.000000001
43
0.0000000001
44
0.0000000001
40
0
40
0
40
0
40
1
40
1
40
1
10
143.48379119504375
20
-0.49279679723561731
30
-1.7347234759768071e-17
10
142.61551840152083
20
-0.29011154633199254
30
-1.7347234759768071e-17
10
142.08770229042668
20
0.20402055928320895
30
-1.7347234759768071e-17
0
SPLINE
5
306
100
AcDbEntity
8
0
100
AcDbSpline
70
0
71
2
72
6
73
3
74
0
42
0.000000001
43
0.0000000001
44
0.0000000001
40
0
40
0
40
0
40
1
40
1
40
1
10
142.08770229042668
20
0.20402055928320895
30
-1.7347234759768071e-17
10
141.31794987597675
20
0.93974342162860047
30
-1.7347234759768071e-17
10
141.31677266812571
20
2.6100725775650124
30
-1.7347234759768071e-17
0
SPLINE
5
307
100
AcDbEntity
8
0
100
AcDbSpline
70
0
71
2
72
6
73
3
74
0
42
0.000000001
43
0.0000000001
44
0.0000000001
40
0
40
0
40
0
40
1
40
1
40
1
10
141.31677266812571
20
2.6100725775650124
30
-1.7347234759768071e-17
10
141.31546379908028
20
4.4672145647606376
30
-1.7347234759768071e-17
10
142.22696729352086
20
5.2920320561890977
30
-1.7347234759768071e-17
0
SPLINE
5
308
100
AcDbEntity
8
0
100
AcDbSpline
70
0
71
2
72
6
73
3
74
0
42
0.000000001
43
0.0000000001
44
0.0000000001
40
0
40
0
40
0
40
1
40
1
40
1
10
142.22696729352086
20
5.2920320561890977
30
-1.7347234759768071e-17
10
142.95178902419337
20
5.940896153971833
30
-1.7347234759768071e-17
10
144.13845886346598
20
6.1395341294495909
30
-1.7347234759768071e-17
0
SPLINE
5
309
100
AcDbEntity
8
0
100
AcDbSpline
70
0
71
2
72
6
73
3
74
0
42
0.000000001
43
0.0000000001
44
0.0000000001
40
0
40
0
40
0
40
1
40
1
40
1
10
144.13845886346598
20
6.1395341294495909
30
-1.7347234759768071e-17
10
145.32513823947943
20
6.3381721116486123
30
-1.7347234759768071e-17
10
148.51194508046771
20
6.340418096531093
30
-1.7347234759768071e-17
0
SPLINE
5
310
100
AcDbEntity
8
0
100
AcDbSpline
70
0
71
2
72
6
73
3
74
0
42
0.000000001
43
0.0000000001
44
0.0000000001
40
0
40
0
40
0
40
1
40
1
40
1
10
148.51194508046771
20
6.340418096531093
30
-1.7347234759768071e-17
10
149.88556954095759
20
6.3413861940426131
30
-1.7347234759768071e-17
10
150.47360283643093
20
6.1824606814208627
30
-1.7347234759768071e-17
0
SPLINE
5
311
100
AcDbEntity
8
0
100
AcDbSpline
70
0
71
2
72
6
73
3
74
0
42
0.000000001
43
0.0000000001
44
0.0000000001
40
0
40
0
40
0
40
1
40
1
40
1
10
150.47360283643093
20
6.1824606814208627
30
-1.7347234759768071e-17
10
151.06162659516346
20
6.0235351620778443
30
-1.7347234759768071e-17
10
151.5235211729146
20
5.5073743980974976
30
-1.7347234759768071e-17
0
LINE
5
312
100
AcDbEntity
8
0
100
AcDbLine
10
151.5235211729146
20
5.5073743980974976
30
-1.7347234759768071e-17
11
151.69935006296251
21
5.5074983180740311
31
-1.7347234759768071e-17
0
LINE
5
313
100
AcDbEntity
8
0
100
AcDbLine
10
151.69935006296251
20
5.5074983180740311
30
-1.7347234759768071e-17
11
151.69895507769914
21
6.0679391960368667
31
-1.7347234759768071e-17
0
SPLINE
5
314
100
AcDbEntity
8
0
100
AcDbSpline
70
0
71
2
72
6
73
3
74
0
42
0.000000001
43
0.0000000001
44
0.0000000001
40
0
40
0
40
0
40
1
40
1
40
1
10
151.69895507769914
20
6.0679391960368667
30
-1.7347234759768071e-17
10
151.69807217223092
20
7.3206854669428756
30
-1.7347234759768071e-17
10
151.23630746519211
20
7.6390422991758511
30
-1.7347234759768071e-17
0
SPLINE
5
315
100
AcDbEntity
8
0
100
AcDbSpline
70
0
71
2
72
6
73
3
74
0
42
0.000000001
43
0.0000000001
44
0.0000000001
40
0
40
0
40
0
40
1
40
1
40
1
10
151.23630746519211
20
7.6390422991758511
30
-1.7347234759768071e-17
10
150.7745427581533
20
7.9573991314088222
30
-1.7347234759768071e-17
10
148.96136037765484
20
7.9561212440378659
30
-1.7347234759768071e-17
0
SPLINE
5
316
100
AcDbEntity
8
0
100
AcDbSpline
70
0
71
2
72
6
73
3
74
0
42
0.000000001
43
0.0000000001
44
0.0000000001
40
0
40
0
40
0
40
1
40
1
40
1
10
148.96136037765484
20
7.9561212440378659
30
-1.7347234759768071e-17
10
146.81850240459437
20
7.9546110092313871
30
-1.7347234759768071e-17
10
146.31312363076265
20
7.7894193364447739
30
-1.7347234759768071e-17
0
SPLINE
5
317
100
AcDbEntity
8
0
100
AcDbSpline
70
0
71
2
72
6
73
3
74
0
42
0.000000001
43
0.0000000001
44
0.0000000001
40
0
40
0
40
0
40
1
40
1
40
1
10
146.31312363076265
20
7.7894193364447739
30
-1.7347234759768071e-17
10
145.80774485693092
20
7.6242276636581607
30
-1.7347234759768071e-17
10
145.70936775676014
20
6.8878929644920328
30
-1.7347234759768071e-17
0
SPLINE
5
318
100
AcDbEntity
8
0
100
AcDbSpline
70
0
71
2
72
6
73
3
74
0
42
0.000000001
43
0.0000000001
44
0.0000000001
40
0
40
0
40
0
40
1
40
1
40
1
10
148.37068966694068
20
4.0765812560471737
30
-1.7347234759768071e-17
10
146.35969620886056
20
4.075163956182144
30
-1.7347234759768071e-17
10
145.87635383461179
20
3.8330668088412034
30
-1.7347234759768071e-17
0
SPLINE
5
319
100
AcDbEntity
8
0
100
AcDbSpline
70
0
71
2
72
6
73
3
74
0
42
0.000000001
43
0.0000000001
44
0.0000000001
40
0
40
0
40
0
40
1
40
1
40
1
10
145.87635383461179
20
3.8330668088412034
30
-1.7347234759768071e-17
10
145.29413690324665
20
3.5469403485560536
30
-1.7347234759768071e-17
10
145.29454737598661
20
2.9645244356150258
30
-1.7347234759768071e-17
0
SPLINE
5
320
100
AcDbEntity
8
0
100
AcDbSpline
70
0
71
2
72
6
73
3
74
0
42
0.000000001
43
0.0000000001
44
0.0000000001
40
0
40
0
40
0
40
1
40
1
40
1
10
145.29454737598661
20
2.9645244356150258
30
-1.7347234759768071e-17
10
145.29500431955796
20
2.3161714968134328
30
-1.7347234759768071e-17
10
145.86659893079587
20
2.0858065587495922
30
-1.7347234759768071e-17
0
SPLINE
5
321
100
AcDbEntity
8
0
100
AcDbSpline
70
0
71
2
72
6
73
3
74
0
42
0.000000001
43
0.0000000001
44
0.0000000001
40
0
40
0
40
0
40
1
40
1
40
1
10
145.86659893079587
20
2.0858065587495922
30
-1.7347234759768071e-17
10
146.43818400697327
20
1.8554392297792877
30
-1.7347234759768071e-17
10
148.0425785212343
20
1.856569968479298
30
-1.7347234759768071e-17
0
SPLINE
5
322
100
AcDbEntity
8
0
100
AcDbSpline
70
0
71
2
72
6
73
3
74
0
42
0.000000001
43
0.0000000001
44
0.0000000001
40
0
40
0
40
0
40
1
40
1
40
1
10
148.0425785212343
20
1.856569968479298
30
-1.7347234759768071e-17
10
150.13049533057153
20
1.8580414820738245
30
-1.7347234759768071e-17
10
150.87756852526297
20
2.1113155997858168
30
-1.7347234759768071e-17
0
SPLINE
5
323
100
AcDbEntity
8
0
100
AcDbSpline
70
0
71
2
72
6
73
3
74
0
42
0.000000001
43
0.0000000001
44
0.0000000001
40
0
40
0
40
0
40
1
40
1
40
1
10
150.87756852526297
20
2.1113155997858168
30
-1.7347234759768071e-17
10
151.62464171995444
20
2.3645897174978181
30
-1.7347234759768071e-17
10
151.62414605349082
20
3.0678862042078858
30
-1.7347234759768071e-17
0
SPLINE
5
324
100
AcDbEntity
8
0
100
AcDbSpline
70
0
71
2
72
6
73
3
74
0
42
0.000000001
43
0.0000000001
44
0.0000000001
40
0
40
0
40
0
40
1
40
1
40
1
10
151.62414605349082
20
3.0678862042078858
30
-1.7347234759768071e-17
10
151.62369685617827
20
3.7052480492425843
30
-1.7347234759768071e-17
10
150.97517114742453
20
3.9465498673438271
30
-1.7347234759768071e-17
0
SPLINE
5
325
100
AcDbEntity
8
0
100
AcDbSpline
70
0
71
2
72
6
73
3
74
0
42
0.000000001
43
0.0000000001
44
0.0000000001
40
0
40
0
40
0
40
1
40
1
40
1
10
150.97517114742453
20
3.9465498673438271
30
-1.7347234759768071e-17
10
150.6783961570687
20
4.0562302420473939
30
-1.7347234759768071e-17
10
148.37068966694068
20
4.0765812560471737
30
-1.7347234759768071e-17
0
LINE
5
326
100
AcDbEntity
8
0
100
AcDbLine
10
157.39931504842772
20
10.236791729641901
30
-1.7347234759768071e-17
11
161.37733758952044
21
10.239595344336879
31
-1.7347234759768071e-17
0
LINE
5
327
100
AcDbEntity
8
0
100
AcDbLine
10
161.37733758952044
20
10.23959534433688
30
-1.7347234759768071e-17
11
161.38484228936085
21
-0.40875272673459806
31
-1.7347234759768071e-17
0
LINE
5
328
100
AcDbEntity
8
0
100
AcDbLine
10
161.3848422893609
20
-0.40875272673459584
30
-1.7347234759768071e-17
11
157.40681974826816
21
-0.41155634142957392
31
-1.7347234759768071e-17
0
LINE
5
329
100
AcDbEntity
8
0
100
AcDbLine
10
157.40681974826816
20
-0.41155634142957531
30
-1.7347234759768071e-17
11
157.39931504842772
21
10.236791729641903
31
-1.7347234759768071e-17
0
LINE
5
330
100
AcDbEntity
8
0
100
AcDbLine
10
157.39624811050388
20
14.58844112534565
30
-1.7347234759768071e-17
11
161.37427065159659
21
14.591244740040628
31
-1.7347234759768071e-17
0
LINE
5
331
100
AcDbEntity
8
0
100
AcDbLine
10
161.37427065159665
20
14.591244740040629
30
-1.7347234759768071e-17
11
161.3763772349071
21
11.60223347943024
31
-1.7347234759768071e-17
0
LINE
5
332
100
AcDbEntity
8
0
100
AcDbLine
10
161.3763772349071
20
11.60223347943024
30
-1.7347234759768071e-17
11
157.39835469381435
21
11.599429864735262
31
-1.7347234759768071e-17
0
LINE
5
333
100
AcDbEntity
8
0
100
AcDbLine
10
157.39835469381435
20
11.59942986473526
30
-1.7347234759768071e-17
11
157.39624811050388
21
14.58844112534565
31
-1.7347234759768071e-17
0
LINE
5
334
100
AcDbEntity
8
0
100
AcDbLine
10
164.37561166292085
20
12.692259859062098
30
-1.7347234759768071e-17
11
168.35363420401359
21
12.695063473757076
31
-1.7347234759768071e-17
0
LINE
5
335
100
AcDbEntity
8
0
100
AcDbLine
10
168.35363420401359
20
12.695063473757076
30
-1.7347234759768071e-17
11
168.3553612928979
21
10.244513287760933
31
-1.7347234759768071e-17
0
LINE
5
336
100
AcDbEntity
8
0
100
AcDbLine
10
168.35536129289784
20
10.244513287760931
30
-1.7347234759768071e-17
11
174.65206116035819
21
10.248951050517656
31
-1.7347234759768071e-17
0
LINE
5
337
100
AcDbEntity
8
0
100
AcDbLine
10
174.65206116035819
20
10.248951050517658
30
-1.7347234759768071e-17
11
174.65406705994795
21
7.4027989749323
31
-1.7347234759768071e-17
0
LINE
5
338
100
AcDbEntity
8
0
100
AcDbLine
10
174.65406705994798
20
7.4027989749323009
30
-1.7347234759768071e-17
11
168.35736719248763
21
7.3983612121755744
31
-1.7347234759768071e-17
0
LINE
5
339
100
AcDbEntity
8
0
100
AcDbLine
10
168.35736719248763
20
7.3983612121755726
30
-1.7347234759768071e-17
11
168.35955122242282
21
4.2994616636556335
31
-1.7347234759768071e-17
0
SPLINE
5
340
100
AcDbEntity
8
0
100
AcDbSpline
70
0
71
2
72
6
73
3
74
0
42
0.000000001
43
0.0000000001
44
0.0000000001
40
0
40
0
40
0
40
1
40
1
40
1
10
168.35955122242279
20
4.2994616636556326
30
-1.7347234759768071e-17
10
168.36043412957133
20
3.0467130085644278
30
-1.7347234759768071e-17
10
168.53647808069456
20
2.7281571913949465
30
-1.7347234759768071e-17
0
SPLINE
5
341
100
AcDbEntity
8
0
100
AcDbSpline
70
0
71
2
72
6
73
3
74
0
42
0.000000001
43
0.0000000001
44
0.0000000001
40
0
40
0
40
0
40
1
40
1
40
1
10
168.53647808069456
20
2.7281571913949465
30
-1.7347234759768071e-17
10
168.83357240101122
20
2.1789141350336472
30
-1.7347234759768071e-17
10
169.9434582947996
20
2.1796963559410054
30
-1.7347234759768071e-17
0
SPLINE
5
342
100
AcDbEntity
8
0
100
AcDbSpline
70
0
71
2
72
6
73
3
74
0
42
0.000000001
43
0.0000000001
44
0.0000000001
40
0
40
0
40
0
40
1
40
1
40
1
10
169.9434582947996
20
2.1796963559410054
30
-1.7347234759768071e-17
10
171.09730856365559
20
2.1805095618834436
30
-1.7347234759768071e-17
10
171.37166170590586
20
2.7081755464182988
30
-1.7347234759768071e-17
0
SPLINE
5
343
100
AcDbEntity
8
0
100
AcDbSpline
70
0
71
2
72
6
73
3
74
0
42
0.000000001
43
0.0000000001
44
0.0000000001
40
0
40
0
40
0
40
1
40
1
40
1
10
171.37166170590586
20
2.7081755464182988
30
-1.7347234759768071e-17
10
171.48140641806162
20
2.9170456301712777
30
-1.7347234759768071e-17
10
171.50323578995241
20
3.1203582036919064
30
-1.7347234759768071e-17
0
SPLINE
5
344
100
AcDbEntity
8
0
100
AcDbSpline
70
0
71
2
72
6
73
3
74
0
42
0.000000001
43
0.0000000001
44
0.0000000001
40
0
40
0
40
0
40
1
40
1
40
1
10
171.50323578995241
20
3.1203582036919064
30
-1.7347234759768071e-17
10
171.52507469858404
20
3.3236707839337987
30
-1.7347234759768071e-17
10
171.52448609549864
20
4.1588341698094089
30
-1.7347234759768071e-17
0
LINE
5
345
100
AcDbEntity
8
0
100
AcDbLine
10
171.52448609549864
20
4.1588341698094089
30
-1.7347234759768071e-17
11
175.16184671863283
21
4.1613976941707245
31
-1.7347234759768071e-17
0
SPLINE
5
346
100
AcDbEntity
8
0
100
AcDbSpline
70
0
71
2
72
6
73
3
74
0
42
0.000000001
43
0.0000000001
44
0.0000000001
40
0
40
0
40
0
40
1
40
1
40
1
10
175.16184671863283
20
4.1613976941707254
30
-1.7347234759768071e-17
10
175.14094105606958
20
2.6339110386491971
30
-1.7347234759768071e-17
10
174.98208136816388
20
1.9524796721944648
30
-1.7347234759768071e-17
0
SPLINE
5
347
100
AcDbEntity
8
0
100
AcDbSpline
70
0
71
2
72
6
73
3
74
0
42
0.000000001
43
0.0000000001
44
0.0000000001
40
0
40
0
40
0
40
1
40
1
40
1
10
174.98208136816388
20
1.9524796721944648
30
-1.7347234759768071e-17
10
174.8232216802582
20
1.2710483057397237
30
-1.7347234759768071e-17
10
174.36209204713609
20
0.68830472623652383
30
-1.7347234759768071e-17
0
SPLINE
5
348
100
AcDbEntity
8
0
100
AcDbSpline
70
0
71
2
72
6
73
3
74
0
42
0.000000001
43
0.0000000001
44
0.0000000001
40
0
40
0
40
0
40
1
40
1
40
1
10
174.36209204713609
20
0.68830472623652383
30
-1.7347234759768071e-17
10
173.76922181396924
20
-0.070353525700448394
30
-1.7347234759768071e-17
10
172.71998322839099
20
-0.37329101209158555
30
-1.7347234759768071e-17
0
SPLINE
5
349
100
AcDbEntity
8
0
100
AcDbSpline
70
0
71
2
72
6
73
3
74
0
42
0.000000001
43
0.0000000001
44
0.0000000001
40
0
40
0
40
0
40
1
40
1
40
1
10
172.71998322839099
20
-0.37329101209158555
30
-1.7347234759768071e-17
10
171.67074464281274
20
-0.67622849848272271
30
-1.7347234759768071e-17
10
169.60481002100931
20
-0.67768451955970921
30
-1.7347234759768071e-17
0
SPLINE
5
350
100
AcDbEntity
8
0
100
AcDbSpline
70
0
71
2
72
6
73
3
74
0
42
0.000000001
43
0.0000000001
44
0.0000000001
40
0
40
0
40
0
40
1
40
1
40
1
10
169.60481002100931
20
-0.67768451955970921
30
-1.7347234759768071e-17
10
167.69272210172002
20
-0.67903211317770218
30
-1.7347234759768071e-17
10
166.76401111032652
20
-0.47089629223685314
30
-1.7347234759768071e-17
0
SPLINE
5
351
100
AcDbEntity
8
0
100
AcDbSpline
70
0
71
2
72
6
73
3
74
0
42
0.000000001
43
0.0000000001
44
0.0000000001
40
0
40
0
40
0
40
1
40
1
40
1
10
166.76401111032652
20
-0.47089629223685314
30
-1.7347234759768071e-17
10
165.83529058051195
20
-0.26275809383207172
30
-1.7347234759768071e-17
10
165.2524695552242
20
0.30825863510696827
30
-1.7347234759768071e-17
0
SPLINE
5
352
100
AcDbEntity
8
0
100
AcDbSpline
70
0
71
2
72
6
73
3
74
0
42
0.000000001
43
0.0000000001
44
0.0000000001
40
0
40
0
40
0
40
1
40
1
40
1
10
165.2524695552242
20
0.30825863510696827
30
-1.7347234759768071e-17
10
164.82360365822927
20
0.72553947317607559
30
-1.7347234759768071e-17
10
164.63643992667249
20
1.2199140465888725
30
-1.7347234759768071e-17
0
SPLINE
5
353
100
AcDbEntity
8
0
100
AcDbSpline
70
0
71
2
72
6
73
3
74
0
42
0.000000001
43
0.0000000001
44
0.0000000001
40
0
40
0
40
0
40
1
40
1
40
1
10
164.63643992667249
20
1.2199140465888725
30
-1.7347234759768071e-17
10
164.44927619679606
20
1.7142862358164646
30
-1.7347234759768071e-17
10
164.40470951996826
20
2.582387156308541
30
-1.7347234759768071e-17
0
SPLINE
5
354
100
AcDbEntity
8
0
100
AcDbSpline
70
0
71
2
72
6
73
3
74
0
42
0.000000001
43
0.0000000001
44
0.0000000001
40
0
40
0
40
0
40
1
40
1
40
1
10
164.40470951996826
20
2.582387156308541
30
-1.7347234759768071e-17
10
164.38251226967881
20
2.9010537851222162
30
-1.7347234759768071e-17
10
164.38152868133005
20
4.2966580489606576
30
-1.7347234759768071e-17
0
LINE
5
355
100
AcDbEntity
8
0
100
AcDbLine
10
164.38152868133005
20
4.2966580489606576
30
-1.7347234759768071e-17
11
164.37934465139489
21
7.3955575974805967
31
-1.7347234759768071e-17
0
LINE
5
356
100
AcDbEntity
8
0
100
AcDbLine
10
164.37934465139492
20
7.3955575974805976
30
-1.7347234759768071e-17
11
162.28044151666123
21
7.3940783409879343
31
-1.7347234759768071e-17
0
LINE
5
357
100
AcDbEntity
8
0
100
AcDbLine
10
162.28044151666123
20
7.3940783409879307
30
-1.7347234759768071e-17
11
162.27843561707147
21
10.240230416573288
31
-1.7347234759768071e-17
0
LINE
5
358
100
AcDbEntity
8
0
100
AcDbLine
10
162.27843561707144
20
10.240230416573288
30
-1.7347234759768071e-17
11
164.37733875180513
21
10.241709673065953
31
-1.7347234759768071e-17
0
LINE
5
359
100
AcDbEntity
8
0
100
AcDbLine
10
164.37733875180513
20
10.241709673065955
30
-1.7347234759768071e-17
11
164.37561166292082
21
12.692259859062098
31
-1.7347234759768071e-17
0
ENDSEC
0
SECTION
2
OBJECTS
0
DICTIONARY
5
C
100
AcDbDictionary
3
ACAD_GROUP
350
D
3
ACAD_MLINESTYLE
350
17
0
DICTIONARY
5
D
100
AcDbDictionary
0
DICTIONARY
5
1A
330
C
100
AcDbDictionary
0
DICTIONARY
5
17
100
AcDbDictionary
0
ENDSEC
0
EOF
