0
SECTION
2
HEADER
9
$INSUNITS
70
4
9
$ACADVER
1
AC1014
9
$HANDSEED
5
FFFF
0
ENDSEC
0
SECTION
2
TABLES
0
TABLE
2
VPORT
5
8
100
AcDbSymbolTable
0
ENDTAB
0
TABLE
2
LTYPE
5
5
100
AcDbSymbolTable
0
LTYPE
5
14
100
AcDbSymbolTableRecord
100
AcDbLinetypeTableRecord
2
BYBLOCK
70
0
0
LTYPE
5
15
100
AcDbSymbolTableRecord
100
AcDbLinetypeTableRecord
2
BYLAYER
70
0
0
LTYPE
5
16
100
AcDbSymbolTableRecord
100
AcDbLinetypeTableRecord
2
DASHED
70
0
3
Dashed __ __ __ __ __ __ __ __ __ __ __ __ __ _
72
65
73
2
40
0.75
49
0.5
74
0
49
-0.25
74
0
0
ENDTAB
0
TABLE
2
LAYER
5
2
100
AcDbSymbolTable
70
2
0
LAYER
5
50
100
AcDbSymbolTableRecord
100
AcDbLayerTableRecord
2
0
70
0
62
7
6
CONTINUOUS
0
ENDTAB
0
TABLE
2
STYLE
5
3
100
AcDbSymbolTable
70
1
0
STYLE
5
11
100
AcDbSymbolTableRecord
100
AcDbTextStyleTableRecord
2
STANDARD
70
0
0
ENDTAB
0
TABLE
2
VIEW
5
6
100
AcDbSymbolTable
70
0
0
ENDTAB
0
TABLE
2
UCS
5
7
100
AcDbSymbolTable
70
0
0
ENDTAB
0
TABLE
2
APPID
5
9
100
AcDbSymbolTable
70
2
0
APPID
5
12
100
AcDbSymbolTableRecord
100
AcDbRegAppTableRecord
2
ACAD
70
0
0
ENDTAB
0
TABLE
2
DIMSTYLE
5
A
100
AcDbSymbolTable
70
1
0
ENDTAB
0
TABLE
2
BLOCK_RECORD
5
1
100
AcDbSymbolTable
70
1
0
BLOCK_RECORD
5
1F
100
AcDbSymbolTableRecord
100
AcDbBlockTableRecord
2
*MODEL_SPACE
0
BLOCK_RECORD
5
1B
100
AcDbSymbolTableRecord
100
AcDbBlockTableRecord
2
*PAPER_SPACE
0
ENDTAB
0
ENDSEC
0
SECTION
2
BLOCKS
0
BLOCK
5
20
100
AcDbEntity
100
AcDbBlockBegin
2
*MODEL_SPACE
0
ENDBLK
5
21
100
AcDbEntity
100
AcDbBlockEnd
0
BLOCK
5
1C
100
AcDbEntity
100
AcDbBlockBegin
2
*PAPER_SPACE
0
ENDBLK
5
1D
100
AcDbEntity
100
AcDbBlockEnd
0
ENDSEC
0
SECTION
2
ENTITIES
0
CIRCLE
5
100
100
AcDbEntity
8
0
100
AcDbCircle
10
-10.000000000000002
20
20.800000071507956
30
0
40
1.4999999999999993
210
0
220
-0
230
1
0
CIRCLE
5
101
100
AcDbEntity
8
0
100
AcDbCircle
10
10
20
20.800000071507956
30
-1.7347234759768071e-17
40
1.4999999999999993
210
0
220
2.8025969286496335e-45
230
1
0
CIRCLE
5
102
100
AcDbEntity
8
0
100
AcDbCircle
10
1.9999999999999996
20
20.800000071507956
30
-1.7347234759768071e-17
40
1.4999999999999993
210
0
220
2.8025969286496335e-45
230
1
0
CIRCLE
5
103
100
AcDbEntity
8
0
100
AcDbCircle
10
6.0000000000000009
20
20.800000071507956
30
-1.7347234759768071e-17
40
1.4999999999999993
210
0
220
2.8025969286496335e-45
230
1
0
CIRCLE
5
104
100
AcDbEntity
8
0
100
AcDbCircle
10
1.9999999999999996
20
20.800000071507956
30
-1.7347234759768071e-17
40
1.4999999999999993
210
0
220
2.8025969286496335e-45
230
1
0
CIRCLE
5
105
100
AcDbEntity
8
0
100
AcDbCircle
10
6.0000000000000009
20
16.800000071507956
30
-1.7347234759768071e-17
40
1.4999999999999993
210
0
220
2.8025969286496335e-45
230
1
0
CIRCLE
5
106
100
AcDbEntity
8
0
100
AcDbCircle
10
1.9999999999999996
20
16.800000071507956
30
-1.7347234759768071e-17
40
1.4999999999999993
210
0
220
2.8025969286496335e-45
230
1
0
CIRCLE
5
107
100
AcDbEntity
8
0
100
AcDbCircle
10
-1.9999999999999996
20
16.800000071507956
30
-1.7347234759768071e-17
40
1.4999999999999996
210
0
220
2.8025969286496335e-45
230
1
0
CIRCLE
5
108
100
AcDbEntity
8
0
100
AcDbCircle
10
1.9999999999999996
20
12.800000071507949
30
-1.7347234759768071e-17
40
1.4999999999999993
210
0
220
2.8025969286496335e-45
230
1
0
CIRCLE
5
109
100
AcDbEntity
8
0
100
AcDbCircle
10
-1.9999999999999996
20
12.800000071507949
30
-1.7347234759768071e-17
40
1.4999999999999996
210
0
220
2.8025969286496335e-45
230
1
0
CIRCLE
5
110
100
AcDbEntity
8
0
100
AcDbCircle
10
-5.9999999999999982
20
12.800000071507949
30
-1.7347234759768071e-17
40
1.4999999999999993
210
0
220
2.8025969286496335e-45
230
1
0
CIRCLE
5
111
100
AcDbEntity
8
0
100
AcDbCircle
10
-5.9999999999999982
20
8.8000000715079487
30
-1.7347234759768071e-17
40
1.4999999999999993
210
0
220
2.8025969286496335e-45
230
1
0
CIRCLE
5
112
100
AcDbEntity
8
0
100
AcDbCircle
10
-1.9999999999999996
20
8.8000000715079487
30
-1.7347234759768071e-17
40
1.4999999999999996
210
0
220
2.8025969286496335e-45
230
1
0
CIRCLE
5
113
100
AcDbEntity
8
0
100
AcDbCircle
10
1.9999999999999996
20
8.8000000715079487
30
-1.7347234759768071e-17
40
1.4999999999999993
210
0
220
2.8025969286496335e-45
230
1
0
CIRCLE
5
114
100
AcDbEntity
8
0
100
AcDbCircle
10
-10.000000000000002
20
4.8000000715079496
30
-1.7347234759768071e-17
40
1.4999999999999993
210
0
220
2.8025969286496335e-45
230
1
0
CIRCLE
5
115
100
AcDbEntity
8
0
100
AcDbCircle
10
-14.000000000000002
20
4.8000000715079496
30
-1.7347234759768071e-17
40
1.4999999999999993
210
0
220
2.8025969286496335e-45
230
1
0
CIRCLE
5
116
100
AcDbEntity
8
0
100
AcDbCircle
10
6.0000000000000009
20
4.8000000715079496
30
-1.7347234759768071e-17
40
1.4999999999999993
210
0
220
2.8025969286496335e-45
230
1
0
CIRCLE
5
117
100
AcDbEntity
8
0
100
AcDbCircle
10
10
20
4.8000000715079496
30
-1.7347234759768071e-17
40
1.4999999999999993
210
0
220
2.8025969286496335e-45
230
1
0
CIRCLE
5
118
100
AcDbEntity
8
0
100
AcDbCircle
10
1.9999999999999996
20
4.8000000715079496
30
-1.7347234759768071e-17
40
1.4999999999999993
210
0
220
2.8025969286496335e-45
230
1
0
CIRCLE
5
119
100
AcDbEntity
8
0
100
AcDbCircle
10
-1.9999999999999996
20
4.8000000715079496
30
-1.7347234759768071e-17
40
1.4999999999999996
210
0
220
2.8025969286496335e-45
230
1
0
CIRCLE
5
120
100
AcDbEntity
8
0
100
AcDbCircle
10
-5.9999999999999982
20
4.8000000715079496
30
-1.7347234759768071e-17
40
1.4999999999999993
210
0
220
2.8025969286496335e-45
230
1
0
CIRCLE
5
121
100
AcDbEntity
8
0
100
AcDbCircle
10
-10.000000000000002
20
0.80000007150794805
30
-1.7347234759768071e-17
40
1.4999999999999993
210
0
220
2.8025969286496335e-45
230
1
0
CIRCLE
5
122
100
AcDbEntity
8
0
100
AcDbCircle
10
-5.9999999999999982
20
-3.1999999284920522
30
-1.7347234759768071e-17
40
1.4999999999999993
210
0
220
2.8025969286496335e-45
230
1
0
CIRCLE
5
123
100
AcDbEntity
8
0
100
AcDbCircle
10
-1.9999999999999996
20
-7.1999999284920531
30
-1.7347234759768071e-17
40
1.4999999999999996
210
0
220
2.8025969286496335e-45
230
1
0
CIRCLE
5
124
100
AcDbEntity
8
0
100
AcDbCircle
10
1.9999999999999996
20
-3.1999999284920522
30
-1.7347234759768071e-17
40
1.4999999999999993
210
0
220
2.8025969286496335e-45
230
1
0
CIRCLE
5
125
100
AcDbEntity
8
0
100
AcDbCircle
10
6.0000000000000009
20
0.80000007150794805
30
-1.7347234759768071e-17
40
1.4999999999999993
210
0
220
2.8025969286496335e-45
230
1
0
CIRCLE
5
126
100
AcDbEntity
8
0
100
AcDbCircle
10
1.9999999999999996
20
0.80000007150794805
30
-1.7347234759768071e-17
40
1.4999999999999993
210
0
220
2.8025969286496335e-45
230
1
0
CIRCLE
5
127
100
AcDbEntity
8
0
100
AcDbCircle
10
-1.9999999999999996
20
0.80000007150794805
30
-1.7347234759768071e-17
40
1.4999999999999996
210
0
220
2.8025969286496335e-45
230
1
0
CIRCLE
5
128
100
AcDbEntity
8
0
100
AcDbCircle
10
-5.9999999999999982
20
0.80000007150794805
30
-1.7347234759768071e-17
40
1.4999999999999993
210
0
220
2.8025969286496335e-45
230
1
0
CIRCLE
5
129
100
AcDbEntity
8
0
100
AcDbCircle
10
-1.9999999999999996
20
-3.1999999284920522
30
-1.7347234759768071e-17
40
1.4999999999999996
210
0
220
2.8025969286496335e-45
230
1
0
LINE
5
130
100
AcDbEntity
8
0
100
AcDbLine
10
16
20
-9.1999999284920548
30
-1.7347234759768071e-17
11
16
21
22.800000071507949
31
-1.7347234759768071e-17
0
LWPOLYLINE
5
131
100
AcDbEntity
8
0
100
AcDbPolyline
90
4
70
1
43
0.0
10
16
20
22.800000071507949
10
26
20
22.800000071507949
10
26
20
-9.1999999284920531
10
16
20
-9.1999999284920531
0
LINE
5
132
100
AcDbEntity
8
0
100
AcDbLine
10
26
20
-9.1999999284920531
30
-1.7347234759768071e-17
11
314.34503275152406
21
-9.1999999284920531
31
-1.7347234759768071e-17
6
DASHED
0
LINE
5
133
100
AcDbEntity
8
0
100
AcDbLine
10
314.34503275152406
20
-9.1999999284920531
30
-1.7347234759768071e-17
11
314.34503275152406
21
22.800000071507949
31
-1.7347234759768071e-17
6
DASHED
0
LINE
5
134
100
AcDbEntity
8
0
100
AcDbLine
10
314.34503275152406
20
22.800000071507949
30
-1.7347234759768071e-17
11
26
21
22.800000071507949
31
-1.7347234759768071e-17
6
DASHED
0
LINE
5
135
100
AcDbEntity
8
0
100
AcDbLine
10
26
20
22.800000071507949
30
-1.7347234759768071e-17
11
26
21
-9.1999999284920531
31
-1.7347234759768071e-17
6
DASHED
0
LINE
5
136
100
AcDbEntity
8
0
100
AcDbLine
10
26
20
-0.69999897481773488
30
-1.7347234759768071e-17
11
26
21
14.300002217275161
31
-1.7347234759768071e-17
0
LINE
5
137
100
AcDbEntity
8
0
100
AcDbLine
10
26
20
14.300002217275161
30
-1.7347234759768071e-17
11
36.274726003408432
21
14.300002217275161
31
-1.7347234759768071e-17
0
SPLINE
5
138
100
AcDbEntity
8
0
100
AcDbSpline
70
0
71
2
72
6
73
3
74
0
42
0.000000001
43
0.0000000001
44
0.0000000001
40
0
40
0
40
0
40
1
40
1
40
1
10
36.274726003408432
20
14.300002217275161
30
-1.7347234759768071e-17
10
39.329670280218124
20
14.300002217275161
30
-1.7347234759768071e-17
10
40.208792299032211
20
14.179122805577773
30
-1.7347234759768071e-17
0
SPLINE
5
139
100
AcDbEntity
8
0
100
AcDbSpline
70
0
71
2
72
6
73
3
74
0
42
0.000000001
43
0.0000000001
44
0.0000000001
40
0
40
0
40
0
40
1
40
1
40
1
10
40.208792299032211
20
14.179122805577773
30
-1.7347234759768071e-17
10
42.439560502767563
20
13.882419228536147
30
-1.7347234759768071e-17
10
43.22527489066124
20
12.745056509953994
30
-1.7347234759768071e-17
0
SPLINE
5
140
100
AcDbEntity
8
0
100
AcDbSpline
70
0
71
2
72
6
73
3
74
0
42
0.000000001
43
0.0000000001
44
0.0000000001
40
0
40
0
40
0
40
1
40
1
40
1
10
43.22527489066124
20
12.745056509953994
30
-1.7347234759768071e-17
10
44.010989278554916
20
11.60769379137184
30
-1.7347234759768071e-17
10
44.010989278554916
20
8.6846164464774311
30
-1.7347234759768071e-17
0
SPLINE
5
141
100
AcDbEntity
8
0
100
AcDbSpline
70
0
71
2
72
6
73
3
74
0
42
0.000000001
43
0.0000000001
44
0.0000000001
40
0
40
0
40
0
40
1
40
1
40
1
10
44.010989278554916
20
8.6846164464774311
30
-1.7347234759768071e-17
10
44.010989278554916
20
5.9043959379019917
30
-1.7347234759768071e-17
10
43.362638562917709
20
4.7835186719718159
30
-1.7347234759768071e-17
0
SPLINE
5
142
100
AcDbEntity
8
0
100
AcDbSpline
70
0
71
2
72
6
73
3
74
0
42
0.000000001
43
0.0000000001
44
0.0000000001
40
0
40
0
40
0
40
1
40
1
40
1
10
43.362638562917709
20
4.7835186719718159
30
-1.7347234759768071e-17
10
42.923078149557114
20
4.0252760648551167
30
-1.7347234759768071e-17
10
42.131868213415146
20
3.6296728849234761
30
-1.7347234759768071e-17
0
SPLINE
5
143
100
AcDbEntity
8
0
100
AcDbSpline
70
0
71
2
72
6
73
3
74
0
42
0.000000001
43
0.0000000001
44
0.0000000001
40
0
40
0
40
0
40
1
40
1
40
1
10
42.131868213415146
20
3.6296728849234761
30
-1.7347234759768071e-17
10
41.340659469366074
20
3.2340673208060444
30
-1.7347234759768071e-17
10
39.967033475637436
20
3.0802205800833882
30
-1.7347234759768071e-17
0
SPLINE
5
144
100
AcDbEntity
8
0
100
AcDbSpline
70
0
71
2
72
6
73
3
74
0
42
0.000000001
43
0.0000000001
44
0.0000000001
40
0
40
0
40
0
40
1
40
1
40
1
10
39.967033475637436
20
3.0802205800833882
30
-1.7347234759768071e-17
10
38.989011853933334
20
2.970331072789687
30
-1.7347234759768071e-17
10
36.318682044744492
20
2.970331072789687
30
-1.7347234759768071e-17
0
LINE
5
145
100
AcDbEntity
8
0
100
AcDbLine
10
36.318682044744492
20
2.970331072789687
30
-1.7347234759768071e-17
11
30.571428745985031
21
2.970331072789687
31
-1.7347234759768071e-17
0
LINE
5
146
100
AcDbEntity
8
0
100
AcDbLine
10
30.571428745985031
20
2.970331072789687
30
-1.7347234759768071e-17
11
30.571428745985031
21
-0.69999897481773488
31
-1.7347234759768071e-17
0
LINE
5
147
100
AcDbEntity
8
0
100
AcDbLine
10
30.571428745985031
20
-0.69999897481773488
30
-1.7347234759768071e-17
11
26
21
-0.69999897481773488
31
-1.7347234759768071e-17
0
LINE
5
148
100
AcDbEntity
8
0
100
AcDbLine
10
30.571428745985031
20
6.717584490758437
30
-1.7347234759768071e-17
11
36.285714715719223
21
6.717584490758437
31
-1.7347234759768071e-17
0
SPLINE
5
149
100
AcDbEntity
8
0
100
AcDbSpline
70
0
71
2
72
6
73
3
74
0
42
0.000000001
43
0.0000000001
44
0.0000000001
40
0
40
0
40
0
40
1
40
1
40
1
10
36.285714715719223
20
6.717584490758437
30
-1.7347234759768071e-17
10
37.846154779195786
20
6.728573203069228
30
-1.7347234759768071e-17
10
38.192307561635971
20
6.7615393400016011
30
-1.7347234759768071e-17
0
SPLINE
5
150
100
AcDbEntity
8
0
100
AcDbSpline
70
0
71
2
72
6
73
3
74
0
42
0.000000001
43
0.0000000001
44
0.0000000001
40
0
40
0
40
0
40
1
40
1
40
1
10
38.192307561635971
20
6.7615393400016011
30
-1.7347234759768071e-17
10
38.538461536169052
20
6.7945078611197651
30
-1.7347234759768071e-17
10
38.813187688589096
20
6.9373635053458393
30
-1.7347234759768071e-17
0
SPLINE
5
151
100
AcDbEntity
8
0
100
AcDbSpline
70
0
71
2
72
6
73
3
74
0
42
0.000000001
43
0.0000000001
44
0.0000000001
40
0
40
0
40
0
40
1
40
1
40
1
10
38.813187688589096
20
6.9373635053458393
30
-1.7347234759768071e-17
10
39.164836019277573
20
7.1241763830008686
30
-1.7347234759768071e-17
10
39.296704143285751
20
7.5032976865592182
30
-1.7347234759768071e-17
0
SPLINE
5
152
100
AcDbEntity
8
0
100
AcDbSpline
70
0
71
2
72
6
73
3
74
0
42
0.000000001
43
0.0000000001
44
0.0000000001
40
0
40
0
40
0
40
1
40
1
40
1
10
39.296704143285751
20
7.5032976865592182
30
-1.7347234759768071e-17
10
39.42857226729393
20
7.8824189901175679
30
-1.7347234759768071e-17
10
39.42857226729393
20
8.6846164464774311
30
-1.7347234759768071e-17
0
SPLINE
5
153
100
AcDbEntity
8
0
100
AcDbSpline
70
0
71
2
72
6
73
3
74
0
42
0.000000001
43
0.0000000001
44
0.0000000001
40
0
40
0
40
0
40
1
40
1
40
1
10
39.42857226729393
20
8.6846164464774311
30
-1.7347234759768071e-17
10
39.42857226729393
20
9.4868162870230854
30
-1.7347234759768071e-17
10
39.263736814260483
20
9.860442042333144
30
-1.7347234759768071e-17
0
SPLINE
5
154
100
AcDbEntity
8
0
100
AcDbSpline
70
0
71
2
72
6
73
3
74
0
42
0.000000001
43
0.0000000001
44
0.0000000001
40
0
40
0
40
0
40
1
40
1
40
1
10
39.263736814260483
20
9.860442042333144
30
-1.7347234759768071e-17
10
39.098901361227036
20
10.234067797643203
30
-1.7347234759768071e-17
10
38.681319564580917
20
10.398900866490859
30
-1.7347234759768071e-17
0
SPLINE
5
155
100
AcDbEntity
8
0
100
AcDbSpline
70
0
71
2
72
6
73
3
74
0
42
0.000000001
43
0.0000000001
44
0.0000000001
40
0
40
0
40
0
40
1
40
1
40
1
10
38.681319564580917
20
10.398900866490859
30
-1.7347234759768071e-17
10
38.3736272752285
20
10.519781470281142
30
-1.7347234759768071e-17
10
36.285714715719223
20
10.552747607213515
30
-1.7347234759768071e-17
0
LINE
5
156
100
AcDbEntity
8
0
100
AcDbLine
10
36.285714715719223
20
10.552747607213515
30
-1.7347234759768071e-17
11
30.571428745985031
21
10.552747607213515
31
-1.7347234759768071e-17
0
LINE
5
157
100
AcDbEntity
8
0
100
AcDbLine
10
30.571428745985031
20
10.552747607213515
30
-1.7347234759768071e-17
11
30.571428745985031
21
6.717584490758437
31
-1.7347234759768071e-17
0
LINE
5
158
100
AcDbEntity
8
0
100
AcDbLine
10
59.703298419713974
20
-0.69999897481773488
30
-1.7347234759768071e-17
11
55.956045001745224
21
-0.69999897481773488
31
-1.7347234759768071e-17
0
LINE
5
159
100
AcDbEntity
8
0
100
AcDbLine
10
55.956045001745224
20
-0.69999897481773488
30
-1.7347234759768071e-17
11
55.956045001745224
21
0.89340722559120067
31
-1.7347234759768071e-17
0
LINE
5
160
100
AcDbEntity
8
0
100
AcDbLine
10
55.956045001745224
20
0.89340722559120067
30
-1.7347234759768071e-17
11
55.758243411779404
21
0.89340722559120067
31
-1.7347234759768071e-17
0
SPLINE
5
161
100
AcDbEntity
8
0
100
AcDbSpline
70
0
71
2
72
6
73
3
74
0
42
0.000000001
43
0.0000000001
44
0.0000000001
40
0
40
0
40
0
40
1
40
1
40
1
10
55.758243411779404
20
0.89340722559120067
30
-1.7347234759768071e-17
10
55.285714477300644
20
-0.12856924535606495
30
-1.7347234759768071e-17
10
54.252749294042587
20
-0.55164778234336964
30
-1.7347234759768071e-17
0
SPLINE
5
162
100
AcDbEntity
8
0
100
AcDbSpline
70
0
71
2
72
6
73
3
74
0
42
0.000000001
43
0.0000000001
44
0.0000000001
40
0
40
0
40
0
40
1
40
1
40
1
10
54.252749294042587
20
-0.55164778234336964
30
-1.7347234759768071e-17
10
53.21978172659874
20
-0.97472393514488331
30
-1.7347234759768071e-17
10
51.197801440954208
20
-0.97472393514488331
30
-1.7347234759768071e-17
0
SPLINE
5
163
100
AcDbEntity
8
0
100
AcDbSpline
70
0
71
2
72
6
73
3
74
0
42
0.000000001
43
0.0000000001
44
0.0000000001
40
0
40
0
40
0
40
1
40
1
40
1
10
51.197801440954208
20
-0.97472393514488331
30
-1.7347234759768071e-17
10
49.351647704839706
20
-0.97472393514488331
30
-1.7347234759768071e-17
10
48.263736575841904
20
-0.66703283788536183
30
-1.7347234759768071e-17
0
SPLINE
5
164
100
AcDbEntity
8
0
100
AcDbSpline
70
0
71
2
72
6
73
3
74
0
42
0.000000001
43
0.0000000001
44
0.0000000001
40
0
40
0
40
0
40
1
40
1
40
1
10
48.263736575841904
20
-0.66703283788536183
30
-1.7347234759768071e-17
10
47.175825446844101
20
-0.35933935644004933
30
-1.7347234759768071e-17
10
46.461537688970566
20
0.36593472955848583
30
-1.7347234759768071e-17
0
SPLINE
5
165
100
AcDbEntity
8
0
100
AcDbSpline
70
0
71
2
72
6
73
3
74
0
42
0.000000001
43
0.0000000001
44
0.0000000001
40
0
40
0
40
0
40
1
40
1
40
1
10
46.461537688970566
20
0.36593472955848583
30
-1.7347234759768071e-17
10
45.736263602972031
20
1.113188624364394
30
-1.7347234759768071e-17
10
45.510989040136337
20
2.0087937116446675
30
-1.7347234759768071e-17
0
SPLINE
5
166
100
AcDbEntity
8
0
100
AcDbSpline
70
0
71
2
72
6
73
3
74
0
42
0.000000001
43
0.0000000001
44
0.0000000001
40
0
40
0
40
0
40
1
40
1
40
1
10
45.510989040136337
20
2.0087937116446675
30
-1.7347234759768071e-17
10
45.285714477300644
20
2.9043964147391499
30
-1.7347234759768071e-17
10
45.285714477300644
20
5.0802210569205464
30
-1.7347234759768071e-17
0
LINE
5
167
100
AcDbEntity
8
0
100
AcDbLine
10
45.285714477300644
20
5.0802210569205464
30
-1.7347234759768071e-17
11
45.285714477300644
21
9.9483517408194722
31
-1.7347234759768071e-17
0
LINE
5
168
100
AcDbEntity
8
0
100
AcDbLine
10
45.285714477300644
20
9.9483517408194722
30
-1.7347234759768071e-17
11
49.263735622167587
21
9.9483517408194722
31
-1.7347234759768071e-17
0
LINE
5
169
100
AcDbEntity
8
0
100
AcDbLine
10
49.263735622167587
20
9.9483517408194722
30
-1.7347234759768071e-17
11
49.263735622167587
21
5.0802210569205464
31
-1.7347234759768071e-17
0
SPLINE
5
170
100
AcDbEntity
8
0
100
AcDbSpline
70
0
71
2
72
6
73
3
74
0
42
0.000000001
43
0.0000000001
44
0.0000000001
40
0
40
0
40
0
40
1
40
1
40
1
10
49.263735622167587
20
5.0802210569205464
30
-1.7347234759768071e-17
10
49.263735622167587
20
3.9153865575614155
30
-1.7347234759768071e-17
10
49.373627513647079
20
3.4208801984610737
30
-1.7347234759768071e-17
0
SPLINE
5
171
100
AcDbEntity
8
0
100
AcDbSpline
70
0
71
2
72
6
73
3
74
0
42
0.000000001
43
0.0000000001
44
0.0000000001
40
0
40
0
40
0
40
1
40
1
40
1
10
49.373627513647079
20
3.4208801984610737
30
-1.7347234759768071e-17
10
49.483517020940781
20
2.9263738393607319
30
-1.7347234759768071e-17
10
49.813187927007675
20
2.6076940297904194
30
-1.7347234759768071e-17
0
SPLINE
5
172
100
AcDbEntity
8
0
100
AcDbSpline
70
0
71
2
72
6
73
3
74
0
42
0.000000001
43
0.0000000001
44
0.0000000001
40
0
40
0
40
0
40
1
40
1
40
1
10
49.813187927007675
20
2.6076940297904194
30
-1.7347234759768071e-17
10
50.153847545385361
20
2.2780231237235249
30
-1.7347234759768071e-17
10
50.703297466039658
20
2.1516493558707417
30
-1.7347234759768071e-17
0
SPLINE
5
173
100
AcDbEntity
8
0
100
AcDbSpline
70
0
71
2
72
6
73
3
74
0
42
0.000000001
43
0.0000000001
44
0.0000000001
40
0
40
0
40
0
40
1
40
1
40
1
10
50.703297466039658
20
2.1516493558707417
30
-1.7347234759768071e-17
10
51.252747386693954
20
2.0252755880179585
30
-1.7347234759768071e-17
10
52.395604461431503
20
2.0252755880179585
30
-1.7347234759768071e-17
0
SPLINE
5
174
100
AcDbEntity
8
0
100
AcDbSpline
70
0
71
2
72
6
73
3
74
0
42
0.000000001
43
0.0000000001
44
0.0000000001
40
0
40
0
40
0
40
1
40
1
40
1
10
52.395604461431503
20
2.0252755880179585
30
-1.7347234759768071e-17
10
54.329670280218124
20
2.0252755880179585
30
-1.7347234759768071e-17
10
55.021978229284286
20
2.6186827421012104
30
-1.7347234759768071e-17
0
SPLINE
5
175
100
AcDbEntity
8
0
100
AcDbSpline
70
0
71
2
72
6
73
3
74
0
42
0.000000001
43
0.0000000001
44
0.0000000001
40
0
40
0
40
0
40
1
40
1
40
1
10
55.021978229284286
20
2.6186827421012104
30
-1.7347234759768071e-17
10
55.450549930334091
20
2.992308497411269
30
-1.7347234759768071e-17
10
55.587912410497665
20
3.58022010324623
30
-1.7347234759768071e-17
0
SPLINE
5
176
100
AcDbEntity
8
0
100
AcDbSpline
70
0
71
2
72
6
73
3
74
0
42
0.000000001
43
0.0000000001
44
0.0000000001
40
0
40
0
40
0
40
1
40
1
40
1
10
55.587912410497665
20
3.58022010324623
30
-1.7347234759768071e-17
10
55.72527489066124
20
4.1681340932669819
30
-1.7347234759768071e-17
10
55.72527489066124
20
5.6626394986930073
30
-1.7347234759768071e-17
0
LINE
5
177
100
AcDbEntity
8
0
100
AcDbLine
10
55.72527489066124
20
5.6626394986930073
30
-1.7347234759768071e-17
11
55.72527489066124
21
9.9483517408194722
31
-1.7347234759768071e-17
0
LINE
5
178
100
AcDbEntity
8
0
100
AcDbLine
10
55.72527489066124
20
9.9483517408194722
30
-1.7347234759768071e-17
11
59.703298419713974
21
9.9483517408194722
31
-1.7347234759768071e-17
0
LINE
5
179
100
AcDbEntity
8
0
100
AcDbLine
10
59.703298419713974
20
9.9483517408194722
30
-1.7347234759768071e-17
11
59.703298419713974
21
-0.69999897481773488
31
-1.7347234759768071e-17
0
LINE
5
180
100
AcDbEntity
8
0
100
AcDbLine
10
61.164835304021835
20
2.6846174001517475
30
-1.7347234759768071e-17
11
65.219779819250107
21
2.6846174001517475
31
-1.7347234759768071e-17
0
SPLINE
5
181
100
AcDbEntity
8
0
100
AcDbSpline
70
0
71
2
72
6
73
3
74
0
42
0.000000001
43
0.0000000001
44
0.0000000001
40
0
40
0
40
0
40
1
40
1
40
1
10
65.219779819250107
20
2.6846174001517475
30
-1.7347234759768071e-17
10
65.274725764989853
20
2.0032981633963765
30
-1.7347234759768071e-17
10
65.978022426366806
20
1.75055062769081
30
-1.7347234759768071e-17
0
SPLINE
5
182
100
AcDbEntity
8
0
100
AcDbSpline
70
0
71
2
72
6
73
3
74
0
42
0.000000001
43
0.0000000001
44
0.0000000001
40
0
40
0
40
0
40
1
40
1
40
1
10
65.978022426366806
20
1.75055062769081
30
-1.7347234759768071e-17
10
66.681319087743759
20
1.4978030919852436
30
-1.7347234759768071e-17
10
68.549452632665634
20
1.4978030919852436
30
-1.7347234759768071e-17
0
SPLINE
5
183
100
AcDbEntity
8
0
100
AcDbSpline
70
0
71
2
72
6
73
3
74
0
42
0.000000001
43
0.0000000001
44
0.0000000001
40
0
40
0
40
0
40
1
40
1
40
1
10
68.549452632665634
20
1.4978030919852436
30
-1.7347234759768071e-17
10
70.483518451452255
20
1.4978030919852436
30
-1.7347234759768071e-17
10
71.181321948766708
20
1.706593394261855
30
-1.7347234759768071e-17
0
SPLINE
5
184
100
AcDbEntity
8
0
100
AcDbSpline
70
0
71
2
72
6
73
3
74
0
42
0.000000001
43
0.0000000001
44
0.0000000001
40
0
40
0
40
0
40
1
40
1
40
1
10
71.181321948766708
20
1.706593394261855
30
-1.7347234759768071e-17
10
71.879120677709579
20
1.9153860807242573
30
-1.7347234759768071e-17
10
71.879120677709579
20
2.4868134260001362
30
-1.7347234759768071e-17
0
SPLINE
5
185
100
AcDbEntity
8
0
100
AcDbSpline
70
0
71
2
72
6
73
3
74
0
42
0.000000001
43
0.0000000001
44
0.0000000001
40
0
40
0
40
0
40
1
40
1
40
1
10
71.879120677709579
20
2.4868134260001362
30
-1.7347234759768071e-17
10
71.879120677709579
20
3.0362657308402241
30
-1.7347234759768071e-17
10
71.20879253745079
20
3.2230786084952534
30
-1.7347234759768071e-17
0
SPLINE
5
186
100
AcDbEntity
8
0
100
AcDbSpline
70
0
71
2
72
6
73
3
74
0
42
0.000000001
43
0.0000000001
44
0.0000000001
40
0
40
0
40
0
40
1
40
1
40
1
10
71.20879253745079
20
3.2230786084952534
30
-1.7347234759768071e-17
10
70.901099056005478
20
3.3109906911673725
30
-1.7347234759768071e-17
10
67.813187450170517
20
3.3439568280997456
30
-1.7347234759768071e-17
0
SPLINE
5
187
100
AcDbEntity
8
0
100
AcDbSpline
70
0
71
2
72
6
73
3
74
0
42
0.000000001
43
0.0000000001
44
0.0000000001
40
0
40
0
40
0
40
1
40
1
40
1
10
67.813187450170517
20
3.3439568280997456
30
-1.7347234759768071e-17
10
64.934066146612167
20
3.3439568280997456
30
-1.7347234759768071e-17
10
64.263735622167587
20
3.4428576230826557
30
-1.7347234759768071e-17
0
SPLINE
5
188
100
AcDbEntity
8
0
100
AcDbSpline
70
0
71
2
72
6
73
3
74
0
42
0.000000001
43
0.0000000001
44
0.0000000001
40
0
40
0
40
0
40
1
40
1
40
1
10
64.263735622167587
20
3.4428576230826557
30
-1.7347234759768071e-17
10
62.395604461431503
20
3.6956051587882222
30
-1.7347234759768071e-17
10
61.736265033483505
20
4.6626380681815327
30
-1.7347234759768071e-17
0
SPLINE
5
189
100
AcDbEntity
8
0
100
AcDbSpline
70
0
71
2
72
6
73
3
74
0
42
0.000000001
43
0.0000000001
44
0.0000000001
40
0
40
0
40
0
40
1
40
1
40
1
10
61.736265033483505
20
4.6626380681815327
30
-1.7347234759768071e-17
10
61.241758674383163
20
5.3879145383658589
30
-1.7347234759768071e-17
10
61.241758674383163
20
6.6186836957755268
30
-1.7347234759768071e-17
0
SPLINE
5
190
100
AcDbEntity
8
0
100
AcDbSpline
70
0
71
2
72
6
73
3
74
0
42
0.000000001
43
0.0000000001
44
0.0000000001
40
0
40
0
40
0
40
1
40
1
40
1
10
61.241758674383163
20
6.6186836957755268
30
-1.7347234759768071e-17
10
61.241758674383163
20
8.9703301191153706
30
-1.7347234759768071e-17
10
62.978022903203964
20
9.6846178769889057
30
-1.7347234759768071e-17
0
SPLINE
5
191
100
AcDbEntity
8
0
100
AcDbSpline
70
0
71
2
72
6
73
3
74
0
42
0.000000001
43
0.0000000001
44
0.0000000001
40
0
40
0
40
0
40
1
40
1
40
1
10
62.978022903203964
20
9.6846178769889057
30
-1.7347234759768071e-17
10
64.28571543097496
20
10.223079085332412
30
-1.7347234759768071e-17
10
68.593407481908798
20
10.223079085332412
30
-1.7347234759768071e-17
0
SPLINE
5
192
100
AcDbEntity
8
0
100
AcDbSpline
70
0
71
2
72
6
73
3
74
0
42
0.000000001
43
0.0000000001
44
0.0000000001
40
0
40
0
40
0
40
1
40
1
40
1
10
68.593407481908798
20
10.223079085332412
30
-1.7347234759768071e-17
10
71.307693332433701
20
10.223079085332412
30
-1.7347234759768071e-17
10
72.538462489843369
20
10.0197819471183
30
-1.7347234759768071e-17
0
SPLINE
5
193
100
AcDbEntity
8
0
100
AcDbSpline
70
0
71
2
72
6
73
3
74
0
42
0.000000001
43
0.0000000001
44
0.0000000001
40
0
40
0
40
0
40
1
40
1
40
1
10
72.538462489843369
20
10.0197819471183
30
-1.7347234759768071e-17
10
73.769231647253036
20
9.816484808904189
30
-1.7347234759768071e-17
10
74.450550884008408
20
9.245055079442519
30
-1.7347234759768071e-17
0
SPLINE
5
194
100
AcDbEntity
8
0
100
AcDbSpline
70
0
71
2
72
6
73
3
74
0
42
0.000000001
43
0.0000000001
44
0.0000000001
40
0
40
0
40
0
40
1
40
1
40
1
10
74.450550884008408
20
9.245055079442519
30
-1.7347234759768071e-17
10
74.86813148856163
20
8.8934067487540425
30
-1.7347234759768071e-17
10
75.049453586339951
20
8.3989027738394917
30
-1.7347234759768071e-17
0
SPLINE
5
195
100
AcDbEntity
8
0
100
AcDbSpline
70
0
71
2
72
6
73
3
74
0
42
0.000000001
43
0.0000000001
44
0.0000000001
40
0
40
0
40
0
40
1
40
1
40
1
10
75.049453586339951
20
8.3989027738394917
30
-1.7347234759768071e-17
10
75.230770915746689
20
7.9043964147391499
30
-1.7347234759768071e-17
10
75.307694286108017
20
6.9373635053458393
30
-1.7347234759768071e-17
0
LINE
5
196
100
AcDbEntity
8
0
100
AcDbLine
10
75.307694286108017
20
6.9373635053458393
30
-1.7347234759768071e-17
11
71.252747386693954
21
6.9373635053458393
31
-1.7347234759768071e-17
0
SPLINE
5
197
100
AcDbEntity
8
0
100
AcDbSpline
70
0
71
2
72
6
73
3
74
0
42
0.000000001
43
0.0000000001
44
0.0000000001
40
0
40
0
40
0
40
1
40
1
40
1
10
71.252747386693954
20
6.9373635053458393
30
-1.7347234759768071e-17
10
71.142860263586044
20
7.33296668527748
30
-1.7347234759768071e-17
10
70.978022426366806
20
7.4428585767569722
30
-1.7347234759768071e-17
0
SPLINE
5
198
100
AcDbEntity
8
0
100
AcDbSpline
70
0
71
2
72
6
73
3
74
0
42
0.000000001
43
0.0000000001
44
0.0000000001
40
0
40
0
40
0
40
1
40
1
40
1
10
70.978022426366806
20
7.4428585767569722
30
-1.7347234759768071e-17
10
70.483518451452255
20
7.7505520582022847
30
-1.7347234759768071e-17
10
68.472529262304306
20
7.7505520582022847
30
-1.7347234759768071e-17
0
SPLINE
5
199
100
AcDbEntity
8
0
100
AcDbSpline
70
0
71
2
72
6
73
3
74
0
42
0.000000001
43
0.0000000001
44
0.0000000001
40
0
40
0
40
0
40
1
40
1
40
1
10
68.472529262304306
20
7.7505520582022847
30
-1.7347234759768071e-17
10
66.604395717382431
20
7.7505520582022847
30
-1.7347234759768071e-17
10
65.91209015250206
20
7.5637367963614643
30
-1.7347234759768071e-17
0
SPLINE
5
200
100
AcDbEntity
8
0
100
AcDbSpline
70
0
71
2
72
6
73
3
74
0
42
0.000000001
43
0.0000000001
44
0.0000000001
40
0
40
0
40
0
40
1
40
1
40
1
10
65.91209015250206
20
7.5637367963614643
30
-1.7347234759768071e-17
10
65.219779819250107
20
7.376923918706435
30
-1.7347234759768071e-17
10
65.219779819250107
20
6.8824175596060932
30
-1.7347234759768071e-17
0
SPLINE
5
201
100
AcDbEntity
8
0
100
AcDbSpline
70
0
71
2
72
6
73
3
74
0
42
0.000000001
43
0.0000000001
44
0.0000000001
40
0
40
0
40
0
40
1
40
1
40
1
10
65.219779819250107
20
6.8824175596060932
30
-1.7347234759768071e-17
10
65.219779819250107
20
6.2340668439688862
30
-1.7347234759768071e-17
10
66.175824016332626
20
6.1681321859183491
30
-1.7347234759768071e-17
0
SPLINE
5
202
100
AcDbEntity
8
0
100
AcDbSpline
70
0
71
2
72
6
73
3
74
0
42
0.000000001
43
0.0000000001
44
0.0000000001
40
0
40
0
40
0
40
1
40
1
40
1
10
66.175824016332626
20
6.1681321859183491
30
-1.7347234759768071e-17
10
66.923075526952744
20
6.113188624364394
30
-1.7347234759768071e-17
10
71.604395717382431
20
6.08022010324623
30
-1.7347234759768071e-17
0
SPLINE
5
203
100
AcDbEntity
8
0
100
AcDbSpline
70
0
71
2
72
6
73
3
74
0
42
0.000000001
43
0.0000000001
44
0.0000000001
40
0
40
0
40
0
40
1
40
1
40
1
10
71.604395717382431
20
6.08022010324623
30
-1.7347234759768071e-17
10
73.846155017614365
20
6.069231390935439
30
-1.7347234759768071e-17
10
74.846154063940048
20
5.3219798803153218
30
-1.7347234759768071e-17
0
SPLINE
5
204
100
AcDbEntity
8
0
100
AcDbSpline
70
0
71
2
72
6
73
3
74
0
42
0.000000001
43
0.0000000001
44
0.0000000001
40
0
40
0
40
0
40
1
40
1
40
1
10
74.846154063940048
20
5.3219798803153218
30
-1.7347234759768071e-17
10
75.857144206762314
20
4.5857146978202046
30
-1.7347234759768071e-17
10
75.857144206762314
20
2.7615383863272847
30
-1.7347234759768071e-17
0
SPLINE
5
205
100
AcDbEntity
8
0
100
AcDbSpline
70
0
71
2
72
6
73
3
74
0
42
0.000000001
43
0.0000000001
44
0.0000000001
40
0
40
0
40
0
40
1
40
1
40
1
10
75.857144206762314
20
2.7615383863272847
30
-1.7347234759768071e-17
10
75.857144206762314
20
1.5527490377249897
30
-1.7347234759768071e-17
10
75.461541026830673
20
0.80000197885658153
30
-1.7347234759768071e-17
0
SPLINE
5
206
100
AcDbEntity
8
0
100
AcDbSpline
70
0
71
2
72
6
73
3
74
0
42
0.000000001
43
0.0000000001
44
0.0000000001
40
0
40
0
40
0
40
1
40
1
40
1
10
75.461541026830673
20
0.80000197885658153
30
-1.7347234759768071e-17
10
75.065933078527451
20
0.047252535802382312
30
-1.7347234759768071e-17
10
74.219780772924423
20
-0.32637321950767628
30
-1.7347234759768071e-17
0
SPLINE
5
207
100
AcDbEntity
8
0
100
AcDbSpline
70
0
71
2
72
6
73
3
74
0
42
0.000000001
43
0.0000000001
44
0.0000000001
40
0
40
0
40
0
40
1
40
1
40
1
10
74.219780772924423
20
-0.32637321950767628
30
-1.7347234759768071e-17
10
72.813187450170517
20
-0.97472393514488331
30
-1.7347234759768071e-17
10
68.263736575841904
20
-0.97472393514488331
30
-1.7347234759768071e-17
0
SPLINE
5
208
100
AcDbEntity
8
0
100
AcDbSpline
70
0
71
2
72
6
73
3
74
0
42
0.000000001
43
0.0000000001
44
0.0000000001
40
0
40
0
40
0
40
1
40
1
40
1
10
68.263736575841904
20
-0.97472393514488331
30
-1.7347234759768071e-17
10
65.351649135351181
20
-0.97472393514488331
30
-1.7347234759768071e-17
10
64.087911456823349
20
-0.74944937230918995
30
-1.7347234759768071e-17
0
SPLINE
5
209
100
AcDbEntity
8
0
100
AcDbSpline
70
0
71
2
72
6
73
3
74
0
42
0.000000001
43
0.0000000001
44
0.0000000001
40
0
40
0
40
0
40
1
40
1
40
1
10
64.087911456823349
20
-0.74944937230918995
30
-1.7347234759768071e-17
10
62.824176162481308
20
-0.52417480947349659
30
-1.7347234759768071e-17
10
62.098902076482773
20
0.13516700266029247
30
-1.7347234759768071e-17
0
SPLINE
5
210
100
AcDbEntity
8
0
100
AcDbSpline
70
0
71
2
72
6
73
3
74
0
42
0.000000001
43
0.0000000001
44
0.0000000001
40
0
40
0
40
0
40
1
40
1
40
1
10
62.098902076482773
20
0.13516700266029247
30
-1.7347234759768071e-17
10
61.197801440954208
20
0.94835317133094676
30
-1.7347234759768071e-17
10
61.164835304021835
20
2.6846174001517475
30
-1.7347234759768071e-17
0
LINE
5
211
100
AcDbEntity
8
0
100
AcDbLine
10
77.329669803380966
20
14.300002217275161
30
-1.7347234759768071e-17
11
81.307693332433701
21
14.300002217275161
31
-1.7347234759768071e-17
0
LINE
5
212
100
AcDbEntity
8
0
100
AcDbLine
10
81.307693332433701
20
14.300002217275161
30
-1.7347234759768071e-17
11
81.307693332433701
21
8.3219794034781636
31
-1.7347234759768071e-17
0
LINE
5
213
100
AcDbEntity
8
0
100
AcDbLine
10
81.307693332433701
20
8.3219794034781636
30
-1.7347234759768071e-17
11
81.483517497777939
21
8.3219794034781636
31
-1.7347234759768071e-17
0
SPLINE
5
214
100
AcDbEntity
8
0
100
AcDbSpline
70
0
71
2
72
6
73
3
74
0
42
0.000000001
43
0.0000000001
44
0.0000000001
40
0
40
0
40
0
40
1
40
1
40
1
10
81.483517497777939
20
8.3219794034781636
30
-1.7347234759768071e-17
10
81.97802147269249
20
9.3329695463004292
30
-1.7347234759768071e-17
10
83.027473300695419
20
9.7780231237235249
30
-1.7347234759768071e-17
0
SPLINE
5
215
100
AcDbEntity
8
0
100
AcDbSpline
70
0
71
2
72
6
73
3
74
0
42
0.000000001
43
0.0000000001
44
0.0000000001
40
0
40
0
40
0
40
1
40
1
40
1
10
83.027473300695419
20
9.7780231237235249
30
-1.7347234759768071e-17
10
84.076925128698349
20
10.223076701146621
30
-1.7347234759768071e-17
10
85.967031329870224
20
10.223076701146621
30
-1.7347234759768071e-17
0
SPLINE
5
216
100
AcDbEntity
8
0
100
AcDbSpline
70
0
71
2
72
6
73
3
74
0
42
0.000000001
43
0.0000000001
44
0.0000000001
40
0
40
0
40
0
40
1
40
1
40
1
10
85.967031329870224
20
10.223076701146621
30
-1.7347234759768071e-17
10
87.736264079809189
20
10.223076701146621
30
-1.7347234759768071e-17
10
88.813186496496201
20
9.9153856038870991
30
-1.7347234759768071e-17
0
SPLINE
5
217
100
AcDbEntity
8
0
100
AcDbSpline
70
0
71
2
72
6
73
3
74
0
42
0.000000001
43
0.0000000001
44
0.0000000001
40
0
40
0
40
0
40
1
40
1
40
1
10
88.813186496496201
20
9.9153856038870991
30
-1.7347234759768071e-17
10
89.890108913183212
20
9.6076945066275776
30
-1.7347234759768071e-17
10
90.571428149938583
20
8.8934067487540425
30
-1.7347234759768071e-17
0
SPLINE
5
218
100
AcDbEntity
8
0
100
AcDbSpline
70
0
71
2
72
6
73
3
74
0
42
0.000000001
43
0.0000000001
44
0.0000000001
40
0
40
0
40
0
40
1
40
1
40
1
10
90.571428149938583
20
8.8934067487540425
30
-1.7347234759768071e-17
10
91.263738483190536
20
8.1791237592520893
30
-1.7347234759768071e-17
10
91.505494922399521
20
7.2725275754752339
30
-1.7347234759768071e-17
0
SPLINE
5
219
100
AcDbEntity
8
0
100
AcDbSpline
70
0
71
2
72
6
73
3
74
0
42
0.000000001
43
0.0000000001
44
0.0000000001
40
0
40
0
40
0
40
1
40
1
40
1
10
91.505494922399521
20
7.2725275754752339
30
-1.7347234759768071e-17
10
91.747251361608505
20
6.3659361600699604
30
-1.7347234759768071e-17
10
91.747251361608505
20
4.4868139028372944
30
-1.7347234759768071e-17
0
LINE
5
220
100
AcDbEntity
8
0
100
AcDbLine
10
91.747251361608505
20
4.4868139028372944
30
-1.7347234759768071e-17
11
91.747251361608505
21
-0.69999897481773488
31
-1.7347234759768071e-17
0
LINE
5
221
100
AcDbEntity
8
0
100
AcDbLine
10
91.747251361608505
20
-0.69999897481773488
30
-1.7347234759768071e-17
11
87.769227832555771
21
-0.69999897481773488
31
-1.7347234759768071e-17
0
LINE
5
222
100
AcDbEntity
8
0
100
AcDbLine
10
87.769227832555771
20
-0.69999897481773488
30
-1.7347234759768071e-17
11
87.769227832555771
21
4.4868139028372944
31
-1.7347234759768071e-17
0
SPLINE
5
223
100
AcDbEntity
8
0
100
AcDbSpline
70
0
71
2
72
6
73
3
74
0
42
0.000000001
43
0.0000000001
44
0.0000000001
40
0
40
0
40
0
40
1
40
1
40
1
10
87.769227832555771
20
4.4868139028372944
30
-1.7347234759768071e-17
10
87.769227832555771
20
5.4318693876090229
30
-1.7347234759768071e-17
10
87.675824970006943
20
5.8769253492179097
30
-1.7347234759768071e-17
0
SPLINE
5
224
100
AcDbEntity
8
0
100
AcDbSpline
70
0
71
2
72
6
73
3
74
0
42
0.000000001
43
0.0000000001
44
0.0000000001
40
0
40
0
40
0
40
1
40
1
40
1
10
87.675824970006943
20
5.8769253492179097
30
-1.7347234759768071e-17
10
87.582417339086533
20
6.3219789266410054
30
-1.7347234759768071e-17
10
87.318683475255966
20
6.5967038869681538
30
-1.7347234759768071e-17
0
SPLINE
5
225
100
AcDbEntity
8
0
100
AcDbSpline
70
0
71
2
72
6
73
3
74
0
42
0.000000001
43
0.0000000001
44
0.0000000001
40
0
40
0
40
0
40
1
40
1
40
1
10
87.318683475255966
20
6.5967038869681538
30
-1.7347234759768071e-17
10
86.747251361608505
20
7.2230795621695698
30
-1.7347234759768071e-17
10
84.692307323217392
20
7.2230795621695698
30
-1.7347234759768071e-17
0
SPLINE
5
226
100
AcDbEntity
8
0
100
AcDbSpline
70
0
71
2
72
6
73
3
74
0
42
0.000000001
43
0.0000000001
44
0.0000000001
40
0
40
0
40
0
40
1
40
1
40
1
10
84.692307323217392
20
7.2230795621695698
30
-1.7347234759768071e-17
10
82.593408435583115
20
7.2230795621695698
30
-1.7347234759768071e-17
10
81.912089198827744
20
6.5417603254141987
30
-1.7347234759768071e-17
0
SPLINE
5
227
100
AcDbEntity
8
0
100
AcDbSpline
70
0
71
2
72
6
73
3
74
0
42
0.000000001
43
0.0000000001
44
0.0000000001
40
0
40
0
40
0
40
1
40
1
40
1
10
81.912089198827744
20
6.5417603254141987
30
-1.7347234759768071e-17
10
81.560440868139267
20
6.2011007070365132
30
-1.7347234759768071e-17
10
81.434064716100693
20
5.6351665258231343
30
-1.7347234759768071e-17
0
SPLINE
5
228
100
AcDbEntity
8
0
100
AcDbSpline
70
0
71
2
72
6
73
3
74
0
42
0.000000001
43
0.0000000001
44
0.0000000001
40
0
40
0
40
0
40
1
40
1
40
1
10
81.434064716100693
20
5.6351665258231343
30
-1.7347234759768071e-17
10
81.307693332433701
20
5.0692323446097554
30
-1.7347234759768071e-17
10
81.307693332433701
20
3.8494518995108784
30
-1.7347234759768071e-17
0
LINE
5
229
100
AcDbEntity
8
0
100
AcDbLine
10
81.307693332433701
20
3.8494518995108784
30
-1.7347234759768071e-17
11
81.307693332433701
21
-0.69999897481773488
31
-1.7347234759768071e-17
0
LINE
5
230
100
AcDbEntity
8
0
100
AcDbLine
10
81.307693332433701
20
-0.69999897481773488
30
-1.7347234759768071e-17
11
77.329669803380966
21
-0.69999897481773488
31
-1.7347234759768071e-17
0
LINE
5
231
100
AcDbEntity
8
0
100
AcDbLine
10
77.329669803380966
20
-0.69999897481773488
30
-1.7347234759768071e-17
11
77.329669803380966
21
14.300002217275161
31
-1.7347234759768071e-17
0
LINE
5
232
100
AcDbEntity
8
0
100
AcDbLine
10
99.109893649816513
20
14.300002217275161
30
-1.7347234759768071e-17
11
103.08791717886925
21
14.300002217275161
31
-1.7347234759768071e-17
0
LINE
5
233
100
AcDbEntity
8
0
100
AcDbLine
10
103.08791717886925
20
14.300002217275161
30
-1.7347234759768071e-17
11
103.08791717886925
21
8.5197809934439839
31
-1.7347234759768071e-17
0
LINE
5
234
100
AcDbEntity
8
0
100
AcDbLine
10
103.08791717886925
20
8.5197809934439839
30
-1.7347234759768071e-17
11
103.26374134421349
21
8.5197809934439839
31
-1.7347234759768071e-17
0
SPLINE
5
235
100
AcDbEntity
8
0
100
AcDbSpline
70
0
71
2
72
6
73
3
74
0
42
0.000000001
43
0.0000000001
44
0.0000000001
40
0
40
0
40
0
40
1
40
1
40
1
10
103.26374134421349
20
8.5197809934439839
30
-1.7347234759768071e-17
10
103.86813721060753
20
9.5087937116446675
30
-1.7347234759768071e-17
10
104.80220398306847
20
9.865935206395644
30
-1.7347234759768071e-17
0
SPLINE
5
236
100
AcDbEntity
8
0
100
AcDbSpline
70
0
71
2
72
6
73
3
74
0
42
0.000000001
43
0.0000000001
44
0.0000000001
40
0
40
0
40
0
40
1
40
1
40
1
10
104.80220398306847
20
9.865935206395644
30
-1.7347234759768071e-17
10
105.7362707555294
20
10.223079085332412
30
-1.7347234759768071e-17
10
107.72528252005577
20
10.223079085332412
30
-1.7347234759768071e-17
0
SPLINE
5
237
100
AcDbEntity
8
0
100
AcDbSpline
70
0
71
2
72
6
73
3
74
0
42
0.000000001
43
0.0000000001
44
0.0000000001
40
0
40
0
40
0
40
1
40
1
40
1
10
107.72528252005577
20
10.223079085332412
30
-1.7347234759768071e-17
10
109.69231209158897
20
10.223079085332412
30
-1.7347234759768071e-17
10
110.8846147954464
20
9.9923089742484272
30
-1.7347234759768071e-17
0
SPLINE
5
238
100
AcDbEntity
8
0
100
AcDbSpline
70
0
71
2
72
6
73
3
74
0
42
0.000000001
43
0.0000000001
44
0.0000000001
40
0
40
0
40
0
40
1
40
1
40
1
10
110.8846147954464
20
9.9923089742484272
30
-1.7347234759768071e-17
10
112.07692703604698
20
9.7615412473502339
30
-1.7347234759768071e-17
10
112.76923736929893
20
9.234066367131728
30
-1.7347234759768071e-17
0
SPLINE
5
239
100
AcDbEntity
8
0
100
AcDbSpline
70
0
71
2
72
6
73
3
74
0
42
0.000000001
43
0.0000000001
44
0.0000000001
40
0
40
0
40
0
40
1
40
1
40
1
10
112.76923736929893
20
9.234066367131728
30
-1.7347234759768071e-17
10
113.54945740103722
20
8.6516503095450581
30
-1.7347234759768071e-17
10
113.83516868948936
20
7.6846174001517475
30
-1.7347234759768071e-17
0
SPLINE
5
240
100
AcDbEntity
8
0
100
AcDbSpline
70
0
71
2
72
6
73
3
74
0
42
0.000000001
43
0.0000000001
44
0.0000000001
40
0
40
0
40
0
40
1
40
1
40
1
10
113.83516868948936
20
7.6846174001517475
30
-1.7347234759768071e-17
10
114.12087997794151
20
6.717584490758437
30
-1.7347234759768071e-17
10
114.12087997794151
20
4.6516493558707417
30
-1.7347234759768071e-17
0
SPLINE
5
241
100
AcDbEntity
8
0
100
AcDbSpline
70
0
71
2
72
6
73
3
74
0
42
0.000000001
43
0.0000000001
44
0.0000000001
40
0
40
0
40
0
40
1
40
1
40
1
10
114.12087997794151
20
4.6516493558707417
30
-1.7347234759768071e-17
10
114.12087997794151
20
3.3109906911673725
30
-1.7347234759768071e-17
10
114.03846344351768
20
2.6021984815421284
30
-1.7347234759768071e-17
0
SPLINE
5
242
100
AcDbEntity
8
0
100
AcDbSpline
70
0
71
2
72
6
73
3
74
0
42
0.000000001
43
0.0000000001
44
0.0000000001
40
0
40
0
40
0
40
1
40
1
40
1
10
114.03846344351768
20
2.6021984815421284
30
-1.7347234759768071e-17
10
113.95604690909386
20
1.8934086561026753
30
-1.7347234759768071e-17
10
113.72527679800987
20
1.2890127897086323
30
-1.7347234759768071e-17
0
SPLINE
5
243
100
AcDbEntity
8
0
100
AcDbSpline
70
0
71
2
72
6
73
3
74
0
42
0.000000001
43
0.0000000001
44
0.0000000001
40
0
40
0
40
0
40
1
40
1
40
1
10
113.72527679800987
20
1.2890127897086323
30
-1.7347234759768071e-17
10
113.2637365758419
20
0.036263823491591296
30
-1.7347234759768071e-17
10
111.94506248831749
20
-0.4692288637337505
30
-1.7347234759768071e-17
0
SPLINE
5
244
100
AcDbEntity
8
0
100
AcDbSpline
70
0
71
2
72
6
73
3
74
0
42
0.000000001
43
0.0000000001
44
0.0000000001
40
0
40
0
40
0
40
1
40
1
40
1
10
111.94506248831749
20
-0.4692288637337505
30
-1.7347234759768071e-17
10
110.62637886404991
20
-0.97472393514488331
30
-1.7347234759768071e-17
10
107.8351648747921
20
-0.97472393514488331
30
-1.7347234759768071e-17
0
SPLINE
5
245
100
AcDbEntity
8
0
100
AcDbSpline
70
0
71
2
72
6
73
3
74
0
42
0.000000001
43
0.0000000001
44
0.0000000001
40
0
40
0
40
0
40
1
40
1
40
1
10
107.8351648747921
20
-0.97472393514488331
30
-1.7347234759768071e-17
10
105.04396042227745
20
-0.97472393514488331
30
-1.7347234759768071e-17
10
103.98901543021202
20
-0.3373619318184673
30
-1.7347234759768071e-17
0
SPLINE
5
246
100
AcDbEntity
8
0
100
AcDbSpline
70
0
71
2
72
6
73
3
74
0
42
0.000000001
43
0.0000000001
44
0.0000000001
40
0
40
0
40
0
40
1
40
1
40
1
10
103.98901543021202
20
-0.3373619318184673
30
-1.7347234759768071e-17
10
103.51648887991905
20
-0.051648259180527845
30
-1.7347234759768071e-17
10
103.07692608237267
20
0.69560563562538036
30
-1.7347234759768071e-17
0
LINE
5
247
100
AcDbEntity
8
0
100
AcDbLine
10
103.07692608237267
20
0.69560563562538036
30
-1.7347234759768071e-17
11
102.85714706778526
21
0.69560563562538036
31
-1.7347234759768071e-17
0
LINE
5
248
100
AcDbEntity
8
0
100
AcDbLine
10
102.85714706778526
20
0.69560563562538036
30
-1.7347234759768071e-17
11
102.85714706778526
21
-0.69999897481773488
31
-1.7347234759768071e-17
0
LINE
5
249
100
AcDbEntity
8
0
100
AcDbLine
10
102.85714706778526
20
-0.69999897481773488
30
-1.7347234759768071e-17
11
99.109893649816513
21
-0.69999897481773488
31
-1.7347234759768071e-17
0
LINE
5
250
100
AcDbEntity
8
0
100
AcDbLine
10
99.109893649816513
20
-0.69999897481773488
30
-1.7347234759768071e-17
11
99.109893649816513
21
14.300002217275161
31
-1.7347234759768071e-17
0
SPLINE
5
251
100
AcDbEntity
8
0
100
AcDbSpline
70
0
71
2
72
6
73
3
74
0
42
0.000000001
43
0.0000000001
44
0.0000000001
40
0
40
0
40
0
40
1
40
1
40
1
10
106.63736900687218
20
7.2230771779837788
30
-1.7347234759768071e-17
10
104.58242020010948
20
7.2230771779837788
30
-1.7347234759768071e-17
10
103.87912353873253
20
6.8494514226737202
30
-1.7347234759768071e-17
0
SPLINE
5
252
100
AcDbEntity
8
0
100
AcDbSpline
70
0
71
2
72
6
73
3
74
0
42
0.000000001
43
0.0000000001
44
0.0000000001
40
0
40
0
40
0
40
1
40
1
40
1
10
103.87912353873253
20
6.8494514226737202
30
-1.7347234759768071e-17
10
103.42857441306114
20
6.6076925992789448
30
-1.7347234759768071e-17
10
103.2582434117794
20
6.113188624364394
30
-1.7347234759768071e-17
0
SPLINE
5
253
100
AcDbEntity
8
0
100
AcDbSpline
70
0
71
2
72
6
73
3
74
0
42
0.000000001
43
0.0000000001
44
0.0000000001
40
0
40
0
40
0
40
1
40
1
40
1
10
103.2582434117794
20
6.113188624364394
30
-1.7347234759768071e-17
10
103.08791717886925
20
5.6186822652640522
30
-1.7347234759768071e-17
10
103.08791717886925
20
4.5747259855094136
30
-1.7347234759768071e-17
0
SPLINE
5
254
100
AcDbEntity
8
0
100
AcDbSpline
70
0
71
2
72
6
73
3
74
0
42
0.000000001
43
0.0000000001
44
0.0000000001
40
0
40
0
40
0
40
1
40
1
40
1
10
103.08791717886925
20
4.5747259855094136
30
-1.7347234759768071e-17
10
103.08791717886925
20
3.4538487195792378
30
-1.7347234759768071e-17
10
103.29121193289757
20
2.986815333348769
30
-1.7347234759768071e-17
0
SPLINE
5
255
100
AcDbEntity
8
0
100
AcDbSpline
70
0
71
2
72
6
73
3
74
0
42
0.000000001
43
0.0000000001
44
0.0000000001
40
0
40
0
40
0
40
1
40
1
40
1
10
103.29121193289757
20
2.986815333348769
30
-1.7347234759768071e-17
10
103.49451145529747
20
2.5197819471183003
30
-1.7347234759768071e-17
10
104.07692512869835
20
2.32198035715248
30
-1.7347234759768071e-17
0
SPLINE
5
256
100
AcDbEntity
8
0
100
AcDbSpline
70
0
71
2
72
6
73
3
74
0
42
0.000000001
43
0.0000000001
44
0.0000000001
40
0
40
0
40
0
40
1
40
1
40
1
10
104.07692512869835
20
2.32198035715248
30
-1.7347234759768071e-17
10
104.89011368155479
20
2.0252755880179585
30
-1.7347234759768071e-17
10
106.70329651236534
20
2.0252755880179585
30
-1.7347234759768071e-17
0
SPLINE
5
257
100
AcDbEntity
8
0
100
AcDbSpline
70
0
71
2
72
6
73
3
74
0
42
0.000000001
43
0.0000000001
44
0.0000000001
40
0
40
0
40
0
40
1
40
1
40
1
10
106.70329651236534
20
2.0252755880179585
30
-1.7347234759768071e-17
10
108.8022001683712
20
2.0252755880179585
30
-1.7347234759768071e-17
10
109.49451050162315
20
2.4648360013785542
30
-1.7347234759768071e-17
0
SPLINE
5
258
100
AcDbEntity
8
0
100
AcDbSpline
70
0
71
2
72
6
73
3
74
0
42
0.000000001
43
0.0000000001
44
0.0000000001
40
0
40
0
40
0
40
1
40
1
40
1
10
109.49451050162315
20
2.4648360013785542
30
-1.7347234759768071e-17
10
109.85714516043663
20
2.6956061124625386
30
-1.7347234759768071e-17
10
110.00000557303429
20
3.2011011838736714
30
-1.7347234759768071e-17
0
SPLINE
5
259
100
AcDbEntity
8
0
100
AcDbSpline
70
0
71
2
72
6
73
3
74
0
42
0.000000001
43
0.0000000001
44
0.0000000001
40
0
40
0
40
0
40
1
40
1
40
1
10
110.00000557303429
20
3.2011011838736714
30
-1.7347234759768071e-17
10
110.14286598563194
20
3.7065938710990132
30
-1.7347234759768071e-17
10
110.14286598563194
20
4.7175840139212788
30
-1.7347234759768071e-17
0
SPLINE
5
260
100
AcDbEntity
8
0
100
AcDbSpline
70
0
71
2
72
6
73
3
74
0
42
0.000000001
43
0.0000000001
44
0.0000000001
40
0
40
0
40
0
40
1
40
1
40
1
10
110.14286598563194
20
4.7175840139212788
30
-1.7347234759768071e-17
10
110.14286598563194
20
5.7725290059867085
30
-1.7347234759768071e-17
10
109.95055755972862
20
6.2340668439688862
30
-1.7347234759768071e-17
0
SPLINE
5
261
100
AcDbEntity
8
0
100
AcDbSpline
70
0
71
2
72
6
73
3
74
0
42
0.000000001
43
0.0000000001
44
0.0000000001
40
0
40
0
40
0
40
1
40
1
40
1
10
109.95055755972862
20
6.2340668439688862
30
-1.7347234759768071e-17
10
109.7582491338253
20
6.695604681951064
30
-1.7347234759768071e-17
10
109.23077186942101
20
6.9043973684134663
30
-1.7347234759768071e-17
0
SPLINE
5
262
100
AcDbEntity
8
0
100
AcDbSpline
70
0
71
2
72
6
73
3
74
0
42
0.000000001
43
0.0000000001
44
0.0000000001
40
0
40
0
40
0
40
1
40
1
40
1
10
109.23077186942101
20
6.9043973684134663
30
-1.7347234759768071e-17
10
108.43956550955772
20
7.2230771779837788
30
-1.7347234759768071e-17
10
106.63736900687218
20
7.2230771779837788
30
-1.7347234759768071e-17
0
LINE
5
263
100
AcDbEntity
8
0
100
AcDbLine
10
129.95605072379112
20
-0.69999897481773488
30
-1.7347234759768071e-17
11
126.20879730582237
21
-0.69999897481773488
31
-1.7347234759768071e-17
0
LINE
5
264
100
AcDbEntity
8
0
100
AcDbLine
10
126.20879730582237
20
-0.69999897481773488
30
-1.7347234759768071e-17
11
126.20879730582237
21
0.89340722559120067
31
-1.7347234759768071e-17
0
LINE
5
265
100
AcDbEntity
8
0
100
AcDbLine
10
126.20879730582237
20
0.89340722559120067
30
-1.7347234759768071e-17
11
126.01099571585655
21
0.89340722559120067
31
-1.7347234759768071e-17
0
SPLINE
5
266
100
AcDbEntity
8
0
100
AcDbSpline
70
0
71
2
72
6
73
3
74
0
42
0.000000001
43
0.0000000001
44
0.0000000001
40
0
40
0
40
0
40
1
40
1
40
1
10
126.01099571585655
20
0.89340722559120067
30
-1.7347234759768071e-17
10
125.53846916556358
20
-0.12856924535606495
30
-1.7347234759768071e-17
10
124.50550636649132
20
-0.55164778234336964
30
-1.7347234759768071e-17
0
SPLINE
5
267
100
AcDbEntity
8
0
100
AcDbSpline
70
0
71
2
72
6
73
3
74
0
42
0.000000001
43
0.0000000001
44
0.0000000001
40
0
40
0
40
0
40
1
40
1
40
1
10
124.50550636649132
20
-0.55164778234336964
30
-1.7347234759768071e-17
10
123.47253403067589
20
-0.97472393514488331
30
-1.7347234759768071e-17
10
121.45055374503136
20
-0.97472393514488331
30
-1.7347234759768071e-17
0
SPLINE
5
268
100
AcDbEntity
8
0
100
AcDbSpline
70
0
71
2
72
6
73
3
74
0
42
0.000000001
43
0.0000000001
44
0.0000000001
40
0
40
0
40
0
40
1
40
1
40
1
10
121.45055374503136
20
-0.97472393514488331
30
-1.7347234759768071e-17
10
119.60440239310265
20
-0.97472393514488331
30
-1.7347234759768071e-17
10
118.51648887991905
20
-0.66703283788536183
30
-1.7347234759768071e-17
0
SPLINE
5
269
100
AcDbEntity
8
0
100
AcDbSpline
70
0
71
2
72
6
73
3
74
0
42
0.000000001
43
0.0000000001
44
0.0000000001
40
0
40
0
40
0
40
1
40
1
40
1
10
118.51648887991905
20
-0.66703283788536183
30
-1.7347234759768071e-17
10
117.42857536673546
20
-0.35933935644004933
30
-1.7347234759768071e-17
10
116.71429237723351
20
0.36593472955848583
30
-1.7347234759768071e-17
0
SPLINE
5
270
100
AcDbEntity
8
0
100
AcDbSpline
70
0
71
2
72
6
73
3
74
0
42
0.000000001
43
0.0000000001
44
0.0000000001
40
0
40
0
40
0
40
1
40
1
40
1
10
116.71429237723351
20
0.36593472955848583
30
-1.7347234759768071e-17
10
115.98902305960655
20
1.113188624364394
30
-1.7347234759768071e-17
10
115.76374611258507
20
2.0087937116446675
30
-1.7347234759768071e-17
0
SPLINE
5
271
100
AcDbEntity
8
0
100
AcDbSpline
70
0
71
2
72
6
73
3
74
0
42
0.000000001
43
0.0000000001
44
0.0000000001
40
0
40
0
40
0
40
1
40
1
40
1
10
115.76374611258507
20
2.0087937116446675
30
-1.7347234759768071e-17
10
115.53846916556358
20
2.9043964147391499
30
-1.7347234759768071e-17
10
115.53846916556358
20
5.0802210569205464
30
-1.7347234759768071e-17
0
LINE
5
272
100
AcDbEntity
8
0
100
AcDbLine
10
115.53846916556358
20
5.0802210569205464
30
-1.7347234759768071e-17
11
115.53846916556358
21
9.9483517408194722
31
-1.7347234759768071e-17
0
LINE
5
273
100
AcDbEntity
8
0
100
AcDbLine
10
115.53846916556358
20
9.9483517408194722
30
-1.7347234759768071e-17
11
119.51649269461632
21
9.9483517408194722
31
-1.7347234759768071e-17
0
LINE
5
274
100
AcDbEntity
8
0
100
AcDbLine
10
119.51649269461632
20
9.9483517408194722
30
-1.7347234759768071e-17
11
119.51649269461632
21
5.0802210569205464
31
-1.7347234759768071e-17
0
SPLINE
5
275
100
AcDbEntity
8
0
100
AcDbSpline
70
0
71
2
72
6
73
3
74
0
42
0.000000001
43
0.0000000001
44
0.0000000001
40
0
40
0
40
0
40
1
40
1
40
1
10
119.51649269461632
20
5.0802210569205464
30
-1.7347234759768071e-17
10
119.51649269461632
20
3.9153865575614155
30
-1.7347234759768071e-17
10
119.62638458609581
20
3.4208801984610737
30
-1.7347234759768071e-17
0
SPLINE
5
276
100
AcDbEntity
8
0
100
AcDbSpline
70
0
71
2
72
6
73
3
74
0
42
0.000000001
43
0.0000000001
44
0.0000000001
40
0
40
0
40
0
40
1
40
1
40
1
10
119.62638458609581
20
3.4208801984610737
30
-1.7347234759768071e-17
10
119.73626694083214
20
2.9263738393607319
30
-1.7347234759768071e-17
10
120.06594261527061
20
2.6076940297904194
30
-1.7347234759768071e-17
0
SPLINE
5
277
100
AcDbEntity
8
0
100
AcDbSpline
70
0
71
2
72
6
73
3
74
0
42
0.000000001
43
0.0000000001
44
0.0000000001
40
0
40
0
40
0
40
1
40
1
40
1
10
120.06594261527061
20
2.6076940297904194
30
-1.7347234759768071e-17
10
120.40660461783409
20
2.2780231237235249
30
-1.7347234759768071e-17
10
120.95605453848839
20
2.1516493558707417
30
-1.7347234759768071e-17
0
SPLINE
5
278
100
AcDbEntity
8
0
100
AcDbSpline
70
0
71
2
72
6
73
3
74
0
42
0.000000001
43
0.0000000001
44
0.0000000001
40
0
40
0
40
0
40
1
40
1
40
1
10
120.95605453848839
20
2.1516493558707417
30
-1.7347234759768071e-17
10
121.50550445914268
20
2.0252755880179585
30
-1.7347234759768071e-17
10
122.64835914969444
20
2.0252755880179585
30
-1.7347234759768071e-17
0
SPLINE
5
279
100
AcDbEntity
8
0
100
AcDbSpline
70
0
71
2
72
6
73
3
74
0
42
0.000000001
43
0.0000000001
44
0.0000000001
40
0
40
0
40
0
40
1
40
1
40
1
10
122.64835914969444
20
2.0252755880179585
30
-1.7347234759768071e-17
10
124.58242973685265
20
2.0252755880179585
30
-1.7347234759768071e-17
10
125.27473053336143
20
2.6186827421012104
30
-1.7347234759768071e-17
0
SPLINE
5
280
100
AcDbEntity
8
0
100
AcDbSpline
70
0
71
2
72
6
73
3
74
0
42
0.000000001
43
0.0000000001
44
0.0000000001
40
0
40
0
40
0
40
1
40
1
40
1
10
125.27473053336143
20
2.6186827421012104
30
-1.7347234759768071e-17
10
125.70330223441124
20
2.992308497411269
30
-1.7347234759768071e-17
10
125.8406694829464
20
3.58022010324623
30
-1.7347234759768071e-17
0
SPLINE
5
281
100
AcDbEntity
8
0
100
AcDbSpline
70
0
71
2
72
6
73
3
74
0
42
0.000000001
43
0.0000000001
44
0.0000000001
40
0
40
0
40
0
40
1
40
1
40
1
10
125.8406694829464
20
3.58022010324623
30
-1.7347234759768071e-17
10
125.97802719473839
20
4.1681340932669819
30
-1.7347234759768071e-17
10
125.97802719473839
20
5.6626394986930073
30
-1.7347234759768071e-17
0
LINE
5
282
100
AcDbEntity
8
0
100
AcDbLine
10
125.97802719473839
20
5.6626394986930073
30
-1.7347234759768071e-17
11
125.97802719473839
21
9.9483517408194722
31
-1.7347234759768071e-17
0
LINE
5
283
100
AcDbEntity
8
0
100
AcDbLine
10
125.97802719473839
20
9.9483517408194722
30
-1.7347234759768071e-17
11
129.95605072379112
21
9.9483517408194722
31
-1.7347234759768071e-17
0
LINE
5
284
100
AcDbEntity
8
0
100
AcDbLine
10
129.95605072379112
20
9.9483517408194722
30
-1.7347234759768071e-17
11
129.95605072379112
21
-0.69999897481773488
31
-1.7347234759768071e-17
0
LINE
5
285
100
AcDbEntity
8
0
100
AcDbLine
10
132.95605263113976
20
12.398902535420913
30
-1.7347234759768071e-17
11
136.93407616019249
21
12.398902535420913
31
-1.7347234759768071e-17
0
LINE
5
286
100
AcDbEntity
8
0
100
AcDbLine
10
136.93407616019249
20
12.398902535420913
30
-1.7347234759768071e-17
11
136.93407616019249
21
9.9483517408194722
31
-1.7347234759768071e-17
0
LINE
5
287
100
AcDbEntity
8
0
100
AcDbLine
10
136.93407616019249
20
9.9483517408194722
30
-1.7347234759768071e-17
11
143.2307775914669
21
9.9483517408194722
31
-1.7347234759768071e-17
0
LINE
5
288
100
AcDbEntity
8
0
100
AcDbLine
10
143.2307775914669
20
9.9483517408194722
30
-1.7347234759768071e-17
11
143.2307775914669
21
7.1021989583792866
31
-1.7347234759768071e-17
0
LINE
5
289
100
AcDbEntity
8
0
100
AcDbLine
10
143.2307775914669
20
7.1021989583792866
30
-1.7347234759768071e-17
11
136.93407616019249
21
7.1021989583792866
31
-1.7347234759768071e-17
0
LINE
5
290
100
AcDbEntity
8
0
100
AcDbLine
10
136.93407616019249
20
7.1021989583792866
30
-1.7347234759768071e-17
11
136.93407616019249
21
4.0032986402335347
31
-1.7347234759768071e-17
0
SPLINE
5
291
100
AcDbEntity
8
0
100
AcDbSpline
70
0
71
2
72
6
73
3
74
0
42
0.000000001
43
0.0000000001
44
0.0000000001
40
0
40
0
40
0
40
1
40
1
40
1
10
136.93407616019249
20
4.0032986402335347
30
-1.7347234759768071e-17
10
136.93407616019249
20
2.7505496740164936
30
-1.7347234759768071e-17
10
137.10989555716515
20
2.4318698644461811
30
-1.7347234759768071e-17
0
SPLINE
5
292
100
AcDbEntity
8
0
100
AcDbSpline
70
0
71
2
72
6
73
3
74
0
42
0.000000001
43
0.0000000001
44
0.0000000001
40
0
40
0
40
0
40
1
40
1
40
1
10
137.10989555716515
20
2.4318698644461811
30
-1.7347234759768071e-17
10
137.40660271048546
20
1.8824175596060932
30
-1.7347234759768071e-17
10
138.51648887991905
20
1.8824175596060932
30
-1.7347234759768071e-17
0
SPLINE
5
293
100
AcDbEntity
8
0
100
AcDbSpline
70
0
71
2
72
6
73
3
74
0
42
0.000000001
43
0.0000000001
44
0.0000000001
40
0
40
0
40
0
40
1
40
1
40
1
10
138.51648887991905
20
1.8824175596060932
30
-1.7347234759768071e-17
10
139.67033943533897
20
1.8824175596060932
30
-1.7347234759768071e-17
10
139.94506439566612
20
2.4098900556388081
30
-1.7347234759768071e-17
0
SPLINE
5
294
100
AcDbEntity
8
0
100
AcDbSpline
70
0
71
2
72
6
73
3
74
0
42
0.000000001
43
0.0000000001
44
0.0000000001
40
0
40
0
40
0
40
1
40
1
40
1
10
139.94506439566612
20
2.4098900556388081
30
-1.7347234759768071e-17
10
140.05495628714561
20
2.6186827421012104
30
-1.7347234759768071e-17
10
140.07692894339561
20
2.8219798803153218
30
-1.7347234759768071e-17
0
SPLINE
5
295
100
AcDbEntity
8
0
100
AcDbSpline
70
0
71
2
72
6
73
3
74
0
42
0.000000001
43
0.0000000001
44
0.0000000001
40
0
40
0
40
0
40
1
40
1
40
1
10
140.07692894339561
20
2.8219798803153218
30
-1.7347234759768071e-17
10
140.09891113638878
20
3.0252770185294331
30
-1.7347234759768071e-17
10
140.09891113638878
20
3.8604406118216694
30
-1.7347234759768071e-17
0
LINE
5
296
100
AcDbEntity
8
0
100
AcDbLine
10
140.09891113638878
20
3.8604406118216694
30
-1.7347234759768071e-17
11
143.73627266287804
21
3.8604406118216694
31
-1.7347234759768071e-17
0
SPLINE
5
297
100
AcDbEntity
8
0
100
AcDbSpline
70
0
71
2
72
6
73
3
74
0
42
0.000000001
43
0.0000000001
44
0.0000000001
40
0
40
0
40
0
40
1
40
1
40
1
10
143.73627266287804
20
3.8604406118216694
30
-1.7347234759768071e-17
10
143.71429046988487
20
2.332969069463271
30
-1.7347234759768071e-17
10
143.55495056509972
20
1.6516498327078999
30
-1.7347234759768071e-17
0
SPLINE
5
298
100
AcDbEntity
8
0
100
AcDbSpline
70
0
71
2
72
6
73
3
74
0
42
0.000000001
43
0.0000000001
44
0.0000000001
40
0
40
0
40
0
40
1
40
1
40
1
10
143.55495056509972
20
1.6516498327078999
30
-1.7347234759768071e-17
10
143.39561066031456
20
0.9703305959525288
30
-1.7347234759768071e-17
10
142.93407043814659
20
0.38791215418006786
30
-1.7347234759768071e-17
0
SPLINE
5
299
100
AcDbEntity
8
0
100
AcDbSpline
70
0
71
2
72
6
73
3
74
0
42
0.000000001
43
0.0000000001
44
0.0000000001
40
0
40
0
40
0
40
1
40
1
40
1
10
142.93407043814659
20
0.38791215418006786
30
-1.7347234759768071e-17
10
142.34066566824913
20
-0.37032806875084034
30
-1.7347234759768071e-17
10
141.2912138402462
20
-0.67252600194786183
30
-1.7347234759768071e-17
0
SPLINE
5
300
100
AcDbEntity
8
0
100
AcDbSpline
70
0
71
2
72
6
73
3
74
0
42
0.000000001
43
0.0000000001
44
0.0000000001
40
0
40
0
40
0
40
1
40
1
40
1
10
141.2912138402462
20
-0.67252600194786183
30
-1.7347234759768071e-17
10
140.24176201224327
20
-0.97472393514488331
30
-1.7347234759768071e-17
10
138.17582687735558
20
-0.97472393514488331
30
-1.7347234759768071e-17
0
SPLINE
5
301
100
AcDbEntity
8
0
100
AcDbSpline
70
0
71
2
72
6
73
3
74
0
42
0.000000001
43
0.0000000001
44
0.0000000001
40
0
40
0
40
0
40
1
40
1
40
1
10
138.17582687735558
20
-0.97472393514488331
30
-1.7347234759768071e-17
10
136.26373848319054
20
-0.97472393514488331
30
-1.7347234759768071e-17
10
135.33517441153526
20
-0.76593363286827199
30
-1.7347234759768071e-17
0
SPLINE
5
302
100
AcDbEntity
8
0
100
AcDbSpline
70
0
71
2
72
6
73
3
74
0
42
0.000000001
43
0.0000000001
44
0.0000000001
40
0
40
0
40
0
40
1
40
1
40
1
10
135.33517441153526
20
-0.76593363286827199
30
-1.7347234759768071e-17
10
134.40660080313683
20
-0.55714094640586964
30
-1.7347234759768071e-17
10
133.82418236136436
20
0.014286398870009265
30
-1.7347234759768071e-17
0
SPLINE
5
303
100
AcDbEntity
8
0
100
AcDbSpline
70
0
71
2
72
6
73
3
74
0
42
0.000000001
43
0.0000000001
44
0.0000000001
40
0
40
0
40
0
40
1
40
1
40
1
10
133.82418236136436
20
0.014286398870009265
30
-1.7347234759768071e-17
10
133.39561066031456
20
0.43186938760902294
30
-1.7347234759768071e-17
10
133.20879539847374
20
0.92637574670936473
30
-1.7347234759768071e-17
0
SPLINE
5
304
100
AcDbEntity
8
0
100
AcDbSpline
70
0
71
2
72
6
73
3
74
0
42
0.000000001
43
0.0000000001
44
0.0000000001
40
0
40
0
40
0
40
1
40
1
40
1
10
133.20879539847374
20
0.92637574670936473
30
-1.7347234759768071e-17
10
133.02198013663292
20
1.4208797216239155
30
-1.7347234759768071e-17
10
132.97802528738976
20
2.2890118360343159
30
-1.7347234759768071e-17
0
SPLINE
5
305
100
AcDbEntity
8
0
100
AcDbSpline
70
0
71
2
72
6
73
3
74
0
42
0.000000001
43
0.0000000001
44
0.0000000001
40
0
40
0
40
0
40
1
40
1
40
1
10
132.97802528738976
20
2.2890118360343159
30
-1.7347234759768071e-17
10
132.95605263113976
20
2.6076940297904194
30
-1.7347234759768071e-17
10
132.95605263113976
20
4.0032986402335347
30
-1.7347234759768071e-17
0
LINE
5
306
100
AcDbEntity
8
0
100
AcDbLine
10
132.95605263113976
20
4.0032986402335347
30
-1.7347234759768071e-17
11
132.95605263113976
21
7.1021989583792866
31
-1.7347234759768071e-17
0
LINE
5
307
100
AcDbEntity
8
0
100
AcDbLine
10
132.95605263113976
20
7.1021989583792866
30
-1.7347234759768071e-17
11
130.8571489751339
21
7.1021989583792866
31
-1.7347234759768071e-17
0
LINE
5
308
100
AcDbEntity
8
0
100
AcDbLine
10
130.8571489751339
20
7.1021989583792866
30
-1.7347234759768071e-17
11
130.8571489751339
21
9.9483517408194722
31
-1.7347234759768071e-17
0
LINE
5
309
100
AcDbEntity
8
0
100
AcDbLine
10
130.8571489751339
20
9.9483517408194722
30
-1.7347234759768071e-17
11
132.95605263113976
21
9.9483517408194722
31
-1.7347234759768071e-17
0
LINE
5
310
100
AcDbEntity
8
0
100
AcDbLine
10
132.95605263113976
20
9.9483517408194722
30
-1.7347234759768071e-17
11
132.95605263113976
21
12.398902535420913
31
-1.7347234759768071e-17
0
LINE
5
311
100
AcDbEntity
8
0
100
AcDbLine
10
145.98902305960655
20
12.398902535420913
30
-1.7347234759768071e-17
11
149.96704658865929
21
12.398902535420913
31
-1.7347234759768071e-17
0
LINE
5
312
100
AcDbEntity
8
0
100
AcDbLine
10
149.96704658865929
20
12.398902535420913
30
-1.7347234759768071e-17
11
149.96704658865929
21
9.9483517408194722
31
-1.7347234759768071e-17
0
LINE
5
313
100
AcDbEntity
8
0
100
AcDbLine
10
149.96704658865929
20
9.9483517408194722
30
-1.7347234759768071e-17
11
156.2637480199337
21
9.9483517408194722
31
-1.7347234759768071e-17
0
LINE
5
314
100
AcDbEntity
8
0
100
AcDbLine
10
156.2637480199337
20
9.9483517408194722
30
-1.7347234759768071e-17
11
156.2637480199337
21
7.1021989583792866
31
-1.7347234759768071e-17
0
LINE
5
315
100
AcDbEntity
8
0
100
AcDbLine
10
156.2637480199337
20
7.1021989583792866
30
-1.7347234759768071e-17
11
149.96704658865929
21
7.1021989583792866
31
-1.7347234759768071e-17
0
LINE
5
316
100
AcDbEntity
8
0
100
AcDbLine
10
149.96704658865929
20
7.1021989583792866
30
-1.7347234759768071e-17
11
149.96704658865929
21
4.0032986402335347
31
-1.7347234759768071e-17
0
SPLINE
5
317
100
AcDbEntity
8
0
100
AcDbSpline
70
0
71
2
72
6
73
3
74
0
42
0.000000001
43
0.0000000001
44
0.0000000001
40
0
40
0
40
0
40
1
40
1
40
1
10
149.96704658865929
20
4.0032986402335347
30
-1.7347234759768071e-17
10
149.96704658865929
20
2.7505496740164936
30
-1.7347234759768071e-17
10
150.14286598563194
20
2.4318698644461811
30
-1.7347234759768071e-17
0
SPLINE
5
318
100
AcDbEntity
8
0
100
AcDbSpline
70
0
71
2
72
6
73
3
74
0
42
0.000000001
43
0.0000000001
44
0.0000000001
40
0
40
0
40
0
40
1
40
1
40
1
10
150.14286598563194
20
2.4318698644461811
30
-1.7347234759768071e-17
10
150.43957313895226
20
1.8824175596060932
30
-1.7347234759768071e-17
10
151.54945930838585
20
1.8824175596060932
30
-1.7347234759768071e-17
0
SPLINE
5
319
100
AcDbEntity
8
0
100
AcDbSpline
70
0
71
2
72
6
73
3
74
0
42
0.000000001
43
0.0000000001
44
0.0000000001
40
0
40
0
40
0
40
1
40
1
40
1
10
151.54945930838585
20
1.8824175596060932
30
-1.7347234759768071e-17
10
152.70330986380577
20
1.8824175596060932
30
-1.7347234759768071e-17
10
152.97803482413292
20
2.4098900556388081
30
-1.7347234759768071e-17
0
SPLINE
5
320
100
AcDbEntity
8
0
100
AcDbSpline
70
0
71
2
72
6
73
3
74
0
42
0.000000001
43
0.0000000001
44
0.0000000001
40
0
40
0
40
0
40
1
40
1
40
1
10
152.97803482413292
20
2.4098900556388081
30
-1.7347234759768071e-17
10
153.08792671561241
20
2.6186827421012104
30
-1.7347234759768071e-17
10
153.10989937186241
20
2.8219798803153218
30
-1.7347234759768071e-17
0
SPLINE
5
321
100
AcDbEntity
8
0
100
AcDbSpline
70
0
71
2
72
6
73
3
74
0
42
0.000000001
43
0.0000000001
44
0.0000000001
40
0
40
0
40
0
40
1
40
1
40
1
10
153.10989937186241
20
2.8219798803153218
30
-1.7347234759768071e-17
10
153.13188156485558
20
3.0252770185294331
30
-1.7347234759768071e-17
10
153.13188156485558
20
3.8604406118216694
30
-1.7347234759768071e-17
0
LINE
5
322
100
AcDbEntity
8
0
100
AcDbLine
10
153.13188156485558
20
3.8604406118216694
30
-1.7347234759768071e-17
11
156.76924309134483
21
3.8604406118216694
31
-1.7347234759768071e-17
0
SPLINE
5
323
100
AcDbEntity
8
0
100
AcDbSpline
70
0
71
2
72
6
73
3
74
0
42
0.000000001
43
0.0000000001
44
0.0000000001
40
0
40
0
40
0
40
1
40
1
40
1
10
156.76924309134483
20
3.8604406118216694
30
-1.7347234759768071e-17
10
156.74726089835167
20
2.332969069463271
30
-1.7347234759768071e-17
10
156.58792099356651
20
1.6516498327078999
30
-1.7347234759768071e-17
0
SPLINE
5
324
100
AcDbEntity
8
0
100
AcDbSpline
70
0
71
2
72
6
73
3
74
0
42
0.000000001
43
0.0000000001
44
0.0000000001
40
0
40
0
40
0
40
1
40
1
40
1
10
156.58792099356651
20
1.6516498327078999
30
-1.7347234759768071e-17
10
156.42858108878136
20
0.9703305959525288
30
-1.7347234759768071e-17
10
155.96704086661339
20
0.38791215418006786
30
-1.7347234759768071e-17
0
SPLINE
5
325
100
AcDbEntity
8
0
100
AcDbSpline
70
0
71
2
72
6
73
3
74
0
42
0.000000001
43
0.0000000001
44
0.0000000001
40
0
40
0
40
0
40
1
40
1
40
1
10
155.96704086661339
20
0.38791215418006786
30
-1.7347234759768071e-17
10
155.37363609671593
20
-0.37032806875084034
30
-1.7347234759768071e-17
10
154.324184268713
20
-0.67252600194786183
30
-1.7347234759768071e-17
0
SPLINE
5
326
100
AcDbEntity
8
0
100
AcDbSpline
70
0
71
2
72
6
73
3
74
0
42
0.000000001
43
0.0000000001
44
0.0000000001
40
0
40
0
40
0
40
1
40
1
40
1
10
154.324184268713
20
-0.67252600194786183
30
-1.7347234759768071e-17
10
153.27473244071007
20
-0.97472393514488331
30
-1.7347234759768071e-17
10
151.20879730582237
20
-0.97472393514488331
30
-1.7347234759768071e-17
0
SPLINE
5
327
100
AcDbEntity
8
0
100
AcDbSpline
70
0
71
2
72
6
73
3
74
0
42
0.000000001
43
0.0000000001
44
0.0000000001
40
0
40
0
40
0
40
1
40
1
40
1
10
151.20879730582237
20
-0.97472393514488331
30
-1.7347234759768071e-17
10
149.29670891165733
20
-0.97472393514488331
30
-1.7347234759768071e-17
10
148.36814484000206
20
-0.76593363286827199
30
-1.7347234759768071e-17
0
SPLINE
5
328
100
AcDbEntity
8
0
100
AcDbSpline
70
0
71
2
72
6
73
3
74
0
42
0.000000001
43
0.0000000001
44
0.0000000001
40
0
40
0
40
0
40
1
40
1
40
1
10
148.36814484000206
20
-0.76593363286827199
30
-1.7347234759768071e-17
10
147.43957123160362
20
-0.55714094640586964
30
-1.7347234759768071e-17
10
146.85715278983116
20
0.014286398870009265
30
-1.7347234759768071e-17
0
SPLINE
5
329
100
AcDbEntity
8
0
100
AcDbSpline
70
0
71
2
72
6
73
3
74
0
42
0.000000001
43
0.0000000001
44
0.0000000001
40
0
40
0
40
0
40
1
40
1
40
1
10
146.85715278983116
20
0.014286398870009265
30
-1.7347234759768071e-17
10
146.42858108878136
20
0.43186938760902294
30
-1.7347234759768071e-17
10
146.24176582694054
20
0.92637574670936473
30
-1.7347234759768071e-17
0
SPLINE
5
330
100
AcDbEntity
8
0
100
AcDbSpline
70
0
71
2
72
6
73
3
74
0
42
0.000000001
43
0.0000000001
44
0.0000000001
40
0
40
0
40
0
40
1
40
1
40
1
10
146.24176582694054
20
0.92637574670936473
30
-1.7347234759768071e-17
10
146.05495056509972
20
1.4208797216239155
30
-1.7347234759768071e-17
10
146.01099571585655
20
2.2890118360343159
30
-1.7347234759768071e-17
0
SPLINE
5
331
100
AcDbEntity
8
0
100
AcDbSpline
70
0
71
2
72
6
73
3
74
0
42
0.000000001
43
0.0000000001
44
0.0000000001
40
0
40
0
40
0
40
1
40
1
40
1
10
146.01099571585655
20
2.2890118360343159
30
-1.7347234759768071e-17
10
145.98902305960655
20
2.6076940297904194
30
-1.7347234759768071e-17
10
145.98902305960655
20
4.0032986402335347
30
-1.7347234759768071e-17
0
LINE
5
332
100
AcDbEntity
8
0
100
AcDbLine
10
145.98902305960655
20
4.0032986402335347
30
-1.7347234759768071e-17
11
145.98902305960655
21
7.1021989583792866
31
-1.7347234759768071e-17
0
LINE
5
333
100
AcDbEntity
8
0
100
AcDbLine
10
145.98902305960655
20
7.1021989583792866
30
-1.7347234759768071e-17
11
143.89011940360069
21
7.1021989583792866
31
-1.7347234759768071e-17
0
LINE
5
334
100
AcDbEntity
8
0
100
AcDbLine
10
143.89011940360069
20
7.1021989583792866
30
-1.7347234759768071e-17
11
143.89011940360069
21
9.9483517408194722
31
-1.7347234759768071e-17
0
LINE
5
335
100
AcDbEntity
8
0
100
AcDbLine
10
143.89011940360069
20
9.9483517408194722
30
-1.7347234759768071e-17
11
145.98902305960655
21
9.9483517408194722
31
-1.7347234759768071e-17
0
LINE
5
336
100
AcDbEntity
8
0
100
AcDbLine
10
145.98902305960655
20
9.9483517408194722
30
-1.7347234759768071e-17
11
145.98902305960655
21
12.398902535420913
31
-1.7347234759768071e-17
0
SPLINE
5
337
100
AcDbEntity
8
0
100
AcDbSpline
70
0
71
2
72
6
73
3
74
0
42
0.000000001
43
0.0000000001
44
0.0000000001
40
0
40
0
40
0
40
1
40
1
40
1
10
165.24176201224327
20
10.223079085332412
30
-1.7347234759768071e-17
10
167.95605263113976
20
10.223079085332412
30
-1.7347234759768071e-17
10
169.30220207571983
20
10.008793234807509
30
-1.7347234759768071e-17
0
SPLINE
5
338
100
AcDbEntity
8
0
100
AcDbSpline
70
0
71
2
72
6
73
3
74
0
42
0.000000001
43
0.0000000001
44
0.0000000001
40
0
40
0
40
0
40
1
40
1
40
1
10
169.30220207571983
20
10.008793234807509
30
-1.7347234759768071e-17
10
170.64835152029991
20
9.7945073842826069
30
-1.7347234759768071e-17
10
171.40659889578819
20
9.245055079442519
30
-1.7347234759768071e-17
0
SPLINE
5
339
100
AcDbEntity
8
0
100
AcDbSpline
70
0
71
2
72
6
73
3
74
0
42
0.000000001
43
0.0000000001
44
0.0000000001
40
0
40
0
40
0
40
1
40
1
40
1
10
171.40659889578819
20
9.245055079442519
30
-1.7347234759768071e-17
10
172.19780525565147
20
8.6736277341666401
30
-1.7347234759768071e-17
10
172.48352608084679
20
7.7505520582022847
30
-1.7347234759768071e-17
0
SPLINE
5
340
100
AcDbEntity
8
0
100
AcDbSpline
70
0
71
2
72
6
73
3
74
0
42
0.000000001
43
0.0000000001
44
0.0000000001
40
0
40
0
40
0
40
1
40
1
40
1
10
172.48352608084679
20
7.7505520582022847
30
-1.7347234759768071e-17
10
172.76923736929893
20
6.8274739980521382
30
-1.7347234759768071e-17
10
172.76923736929893
20
4.82747352121498
30
-1.7347234759768071e-17
0
SPLINE
5
341
100
AcDbEntity
8
0
100
AcDbSpline
70
0
71
2
72
6
73
3
74
0
42
0.000000001
43
0.0000000001
44
0.0000000001
40
0
40
0
40
0
40
1
40
1
40
1
10
172.76923736929893
20
4.82747352121498
30
-1.7347234759768071e-17
10
172.76923736929893
20
3.3439568280997456
30
-1.7347234759768071e-17
10
172.68682083487511
20
2.6021984815421284
30
-1.7347234759768071e-17
0
SPLINE
5
342
100
AcDbEntity
8
0
100
AcDbSpline
70
0
71
2
72
6
73
3
74
0
42
0.000000001
43
0.0000000001
44
0.0000000001
40
0
40
0
40
0
40
1
40
1
40
1
10
172.68682083487511
20
2.6021984815421284
30
-1.7347234759768071e-17
10
172.60439476370811
20
1.8604401349845112
30
-1.7347234759768071e-17
10
172.38462051749229
20
1.2670353650870503
30
-1.7347234759768071e-17
0
SPLINE
5
343
100
AcDbEntity
8
0
100
AcDbSpline
70
0
71
2
72
6
73
3
74
0
42
0.000000001
43
0.0000000001
44
0.0000000001
40
0
40
0
40
0
40
1
40
1
40
1
10
172.38462051749229
20
1.2670353650870503
30
-1.7347234759768071e-17
10
171.81318840384483
20
-0.22747242452476613
30
-1.7347234759768071e-17
10
170.06594261527061
20
-0.63406431676719777
30
-1.7347234759768071e-17
0
SPLINE
5
344
100
AcDbEntity
8
0
100
AcDbSpline
70
0
71
2
72
6
73
3
74
0
42
0.000000001
43
0.0000000001
44
0.0000000001
40
0
40
0
40
0
40
1
40
1
40
1
10
170.06594261527061
20
-0.63406431676719777
30
-1.7347234759768071e-17
10
168.61538490653038
20
-0.97472393514488331
30
-1.7347234759768071e-17
10
165.25274834036827
20
-0.97472393514488331
30
-1.7347234759768071e-17
0
SPLINE
5
345
100
AcDbEntity
8
0
100
AcDbSpline
70
0
71
2
72
6
73
3
74
0
42
0.000000001
43
0.0000000001
44
0.0000000001
40
0
40
0
40
0
40
1
40
1
40
1
10
165.25274834036827
20
-0.97472393514488331
30
-1.7347234759768071e-17
10
162.2747286260128
20
-0.97472393514488331
30
-1.7347234759768071e-17
10
160.98901352286339
20
-0.76043808461998097
30
-1.7347234759768071e-17
0
SPLINE
5
346
100
AcDbEntity
8
0
100
AcDbSpline
70
0
71
2
72
6
73
3
74
0
42
0.000000001
43
0.0000000001
44
0.0000000001
40
0
40
0
40
0
40
1
40
1
40
1
10
160.98901352286339
20
-0.76043808461998097
30
-1.7347234759768071e-17
10
159.70329841971397
20
-0.54615223409507863
30
-1.7347234759768071e-17
10
158.93407425284386
20
0.09120976923133739
30
-1.7347234759768071e-17
0
SPLINE
5
347
100
AcDbEntity
8
0
100
AcDbSpline
70
0
71
2
72
6
73
3
74
0
42
0.000000001
43
0.0000000001
44
0.0000000001
40
0
40
0
40
0
40
1
40
1
40
1
10
158.93407425284386
20
0.09120976923133739
30
-1.7347234759768071e-17
10
158.19780907034874
20
0.69560563562538036
30
-1.7347234759768071e-17
10
157.95054993033409
20
1.6736272573294819
30
-1.7347234759768071e-17
0
SPLINE
5
348
100
AcDbEntity
8
0
100
AcDbSpline
70
0
71
2
72
6
73
3
74
0
42
0.000000001
43
0.0000000001
44
0.0000000001
40
0
40
0
40
0
40
1
40
1
40
1
10
157.95054993033409
20
1.6736272573294819
30
-1.7347234759768071e-17
10
157.70330032706261
20
2.6516488790335835
30
-1.7347234759768071e-17
10
157.70330032706261
20
4.9703315496268452
30
-1.7347234759768071e-17
0
SPLINE
5
349
100
AcDbEntity
8
0
100
AcDbSpline
70
0
71
2
72
6
73
3
74
0
42
0.000000001
43
0.0000000001
44
0.0000000001
40
0
40
0
40
0
40
1
40
1
40
1
10
157.70330032706261
20
4.9703315496268452
30
-1.7347234759768071e-17
10
157.70330032706261
20
6.2890127897086323
30
-1.7347234759768071e-17
10
157.8076990544796
20
6.9758251905265034
30
-1.7347234759768071e-17
0
SPLINE
5
350
100
AcDbEntity
8
0
100
AcDbSpline
70
0
71
2
72
6
73
3
74
0
42
0.000000001
43
0.0000000001
44
0.0000000001
40
0
40
0
40
0
40
1
40
1
40
1
10
157.8076990544796
20
6.9758251905265034
30
-1.7347234759768071e-17
10
157.91208824515343
20
7.6626375913443745
30
-1.7347234759768071e-17
10
158.20879539847374
20
8.2340673208060444
30
-1.7347234759768071e-17
0
SPLINE
5
351
100
AcDbEntity
8
0
100
AcDbSpline
70
0
71
2
72
6
73
3
74
0
42
0.000000001
43
0.0000000001
44
0.0000000001
40
0
40
0
40
0
40
1
40
1
40
1
10
158.20879539847374
20
8.2340673208060444
30
-1.7347234759768071e-17
10
158.8131864964962
20
9.3989018201651753
30
-1.7347234759768071e-17
10
160.25274834036827
20
9.8054960965933979
30
-1.7347234759768071e-17
0
SPLINE
5
352
100
AcDbEntity
8
0
100
AcDbSpline
70
0
71
2
72
6
73
3
74
0
42
0.000000001
43
0.0000000001
44
0.0000000001
40
0
40
0
40
0
40
1
40
1
40
1
10
160.25274834036827
20
9.8054960965933979
30
-1.7347234759768071e-17
10
161.69231018424034
20
10.212090373021621
30
-1.7347234759768071e-17
10
165.24176201224327
20
10.223079085332412
30
-1.7347234759768071e-17
0
SPLINE
5
353
100
AcDbEntity
8
0
100
AcDbSpline
70
0
71
2
72
6
73
3
74
0
42
0.000000001
43
0.0000000001
44
0.0000000001
40
0
40
0
40
0
40
1
40
1
40
1
10
165.27473053336143
20
7.2230771779837788
30
-1.7347234759768071e-17
10
163.29670509696007
20
7.2230771779837788
30
-1.7347234759768071e-17
10
162.60439476370811
20
6.9153860807242573
30
-1.7347234759768071e-17
0
SPLINE
5
354
100
AcDbEntity
8
0
100
AcDbSpline
70
0
71
2
72
6
73
3
74
0
42
0.000000001
43
0.0000000001
44
0.0000000001
40
0
40
0
40
0
40
1
40
1
40
1
10
162.60439476370811
20
6.9153860807242573
30
-1.7347234759768071e-17
10
162.09890922904015
20
6.6846159696402729
30
-1.7347234759768071e-17
10
161.89011177420616
20
6.1461547612967671
30
-1.7347234759768071e-17
0
SPLINE
5
355
100
AcDbEntity
8
0
100
AcDbSpline
70
0
71
2
72
6
73
3
74
0
42
0.000000001
43
0.0000000001
44
0.0000000001
40
0
40
0
40
0
40
1
40
1
40
1
10
161.89011177420616
20
6.1461547612967671
30
-1.7347234759768071e-17
10
161.68132385611534
20
5.6076935529532612
30
-1.7347234759768071e-17
10
161.68132385611534
20
4.5527485608878315
30
-1.7347234759768071e-17
0
SPLINE
5
356
100
AcDbEntity
8
0
100
AcDbSpline
70
0
71
2
72
6
73
3
74
0
42
0.000000001
43
0.0000000001
44
0.0000000001
40
0
40
0
40
0
40
1
40
1
40
1
10
161.68132385611534
20
4.5527485608878315
30
-1.7347234759768071e-17
10
161.68132385611534
20
3.5087922811331929
30
-1.7347234759768071e-17
10
161.857143253088
20
3.0582431554618061
30
-1.7347234759768071e-17
0
SPLINE
5
357
100
AcDbEntity
8
0
100
AcDbSpline
70
0
71
2
72
6
73
3
74
0
42
0.000000001
43
0.0000000001
44
0.0000000001
40
0
40
0
40
0
40
1
40
1
40
1
10
161.857143253088
20
3.0582431554618061
30
-1.7347234759768071e-17
10
162.03297218680382
20
2.6076940297904194
30
-1.7347234759768071e-17
10
162.52748093008995
20
2.376923918706435
30
-1.7347234759768071e-17
0
SPLINE
5
358
100
AcDbEntity
8
0
100
AcDbSpline
70
0
71
2
72
6
73
3
74
0
42
0.000000001
43
0.0000000001
44
0.0000000001
40
0
40
0
40
0
40
1
40
1
40
1
10
162.52748093008995
20
2.376923918706435
30
-1.7347234759768071e-17
10
163.28571876883507
20
2.0252755880179585
30
-1.7347234759768071e-17
10
165.26374420523643
20
2.0252755880179585
30
-1.7347234759768071e-17
0
SPLINE
5
359
100
AcDbEntity
8
0
100
AcDbSpline
70
0
71
2
72
6
73
3
74
0
42
0.000000001
43
0.0000000001
44
0.0000000001
40
0
40
0
40
0
40
1
40
1
40
1
10
165.26374420523643
20
2.0252755880179585
30
-1.7347234759768071e-17
10
167.52748093008995
20
2.0252755880179585
30
-1.7347234759768071e-17
10
168.15934738516808
20
2.4978045224967182
30
-1.7347234759768071e-17
0
SPLINE
5
360
100
AcDbEntity
8
0
100
AcDbSpline
70
0
71
2
72
6
73
3
74
0
42
0.000000001
43
0.0000000001
44
0.0000000001
40
0
40
0
40
0
40
1
40
1
40
1
10
168.15934738516808
20
2.4978045224967182
30
-1.7347234759768071e-17
10
168.7912138402462
20
2.970331072789687
30
-1.7347234759768071e-17
10
168.7912138402462
20
4.6516493558707417
30
-1.7347234759768071e-17
0
SPLINE
5
361
100
AcDbEntity
8
0
100
AcDbSpline
70
0
71
2
72
6
73
3
74
0
42
0.000000001
43
0.0000000001
44
0.0000000001
40
0
40
0
40
0
40
1
40
1
40
1
10
168.7912138402462
20
4.6516493558707417
30
-1.7347234759768071e-17
10
168.7912138402462
20
5.7065943479361714
30
-1.7347234759768071e-17
10
168.59341225028038
20
6.1901119947257222
30
-1.7347234759768071e-17
0
SPLINE
5
362
100
AcDbEntity
8
0
100
AcDbSpline
70
0
71
2
72
6
73
3
74
0
42
0.000000001
43
0.0000000001
44
0.0000000001
40
0
40
0
40
0
40
1
40
1
40
1
10
168.59341225028038
20
6.1901119947257222
30
-1.7347234759768071e-17
10
168.39561066031456
20
6.6736272573294819
30
-1.7347234759768071e-17
10
167.87912926077843
20
6.8934086561026753
30
-1.7347234759768071e-17
0
SPLINE
5
363
100
AcDbEntity
8
0
100
AcDbSpline
70
0
71
2
72
6
73
3
74
0
42
0.000000001
43
0.0000000001
44
0.0000000001
40
0
40
0
40
0
40
1
40
1
40
1
10
167.87912926077843
20
6.8934086561026753
30
-1.7347234759768071e-17
10
167.12088188529015
20
7.2230771779837788
30
-1.7347234759768071e-17
10
165.27473053336143
20
7.2230771779837788
30
-1.7347234759768071e-17
0
LINE
5
364
100
AcDbEntity
8
0
100
AcDbLine
10
174.27472671866417
20
9.9483517408194722
30
-1.7347234759768071e-17
11
178.02198013663292
21
9.9483517408194722
31
-1.7347234759768071e-17
0
LINE
5
365
100
AcDbEntity
8
0
100
AcDbLine
10
178.02198013663292
20
9.9483517408194722
30
-1.7347234759768071e-17
11
178.02198013663292
21
8.3219794034781636
31
-1.7347234759768071e-17
0
LINE
5
366
100
AcDbEntity
8
0
100
AcDbLine
10
178.02198013663292
20
8.3219794034781636
30
-1.7347234759768071e-17
11
178.23076805472374
21
8.3219794034781636
31
-1.7347234759768071e-17
0
SPLINE
5
367
100
AcDbEntity
8
0
100
AcDbSpline
70
0
71
2
72
6
73
3
74
0
42
0.000000001
43
0.0000000001
44
0.0000000001
40
0
40
0
40
0
40
1
40
1
40
1
10
178.23076805472374
20
8.3219794034781636
30
-1.7347234759768071e-17
10
178.76923164725304
20
9.3659356832328022
30
-1.7347234759768071e-17
10
179.7967012822628
20
9.7945073842826069
30
-1.7347234759768071e-17
0
SPLINE
5
368
100
AcDbEntity
8
0
100
AcDbSpline
70
0
71
2
72
6
73
3
74
0
42
0.000000001
43
0.0000000001
44
0.0000000001
40
0
40
0
40
0
40
1
40
1
40
1
10
179.7967012822628
20
9.7945073842826069
30
-1.7347234759768071e-17
10
180.82418045401573
20
10.223076701146621
30
-1.7347234759768071e-17
10
182.74725517630577
20
10.223076701146621
30
-1.7347234759768071e-17
0
SPLINE
5
369
100
AcDbEntity
8
0
100
AcDbSpline
70
0
71
2
72
6
73
3
74
0
42
0.000000001
43
0.0000000001
44
0.0000000001
40
0
40
0
40
0
40
1
40
1
40
1
10
182.74725517630577
20
10.223076701146621
30
-1.7347234759768071e-17
10
184.65934357047081
20
10.223076701146621
30
-1.7347234759768071e-17
10
185.75274071097374
20
9.9208811521353901
30
-1.7347234759768071e-17
0
SPLINE
5
370
100
AcDbEntity
8
0
100
AcDbSpline
70
0
71
2
72
6
73
3
74
0
42
0.000000001
43
0.0000000001
44
0.0000000001
40
0
40
0
40
0
40
1
40
1
40
1
10
185.75274071097374
20
9.9208811521353901
30
-1.7347234759768071e-17
10
186.84614738821983
20
9.6186832189383686
30
-1.7347234759768071e-17
10
187.54944404959679
20
8.8824204206290425
30
-1.7347234759768071e-17
0
SPLINE
5
371
100
AcDbEntity
8
0
100
AcDbSpline
70
0
71
2
72
6
73
3
74
0
42
0.000000001
43
0.0000000001
44
0.0000000001
40
0
40
0
40
0
40
1
40
1
40
1
10
187.54944404959679
20
8.8824204206290425
30
-1.7347234759768071e-17
10
188.28571876883507
20
8.1351665258231343
30
-1.7347234759768071e-17
10
188.50550255179405
20
7.2340658902945698
30
-1.7347234759768071e-17
0
SPLINE
5
372
100
AcDbEntity
8
0
100
AcDbSpline
70
0
71
2
72
6
73
3
74
0
42
0.000000001
43
0.0000000001
44
0.0000000001
40
0
40
0
40
0
40
1
40
1
40
1
10
188.50550255179405
20
7.2340658902945698
30
-1.7347234759768071e-17
10
188.72526726126671
20
6.3329676389517964
30
-1.7347234759768071e-17
10
188.72526726126671
20
4.1351655721488179
30
-1.7347234759768071e-17
0
LINE
5
373
100
AcDbEntity
8
0
100
AcDbLine
10
188.72526726126671
20
4.1351655721488179
30
-1.7347234759768071e-17
11
188.72526726126671
21
-0.69999897481773488
31
-1.7347234759768071e-17
0
LINE
5
374
100
AcDbEntity
8
0
100
AcDbLine
10
188.72526726126671
20
-0.69999897481773488
30
-1.7347234759768071e-17
11
184.74725326895714
21
-0.69999897481773488
31
-1.7347234759768071e-17
0
LINE
5
375
100
AcDbEntity
8
0
100
AcDbLine
10
184.74725326895714
20
-0.69999897481773488
30
-1.7347234759768071e-17
11
184.74725326895714
21
4.1351655721488179
31
-1.7347234759768071e-17
0
SPLINE
5
376
100
AcDbEntity
8
0
100
AcDbSpline
70
0
71
2
72
6
73
3
74
0
42
0.000000001
43
0.0000000001
44
0.0000000001
40
0
40
0
40
0
40
1
40
1
40
1
10
184.74725326895714
20
4.1351655721488179
30
-1.7347234759768071e-17
10
184.74725326895714
20
5.4208806752982319
30
-1.7347234759768071e-17
10
184.65385040640831
20
5.8769253492179097
30
-1.7347234759768071e-17
0
SPLINE
5
377
100
AcDbEntity
8
0
100
AcDbSpline
70
0
71
2
72
6
73
3
74
0
42
0.000000001
43
0.0000000001
44
0.0000000001
40
0
40
0
40
0
40
1
40
1
40
1
10
184.65385040640831
20
5.8769253492179097
30
-1.7347234759768071e-17
10
184.56043800711632
20
6.3329676389517964
30
-1.7347234759768071e-17
10
184.24175819754601
20
6.6516498327078999
30
-1.7347234759768071e-17
0
SPLINE
5
378
100
AcDbEntity
8
0
100
AcDbSpline
70
0
71
2
72
6
73
3
74
0
42
0.000000001
43
0.0000000001
44
0.0000000001
40
0
40
0
40
0
40
1
40
1
40
1
10
184.24175819754601
20
6.6516498327078999
30
-1.7347234759768071e-17
10
183.65933975577354
20
7.2230795621695698
30
-1.7347234759768071e-17
10
181.57143196463585
20
7.2230795621695698
30
-1.7347234759768071e-17
0
SPLINE
5
379
100
AcDbEntity
8
0
100
AcDbSpline
70
0
71
2
72
6
73
3
74
0
42
0.000000001
43
0.0000000001
44
0.0000000001
40
0
40
0
40
0
40
1
40
1
40
1
10
181.57143196463585
20
7.2230795621695698
30
-1.7347234759768071e-17
10
179.50549682974815
20
7.2230795621695698
30
-1.7347234759768071e-17
10
178.83516868948936
20
6.5197829007926167
30
-1.7347234759768071e-17
0
SPLINE
5
380
100
AcDbEntity
8
0
100
AcDbSpline
70
0
71
2
72
6
73
3
74
0
42
0.000000001
43
0.0000000001
44
0.0000000001
40
0
40
0
40
0
40
1
40
1
40
1
10
178.83516868948936
20
6.5197829007926167
30
-1.7347234759768071e-17
10
178.47252449393272
20
6.1351660489859761
30
-1.7347234759768071e-17
10
178.3626421391964
20
5.5747274160208882
30
-1.7347234759768071e-17
0
SPLINE
5
381
100
AcDbEntity
8
0
100
AcDbSpline
70
0
71
2
72
6
73
3
74
0
42
0.000000001
43
0.0000000001
44
0.0000000001
40
0
40
0
40
0
40
1
40
1
40
1
10
178.3626421391964
20
5.5747274160208882
30
-1.7347234759768071e-17
10
178.2527502477169
20
5.0142863988700093
30
-1.7347234759768071e-17
10
178.2527502477169
20
3.5527495145621479
30
-1.7347234759768071e-17
0
LINE
5
382
100
AcDbEntity
8
0
100
AcDbLine
10
178.2527502477169
20
3.5527495145621479
30
-1.7347234759768071e-17
11
178.2527502477169
21
-0.69999897481773488
31
-1.7347234759768071e-17
0
LINE
5
383
100
AcDbEntity
8
0
100
AcDbLine
10
178.2527502477169
20
-0.69999897481773488
30
-1.7347234759768071e-17
11
174.27472671866417
21
-0.69999897481773488
31
-1.7347234759768071e-17
0
LINE
5
384
100
AcDbEntity
8
0
100
AcDbLine
10
174.27472671866417
20
-0.69999897481773488
30
-1.7347234759768071e-17
11
174.27472671866417
21
9.9483517408194722
31
-1.7347234759768071e-17
0
ENDSEC
0
SECTION
2
OBJECTS
0
DICTIONARY
5
C
100
AcDbDictionary
3
ACAD_GROUP
350
D
3
ACAD_MLINESTYLE
350
17
0
DICTIONARY
5
D
100
AcDbDictionary
0
DICTIONARY
5
1A
330
C
100
AcDbDictionary
0
DICTIONARY
5
17
100
AcDbDictionary
0
ENDSEC
0
EOF
